<svg width="18" height="22" viewBox="0 0 18 22" fill="none" xmlns="http://www.w3.org/2000/svg">
<g id="elements">
<path id="Ellipse 1592 (Stroke)" d="M4.97559 16.5304C5.09687 17.0692 4.7584 17.6043 4.2196 17.7256C3.35214 17.9208 2.71016 18.1546 2.31073 18.3832C2.23079 18.4289 2.16903 18.4691 2.12159 18.5033C2.13958 18.5163 2.15957 18.5301 2.18177 18.5449C2.46383 18.7321 2.93794 18.9396 3.61348 19.1293C4.95067 19.5047 6.85544 19.75 9 19.75C11.1446 19.75 13.0493 19.5047 14.3865 19.1293C15.0621 18.9396 15.5362 18.7321 15.8182 18.5449C15.8404 18.5302 15.8604 18.5163 15.8784 18.5033C15.831 18.4691 15.7692 18.4289 15.6893 18.3832C15.2898 18.1546 14.6479 17.9208 13.7804 17.7256C13.2416 17.6043 12.9031 17.0692 13.0244 16.5304C13.1457 15.9916 13.6808 15.6531 14.2196 15.7744C15.1811 15.9908 16.0391 16.2791 16.6824 16.6472C17.2542 16.9743 18 17.567 18 18.5036C18 19.3295 17.4136 19.8864 16.9244 20.2111C16.3968 20.5614 15.6994 20.838 14.9272 21.0548C13.3689 21.4923 11.2737 21.75 9 21.75C6.72629 21.75 4.63105 21.4923 3.07281 21.0548C2.30063 20.838 1.60317 20.5614 1.07559 20.2111C0.586445 19.8864 0 19.3295 0 18.5036C0 17.567 0.745788 16.9743 1.31758 16.6472C1.96092 16.2791 2.81894 15.9908 3.7804 15.7744C4.31921 15.6531 4.85431 15.9916 4.97559 16.5304Z" fill="#13A62E"/>
<path id="Subtract" fill-rule="evenodd" clip-rule="evenodd" d="M9.00053 0.25C5.94965 0.25 3.05208 2.10493 1.84158 5.01574C0.714639 7.72562 1.32729 10.035 2.59274 12.0023C3.62554 13.6079 5.13245 15.0411 6.47688 16.3198C6.73237 16.5628 6.98199 16.8002 7.22137 17.0322L7.223 17.0338C7.70034 17.4935 8.33774 17.75 9.00053 17.75C9.66331 17.75 10.3008 17.4935 10.7781 17.0337C11.0042 16.8159 11.2392 16.5932 11.4795 16.3655L11.4802 16.3648L11.4806 16.3645C12.8394 15.0769 14.367 13.6292 15.4106 12.0032C16.6745 10.034 17.285 7.72228 16.1595 5.01574C14.949 2.10493 12.0514 0.25 9.00053 0.25ZM9 5C7.34315 5 6 6.34315 6 8C6 9.65685 7.34315 11 9 11C10.6569 11 12 9.65685 12 8C12 6.34315 10.6569 5 9 5Z" fill="#FF4266"/>
</g>
</svg>
