<svg width="24" height="24" viewBox="0 0 24 24" fill="none" xmlns="http://www.w3.org/2000/svg">
<g clip-path="url(#clip0_17663_146865)">
<path d="M21.6014 7.15453C21.4883 6.72904 21.2654 6.34071 20.9551 6.02841C20.6448 5.7161 20.2579 5.49078 19.8332 5.37498C18.2695 4.95453 12.0195 4.95453 12.0195 4.95453C12.0195 4.95453 5.76953 4.95453 4.20589 5.37498C3.78114 5.49078 3.39425 5.7161 3.08394 6.02841C2.77363 6.34071 2.55079 6.72904 2.43771 7.15453C2.01953 8.72498 2.01953 12 2.01953 12C2.01953 12 2.01953 15.275 2.43771 16.8454C2.55079 17.2709 2.77363 17.6593 3.08394 17.9716C3.39425 18.2839 3.78114 18.5092 4.20589 18.625C5.76953 19.0454 12.0195 19.0454 12.0195 19.0454C12.0195 19.0454 18.2695 19.0454 19.8332 18.625C20.2579 18.5092 20.6448 18.2839 20.9551 17.9716C21.2654 17.6593 21.4883 17.2709 21.6014 16.8454C22.0195 15.275 22.0195 12 22.0195 12C22.0195 12 22.0195 8.72498 21.6014 7.15453Z" fill="#FF0302"/>
<path d="M9.97461 14.9739V9.02618L15.2019 12L9.97461 14.9739Z" fill="#FEFEFE"/>
</g>
<defs>
<clipPath id="clip0_17663_146865">
<rect width="20" height="20" fill="white" transform="translate(2 2)"/>
</clipPath>
</defs>
</svg>
