<svg width="20" height="22" viewBox="0 0 20 22" fill="none" xmlns="http://www.w3.org/2000/svg">
<path d="M12.2501 5.57143C12.2501 3.73705 13.7371 2.25 15.5715 2.25C16.2224 2.25 16.7501 2.77766 16.7501 3.42857V7.05573C16.7501 7.64665 16.9385 8.19983 17.2486 8.82001C17.7202 9.76316 17.8277 10.8193 17.8349 11.7912C17.8385 12.2814 17.8162 12.7713 17.7942 13.2299C17.7732 13.6668 17.7501 14.1472 17.7501 14.5279C17.7501 15.0745 18.0057 15.7281 18.4174 16.4838C18.5979 16.815 18.8606 17.2522 19.0592 17.5829C19.2753 17.9429 19.4953 18.3133 19.6709 18.6646C19.7726 18.8681 19.7765 19.1067 19.6814 19.3134C19.5864 19.5201 19.4027 19.6724 19.182 19.7276L11.182 21.7276C10.8745 21.8045 10.5518 21.6798 10.376 21.416L9.61492 20.2744C9.51651 20.1267 9.3878 20.0018 9.23736 19.9077L5.60256 17.636C5.31884 17.4587 5.18689 17.1149 5.27913 16.7932C5.37136 16.4716 5.66548 16.25 6.00006 16.25H9.00006C9.96407 16.25 10.6116 16.2484 11.0947 16.1835C11.5561 16.1214 11.7536 16.0142 11.8839 15.8839C12.0143 15.7536 12.1215 15.5561 12.1835 15.0946C12.2485 14.6116 12.2501 13.964 12.2501 13V5.57143Z" fill="#FFC5B0"/>
<path fill-rule="evenodd" clip-rule="evenodd" d="M7.94612 0.250001H8.0535C9.18634 0.249976 10.1121 0.249957 10.8429 0.348219C11.6069 0.450929 12.2692 0.673211 12.7979 1.2019C13.3266 1.7306 13.5489 2.39294 13.6516 3.15689C13.7499 3.88775 13.7498 4.81348 13.7498 5.94631V12.0537C13.7498 13.1865 13.7499 14.1123 13.6516 14.8431C13.5489 15.6071 13.3266 16.2694 12.7979 16.7981C12.2692 17.3268 11.6069 17.5491 10.8429 17.6518C10.1121 17.75 9.18633 17.75 8.0535 17.75H7.94612C6.81329 17.75 5.88756 17.75 5.1567 17.6518C4.39274 17.5491 3.73041 17.3268 3.20171 16.7981C2.50085 16.0972 2.33402 15.1553 2.27829 14.0373C2.25767 13.6236 2.57632 13.2716 2.99002 13.2509C3.40372 13.2303 3.75581 13.549 3.77643 13.9627C3.83004 15.0382 3.98949 15.4646 4.26237 15.7374C4.46591 15.941 4.75895 16.0848 5.35657 16.1652C5.97576 16.2484 6.8001 16.25 7.99981 16.25C9.19952 16.25 10.0239 16.2484 10.6431 16.1652C11.2407 16.0848 11.5337 15.941 11.7372 15.7374C11.9408 15.5339 12.0846 15.2409 12.165 14.6432C12.2482 14.0241 12.2498 13.1997 12.2498 12V6C12.2498 4.80029 12.2482 3.97595 12.165 3.35676C12.0846 2.75914 11.9408 2.4661 11.7372 2.26256C11.5337 2.05902 11.2407 1.91519 10.6431 1.83484C10.0239 1.75159 9.19952 1.75 7.99981 1.75C6.8001 1.75 5.97576 1.75159 5.35657 1.83484C4.75895 1.91519 4.46591 2.05902 4.26237 2.26256C3.98949 2.53545 3.83004 2.96181 3.77643 4.03734C3.75581 4.45104 3.40372 4.76969 2.99002 4.74907C2.57632 4.72845 2.25767 4.37636 2.27829 3.96266C2.33402 2.84474 2.50085 1.90276 3.20171 1.2019C3.73041 0.673211 4.39274 0.450929 5.1567 0.348219C5.88756 0.249957 6.81329 0.249976 7.94612 0.250001Z" fill="#FF6D3A"/>
<path fill-rule="evenodd" clip-rule="evenodd" d="M7 14C7 13.4477 7.44571 13 7.99553 13H8.00447C8.55429 13 9 13.4477 9 14C9 14.5523 8.55429 15 8.00447 15H7.99553C7.44571 15 7 14.5523 7 14Z" fill="#FF6D3A"/>
<path d="M1.34544 5.42566H4.65456C5.25535 5.42566 5.74239 4.93862 5.74239 4.33783C5.74239 3.73704 5.25535 3.25 4.65456 3.25H1.34544C0.744646 3.25 0.257608 3.73704 0.257608 4.33783C0.257608 4.93862 0.744645 5.42566 1.34544 5.42566Z" fill="#191F51"/>
<path d="M5.66216 6.35809H1.33828C0.737488 6.35809 0.250447 6.84513 0.250447 7.44593C0.250447 8.04673 0.737487 8.53377 1.33828 8.53377L5.66216 8.53377C6.26296 8.53377 6.75 8.04673 6.75 7.44593C6.75 6.84513 6.26296 6.35809 5.66216 6.35809Z" fill="#191F51"/>
<path d="M4.66216 9.4662H1.33784C0.737041 9.4662 0.25 9.95324 0.25 10.554C0.25 11.1548 0.737041 11.6419 1.33784 11.6419H4.66216C5.26296 11.6419 5.75 11.1548 5.75 10.554C5.75 9.95324 5.26296 9.4662 4.66216 9.4662Z" fill="#191F51"/>
<path d="M1.34537 12.5743H4.15454C4.75534 12.5743 5.24239 13.0614 5.24239 13.6622C5.24239 14.263 4.75534 14.75 4.15454 14.75H1.34537C0.744532 14.75 0.257473 14.2629 0.257522 13.6621C0.257571 13.0613 0.744603 12.5743 1.34537 12.5743Z" fill="#191F51"/>
</svg>
