<svg width="24" height="24" viewBox="0 0 24 24" fill="none" xmlns="http://www.w3.org/2000/svg">
<g clip-path="url(#clip0_17663_145926)">
<path d="M7.26529 18.3163V2.9601L6.6286 2.53564C3.91511 3.62205 2 6.26985 2 9.36738V14.6327C2 18.7004 5.29965 22 9.36736 22H14.6326C17.1187 22 19.3067 20.762 20.6407 18.8772V18.3163H7.26529Z" fill="#2962FF"/>
<path d="M14.6323 2H9.36698C8.39679 2 7.47208 2.19202 6.62317 2.53562C4.86975 4.2385 3.57617 7.01769 3.57617 9.37241C3.57617 12.9348 4.06632 15.0217 5.5317 17.0632C5.64287 17.2198 5.71867 17.4068 5.72877 17.5988C5.74899 18.0384 5.66308 18.8418 4.86975 19.5695C4.78385 19.6453 4.83944 19.7918 4.95566 19.7969C5.45086 19.8171 6.45136 19.7918 7.48219 19.337C7.77526 19.2057 8.10876 19.2309 8.39174 19.3825C10.135 20.3072 12.1765 20.4336 14.1067 20.4336C16.5676 20.4336 19.0234 19.8878 20.6403 18.8974C21.4943 17.6948 21.9996 16.2294 21.9996 14.6427V9.37746C21.9996 5.30975 18.7 2.01011 14.6323 2.01011V2Z" fill="#EEEEEE"/>
<path d="M18.7101 13.5816C17.6237 13.5816 16.7344 12.6973 16.7344 11.6059C16.7344 10.5144 17.6187 9.63013 18.7101 9.63013C19.8016 9.63013 20.6859 10.5144 20.6859 11.6059C20.6859 12.6973 19.8016 13.5816 18.7101 13.5816ZM18.7101 10.4235C18.0583 10.4235 17.5277 10.954 17.5277 11.6059C17.5277 12.2577 18.0583 12.7883 18.7101 12.7883C19.362 12.7883 19.8925 12.2577 19.8925 11.6059C19.8925 10.954 19.362 10.4235 18.7101 10.4235Z" fill="#2962FF"/>
<path d="M15.9465 13.5816H15.421C15.2744 13.5816 15.1582 13.4654 15.1582 13.3188V8.84686H15.9465V13.5816Z" fill="#2962FF"/>
<path d="M13.582 9.76151V10.0344C13.2485 9.78172 12.8442 9.63013 12.3996 9.63013C11.3132 9.63013 10.4238 10.5144 10.4238 11.6059C10.4238 12.6973 11.3081 13.5816 12.3996 13.5816C12.8442 13.5816 13.2535 13.425 13.582 13.1774V13.3189C13.582 13.4654 13.6982 13.5816 13.8447 13.5816H14.3703V9.76656H13.582V9.76151ZM12.3996 12.7883C11.7477 12.7883 11.2172 12.2577 11.2172 11.6059C11.2172 10.954 11.7477 10.4235 12.3996 10.4235C13.0514 10.4235 13.582 10.954 13.582 11.6059C13.582 12.2577 13.0514 12.7883 12.3996 12.7883Z" fill="#2962FF"/>
<path d="M10.554 8.84186H6.34479V9.63013H9.14418L6.21341 13.0511H6.22857C6.14267 13.1622 6.08203 13.2936 6.08203 13.4452V13.5766H10.0285C10.175 13.5766 10.2912 13.4604 10.2912 13.3138V12.7883H7.49183L10.4226 9.36738H10.4074C10.4933 9.25621 10.554 9.12483 10.554 8.97324V8.84186Z" fill="#2962FF"/>
</g>
<defs>
<clipPath id="clip0_17663_145926">
<rect width="20" height="20" fill="white" transform="translate(2 2)"/>
</clipPath>
</defs>
</svg>
