<svg width="585" height="144" viewBox="0 0 585 144" fill="none" xmlns="http://www.w3.org/2000/svg">
<g clipPath="url(#clip0_24723_202652)">
<path d="M440.968 104.06C435.121 103.31 433.116 102.155 427.198 101.393L427.823 93.6633C428.665 91.2999 427.599 87.1836 427.198 86.223C423.402 91.0479 419.452 86.3982 416.893 91.9286C413.38 82.7182 409.27 84.6393 401.849 78C402.882 88.7316 394.812 88.2797 399.75 97.2857C391.795 94.4952 394.674 103.678 386 105.283C390.969 110.32 395.474 109.697 402.256 112.337C399.45 115.63 398.298 123.089 396.289 126.715L410.269 119.826C411.358 119.437 412.049 120.023 412.224 121.101C412.391 122.125 412.558 123.148 412.721 124.169C413.205 127.222 414.279 130.046 415.433 133C417.523 128.585 417.733 124.116 418.126 119.524C423.496 121.571 428.572 123.876 434.664 123.912C432.415 118.692 430.599 115.802 427.358 111.228C432.406 109.401 436.127 106.001 441 104.239C440.987 104.181 440.977 104.119 440.968 104.06Z" fill="#565FCC"/>
</g>
<path d="M6.08089 42.0665C0.346171 43.9845 -4.10048 77.6652 6.08047 97.8361C34.2403 96.2707 82.7286 98.7081 117.155 100.439L117.156 100.439C132.727 101.221 145.421 101.86 152.056 101.917L196.732 101.451C196.016 113.38 196.579 129.468 199.832 141.08C199.832 141.08 401.9 147.232 404 139.5C415 99.0002 432.5 48.5002 432.5 48.5002C432.5 48.5002 331.018 44.2683 263.706 45.5908C212.249 46.6017 162.601 47.5771 144.757 46.5948C103.571 44.3275 11.8156 40.1485 6.08089 42.0665Z" fill="#FF6D3B"/>
<path d="M21.48 37.32C20.7067 37.32 20.1067 37.1067 19.68 36.68C19.28 36.2533 19.08 35.64 19.08 34.84V11.04C19.08 10.2133 19.28 9.58667 19.68 9.16C20.1067 8.70666 20.6533 8.48 21.32 8.48C21.9333 8.48 22.3867 8.6 22.68 8.84C23 9.05333 23.3733 9.42666 23.8 9.96L39.12 29.84H38.08V10.92C38.08 10.1467 38.28 9.54666 38.68 9.12C39.1067 8.69333 39.7067 8.48 40.48 8.48C41.2533 8.48 41.84 8.69333 42.24 9.12C42.64 9.54666 42.84 10.1467 42.84 10.92V34.92C42.84 35.6667 42.6533 36.2533 42.28 36.68C41.9067 37.1067 41.4 37.32 40.76 37.32C40.1467 37.32 39.6533 37.2 39.28 36.96C38.9333 36.72 38.5467 36.3333 38.12 35.8L22.84 15.92H23.84V34.84C23.84 35.64 23.64 36.2533 23.24 36.68C22.84 37.1067 22.2533 37.32 21.48 37.32ZM58.1619 37.4C55.9485 37.4 54.0419 36.9867 52.4419 36.16C50.8419 35.3333 49.6019 34.16 48.7219 32.64C47.8685 31.12 47.4419 29.32 47.4419 27.24C47.4419 25.2133 47.8552 23.44 48.6819 21.92C49.5352 20.4 50.6952 19.2133 52.1619 18.36C53.6552 17.48 55.3485 17.04 57.2419 17.04C58.6285 17.04 59.8685 17.2667 60.9619 17.72C62.0819 18.1733 63.0285 18.8267 63.8019 19.68C64.6019 20.5333 65.2019 21.5733 65.6019 22.8C66.0285 24 66.2419 25.36 66.2419 26.88C66.2419 27.36 66.0685 27.7333 65.7219 28C65.4019 28.24 64.9352 28.36 64.3219 28.36H51.4819V25.48H62.7219L62.0819 26.08C62.0819 24.8533 61.8952 23.8267 61.5219 23C61.1752 22.1733 60.6552 21.5467 59.9619 21.12C59.2952 20.6667 58.4552 20.44 57.4419 20.44C56.3219 20.44 55.3619 20.7067 54.5619 21.24C53.7885 21.7467 53.1885 22.48 52.7619 23.44C52.3619 24.3733 52.1619 25.4933 52.1619 26.8V27.08C52.1619 29.2667 52.6685 30.9067 53.6819 32C54.7219 33.0667 56.2419 33.6 58.2419 33.6C58.9352 33.6 59.7085 33.52 60.5619 33.36C61.4419 33.1733 62.2685 32.8667 63.0419 32.44C63.6019 32.12 64.0952 31.9867 64.5219 32.04C64.9485 32.0667 65.2819 32.2133 65.5219 32.48C65.7885 32.7467 65.9485 33.08 66.0019 33.48C66.0552 33.8533 65.9752 34.24 65.7619 34.64C65.5752 35.04 65.2419 35.3867 64.7619 35.68C63.8285 36.2667 62.7485 36.7067 61.5219 37C60.3219 37.2667 59.2019 37.4 58.1619 37.4ZM54.0419 14.68C53.7219 15.0267 53.3752 15.2267 53.0019 15.28C52.6552 15.3333 52.3352 15.2667 52.0419 15.08C51.7752 14.8933 51.6019 14.64 51.5219 14.32C51.4419 13.9733 51.5352 13.6 51.8019 13.2L54.4019 9.32C54.8019 8.73333 55.2285 8.33333 55.6819 8.12C56.1619 7.88 56.6952 7.76 57.2819 7.76C57.6819 7.76 58.0552 7.81333 58.4019 7.92C58.7485 8 59.0685 8.16 59.3619 8.4C59.6552 8.61333 59.9219 8.92 60.1619 9.32L62.7619 13.2C63.0285 13.6 63.1219 13.9733 63.0419 14.32C62.9885 14.64 62.8285 14.8933 62.5619 15.08C62.2952 15.2667 61.9752 15.3333 61.6019 15.28C61.2285 15.2267 60.8819 15.0267 60.5619 14.68L57.2819 11.04L54.0419 14.68ZM63.4419 10.84L60.2019 6.72C59.9085 6.34667 59.7752 5.98667 59.8019 5.64C59.8285 5.26667 59.9485 4.96 60.1619 4.72C60.4019 4.45333 60.6952 4.28 61.0419 4.2C61.3885 4.09333 61.7352 4.10666 62.0819 4.24C62.4285 4.34666 62.7219 4.61333 62.9619 5.04L65.4419 9.44C65.6552 9.84 65.7219 10.2 65.6419 10.52C65.5619 10.8133 65.3885 11.04 65.1219 11.2C64.8819 11.36 64.6019 11.4267 64.2819 11.4C63.9619 11.3467 63.6819 11.16 63.4419 10.84ZM72.6816 37.32C71.8816 37.32 71.2682 37.1067 70.8416 36.68C70.4149 36.2267 70.2016 35.5867 70.2016 34.76V19.64C70.2016 18.8133 70.4149 18.1867 70.8416 17.76C71.2682 17.3333 71.8682 17.12 72.6416 17.12C73.4149 17.12 74.0149 17.3333 74.4416 17.76C74.8682 18.1867 75.0816 18.8133 75.0816 19.64V22.36L74.6416 21.36C75.2282 19.9467 76.1349 18.88 77.3616 18.16C78.6149 17.4133 80.0282 17.04 81.6016 17.04C83.1749 17.04 84.4682 17.3333 85.4816 17.92C86.4949 18.5067 87.2549 19.4 87.7616 20.6C88.2682 21.7733 88.5216 23.2667 88.5216 25.08V34.76C88.5216 35.5867 88.3082 36.2267 87.8816 36.68C87.4549 37.1067 86.8416 37.32 86.0416 37.32C85.2416 37.32 84.6149 37.1067 84.1616 36.68C83.7349 36.2267 83.5216 35.5867 83.5216 34.76V25.32C83.5216 23.8 83.2282 22.6933 82.6416 22C82.0816 21.3067 81.2016 20.96 80.0016 20.96C78.5349 20.96 77.3616 21.4267 76.4816 22.36C75.6282 23.2667 75.2016 24.48 75.2016 26V34.76C75.2016 36.4667 74.3616 37.32 72.6816 37.32ZM113.419 37.4C111.686 37.4 110.233 37.1067 109.059 36.52C107.913 35.9333 107.059 35.08 106.499 33.96C105.939 32.8133 105.659 31.4 105.659 29.72V21.2H103.579C102.939 21.2 102.446 21.04 102.099 20.72C101.753 20.3733 101.579 19.9067 101.579 19.32C101.579 18.7067 101.753 18.24 102.099 17.92C102.446 17.6 102.939 17.44 103.579 17.44H105.659V13.8C105.659 12.9733 105.873 12.3467 106.299 11.92C106.753 11.4933 107.379 11.28 108.179 11.28C108.979 11.28 109.593 11.4933 110.019 11.92C110.446 12.3467 110.659 12.9733 110.659 13.8V17.44H114.899C115.539 17.44 116.033 17.6 116.379 17.92C116.726 18.24 116.899 18.7067 116.899 19.32C116.899 19.9067 116.726 20.3733 116.379 20.72C116.033 21.04 115.539 21.2 114.899 21.2H110.659V29.44C110.659 30.72 110.939 31.68 111.499 32.32C112.059 32.96 112.966 33.28 114.219 33.28C114.673 33.28 115.073 33.24 115.419 33.16C115.766 33.08 116.073 33.0267 116.339 33C116.659 32.9733 116.926 33.08 117.139 33.32C117.353 33.5333 117.459 33.9867 117.459 34.68C117.459 35.2133 117.366 35.6933 117.179 36.12C117.019 36.52 116.713 36.8 116.259 36.96C115.913 37.0667 115.459 37.16 114.899 37.24C114.339 37.3467 113.846 37.4 113.419 37.4ZM126.251 37.4C124.838 37.4 123.571 37.1333 122.451 36.6C121.358 36.04 120.491 35.2933 119.851 34.36C119.238 33.4267 118.931 32.3733 118.931 31.2C118.931 29.76 119.304 28.6267 120.051 27.8C120.798 26.9467 122.011 26.3333 123.691 25.96C125.371 25.5867 127.624 25.4 130.451 25.4H132.451V28.28H130.491C128.838 28.28 127.518 28.36 126.531 28.52C125.544 28.68 124.838 28.96 124.411 29.36C124.011 29.7333 123.811 30.2667 123.811 30.96C123.811 31.84 124.118 32.56 124.731 33.12C125.344 33.68 126.198 33.96 127.291 33.96C128.171 33.96 128.944 33.76 129.611 33.36C130.304 32.9333 130.851 32.36 131.251 31.64C131.651 30.92 131.851 30.0933 131.851 29.16V24.56C131.851 23.2267 131.558 22.2667 130.971 21.68C130.384 21.0933 129.398 20.8 128.011 20.8C127.238 20.8 126.398 20.8933 125.491 21.08C124.611 21.2667 123.678 21.5867 122.691 22.04C122.184 22.28 121.731 22.3467 121.331 22.24C120.958 22.1333 120.664 21.92 120.451 21.6C120.238 21.2533 120.131 20.88 120.131 20.48C120.131 20.08 120.238 19.6933 120.451 19.32C120.664 18.92 121.024 18.6267 121.531 18.44C122.758 17.9333 123.931 17.5733 125.051 17.36C126.198 17.1467 127.238 17.04 128.171 17.04C130.091 17.04 131.664 17.3333 132.891 17.92C134.144 18.5067 135.078 19.4 135.691 20.6C136.304 21.7733 136.611 23.2933 136.611 25.16V34.76C136.611 35.5867 136.411 36.2267 136.011 36.68C135.611 37.1067 135.038 37.32 134.291 37.32C133.544 37.32 132.958 37.1067 132.531 36.68C132.131 36.2267 131.931 35.5867 131.931 34.76V32.84H132.251C132.064 33.7733 131.691 34.5867 131.131 35.28C130.598 35.9467 129.918 36.4667 129.091 36.84C128.264 37.2133 127.318 37.4 126.251 37.4ZM128.371 15.16C127.891 15.16 127.518 15.0667 127.251 14.88C126.984 14.6933 126.851 14.4267 126.851 14.08C126.851 13.4933 126.958 13.0133 127.171 12.64C127.411 12.24 127.678 11.9067 127.971 11.64C128.264 11.3467 128.518 11.08 128.731 10.84C128.971 10.5733 129.091 10.2667 129.091 9.92C129.091 9.57333 128.958 9.32 128.691 9.16C128.424 9 128.024 8.92 127.491 8.92C127.278 8.92 127.051 8.93333 126.811 8.96C126.571 8.98666 126.318 9.04 126.051 9.12C125.598 9.25333 125.238 9.29333 124.971 9.24C124.731 9.16 124.544 8.94667 124.411 8.6C124.278 8.22667 124.264 7.90667 124.371 7.64C124.504 7.34666 124.798 7.10666 125.251 6.92C125.731 6.73333 126.251 6.6 126.811 6.52C127.398 6.44 127.998 6.4 128.611 6.4C129.944 6.4 130.984 6.65333 131.731 7.16C132.504 7.64 132.891 8.34667 132.891 9.28C132.891 9.94667 132.731 10.4933 132.411 10.92C132.118 11.32 131.771 11.6667 131.371 11.96C130.998 12.2533 130.651 12.5733 130.331 12.92C130.038 13.24 129.891 13.6533 129.891 14.16C129.891 14.48 129.758 14.7333 129.491 14.92C129.251 15.08 128.878 15.16 128.371 15.16ZM144.166 37.32C143.366 37.32 142.753 37.1067 142.326 36.68C141.899 36.2267 141.686 35.5867 141.686 34.76V19.64C141.686 18.8133 141.899 18.1867 142.326 17.76C142.753 17.3333 143.353 17.12 144.126 17.12C144.899 17.12 145.499 17.3333 145.926 17.76C146.353 18.1867 146.566 18.8133 146.566 19.64V22.36L146.126 21.36C146.713 19.9467 147.619 18.88 148.846 18.16C150.099 17.4133 151.513 17.04 153.086 17.04C154.659 17.04 155.953 17.3333 156.966 17.92C157.979 18.5067 158.739 19.4 159.246 20.6C159.753 21.7733 160.006 23.2667 160.006 25.08V34.76C160.006 35.5867 159.793 36.2267 159.366 36.68C158.939 37.1067 158.326 37.32 157.526 37.32C156.726 37.32 156.099 37.1067 155.646 36.68C155.219 36.2267 155.006 35.5867 155.006 34.76V25.32C155.006 23.8 154.713 22.6933 154.126 22C153.566 21.3067 152.686 20.96 151.486 20.96C150.019 20.96 148.846 21.4267 147.966 22.36C147.113 23.2667 146.686 24.48 146.686 26V34.76C146.686 36.4667 145.846 37.32 144.166 37.32ZM174.204 44.6C172.764 44.6 171.364 44.4667 170.004 44.2C168.671 43.9333 167.458 43.52 166.364 42.96C165.858 42.6933 165.511 42.3733 165.324 42C165.164 41.6267 165.111 41.24 165.164 40.84C165.244 40.4667 165.404 40.1333 165.644 39.84C165.911 39.5467 166.231 39.3467 166.604 39.24C166.978 39.1333 167.364 39.1867 167.764 39.4C168.938 39.9867 170.044 40.36 171.084 40.52C172.151 40.7067 173.058 40.8 173.804 40.8C175.591 40.8 176.924 40.36 177.804 39.48C178.711 38.6267 179.164 37.3467 179.164 35.64V32.04H179.524C179.124 33.4 178.284 34.4933 177.004 35.32C175.751 36.12 174.324 36.52 172.724 36.52C170.964 36.52 169.431 36.12 168.124 35.32C166.818 34.4933 165.804 33.3467 165.084 31.88C164.364 30.4133 164.004 28.7067 164.004 26.76C164.004 25.2933 164.204 23.9733 164.604 22.8C165.031 21.6 165.618 20.5733 166.364 19.72C167.138 18.8667 168.058 18.2133 169.124 17.76C170.218 17.28 171.418 17.04 172.724 17.04C174.378 17.04 175.818 17.4533 177.044 18.28C178.298 19.08 179.111 20.1467 179.484 21.48L179.084 22.48V19.64C179.084 18.8133 179.298 18.1867 179.724 17.76C180.178 17.3333 180.791 17.12 181.564 17.12C182.364 17.12 182.978 17.3333 183.404 17.76C183.831 18.1867 184.044 18.8133 184.044 19.64V35.04C184.044 38.2133 183.204 40.6 181.524 42.2C179.844 43.8 177.404 44.6 174.204 44.6ZM174.084 32.72C175.124 32.72 176.018 32.48 176.764 32C177.511 31.52 178.084 30.84 178.484 29.96C178.911 29.0533 179.124 27.9867 179.124 26.76C179.124 24.92 178.671 23.48 177.764 22.44C176.858 21.3733 175.631 20.84 174.084 20.84C173.044 20.84 172.151 21.08 171.404 21.56C170.658 22.04 170.071 22.72 169.644 23.6C169.244 24.48 169.044 25.5333 169.044 26.76C169.044 28.6 169.498 30.0533 170.404 31.12C171.311 32.1867 172.538 32.72 174.084 32.72ZM21.08 133.32C20.28 133.32 19.6667 133.107 19.24 132.68C18.8133 132.227 18.6 131.587 18.6 130.76V107C18.6 106.173 18.8133 105.547 19.24 105.12C19.6667 104.693 20.28 104.48 21.08 104.48C21.88 104.48 22.4933 104.693 22.92 105.12C23.3733 105.547 23.6 106.173 23.6 107V117.36H23.04C23.6267 115.947 24.5333 114.88 25.76 114.16C27.0133 113.413 28.4267 113.04 30 113.04C31.5733 113.04 32.8667 113.333 33.88 113.92C34.8933 114.507 35.6533 115.4 36.16 116.6C36.6667 117.773 36.92 119.267 36.92 121.08V130.76C36.92 131.587 36.7067 132.227 36.28 132.68C35.8533 133.107 35.24 133.32 34.44 133.32C33.64 133.32 33.0133 133.107 32.56 132.68C32.1333 132.227 31.92 131.587 31.92 130.76V121.32C31.92 119.8 31.6267 118.693 31.04 118C30.48 117.307 29.6 116.96 28.4 116.96C26.9333 116.96 25.76 117.427 24.88 118.36C24.0267 119.267 23.6 120.48 23.6 122V130.76C23.6 132.467 22.76 133.32 21.08 133.32ZM50.9184 133.4C48.8918 133.4 47.1318 132.987 45.6384 132.16C44.1451 131.333 42.9851 130.16 42.1584 128.64C41.3318 127.093 40.9184 125.28 40.9184 123.2C40.9184 121.627 41.1451 120.227 41.5984 119C42.0784 117.747 42.7584 116.68 43.6384 115.8C44.5184 114.893 45.5718 114.213 46.7984 113.76C48.0251 113.28 49.3984 113.04 50.9184 113.04C52.9451 113.04 54.7051 113.453 56.1984 114.28C57.6918 115.107 58.8518 116.28 59.6784 117.8C60.5051 119.32 60.9184 121.12 60.9184 123.2C60.9184 124.773 60.6784 126.187 60.1984 127.44C59.7451 128.693 59.0784 129.773 58.1984 130.68C57.3184 131.56 56.2651 132.24 55.0384 132.72C53.8118 133.173 52.4384 133.4 50.9184 133.4ZM50.9184 129.6C51.9051 129.6 52.7718 129.36 53.5184 128.88C54.2651 128.4 54.8384 127.693 55.2384 126.76C55.6651 125.8 55.8784 124.613 55.8784 123.2C55.8784 121.067 55.4251 119.48 54.5184 118.44C53.6118 117.373 52.4118 116.84 50.9184 116.84C49.9318 116.84 49.0651 117.08 48.3184 117.56C47.5718 118.013 46.9851 118.72 46.5584 119.68C46.1584 120.613 45.9584 121.787 45.9584 123.2C45.9584 125.307 46.4118 126.907 47.3184 128C48.2251 129.067 49.4251 129.6 50.9184 129.6ZM71.4853 133.4C70.072 133.4 68.8053 133.133 67.6853 132.6C66.592 132.04 65.7253 131.293 65.0853 130.36C64.472 129.427 64.1653 128.373 64.1653 127.2C64.1653 125.76 64.5386 124.627 65.2853 123.8C66.032 122.947 67.2453 122.333 68.9253 121.96C70.6053 121.587 72.8586 121.4 75.6853 121.4H77.6853V124.28H75.7253C74.072 124.28 72.752 124.36 71.7653 124.52C70.7786 124.68 70.072 124.96 69.6453 125.36C69.2453 125.733 69.0453 126.267 69.0453 126.96C69.0453 127.84 69.352 128.56 69.9653 129.12C70.5786 129.68 71.432 129.96 72.5253 129.96C73.4053 129.96 74.1786 129.76 74.8453 129.36C75.5386 128.933 76.0853 128.36 76.4853 127.64C76.8853 126.92 77.0853 126.093 77.0853 125.16V120.56C77.0853 119.227 76.792 118.267 76.2053 117.68C75.6186 117.093 74.632 116.8 73.2453 116.8C72.472 116.8 71.632 116.893 70.7253 117.08C69.8453 117.267 68.912 117.587 67.9253 118.04C67.4186 118.28 66.9653 118.347 66.5653 118.24C66.192 118.133 65.8986 117.92 65.6853 117.6C65.472 117.253 65.3653 116.88 65.3653 116.48C65.3653 116.08 65.472 115.693 65.6853 115.32C65.8986 114.92 66.2586 114.627 66.7653 114.44C67.992 113.933 69.1653 113.573 70.2853 113.36C71.432 113.147 72.472 113.04 73.4053 113.04C75.3253 113.04 76.8986 113.333 78.1253 113.92C79.3786 114.507 80.312 115.4 80.9253 116.6C81.5386 117.773 81.8453 119.293 81.8453 121.16V130.76C81.8453 131.587 81.6453 132.227 81.2453 132.68C80.8453 133.107 80.272 133.32 79.5253 133.32C78.7786 133.32 78.192 133.107 77.7653 132.68C77.3653 132.227 77.1653 131.587 77.1653 130.76V128.84H77.4853C77.2986 129.773 76.9253 130.587 76.3653 131.28C75.832 131.947 75.152 132.467 74.3253 132.84C73.4986 133.213 72.552 133.4 71.4853 133.4ZM71.7653 110.6L67.8853 105C67.592 104.547 67.472 104.12 67.5253 103.72C67.6053 103.32 67.792 102.973 68.0853 102.68C68.4053 102.387 68.7653 102.187 69.1653 102.08C69.592 101.973 70.0053 102 70.4053 102.16C70.832 102.293 71.1653 102.613 71.4053 103.12L74.4053 109.08C74.6186 109.507 74.6586 109.893 74.5253 110.24C74.392 110.587 74.152 110.853 73.8053 111.04C73.4586 111.227 73.0986 111.293 72.7253 111.24C72.352 111.187 72.032 110.973 71.7653 110.6ZM89.4003 133.32C88.6003 133.32 87.987 133.107 87.5603 132.68C87.1336 132.227 86.9203 131.587 86.9203 130.76V115.64C86.9203 114.813 87.1336 114.187 87.5603 113.76C87.987 113.333 88.587 113.12 89.3603 113.12C90.1336 113.12 90.7336 113.333 91.1603 113.76C91.587 114.187 91.8003 114.813 91.8003 115.64V118.36L91.3603 117.36C91.947 115.947 92.8536 114.88 94.0803 114.16C95.3336 113.413 96.747 113.04 98.3203 113.04C99.8936 113.04 101.187 113.333 102.2 113.92C103.214 114.507 103.974 115.4 104.48 116.6C104.987 117.773 105.24 119.267 105.24 121.08V130.76C105.24 131.587 105.027 132.227 104.6 132.68C104.174 133.107 103.56 133.32 102.76 133.32C101.96 133.32 101.334 133.107 100.88 132.68C100.454 132.227 100.24 131.587 100.24 130.76V121.32C100.24 119.8 99.947 118.693 99.3603 118C98.8003 117.307 97.9203 116.96 96.7203 116.96C95.2536 116.96 94.0803 117.427 93.2003 118.36C92.347 119.267 91.9203 120.48 91.9203 122V130.76C91.9203 132.467 91.0803 133.32 89.4003 133.32ZM130.138 133.4C128.405 133.4 126.951 133.107 125.778 132.52C124.631 131.933 123.778 131.08 123.218 129.96C122.658 128.813 122.378 127.4 122.378 125.72V117.2H120.298C119.658 117.2 119.165 117.04 118.818 116.72C118.471 116.373 118.298 115.907 118.298 115.32C118.298 114.707 118.471 114.24 118.818 113.92C119.165 113.6 119.658 113.44 120.298 113.44H122.378V109.8C122.378 108.973 122.591 108.347 123.018 107.92C123.471 107.493 124.098 107.28 124.898 107.28C125.698 107.28 126.311 107.493 126.738 107.92C127.165 108.347 127.378 108.973 127.378 109.8V113.44H131.618C132.258 113.44 132.751 113.6 133.098 113.92C133.445 114.24 133.618 114.707 133.618 115.32C133.618 115.907 133.445 116.373 133.098 116.72C132.751 117.04 132.258 117.2 131.618 117.2H127.378V125.44C127.378 126.72 127.658 127.68 128.218 128.32C128.778 128.96 129.685 129.28 130.938 129.28C131.391 129.28 131.791 129.24 132.138 129.16C132.485 129.08 132.791 129.027 133.058 129C133.378 128.973 133.645 129.08 133.858 129.32C134.071 129.533 134.178 129.987 134.178 130.68C134.178 131.213 134.085 131.693 133.898 132.12C133.738 132.52 133.431 132.8 132.978 132.96C132.631 133.067 132.178 133.16 131.618 133.24C131.058 133.347 130.565 133.4 130.138 133.4ZM145.254 133.4C143.228 133.4 141.468 132.987 139.974 132.16C138.481 131.333 137.321 130.16 136.494 128.64C135.668 127.093 135.254 125.28 135.254 123.2C135.254 121.627 135.481 120.227 135.934 119C136.414 117.747 137.094 116.68 137.974 115.8C138.854 114.893 139.908 114.213 141.134 113.76C142.361 113.28 143.734 113.04 145.254 113.04C147.281 113.04 149.041 113.453 150.534 114.28C152.028 115.107 153.188 116.28 154.014 117.8C154.841 119.32 155.254 121.12 155.254 123.2C155.254 124.773 155.014 126.187 154.534 127.44C154.081 128.693 153.414 129.773 152.534 130.68C151.654 131.56 150.601 132.24 149.374 132.72C148.148 133.173 146.774 133.4 145.254 133.4ZM145.254 129.6C146.241 129.6 147.108 129.36 147.854 128.88C148.601 128.4 149.174 127.693 149.574 126.76C150.001 125.8 150.214 124.613 150.214 123.2C150.214 121.067 149.761 119.48 148.854 118.44C147.948 117.373 146.748 116.84 145.254 116.84C144.268 116.84 143.401 117.08 142.654 117.56C141.908 118.013 141.321 118.72 140.894 119.68C140.494 120.613 140.294 121.787 140.294 123.2C140.294 125.307 140.748 126.907 141.654 128C142.561 129.067 143.761 129.6 145.254 129.6ZM165.821 133.4C164.408 133.4 163.141 133.133 162.021 132.6C160.928 132.04 160.061 131.293 159.421 130.36C158.808 129.427 158.501 128.373 158.501 127.2C158.501 125.76 158.875 124.627 159.621 123.8C160.368 122.947 161.581 122.333 163.261 121.96C164.941 121.587 167.195 121.4 170.021 121.4H172.021V124.28H170.061C168.408 124.28 167.088 124.36 166.101 124.52C165.115 124.68 164.408 124.96 163.981 125.36C163.581 125.733 163.381 126.267 163.381 126.96C163.381 127.84 163.688 128.56 164.301 129.12C164.915 129.68 165.768 129.96 166.861 129.96C167.741 129.96 168.515 129.76 169.181 129.36C169.875 128.933 170.421 128.36 170.821 127.64C171.221 126.92 171.421 126.093 171.421 125.16V120.56C171.421 119.227 171.128 118.267 170.541 117.68C169.955 117.093 168.968 116.8 167.581 116.8C166.808 116.8 165.968 116.893 165.061 117.08C164.181 117.267 163.248 117.587 162.261 118.04C161.755 118.28 161.301 118.347 160.901 118.24C160.528 118.133 160.235 117.92 160.021 117.6C159.808 117.253 159.701 116.88 159.701 116.48C159.701 116.08 159.808 115.693 160.021 115.32C160.235 114.92 160.595 114.627 161.101 114.44C162.328 113.933 163.501 113.573 164.621 113.36C165.768 113.147 166.808 113.04 167.741 113.04C169.661 113.04 171.235 113.333 172.461 113.92C173.715 114.507 174.648 115.4 175.261 116.6C175.875 117.773 176.181 119.293 176.181 121.16V130.76C176.181 131.587 175.981 132.227 175.581 132.68C175.181 133.107 174.608 133.32 173.861 133.32C173.115 133.32 172.528 133.107 172.101 132.68C171.701 132.227 171.501 131.587 171.501 130.76V128.84H171.821C171.635 129.773 171.261 130.587 170.701 131.28C170.168 131.947 169.488 132.467 168.661 132.84C167.835 133.213 166.888 133.4 165.821 133.4ZM166.101 110.6L162.221 105C161.928 104.547 161.808 104.12 161.861 103.72C161.941 103.32 162.128 102.973 162.421 102.68C162.741 102.387 163.101 102.187 163.501 102.08C163.928 101.973 164.341 102 164.741 102.16C165.168 102.293 165.501 102.613 165.741 103.12L168.741 109.08C168.955 109.507 168.995 109.893 168.861 110.24C168.728 110.587 168.488 110.853 168.141 111.04C167.795 111.227 167.435 111.293 167.061 111.24C166.688 111.187 166.368 110.973 166.101 110.6ZM183.736 133.32C182.936 133.32 182.323 133.107 181.896 132.68C181.47 132.227 181.256 131.587 181.256 130.76V115.64C181.256 114.813 181.47 114.187 181.896 113.76C182.323 113.333 182.923 113.12 183.696 113.12C184.47 113.12 185.07 113.333 185.496 113.76C185.923 114.187 186.136 114.813 186.136 115.64V118.36L185.696 117.36C186.283 115.947 187.19 114.88 188.416 114.16C189.67 113.413 191.083 113.04 192.656 113.04C194.23 113.04 195.523 113.333 196.536 113.92C197.55 114.507 198.31 115.4 198.816 116.6C199.323 117.773 199.576 119.267 199.576 121.08V130.76C199.576 131.587 199.363 132.227 198.936 132.68C198.51 133.107 197.896 133.32 197.096 133.32C196.296 133.32 195.67 133.107 195.216 132.68C194.79 132.227 194.576 131.587 194.576 130.76V121.32C194.576 119.8 194.283 118.693 193.696 118C193.136 117.307 192.256 116.96 191.056 116.96C189.59 116.96 188.416 117.427 187.536 118.36C186.683 119.267 186.256 120.48 186.256 122V130.76C186.256 132.467 185.416 133.32 183.736 133.32Z" fill="#2B3242"/>
<path d="M27.56 85.4C25.8267 85.4 24.3733 85.1067 23.2 84.52C22.0533 83.9333 21.2 83.08 20.64 81.96C20.08 80.8133 19.8 79.4 19.8 77.72V69.2H17.72C17.08 69.2 16.5867 69.04 16.24 68.72C15.8933 68.3733 15.72 67.9067 15.72 67.32C15.72 66.7067 15.8933 66.24 16.24 65.92C16.5867 65.6 17.08 65.44 17.72 65.44H19.8V61.8C19.8 60.9733 20.0133 60.3467 20.44 59.92C20.8933 59.4933 21.52 59.28 22.32 59.28C23.12 59.28 23.7333 59.4933 24.16 59.92C24.5867 60.3467 24.8 60.9733 24.8 61.8V65.44H29.04C29.68 65.44 30.1733 65.6 30.52 65.92C30.8667 66.24 31.04 66.7067 31.04 67.32C31.04 67.9067 30.8667 68.3733 30.52 68.72C30.1733 69.04 29.68 69.2 29.04 69.2H24.8V77.44C24.8 78.72 25.08 79.68 25.64 80.32C26.2 80.96 27.1067 81.28 28.36 81.28C28.8133 81.28 29.2133 81.24 29.56 81.16C29.9067 81.08 30.2133 81.0267 30.48 81C30.8 80.9733 31.0667 81.08 31.28 81.32C31.4933 81.5333 31.6 81.9867 31.6 82.68C31.6 83.2133 31.5067 83.6933 31.32 84.12C31.16 84.52 30.8533 84.8 30.4 84.96C30.0533 85.0667 29.6 85.16 29.04 85.24C28.48 85.3467 27.9867 85.4 27.56 85.4ZM41.0316 85.4C39.4049 85.4 38.0582 85.1067 36.9916 84.52C35.9249 83.9067 35.1249 83 34.5916 81.8C34.0849 80.6 33.8316 79.1067 33.8316 77.32V67.64C33.8316 66.8133 34.0449 66.1867 34.4716 65.76C34.8982 65.3333 35.5116 65.12 36.3116 65.12C37.1116 65.12 37.7249 65.3333 38.1516 65.76C38.6049 66.1867 38.8316 66.8133 38.8316 67.64V77.4C38.8316 78.7867 39.1116 79.8133 39.6716 80.48C40.2316 81.1467 41.1249 81.48 42.3516 81.48C43.6849 81.48 44.7782 81.0267 45.6316 80.12C46.4849 79.1867 46.9116 77.96 46.9116 76.44V67.88C46.9116 67.0533 47.1249 66.4667 47.5516 66.12C47.9782 65.7467 48.5916 65.4933 49.3916 65.36C49.9782 65.2533 50.4716 65.08 50.8716 64.84C51.2716 64.5733 51.5649 64.2133 51.7516 63.76C51.9649 63.28 52.0716 62.6533 52.0716 61.88C52.0716 60.7867 52.8049 60.24 54.2716 60.24C54.9649 60.24 55.4982 60.3733 55.8716 60.64C56.2449 60.9067 56.4316 61.3067 56.4316 61.84C56.4316 63.4133 56.0316 64.7333 55.2316 65.8C54.4316 66.8667 53.3249 67.56 51.9116 67.88V82.76C51.9116 84.4667 51.0982 85.32 49.4716 85.32C48.6982 85.32 48.0982 85.1067 47.6716 84.68C47.2449 84.2267 47.0316 83.5867 47.0316 82.76V79.72L47.5916 80.92C47.0316 82.36 46.1782 83.4667 45.0316 84.24C43.9116 85.0133 42.5782 85.4 41.0316 85.4ZM42.9516 93.36C42.1249 93.36 41.4849 93.1333 41.0316 92.68C40.5782 92.2533 40.3516 91.64 40.3516 90.84C40.3516 90.04 40.5782 89.4267 41.0316 89C41.4849 88.5733 42.1249 88.36 42.9516 88.36C43.8049 88.36 44.4582 88.5733 44.9116 89C45.3649 89.4267 45.5916 90.04 45.5916 90.84C45.5916 91.64 45.3649 92.2533 44.9116 92.68C44.4582 93.1333 43.8049 93.36 42.9516 93.36ZM74.655 85.4C72.4417 85.4 70.775 84.7733 69.655 83.52C68.535 82.24 67.975 80.3733 67.975 77.92V59C67.975 58.1733 68.1883 57.5467 68.615 57.12C69.0417 56.6933 69.655 56.48 70.455 56.48C71.255 56.48 71.8683 56.6933 72.295 57.12C72.7483 57.5467 72.975 58.1733 72.975 59V77.68C72.975 78.9067 73.2283 79.8133 73.735 80.4C74.2683 80.9867 75.015 81.28 75.975 81.28C76.1883 81.28 76.3883 81.28 76.575 81.28C76.7617 81.2533 76.9483 81.2267 77.135 81.2C77.5083 81.1467 77.7617 81.2533 77.895 81.52C78.0283 81.76 78.095 82.2667 78.095 83.04C78.095 83.7067 77.9617 84.2267 77.695 84.6C77.4283 84.9733 76.9883 85.2 76.375 85.28C76.1083 85.3067 75.8283 85.3333 75.535 85.36C75.2417 85.3867 74.9483 85.4 74.655 85.4ZM87.8284 85.4C86.2018 85.4 84.8551 85.1067 83.7884 84.52C82.7218 83.9067 81.9218 83 81.3884 81.8C80.8818 80.6 80.6284 79.1067 80.6284 77.32V67.64C80.6284 66.7867 80.8418 66.16 81.2684 65.76C81.6951 65.3333 82.3084 65.12 83.1084 65.12C83.9084 65.12 84.5218 65.3333 84.9484 65.76C85.4018 66.16 85.6284 66.7867 85.6284 67.64V77.4C85.6284 78.7867 85.9084 79.8133 86.4684 80.48C87.0284 81.1467 87.9218 81.48 89.1484 81.48C90.4818 81.48 91.5751 81.0267 92.4284 80.12C93.2818 79.1867 93.7084 77.96 93.7084 76.44V67.64C93.7084 66.7867 93.9218 66.16 94.3484 65.76C94.7751 65.3333 95.3884 65.12 96.1884 65.12C96.9884 65.12 97.6018 65.3333 98.0284 65.76C98.4818 66.16 98.7084 66.7867 98.7084 67.64V82.76C98.7084 84.4667 97.8951 85.32 96.2684 85.32C95.4951 85.32 94.8951 85.1067 94.4684 84.68C94.0418 84.2267 93.8284 83.5867 93.8284 82.76V79.72L94.3884 80.92C93.8284 82.36 92.9751 83.4667 91.8284 84.24C90.7084 85.0133 89.3751 85.4 87.8284 85.4ZM108.873 92.52C108.286 92.52 107.806 92.36 107.433 92.04C107.059 91.7467 106.833 91.3467 106.753 90.84C106.699 90.3333 106.793 89.8 107.033 89.24L109.753 83.2V85.28L102.473 68.44C102.233 67.8533 102.153 67.3067 102.233 66.8C102.313 66.2933 102.553 65.8933 102.953 65.6C103.379 65.28 103.953 65.12 104.673 65.12C105.286 65.12 105.779 65.2667 106.153 65.56C106.526 65.8267 106.859 66.3467 107.153 67.12L112.553 80.6H111.353L116.873 67.08C117.166 66.3333 117.513 65.8267 117.913 65.56C118.313 65.2667 118.846 65.12 119.513 65.12C120.099 65.12 120.566 65.28 120.913 65.6C121.259 65.8933 121.473 66.2933 121.553 66.8C121.633 67.28 121.539 67.8133 121.273 68.4L111.553 90.6C111.206 91.3467 110.833 91.8533 110.433 92.12C110.033 92.3867 109.513 92.52 108.873 92.52ZM134.217 85.4C132.003 85.4 130.097 84.9867 128.497 84.16C126.897 83.3333 125.657 82.16 124.777 80.64C123.923 79.12 123.497 77.32 123.497 75.24C123.497 73.2133 123.91 71.44 124.737 69.92C125.59 68.4 126.75 67.2133 128.217 66.36C129.71 65.48 131.403 65.04 133.297 65.04C134.683 65.04 135.923 65.2667 137.017 65.72C138.137 66.1733 139.083 66.8267 139.857 67.68C140.657 68.5333 141.257 69.5733 141.657 70.8C142.083 72 142.297 73.36 142.297 74.88C142.297 75.36 142.123 75.7333 141.777 76C141.457 76.24 140.99 76.36 140.377 76.36H127.537V73.48H138.777L138.137 74.08C138.137 72.8533 137.95 71.8267 137.577 71C137.23 70.1733 136.71 69.5467 136.017 69.12C135.35 68.6667 134.51 68.44 133.497 68.44C132.377 68.44 131.417 68.7067 130.617 69.24C129.843 69.7467 129.243 70.48 128.817 71.44C128.417 72.3733 128.217 73.4933 128.217 74.8V75.08C128.217 77.2667 128.723 78.9067 129.737 80C130.777 81.0667 132.297 81.6 134.297 81.6C134.99 81.6 135.763 81.52 136.617 81.36C137.497 81.1733 138.323 80.8667 139.097 80.44C139.657 80.12 140.15 79.9867 140.577 80.04C141.003 80.0667 141.337 80.2133 141.577 80.48C141.843 80.7467 142.003 81.08 142.057 81.48C142.11 81.8533 142.03 82.24 141.817 82.64C141.63 83.04 141.297 83.3867 140.817 83.68C139.883 84.2667 138.803 84.7067 137.577 85C136.377 85.2667 135.257 85.4 134.217 85.4ZM133.337 93.36C132.51 93.36 131.87 93.1333 131.417 92.68C130.963 92.2533 130.737 91.64 130.737 90.84C130.737 90.04 130.963 89.4267 131.417 89C131.87 88.5733 132.51 88.36 133.337 88.36C134.19 88.36 134.843 88.5733 135.297 89C135.75 89.4267 135.977 90.04 135.977 90.84C135.977 91.64 135.75 92.2533 135.297 92.68C134.843 93.1333 134.19 93.36 133.337 93.36ZM139.017 61.12C139.257 61.5467 139.31 61.9333 139.177 62.28C139.043 62.6267 138.817 62.8933 138.497 63.08C138.177 63.24 137.83 63.2933 137.457 63.24C137.11 63.1867 136.817 62.9733 136.577 62.6L133.337 57.56L130.097 62.6C129.857 62.9733 129.55 63.1867 129.177 63.24C128.83 63.2933 128.497 63.24 128.177 63.08C127.857 62.8933 127.63 62.6267 127.497 62.28C127.363 61.9333 127.417 61.5467 127.657 61.12L130.537 55.84C130.857 55.2267 131.243 54.7733 131.697 54.48C132.177 54.1867 132.723 54.04 133.337 54.04C133.95 54.04 134.497 54.1867 134.977 54.48C135.457 54.7733 135.857 55.2267 136.177 55.84L139.017 61.12ZM148.736 85.32C147.936 85.32 147.323 85.1067 146.896 84.68C146.47 84.2267 146.256 83.5867 146.256 82.76V67.64C146.256 66.8133 146.47 66.1867 146.896 65.76C147.323 65.3333 147.923 65.12 148.696 65.12C149.47 65.12 150.07 65.3333 150.496 65.76C150.923 66.1867 151.136 66.8133 151.136 67.64V70.36L150.696 69.36C151.283 67.9467 152.19 66.88 153.416 66.16C154.67 65.4133 156.083 65.04 157.656 65.04C159.23 65.04 160.523 65.3333 161.536 65.92C162.55 66.5067 163.31 67.4 163.816 68.6C164.323 69.7733 164.576 71.2667 164.576 73.08V82.76C164.576 83.5867 164.363 84.2267 163.936 84.68C163.51 85.1067 162.896 85.32 162.096 85.32C161.296 85.32 160.67 85.1067 160.216 84.68C159.79 84.2267 159.576 83.5867 159.576 82.76V73.32C159.576 71.8 159.283 70.6933 158.696 70C158.136 69.3067 157.256 68.96 156.056 68.96C154.59 68.96 153.416 69.4267 152.536 70.36C151.683 71.2667 151.256 72.48 151.256 74V82.76C151.256 84.4667 150.416 85.32 148.736 85.32ZM183.554 85.32C182.727 85.32 182.087 85.0933 181.634 84.64C181.207 84.16 180.994 83.5067 180.994 82.68V59.12C180.994 58.2667 181.207 57.6133 181.634 57.16C182.087 56.7067 182.727 56.48 183.554 56.48C184.381 56.48 185.007 56.7067 185.434 57.16C185.887 57.6133 186.114 58.2667 186.114 59.12V82.68C186.114 83.5067 185.901 84.16 185.474 84.64C185.047 85.0933 184.407 85.32 183.554 85.32ZM195.003 85C194.123 85 193.443 84.7733 192.963 84.32C192.51 83.84 192.283 83.16 192.283 82.28V59.52C192.283 58.64 192.51 57.9733 192.963 57.52C193.443 57.04 194.123 56.8 195.003 56.8H209.283C209.95 56.8 210.456 56.9733 210.803 57.32C211.176 57.6667 211.363 58.16 211.363 58.8C211.363 59.4667 211.176 59.9867 210.803 60.36C210.456 60.7067 209.95 60.88 209.283 60.88H197.203V68.64H208.403C209.096 68.64 209.616 68.8133 209.963 69.16C210.31 69.5067 210.483 70.0133 210.483 70.68C210.483 71.3467 210.31 71.8533 209.963 72.2C209.616 72.5467 209.096 72.72 208.403 72.72H197.203V80.92H209.283C209.95 80.92 210.456 81.0933 210.803 81.44C211.176 81.7867 211.363 82.2933 211.363 82.96C211.363 83.6267 211.176 84.1333 210.803 84.48C210.456 84.8267 209.95 85 209.283 85H195.003ZM218.75 85C217.924 85 217.284 84.7733 216.83 84.32C216.377 83.84 216.15 83.1867 216.15 82.36V59.28C216.15 58.4267 216.364 57.7867 216.79 57.36C217.244 56.9067 217.884 56.68 218.71 56.68C219.537 56.68 220.164 56.9067 220.59 57.36C221.044 57.7867 221.27 58.4267 221.27 59.28V80.64H232.87C233.59 80.64 234.137 80.8267 234.51 81.2C234.91 81.5733 235.11 82.1067 235.11 82.8C235.11 83.4933 234.91 84.04 234.51 84.44C234.137 84.8133 233.59 85 232.87 85H218.75ZM242.776 85.32C241.949 85.32 241.309 85.0933 240.856 84.64C240.429 84.16 240.216 83.5067 240.216 82.68V61.08H232.416C231.723 61.08 231.176 60.8933 230.776 60.52C230.403 60.12 230.216 59.5867 230.216 58.92C230.216 58.2267 230.403 57.7067 230.776 57.36C231.176 56.9867 231.723 56.8 232.416 56.8H253.136C253.829 56.8 254.363 56.9867 254.736 57.36C255.136 57.7067 255.336 58.2267 255.336 58.92C255.336 59.5867 255.136 60.12 254.736 60.52C254.363 60.8933 253.829 61.08 253.136 61.08H245.336V82.68C245.336 83.5067 245.123 84.16 244.696 84.64C244.269 85.0933 243.629 85.32 242.776 85.32ZM267.042 85.4C265.869 85.4 264.696 85.3067 263.522 85.12C262.349 84.96 261.242 84.7067 260.202 84.36C259.162 83.9867 258.229 83.5333 257.402 83C256.922 82.68 256.589 82.2933 256.402 81.84C256.216 81.3867 256.149 80.9467 256.202 80.52C256.282 80.0667 256.456 79.68 256.722 79.36C257.016 79.0133 257.376 78.8 257.802 78.72C258.229 78.64 258.696 78.76 259.202 79.08C260.376 79.7733 261.616 80.28 262.922 80.6C264.229 80.92 265.602 81.08 267.042 81.08C269.149 81.08 270.682 80.7333 271.642 80.04C272.602 79.32 273.082 78.4 273.082 77.28C273.082 76.3467 272.736 75.6133 272.042 75.08C271.376 74.5467 270.216 74.1067 268.562 73.76L264.162 72.84C261.629 72.3067 259.736 71.4133 258.482 70.16C257.256 68.88 256.642 67.2 256.642 65.12C256.642 63.8133 256.909 62.6267 257.442 61.56C257.976 60.4933 258.722 59.5733 259.682 58.8C260.669 58.0267 261.829 57.44 263.162 57.04C264.522 56.6133 266.016 56.4 267.642 56.4C269.242 56.4 270.762 56.6 272.202 57C273.642 57.4 274.936 57.9867 276.082 58.76C276.509 59.0533 276.789 59.4133 276.922 59.84C277.082 60.2667 277.122 60.6933 277.042 61.12C276.962 61.52 276.776 61.8667 276.482 62.16C276.189 62.4533 275.816 62.6267 275.362 62.68C274.936 62.7333 274.442 62.6 273.882 62.28C272.896 61.72 271.896 61.32 270.882 61.08C269.869 60.84 268.776 60.72 267.602 60.72C266.376 60.72 265.322 60.8933 264.442 61.24C263.562 61.5867 262.882 62.08 262.402 62.72C261.949 63.3333 261.722 64.0667 261.722 64.92C261.722 65.88 262.042 66.6533 262.682 67.24C263.322 67.8 264.416 68.24 265.962 68.56L270.322 69.48C272.962 70.04 274.922 70.92 276.202 72.12C277.509 73.32 278.162 74.92 278.162 76.92C278.162 78.2 277.896 79.36 277.362 80.4C276.856 81.44 276.109 82.3333 275.122 83.08C274.162 83.8267 273.002 84.4 271.642 84.8C270.282 85.2 268.749 85.4 267.042 85.4ZM301.896 85.4C300.163 85.4 298.709 85.1067 297.536 84.52C296.389 83.9333 295.536 83.08 294.976 81.96C294.416 80.8133 294.136 79.4 294.136 77.72V69.2H292.056C291.416 69.2 290.923 69.04 290.576 68.72C290.229 68.3733 290.056 67.9067 290.056 67.32C290.056 66.7067 290.229 66.24 290.576 65.92C290.923 65.6 291.416 65.44 292.056 65.44H294.136V61.8C294.136 60.9733 294.349 60.3467 294.776 59.92C295.229 59.4933 295.856 59.28 296.656 59.28C297.456 59.28 298.069 59.4933 298.496 59.92C298.923 60.3467 299.136 60.9733 299.136 61.8V65.44H303.376C304.016 65.44 304.509 65.6 304.856 65.92C305.203 66.24 305.376 66.7067 305.376 67.32C305.376 67.9067 305.203 68.3733 304.856 68.72C304.509 69.04 304.016 69.2 303.376 69.2H299.136V77.44C299.136 78.72 299.416 79.68 299.976 80.32C300.536 80.96 301.443 81.28 302.696 81.28C303.149 81.28 303.549 81.24 303.896 81.16C304.243 81.08 304.549 81.0267 304.816 81C305.136 80.9733 305.403 81.08 305.616 81.32C305.829 81.5333 305.936 81.9867 305.936 82.68C305.936 83.2133 305.843 83.6933 305.656 84.12C305.496 84.52 305.189 84.8 304.736 84.96C304.389 85.0667 303.936 85.16 303.376 85.24C302.816 85.3467 302.323 85.4 301.896 85.4ZM314.728 85.4C313.314 85.4 312.048 85.1333 310.928 84.6C309.834 84.04 308.968 83.2933 308.327 82.36C307.714 81.4267 307.408 80.3733 307.408 79.2C307.408 77.76 307.781 76.6267 308.528 75.8C309.274 74.9467 310.488 74.3333 312.168 73.96C313.848 73.5867 316.101 73.4 318.928 73.4H320.928V76.28H318.968C317.314 76.28 315.994 76.36 315.008 76.52C314.021 76.68 313.314 76.96 312.888 77.36C312.488 77.7333 312.288 78.2667 312.288 78.96C312.288 79.84 312.594 80.56 313.208 81.12C313.821 81.68 314.674 81.96 315.768 81.96C316.648 81.96 317.421 81.76 318.088 81.36C318.781 80.9333 319.328 80.36 319.728 79.64C320.128 78.92 320.328 78.0933 320.328 77.16V72.56C320.328 71.2267 320.034 70.2667 319.448 69.68C318.861 69.0933 317.874 68.8 316.488 68.8C315.714 68.8 314.874 68.8933 313.968 69.08C313.088 69.2667 312.154 69.5867 311.168 70.04C310.661 70.28 310.208 70.3467 309.808 70.24C309.434 70.1333 309.141 69.92 308.928 69.6C308.714 69.2533 308.608 68.88 308.608 68.48C308.608 68.08 308.714 67.6933 308.928 67.32C309.141 66.92 309.501 66.6267 310.008 66.44C311.234 65.9333 312.408 65.5733 313.528 65.36C314.674 65.1467 315.714 65.04 316.648 65.04C318.568 65.04 320.141 65.3333 321.368 65.92C322.621 66.5067 323.554 67.4 324.168 68.6C324.781 69.7733 325.088 71.2933 325.088 73.16V82.76C325.088 83.5867 324.888 84.2267 324.488 84.68C324.088 85.1067 323.514 85.32 322.768 85.32C322.021 85.32 321.434 85.1067 321.008 84.68C320.608 84.2267 320.408 83.5867 320.408 82.76V80.84H320.728C320.541 81.7733 320.168 82.5867 319.608 83.28C319.074 83.9467 318.394 84.4667 317.568 84.84C316.741 85.2133 315.794 85.4 314.728 85.4ZM316.688 93.36C315.861 93.36 315.221 93.1333 314.768 92.68C314.314 92.2533 314.088 91.64 314.088 90.84C314.088 90.04 314.314 89.4267 314.768 89C315.221 88.5733 315.861 88.36 316.688 88.36C317.541 88.36 318.194 88.5733 318.648 89C319.101 89.4267 319.328 90.04 319.328 90.84C319.328 91.64 319.101 92.2533 318.648 92.68C318.194 93.1333 317.541 93.36 316.688 93.36ZM332.643 85.28C331.843 85.28 331.229 85.04 330.803 84.56C330.376 84.08 330.163 83.4133 330.163 82.56V67.88C330.163 67 330.376 66.3333 330.803 65.88C331.229 65.4 331.843 65.16 332.643 65.16C333.443 65.16 334.056 65.4 334.483 65.88C334.936 66.3333 335.163 67 335.163 67.88V82.56C335.163 83.4133 334.949 84.08 334.523 84.56C334.096 85.04 333.469 85.28 332.643 85.28ZM332.643 61.44C331.709 61.44 330.976 61.2133 330.443 60.76C329.936 60.28 329.683 59.6267 329.683 58.8C329.683 57.9467 329.936 57.2933 330.443 56.84C330.976 56.3867 331.709 56.16 332.643 56.16C333.603 56.16 334.336 56.3867 334.843 56.84C335.349 57.2933 335.603 57.9467 335.603 58.8C335.603 59.6267 335.349 60.28 334.843 60.76C334.336 61.2133 333.603 61.44 332.643 61.44ZM353.697 85.32C352.897 85.32 352.284 85.1067 351.857 84.68C351.431 84.2267 351.217 83.5867 351.217 82.76V67.64C351.217 66.8133 351.431 66.1867 351.857 65.76C352.284 65.3333 352.884 65.12 353.657 65.12C354.431 65.12 355.031 65.3333 355.457 65.76C355.884 66.1867 356.097 66.8133 356.097 67.64V70.36L355.657 69.36C356.244 67.9467 357.151 66.88 358.377 66.16C359.631 65.4133 361.044 65.04 362.617 65.04C364.191 65.04 365.484 65.3333 366.497 65.92C367.511 66.5067 368.271 67.4 368.777 68.6C369.284 69.7733 369.537 71.2667 369.537 73.08V82.76C369.537 83.5867 369.324 84.2267 368.897 84.68C368.471 85.1067 367.857 85.32 367.057 85.32C366.257 85.32 365.631 85.1067 365.177 84.68C364.751 84.2267 364.537 83.5867 364.537 82.76V73.32C364.537 71.8 364.244 70.6933 363.657 70C363.097 69.3067 362.217 68.96 361.017 68.96C359.551 68.96 358.377 69.4267 357.497 70.36C356.644 71.2667 356.217 72.48 356.217 74V82.76C356.217 84.4667 355.377 85.32 353.697 85.32ZM377.096 85.32C376.296 85.32 375.682 85.1067 375.256 84.68C374.829 84.2267 374.616 83.5867 374.616 82.76V59C374.616 58.1733 374.829 57.5467 375.256 57.12C375.682 56.6933 376.296 56.48 377.096 56.48C377.896 56.48 378.509 56.6933 378.936 57.12C379.389 57.5467 379.616 58.1733 379.616 59V69.36H379.056C379.642 67.9467 380.549 66.88 381.776 66.16C383.029 65.4133 384.442 65.04 386.016 65.04C387.589 65.04 388.882 65.3333 389.896 65.92C390.909 66.5067 391.669 67.4 392.176 68.6C392.682 69.7733 392.936 71.2667 392.936 73.08V82.76C392.936 83.5867 392.722 84.2267 392.296 84.68C391.869 85.1067 391.256 85.32 390.456 85.32C389.656 85.32 389.029 85.1067 388.576 84.68C388.149 84.2267 387.936 83.5867 387.936 82.76V73.32C387.936 71.8 387.642 70.6933 387.056 70C386.496 69.3067 385.616 68.96 384.416 68.96C382.949 68.96 381.776 69.4267 380.896 70.36C380.042 71.2667 379.616 72.48 379.616 74V82.76C379.616 84.4667 378.776 85.32 377.096 85.32ZM404.454 85.4C403.041 85.4 401.774 85.1333 400.654 84.6C399.561 84.04 398.694 83.2933 398.054 82.36C397.441 81.4267 397.134 80.3733 397.134 79.2C397.134 77.76 397.507 76.6267 398.254 75.8C399.001 74.9467 400.214 74.3333 401.894 73.96C403.574 73.5867 405.827 73.4 408.654 73.4H410.654V76.28H408.694C407.041 76.28 405.721 76.36 404.734 76.52C403.747 76.68 403.041 76.96 402.614 77.36C402.214 77.7333 402.014 78.2667 402.014 78.96C402.014 79.84 402.321 80.56 402.934 81.12C403.547 81.68 404.401 81.96 405.494 81.96C406.374 81.96 407.147 81.76 407.814 81.36C408.507 80.9333 409.054 80.36 409.454 79.64C409.854 78.92 410.054 78.0933 410.054 77.16V72.56C410.054 71.2267 409.761 70.2667 409.174 69.68C408.587 69.0933 407.601 68.8 406.214 68.8C405.441 68.8 404.601 68.8933 403.694 69.08C402.814 69.2667 401.881 69.5867 400.894 70.04C400.387 70.28 399.934 70.3467 399.534 70.24C399.161 70.1333 398.867 69.92 398.654 69.6C398.441 69.2533 398.334 68.88 398.334 68.48C398.334 68.08 398.441 67.6933 398.654 67.32C398.867 66.92 399.227 66.6267 399.734 66.44C400.961 65.9333 402.134 65.5733 403.254 65.36C404.401 65.1467 405.441 65.04 406.374 65.04C408.294 65.04 409.867 65.3333 411.094 65.92C412.347 66.5067 413.281 67.4 413.894 68.6C414.507 69.7733 414.814 71.2933 414.814 73.16V82.76C414.814 83.5867 414.614 84.2267 414.214 84.68C413.814 85.1067 413.241 85.32 412.494 85.32C411.747 85.32 411.161 85.1067 410.734 84.68C410.334 84.2267 410.134 83.5867 410.134 82.76V80.84H410.454C410.267 81.7733 409.894 82.5867 409.334 83.28C408.801 83.9467 408.121 84.4667 407.294 84.84C406.467 85.2133 405.521 85.4 404.454 85.4ZM404.734 62.6L400.854 57C400.561 56.5467 400.441 56.12 400.494 55.72C400.574 55.32 400.761 54.9733 401.054 54.68C401.374 54.3867 401.734 54.1867 402.134 54.08C402.561 53.9733 402.974 54 403.374 54.16C403.801 54.2933 404.134 54.6133 404.374 55.12L407.374 61.08C407.587 61.5067 407.627 61.8933 407.494 62.24C407.361 62.5867 407.121 62.8533 406.774 63.04C406.427 63.2267 406.067 63.2933 405.694 63.24C405.321 63.1867 405.001 62.9733 404.734 62.6Z" fill="white"/>
<path d="M218.394 133.32C217.647 133.32 217.074 133.107 216.674 132.68C216.274 132.253 216.074 131.667 216.074 130.92V106.88C216.074 106.107 216.287 105.52 216.714 105.12C217.141 104.693 217.727 104.48 218.474 104.48C219.141 104.48 219.661 104.613 220.034 104.88C220.434 105.12 220.794 105.547 221.114 106.16L230.994 124.44H229.714L239.594 106.16C239.914 105.547 240.261 105.12 240.634 104.88C241.007 104.613 241.527 104.48 242.194 104.48C242.941 104.48 243.514 104.693 243.914 105.12C244.314 105.52 244.514 106.107 244.514 106.88V130.92C244.514 131.667 244.314 132.253 243.914 132.68C243.541 133.107 242.967 133.32 242.194 133.32C241.447 133.32 240.874 133.107 240.474 132.68C240.074 132.253 239.874 131.667 239.874 130.92V112.4H240.754L232.354 127.72C232.087 128.173 231.807 128.507 231.514 128.72C231.221 128.933 230.821 129.04 230.314 129.04C229.807 129.04 229.394 128.933 229.074 128.72C228.754 128.48 228.474 128.147 228.234 127.72L219.754 112.36H220.714V130.92C220.714 131.667 220.514 132.253 220.114 132.68C219.741 133.107 219.167 133.32 218.394 133.32ZM253.281 133.32C252.454 133.32 251.814 133.093 251.361 132.64C250.934 132.16 250.721 131.507 250.721 130.68V107.12C250.721 106.267 250.934 105.613 251.361 105.16C251.814 104.707 252.454 104.48 253.281 104.48C254.107 104.48 254.734 104.707 255.161 105.16C255.614 105.613 255.841 106.267 255.841 107.12V130.68C255.841 131.507 255.627 132.16 255.201 132.64C254.774 133.093 254.134 133.32 253.281 133.32ZM264.73 133C263.85 133 263.17 132.773 262.69 132.32C262.236 131.84 262.01 131.16 262.01 130.28V107.52C262.01 106.64 262.236 105.973 262.69 105.52C263.17 105.04 263.85 104.8 264.73 104.8H279.01C279.676 104.8 280.183 104.973 280.53 105.32C280.903 105.667 281.09 106.16 281.09 106.8C281.09 107.467 280.903 107.987 280.53 108.36C280.183 108.707 279.676 108.88 279.01 108.88H266.93V116.64H278.13C278.823 116.64 279.343 116.813 279.69 117.16C280.036 117.507 280.21 118.013 280.21 118.68C280.21 119.347 280.036 119.853 279.69 120.2C279.343 120.547 278.823 120.72 278.13 120.72H266.93V128.92H279.01C279.676 128.92 280.183 129.093 280.53 129.44C280.903 129.787 281.09 130.293 281.09 130.96C281.09 131.627 280.903 132.133 280.53 132.48C280.183 132.827 279.676 133 279.01 133H264.73ZM268.45 102.48C268.023 102.827 267.596 102.947 267.17 102.84C266.77 102.707 266.49 102.467 266.33 102.12C266.196 101.747 266.29 101.373 266.61 101L268.97 98.2C269.423 97.6667 269.903 97.3067 270.41 97.12C270.916 96.9067 271.463 96.8 272.05 96.8C272.476 96.8 272.863 96.8533 273.21 96.96C273.583 97.04 273.93 97.1867 274.25 97.4C274.57 97.5867 274.876 97.8533 275.17 98.2L277.49 101C277.73 101.267 277.823 101.547 277.77 101.84C277.743 102.133 277.623 102.387 277.41 102.6C277.196 102.787 276.93 102.88 276.61 102.88C276.316 102.88 275.996 102.747 275.65 102.48L272.05 99.52L268.45 102.48ZM266.41 96.12C266.036 96.0933 265.743 95.9467 265.53 95.68C265.343 95.4133 265.303 95.0667 265.41 94.64C265.676 93.6533 266.156 92.9067 266.85 92.4C267.57 91.8933 268.423 91.64 269.41 91.64C270.13 91.64 270.783 91.7867 271.37 92.08C271.956 92.3733 272.503 92.6667 273.01 92.96C273.543 93.2533 274.063 93.4 274.57 93.4C274.97 93.4 275.33 93.3333 275.65 93.2C275.97 93.04 276.196 92.7867 276.33 92.44C276.463 92.1467 276.636 91.92 276.85 91.76C277.09 91.6 277.383 91.5333 277.73 91.56C278.103 91.5867 278.396 91.7333 278.61 92C278.823 92.24 278.863 92.5867 278.73 93.04C278.463 94.0267 277.97 94.7733 277.25 95.28C276.556 95.7867 275.716 96.04 274.73 96.04C274.01 96.04 273.343 95.8933 272.73 95.6C272.143 95.3067 271.596 95.0133 271.09 94.72C270.583 94.4267 270.076 94.28 269.57 94.28C269.17 94.28 268.81 94.36 268.49 94.52C268.17 94.6533 267.943 94.8933 267.81 95.24C267.703 95.5333 267.53 95.76 267.29 95.92C267.076 96.08 266.783 96.1467 266.41 96.12ZM288.277 133.32C287.504 133.32 286.904 133.107 286.477 132.68C286.077 132.253 285.877 131.64 285.877 130.84V107.04C285.877 106.213 286.077 105.587 286.477 105.16C286.904 104.707 287.45 104.48 288.117 104.48C288.73 104.48 289.184 104.6 289.477 104.84C289.797 105.053 290.17 105.427 290.597 105.96L305.917 125.84H304.877V106.92C304.877 106.147 305.077 105.547 305.477 105.12C305.904 104.693 306.504 104.48 307.277 104.48C308.05 104.48 308.637 104.693 309.037 105.12C309.437 105.547 309.637 106.147 309.637 106.92V130.92C309.637 131.667 309.45 132.253 309.077 132.68C308.704 133.107 308.197 133.32 307.557 133.32C306.944 133.32 306.45 133.2 306.077 132.96C305.73 132.72 305.344 132.333 304.917 131.8L289.637 111.92H290.637V130.84C290.637 131.64 290.437 132.253 290.037 132.68C289.637 133.107 289.05 133.32 288.277 133.32ZM329.218 133.32C328.391 133.32 327.751 133.093 327.298 132.64C326.871 132.16 326.658 131.507 326.658 130.68V107.4C326.658 106.547 326.885 105.907 327.338 105.48C327.791 105.027 328.431 104.8 329.258 104.8H338.898C341.991 104.8 344.378 105.573 346.058 107.12C347.738 108.667 348.578 110.827 348.578 113.6C348.578 116.373 347.738 118.547 346.058 120.12C344.378 121.667 341.991 122.44 338.898 122.44H331.778V130.68C331.778 131.507 331.565 132.16 331.138 132.64C330.711 133.093 330.071 133.32 329.218 133.32ZM331.778 118.4H338.098C339.911 118.4 341.285 118 342.218 117.2C343.151 116.373 343.618 115.173 343.618 113.6C343.618 112.027 343.151 110.84 342.218 110.04C341.285 109.24 339.911 108.84 338.098 108.84H331.778V118.4ZM355.312 133.32C354.485 133.32 353.845 133.093 353.392 132.64C352.965 132.16 352.752 131.507 352.752 130.68V107.12C352.752 106.267 352.965 105.613 353.392 105.16C353.845 104.707 354.485 104.48 355.312 104.48C356.139 104.48 356.765 104.707 357.192 105.16C357.645 105.613 357.872 106.267 357.872 107.12V116.56H372.392V107.12C372.392 106.267 372.605 105.613 373.032 105.16C373.485 104.707 374.125 104.48 374.952 104.48C375.779 104.48 376.405 104.707 376.832 105.16C377.285 105.613 377.512 106.267 377.512 107.12V130.68C377.512 131.507 377.285 132.16 376.832 132.64C376.405 133.093 375.779 133.32 374.952 133.32C374.125 133.32 373.485 133.093 373.032 132.64C372.605 132.16 372.392 131.507 372.392 130.68V120.84H357.872V130.68C357.872 131.507 357.659 132.16 357.232 132.64C356.805 133.093 356.165 133.32 355.312 133.32ZM386.249 133.32C385.423 133.32 384.783 133.093 384.329 132.64C383.903 132.16 383.689 131.507 383.689 130.68V107.12C383.689 106.267 383.903 105.613 384.329 105.16C384.783 104.707 385.423 104.48 386.249 104.48C387.076 104.48 387.703 104.707 388.129 105.16C388.583 105.613 388.809 106.267 388.809 107.12V130.68C388.809 131.507 388.596 132.16 388.169 132.64C387.743 133.093 387.103 133.32 386.249 133.32ZM388.289 102.16C387.969 102.507 387.609 102.693 387.209 102.72C386.836 102.72 386.489 102.613 386.169 102.4C385.876 102.16 385.676 101.867 385.569 101.52C385.489 101.173 385.569 100.813 385.809 100.44L388.929 95.84C389.223 95.3867 389.569 95.12 389.969 95.04C390.396 94.9333 390.809 94.96 391.209 95.12C391.609 95.2533 391.929 95.48 392.169 95.8C392.436 96.0933 392.583 96.44 392.609 96.84C392.636 97.2133 392.476 97.5867 392.129 97.96L388.289 102.16Z" fill="#FFF8F2"/>
<defs>
<clipPath id="clip0_24723_202652">
<rect width="55" height="55" fill="white" transform="translate(386 78)"/>
</clipPath>
</defs>
</svg>
