<svg width="220" height="260" viewBox="0 0 220 260" fill="none" xmlns="http://www.w3.org/2000/svg">
<g clipPath="url(#clip0_24759_178022)">
<rect width="220" height="260" rx="12" fill="#EEEEFB"/>
<path d="M19.384 38.192C18.888 38.192 18.504 38.056 18.232 37.784C17.976 37.496 17.848 37.104 17.848 36.608V22.64C17.848 22.128 17.984 21.744 18.256 21.488C18.528 21.216 18.912 21.08 19.408 21.08H25.192C27.048 21.08 28.48 21.528 29.488 22.424C30.496 23.304 31 24.544 31 26.144C31 27.184 30.768 28.08 30.304 28.832C29.856 29.584 29.2 30.16 28.336 30.56C27.472 30.96 26.424 31.16 25.192 31.16L25.408 30.8H26.2C26.856 30.8 27.424 30.96 27.904 31.28C28.4 31.6 28.832 32.104 29.2 32.792L31 36.128C31.192 36.464 31.28 36.792 31.264 37.112C31.248 37.432 31.128 37.696 30.904 37.904C30.68 38.096 30.352 38.192 29.92 38.192C29.488 38.192 29.136 38.104 28.864 37.928C28.592 37.736 28.352 37.448 28.144 37.064L25.72 32.6C25.432 32.056 25.088 31.696 24.688 31.52C24.304 31.328 23.808 31.232 23.2 31.232H20.92V36.608C20.92 37.104 20.792 37.496 20.536 37.784C20.28 38.056 19.896 38.192 19.384 38.192ZM20.92 28.952H24.664C25.768 28.952 26.6 28.728 27.16 28.28C27.736 27.816 28.024 27.128 28.024 26.216C28.024 25.32 27.736 24.648 27.16 24.2C26.6 23.736 25.768 23.504 24.664 23.504H20.92V28.952ZM39.4924 38.24C38.1644 38.24 37.0204 37.992 36.0604 37.496C35.1004 37 34.3564 36.296 33.8284 35.384C33.3164 34.472 33.0604 33.392 33.0604 32.144C33.0604 30.928 33.3084 29.864 33.8044 28.952C34.3164 28.04 35.0124 27.328 35.8924 26.816C36.7884 26.288 37.8044 26.024 38.9404 26.024C39.7724 26.024 40.5164 26.16 41.1724 26.432C41.8444 26.704 42.4124 27.096 42.8764 27.608C43.3564 28.12 43.7164 28.744 43.9564 29.48C44.2124 30.2 44.3404 31.016 44.3404 31.928C44.3404 32.216 44.2364 32.44 44.0284 32.6C43.8364 32.744 43.5564 32.816 43.1884 32.816H35.4844V31.088H42.2284L41.8444 31.448C41.8444 30.712 41.7324 30.096 41.5084 29.6C41.3004 29.104 40.9884 28.728 40.5724 28.472C40.1724 28.2 39.6684 28.064 39.0604 28.064C38.3884 28.064 37.8124 28.224 37.3324 28.544C36.8684 28.848 36.5084 29.288 36.2524 29.864C36.0124 30.424 35.8924 31.096 35.8924 31.88V32.048C35.8924 33.36 36.1964 34.344 36.8044 35C37.4284 35.64 38.3404 35.96 39.5404 35.96C39.9564 35.96 40.4204 35.912 40.9324 35.816C41.4604 35.704 41.9564 35.52 42.4204 35.264C42.7564 35.072 43.0524 34.992 43.3084 35.024C43.5644 35.04 43.7644 35.128 43.9084 35.288C44.0684 35.448 44.1644 35.648 44.1964 35.888C44.2284 36.112 44.1804 36.344 44.0524 36.584C43.9404 36.824 43.7404 37.032 43.4524 37.208C42.8924 37.56 42.2444 37.824 41.5084 38C40.7884 38.16 40.1164 38.24 39.4924 38.24ZM50.5803 38.24C49.7323 38.24 48.9723 38.08 48.3003 37.76C47.6443 37.424 47.1243 36.976 46.7402 36.416C46.3723 35.856 46.1883 35.224 46.1883 34.52C46.1883 33.656 46.4123 32.976 46.8603 32.48C47.3083 31.968 48.0363 31.6 49.0443 31.376C50.0523 31.152 51.4043 31.04 53.1003 31.04H54.3003V32.768H53.1243C52.1323 32.768 51.3403 32.816 50.7483 32.912C50.1563 33.008 49.7323 33.176 49.4763 33.416C49.2363 33.64 49.1163 33.96 49.1163 34.376C49.1163 34.904 49.3003 35.336 49.6683 35.672C50.0363 36.008 50.5483 36.176 51.2043 36.176C51.7323 36.176 52.1963 36.056 52.5963 35.816C53.0123 35.56 53.3403 35.216 53.5803 34.784C53.8203 34.352 53.9403 33.856 53.9403 33.296V30.536C53.9403 29.736 53.7643 29.16 53.4123 28.808C53.0603 28.456 52.4683 28.28 51.6363 28.28C51.1723 28.28 50.6683 28.336 50.1243 28.448C49.5963 28.56 49.0363 28.752 48.4443 29.024C48.1403 29.168 47.8683 29.208 47.6283 29.144C47.4043 29.08 47.2283 28.952 47.1003 28.76C46.9723 28.552 46.9083 28.328 46.9083 28.088C46.9083 27.848 46.9723 27.616 47.1003 27.392C47.2283 27.152 47.4443 26.976 47.7483 26.864C48.4843 26.56 49.1883 26.344 49.8603 26.216C50.5483 26.088 51.1723 26.024 51.7323 26.024C52.8843 26.024 53.8283 26.2 54.5643 26.552C55.3163 26.904 55.8763 27.44 56.2443 28.16C56.6123 28.864 56.7963 29.776 56.7963 30.896V36.656C56.7963 37.152 56.6763 37.536 56.4363 37.808C56.1963 38.064 55.8523 38.192 55.4043 38.192C54.9563 38.192 54.6043 38.064 54.3483 37.808C54.1083 37.536 53.9883 37.152 53.9883 36.656V35.504H54.1803C54.0683 36.064 53.8443 36.552 53.5083 36.968C53.1883 37.368 52.7803 37.68 52.2843 37.904C51.7883 38.128 51.2203 38.24 50.5803 38.24ZM64.3533 38.24C63.3293 38.24 62.4253 37.992 61.6413 37.496C60.8733 37 60.2733 36.296 59.8413 35.384C59.4093 34.456 59.1933 33.368 59.1933 32.12C59.1933 30.856 59.4093 29.776 59.8413 28.88C60.2733 27.968 60.8733 27.264 61.6413 26.768C62.4253 26.272 63.3293 26.024 64.3533 26.024C65.3293 26.024 66.1773 26.264 66.8973 26.744C67.6333 27.224 68.1293 27.856 68.3853 28.64H68.1213V22.4C68.1213 21.904 68.2493 21.528 68.5053 21.272C68.7613 21.016 69.1293 20.888 69.6093 20.888C70.0893 20.888 70.4573 21.016 70.7133 21.272C70.9853 21.528 71.1213 21.904 71.1213 22.4V36.656C71.1213 37.152 70.9933 37.536 70.7373 37.808C70.4813 38.064 70.1133 38.192 69.6333 38.192C69.1533 38.192 68.7853 38.064 68.5293 37.808C68.2733 37.536 68.1453 37.152 68.1453 36.656V34.784L68.4093 35.504C68.1693 36.336 67.6813 37 66.9453 37.496C66.2093 37.992 65.3453 38.24 64.3533 38.24ZM65.1933 35.96C65.7853 35.96 66.3053 35.816 66.7533 35.528C67.2013 35.24 67.5453 34.816 67.7853 34.256C68.0413 33.68 68.1693 32.968 68.1693 32.12C68.1693 30.84 67.8973 29.888 67.3533 29.264C66.8093 28.624 66.0893 28.304 65.1933 28.304C64.6013 28.304 64.0813 28.448 63.6333 28.736C63.1853 29.008 62.8333 29.432 62.5773 30.008C62.3373 30.568 62.2173 31.272 62.2173 32.12C62.2173 33.384 62.4893 34.344 63.0333 35C63.5773 35.64 64.2973 35.96 65.1933 35.96ZM75.7199 38.168C75.2399 38.168 74.8719 38.024 74.6159 37.736C74.3599 37.448 74.2319 37.048 74.2319 36.536V27.728C74.2319 27.2 74.3599 26.8 74.6159 26.528C74.8719 26.24 75.2399 26.096 75.7199 26.096C76.1999 26.096 76.5679 26.24 76.8239 26.528C77.0959 26.8 77.2319 27.2 77.2319 27.728V36.536C77.2319 37.048 77.1039 37.448 76.8479 37.736C76.5919 38.024 76.2159 38.168 75.7199 38.168ZM75.7199 23.864C75.1599 23.864 74.7199 23.728 74.3999 23.456C74.0959 23.168 73.9439 22.776 73.9439 22.28C73.9439 21.768 74.0959 21.376 74.3999 21.104C74.7199 20.832 75.1599 20.696 75.7199 20.696C76.2959 20.696 76.7359 20.832 77.0399 21.104C77.3439 21.376 77.4959 21.768 77.4959 22.28C77.4959 22.776 77.3439 23.168 77.0399 23.456C76.7359 23.728 76.2959 23.864 75.7199 23.864ZM81.8371 38.192C81.3571 38.192 80.9891 38.064 80.7331 37.808C80.4771 37.536 80.3491 37.152 80.3491 36.656V27.584C80.3491 27.088 80.4771 26.712 80.7331 26.456C80.9891 26.2 81.3491 26.072 81.8131 26.072C82.2771 26.072 82.6371 26.2 82.8931 26.456C83.1491 26.712 83.2771 27.088 83.2771 27.584V29.216L83.0131 28.616C83.3651 27.768 83.9091 27.128 84.6451 26.696C85.3971 26.248 86.2451 26.024 87.1891 26.024C88.1331 26.024 88.9091 26.2 89.5171 26.552C90.1251 26.904 90.5811 27.44 90.8851 28.16C91.1891 28.864 91.3411 29.76 91.3411 30.848V36.656C91.3411 37.152 91.2131 37.536 90.9571 37.808C90.7011 38.064 90.3331 38.192 89.8531 38.192C89.3731 38.192 88.9971 38.064 88.7251 37.808C88.4691 37.536 88.3411 37.152 88.3411 36.656V30.992C88.3411 30.08 88.1651 29.416 87.8131 29C87.4771 28.584 86.9491 28.376 86.2291 28.376C85.3491 28.376 84.6451 28.656 84.1171 29.216C83.6051 29.76 83.3491 30.488 83.3491 31.4V36.656C83.3491 37.68 82.8451 38.192 81.8371 38.192ZM99.8601 42.56C98.9961 42.56 98.1561 42.48 97.3401 42.32C96.5401 42.16 95.8121 41.912 95.1561 41.576C94.8521 41.416 94.6441 41.224 94.5321 41C94.4361 40.776 94.4041 40.544 94.4361 40.304C94.4841 40.08 94.5801 39.88 94.7241 39.704C94.8841 39.528 95.0761 39.408 95.3001 39.344C95.5241 39.28 95.7561 39.312 95.9961 39.44C96.7001 39.792 97.3641 40.016 97.9881 40.112C98.6281 40.224 99.1721 40.28 99.6201 40.28C100.692 40.28 101.492 40.016 102.02 39.488C102.564 38.976 102.836 38.208 102.836 37.184V35.024H103.052C102.812 35.84 102.308 36.496 101.54 36.992C100.788 37.472 99.9321 37.712 98.9721 37.712C97.9161 37.712 96.9961 37.472 96.2121 36.992C95.4281 36.496 94.8201 35.808 94.3881 34.928C93.9561 34.048 93.7401 33.024 93.7401 31.856C93.7401 30.976 93.8601 30.184 94.1001 29.48C94.3561 28.76 94.7081 28.144 95.1561 27.632C95.6201 27.12 96.1721 26.728 96.8121 26.456C97.4681 26.168 98.1881 26.024 98.9721 26.024C99.9641 26.024 100.828 26.272 101.564 26.768C102.316 27.248 102.804 27.888 103.028 28.688L102.788 29.288V27.584C102.788 27.088 102.916 26.712 103.172 26.456C103.444 26.2 103.812 26.072 104.276 26.072C104.756 26.072 105.124 26.2 105.38 26.456C105.636 26.712 105.764 27.088 105.764 27.584V36.824C105.764 38.728 105.26 40.16 104.252 41.12C103.244 42.08 101.78 42.56 99.8601 42.56ZM99.7881 35.432C100.412 35.432 100.948 35.288 101.396 35C101.844 34.712 102.188 34.304 102.428 33.776C102.684 33.232 102.812 32.592 102.812 31.856C102.812 30.752 102.54 29.888 101.996 29.264C101.452 28.624 100.716 28.304 99.7881 28.304C99.1641 28.304 98.6281 28.448 98.1801 28.736C97.7321 29.024 97.3801 29.432 97.1241 29.96C96.8841 30.488 96.7641 31.12 96.7641 31.856C96.7641 32.96 97.0361 33.832 97.5801 34.472C98.1241 35.112 98.8601 35.432 99.7881 35.432Z" fill="#5856D6"/>
<g clipPath="url(#clip1_24759_178022)">
<path d="M92.3252 67.8391C92.3252 73.829 97.3042 78.6782 103.442 78.6782H115.881L116.553 69.371C116.627 68.8696 116.666 68.3571 116.666 67.8391C116.666 62.1854 112.224 57.54 106.556 57.0441V57H103.442C100.373 57 97.5924 58.2123 95.5805 60.174C93.5685 62.1358 92.3252 64.8469 92.3252 67.8391Z" fill="url(#paint0_linear_24759_178022)"/>
<path d="M218.406 207.156C218.406 212.809 222.843 217.455 228.511 217.951V217.995H230.885C233.954 217.995 236.734 216.782 238.746 214.821C240.758 212.853 242.001 210.148 242.001 207.156C242.001 201.171 237.022 196.316 230.885 196.316H219.192L218.519 205.624C218.446 206.125 218.406 206.632 218.406 207.156Z" fill="url(#paint1_radial_24759_178022)"/>
<path d="M220.542 207.155C220.542 206.637 220.576 206.124 220.655 205.623L221.328 196.316L230.523 69.4975V69.4755C230.613 68.9465 230.653 68.4009 230.653 67.8499C230.653 61.86 225.674 57.0107 219.536 57.0107H104.765V57.0548C110.433 57.5508 114.87 62.1961 114.87 67.8499C114.87 68.3679 114.836 68.8803 114.757 69.3818L114.084 78.689L104.878 205.629L104.765 207.16C104.765 213.145 109.744 218 115.881 218H230.653V217.95C224.99 217.454 220.542 212.809 220.542 207.155Z" fill="url(#paint2_linear_24759_178022)"/>
<path d="M228.85 82.675H122.928C122.384 82.675 121.944 82.2668 121.944 81.7623C121.944 81.2578 122.384 80.8496 122.928 80.8496H228.85C229.393 80.8496 229.833 81.2578 229.833 81.7623C229.833 82.2668 229.393 82.675 228.85 82.675Z" fill="url(#paint3_linear_24759_178022)"/>
<path d="M227.854 96.6886H121.932C121.388 96.6886 120.948 96.2805 120.948 95.776C120.948 95.2714 121.388 94.8633 121.932 94.8633H227.854C228.397 94.8633 228.837 95.2714 228.837 95.776C228.837 96.2805 228.397 96.6886 227.854 96.6886Z" fill="url(#paint4_linear_24759_178022)"/>
<path d="M226.768 110.695H120.846C120.302 110.695 119.862 110.287 119.862 109.783C119.862 109.278 120.302 108.87 120.846 108.87H226.768C227.311 108.87 227.751 109.278 227.751 109.783C227.751 110.287 227.311 110.695 226.768 110.695Z" fill="url(#paint5_linear_24759_178022)"/>
<path d="M225.77 124.709H119.848C119.304 124.709 118.864 124.301 118.864 123.796C118.864 123.292 119.304 122.884 119.848 122.884H225.77C226.313 122.884 226.753 123.292 226.753 123.796C226.753 124.301 226.313 124.709 225.77 124.709Z" fill="url(#paint6_linear_24759_178022)"/>
<path d="M224.553 138.722H118.631C118.087 138.722 117.647 138.314 117.647 137.809C117.647 137.305 118.087 136.896 118.631 136.896H224.553C225.097 136.896 225.537 137.305 225.537 137.809C225.537 138.314 225.097 138.722 224.553 138.722Z" fill="url(#paint7_linear_24759_178022)"/>
<path d="M223.596 152.736H117.674C117.13 152.736 116.69 152.327 116.69 151.823C116.69 151.318 117.13 150.91 117.674 150.91H223.596C224.14 150.91 224.58 151.318 224.58 151.823C224.58 152.327 224.14 152.736 223.596 152.736Z" fill="url(#paint8_linear_24759_178022)"/>
<path d="M222.769 166.748H116.847C116.303 166.748 115.863 166.34 115.863 165.836C115.863 165.331 116.303 164.923 116.847 164.923H222.769C223.312 164.923 223.752 165.331 223.752 165.836C223.752 166.34 223.312 166.748 222.769 166.748Z" fill="url(#paint9_linear_24759_178022)"/>
<path d="M221.418 180.756H115.497C114.953 180.756 114.513 180.348 114.513 179.843C114.513 179.339 114.953 178.931 115.497 178.931H221.418C221.962 178.931 222.402 179.339 222.402 179.843C222.402 180.348 221.962 180.756 221.418 180.756Z" fill="url(#paint10_linear_24759_178022)"/>
<path d="M220.332 194.77H114.411C113.867 194.77 113.427 194.362 113.427 193.857C113.427 193.352 113.867 192.944 114.411 192.944H220.332C220.876 192.944 221.316 193.352 221.316 193.857C221.316 194.362 220.876 194.77 220.332 194.77Z" fill="url(#paint11_linear_24759_178022)"/>
<path d="M219.152 208.782H113.231C112.687 208.782 112.247 208.374 112.247 207.87C112.247 207.365 112.687 206.957 113.231 206.957H219.152C219.696 206.957 220.136 207.365 220.136 207.87C220.136 208.374 219.696 208.782 219.152 208.782Z" fill="url(#paint12_linear_24759_178022)"/>
<path d="M67.7117 94.418L59.3814 95.9089C57.5785 96.232 56.1657 97.6435 55.8492 99.4518L54.3628 107.808L52.8821 99.4518C52.56 97.6435 51.1527 96.2263 49.3499 95.9089L41.0195 94.418L49.3499 92.9271C51.1527 92.604 52.5656 91.1868 52.8821 89.3841L54.3628 81.0283L55.8492 89.3841C56.1713 91.1924 57.5785 92.6096 59.3814 92.9271L67.7117 94.418Z" fill="#FABF49"/>
<path d="M77.7541 79.1744L72.6677 80.0814C71.5657 80.2798 70.7066 81.1414 70.5088 82.2468L69.6046 87.3487L68.7003 82.2468C68.5025 81.1414 67.6435 80.2798 66.5415 80.0814L61.4551 79.1744L66.5415 78.2674C67.6435 78.069 68.5025 77.2073 68.7003 76.1019L69.6046 71L70.5088 76.1019C70.7066 77.2073 71.5657 78.069 72.6677 78.2674L77.7541 79.1744Z" fill="#FF6D3B"/>
<ellipse cx="112.492" cy="139.743" rx="31.0109" ry="31.0109" transform="rotate(6.24771 112.492 139.743)" fill="url(#paint13_linear_24759_178022)"/>
<path d="M129.458 98.7485C108.135 89.5924 83.3796 99.3681 74.0112 120.729C66.9533 136.819 70.6362 154.925 81.9269 166.966L62.9026 210.344C59.2206 218.737 63.0192 228.526 71.3837 232.214C79.7482 235.901 89.5089 232.084 93.1909 223.691L112.215 180.313C128.666 180.514 144.43 171.032 151.506 154.997C160.939 133.614 150.872 107.944 129.458 98.7485ZM103.376 163.727C87.7861 158.018 80.7587 139.887 88.3969 125.1C94.7152 112.879 109.293 107.182 122.181 111.898C137.771 117.607 144.798 135.738 137.16 150.525C130.841 162.751 116.263 168.448 103.376 163.727Z" fill="url(#paint14_linear_24759_178022)"/>
<path d="M97.7395 239.203C96.7209 242.875 93.2955 244.865 89.5721 244.389C85.8292 243.912 85.7858 249.767 89.4995 250.24C95.7897 251.042 101.716 246.844 103.378 240.843C104.386 237.232 98.7445 235.575 97.7395 239.203Z" fill="#FABF49"/>
<path d="M56.3095 175.602C52.4506 173.612 48.1 173.138 43.9162 174.421C40.549 175.456 41.989 180.638 45.3781 179.594C48.1527 178.742 50.936 178.896 53.5262 180.231C56.6607 181.848 59.4484 177.219 56.3095 175.602Z" fill="#749EF2"/>
<path d="M58.1915 166.545C55.4229 162.207 51.4362 159.673 46.6317 159.016C45.1878 158.817 43.9739 160.491 43.9611 161.916C43.9441 163.645 45.2048 164.621 46.6317 164.815C49.4088 165.199 51.9942 166.993 53.5786 169.472C55.5251 172.519 60.155 169.62 58.1915 166.545Z" fill="#749EF2"/>
</g>
<path d="M123.872 75.108C123.52 75.108 123.248 75.012 123.056 74.82C122.864 74.62 122.768 74.344 122.768 73.992V67.656C122.768 67.296 122.864 67.02 123.056 66.828C123.256 66.636 123.532 66.54 123.884 66.54H126.836C127.796 66.54 128.536 66.788 129.056 67.284C129.584 67.772 129.848 68.448 129.848 69.312C129.848 70.176 129.584 70.856 129.056 71.352C128.536 71.84 127.796 72.084 126.836 72.084H124.976V73.992C124.976 74.344 124.884 74.62 124.7 74.82C124.516 75.012 124.24 75.108 123.872 75.108ZM124.976 70.392H126.452C126.868 70.392 127.188 70.304 127.412 70.128C127.636 69.944 127.748 69.672 127.748 69.312C127.748 68.944 127.636 68.672 127.412 68.496C127.188 68.32 126.868 68.232 126.452 68.232H124.976V70.392ZM132.528 75.132C132.072 75.132 131.668 75.048 131.316 74.88C130.972 74.712 130.7 74.484 130.5 74.196C130.308 73.9 130.212 73.564 130.212 73.188C130.212 72.756 130.324 72.416 130.548 72.168C130.772 71.92 131.132 71.744 131.628 71.64C132.124 71.528 132.784 71.472 133.608 71.472H134.268V72.48H133.608C133.296 72.48 133.036 72.504 132.828 72.552C132.628 72.592 132.48 72.66 132.384 72.756C132.288 72.844 132.24 72.96 132.24 73.104C132.24 73.288 132.304 73.44 132.432 73.56C132.568 73.68 132.76 73.74 133.008 73.74C133.208 73.74 133.384 73.696 133.536 73.608C133.696 73.52 133.824 73.4 133.92 73.248C134.016 73.088 134.064 72.904 134.064 72.696V71.304C134.064 71.016 133.988 70.812 133.836 70.692C133.692 70.572 133.44 70.512 133.08 70.512C132.888 70.512 132.672 70.536 132.432 70.584C132.192 70.624 131.924 70.7 131.628 70.812C131.412 70.892 131.228 70.904 131.076 70.848C130.924 70.792 130.804 70.696 130.716 70.56C130.636 70.424 130.596 70.276 130.596 70.116C130.604 69.956 130.656 69.804 130.752 69.66C130.856 69.516 131.012 69.404 131.22 69.324C131.604 69.18 131.956 69.084 132.276 69.036C132.604 68.988 132.904 68.964 133.176 68.964C133.832 68.964 134.372 69.06 134.796 69.252C135.228 69.436 135.548 69.724 135.756 70.116C135.972 70.5 136.08 70.996 136.08 71.604V74.028C136.08 74.38 135.996 74.648 135.828 74.832C135.66 75.016 135.416 75.108 135.096 75.108C134.768 75.108 134.516 75.016 134.34 74.832C134.172 74.648 134.088 74.38 134.088 74.028V73.716L134.16 73.884C134.12 74.14 134.028 74.36 133.884 74.544C133.74 74.728 133.552 74.872 133.32 74.976C133.088 75.08 132.824 75.132 132.528 75.132ZM139.648 75.132C139.296 75.132 138.936 75.104 138.568 75.048C138.208 75 137.88 74.908 137.584 74.772C137.384 74.692 137.24 74.584 137.152 74.448C137.072 74.312 137.032 74.168 137.032 74.016C137.04 73.864 137.084 73.728 137.164 73.608C137.252 73.48 137.364 73.392 137.5 73.344C137.644 73.288 137.804 73.292 137.98 73.356C138.316 73.476 138.616 73.564 138.88 73.62C139.152 73.668 139.412 73.692 139.66 73.692C139.956 73.692 140.168 73.652 140.296 73.572C140.424 73.484 140.488 73.372 140.488 73.236C140.488 73.116 140.444 73.024 140.356 72.96C140.276 72.896 140.16 72.852 140.008 72.828L138.676 72.612C138.18 72.524 137.796 72.344 137.524 72.072C137.252 71.792 137.116 71.428 137.116 70.98C137.116 70.564 137.232 70.208 137.464 69.912C137.704 69.608 138.028 69.376 138.436 69.216C138.852 69.048 139.328 68.964 139.864 68.964C140.224 68.964 140.552 68.992 140.848 69.048C141.144 69.096 141.432 69.188 141.712 69.324C141.888 69.396 142.012 69.5 142.084 69.636C142.156 69.772 142.184 69.916 142.168 70.068C142.152 70.212 142.1 70.348 142.012 70.476C141.932 70.596 141.82 70.68 141.676 70.728C141.532 70.768 141.364 70.756 141.172 70.692C140.908 70.588 140.672 70.512 140.464 70.464C140.264 70.416 140.076 70.392 139.9 70.392C139.572 70.392 139.34 70.436 139.204 70.524C139.068 70.612 139 70.724 139 70.86C139 70.964 139.036 71.052 139.108 71.124C139.18 71.188 139.292 71.232 139.444 71.256L140.776 71.484C141.288 71.564 141.68 71.74 141.952 72.012C142.232 72.276 142.372 72.636 142.372 73.092C142.372 73.74 142.124 74.244 141.628 74.604C141.132 74.956 140.472 75.132 139.648 75.132ZM145.601 75.132C145.249 75.132 144.889 75.104 144.521 75.048C144.161 75 143.833 74.908 143.537 74.772C143.337 74.692 143.193 74.584 143.105 74.448C143.025 74.312 142.985 74.168 142.985 74.016C142.993 73.864 143.037 73.728 143.117 73.608C143.205 73.48 143.317 73.392 143.453 73.344C143.597 73.288 143.757 73.292 143.933 73.356C144.269 73.476 144.569 73.564 144.833 73.62C145.105 73.668 145.365 73.692 145.613 73.692C145.909 73.692 146.121 73.652 146.249 73.572C146.377 73.484 146.441 73.372 146.441 73.236C146.441 73.116 146.397 73.024 146.309 72.96C146.229 72.896 146.113 72.852 145.961 72.828L144.629 72.612C144.133 72.524 143.749 72.344 143.477 72.072C143.205 71.792 143.069 71.428 143.069 70.98C143.069 70.564 143.185 70.208 143.417 69.912C143.657 69.608 143.981 69.376 144.389 69.216C144.805 69.048 145.281 68.964 145.817 68.964C146.177 68.964 146.505 68.992 146.801 69.048C147.097 69.096 147.385 69.188 147.665 69.324C147.841 69.396 147.965 69.5 148.037 69.636C148.109 69.772 148.137 69.916 148.121 70.068C148.105 70.212 148.053 70.348 147.965 70.476C147.885 70.596 147.773 70.68 147.629 70.728C147.485 70.768 147.317 70.756 147.125 70.692C146.861 70.588 146.625 70.512 146.417 70.464C146.217 70.416 146.029 70.392 145.853 70.392C145.525 70.392 145.293 70.436 145.157 70.524C145.021 70.612 144.953 70.724 144.953 70.86C144.953 70.964 144.989 71.052 145.061 71.124C145.133 71.188 145.245 71.232 145.397 71.256L146.729 71.484C147.241 71.564 147.633 71.74 147.905 72.012C148.185 72.276 148.325 72.636 148.325 73.092C148.325 73.74 148.077 74.244 147.581 74.604C147.085 74.956 146.425 75.132 145.601 75.132ZM151.254 75.132C150.798 75.132 150.394 75.048 150.042 74.88C149.698 74.712 149.426 74.484 149.226 74.196C149.034 73.9 148.938 73.564 148.938 73.188C148.938 72.756 149.05 72.416 149.274 72.168C149.498 71.92 149.858 71.744 150.354 71.64C150.85 71.528 151.51 71.472 152.334 71.472H152.994V72.48H152.334C152.022 72.48 151.762 72.504 151.554 72.552C151.354 72.592 151.206 72.66 151.11 72.756C151.014 72.844 150.966 72.96 150.966 73.104C150.966 73.288 151.03 73.44 151.158 73.56C151.294 73.68 151.486 73.74 151.734 73.74C151.934 73.74 152.11 73.696 152.262 73.608C152.422 73.52 152.55 73.4 152.646 73.248C152.742 73.088 152.79 72.904 152.79 72.696V71.304C152.79 71.016 152.714 70.812 152.562 70.692C152.418 70.572 152.166 70.512 151.806 70.512C151.614 70.512 151.398 70.536 151.158 70.584C150.918 70.624 150.65 70.7 150.354 70.812C150.138 70.892 149.954 70.904 149.802 70.848C149.65 70.792 149.53 70.696 149.442 70.56C149.362 70.424 149.322 70.276 149.322 70.116C149.33 69.956 149.382 69.804 149.478 69.66C149.582 69.516 149.738 69.404 149.946 69.324C150.33 69.18 150.682 69.084 151.002 69.036C151.33 68.988 151.63 68.964 151.902 68.964C152.558 68.964 153.098 69.06 153.522 69.252C153.954 69.436 154.274 69.724 154.482 70.116C154.698 70.5 154.806 70.996 154.806 71.604V74.028C154.806 74.38 154.722 74.648 154.554 74.832C154.386 75.016 154.142 75.108 153.822 75.108C153.494 75.108 153.242 75.016 153.066 74.832C152.898 74.648 152.814 74.38 152.814 74.028V73.716L152.886 73.884C152.846 74.14 152.754 74.36 152.61 74.544C152.466 74.728 152.278 74.872 152.046 74.976C151.814 75.08 151.55 75.132 151.254 75.132ZM158.95 77.292C158.51 77.292 158.098 77.26 157.714 77.196C157.33 77.14 156.998 77.056 156.718 76.944C156.486 76.864 156.322 76.748 156.226 76.596C156.13 76.444 156.086 76.284 156.094 76.116C156.102 75.948 156.146 75.796 156.226 75.66C156.314 75.524 156.43 75.424 156.574 75.36C156.718 75.304 156.878 75.308 157.054 75.372C157.406 75.516 157.726 75.608 158.014 75.648C158.302 75.696 158.546 75.72 158.746 75.72C159.234 75.72 159.598 75.616 159.838 75.408C160.086 75.208 160.21 74.892 160.21 74.46V73.704H160.306C160.186 74.04 159.942 74.316 159.574 74.532C159.206 74.74 158.806 74.844 158.374 74.844C157.846 74.844 157.386 74.724 156.994 74.484C156.602 74.236 156.294 73.892 156.07 73.452C155.854 73.012 155.746 72.496 155.746 71.904C155.746 71.456 155.81 71.052 155.938 70.692C156.066 70.332 156.242 70.024 156.466 69.768C156.698 69.512 156.974 69.316 157.294 69.18C157.622 69.036 157.982 68.964 158.374 68.964C158.822 68.964 159.222 69.068 159.574 69.276C159.934 69.484 160.174 69.756 160.294 70.092L160.174 70.584V70.056C160.174 69.712 160.266 69.448 160.45 69.264C160.642 69.08 160.906 68.988 161.242 68.988C161.578 68.988 161.834 69.08 162.01 69.264C162.194 69.448 162.286 69.712 162.286 70.056V74.208C162.286 75.232 161.998 76 161.422 76.512C160.846 77.032 160.022 77.292 158.95 77.292ZM159.034 73.272C159.274 73.272 159.478 73.22 159.646 73.116C159.814 73.004 159.946 72.848 160.042 72.648C160.138 72.44 160.186 72.192 160.186 71.904C160.186 71.472 160.082 71.136 159.874 70.896C159.666 70.656 159.386 70.536 159.034 70.536C158.81 70.536 158.61 70.592 158.434 70.704C158.258 70.808 158.122 70.964 158.026 71.172C157.938 71.372 157.894 71.616 157.894 71.904C157.894 72.336 157.998 72.672 158.206 72.912C158.414 73.152 158.69 73.272 159.034 73.272ZM166.75 75.132C166.03 75.132 165.406 75.008 164.878 74.76C164.358 74.504 163.958 74.144 163.678 73.68C163.398 73.216 163.258 72.668 163.258 72.036C163.258 71.428 163.39 70.896 163.654 70.44C163.926 69.976 164.294 69.616 164.758 69.36C165.23 69.096 165.766 68.964 166.366 68.964C166.806 68.964 167.206 69.036 167.566 69.18C167.926 69.316 168.234 69.52 168.49 69.792C168.746 70.056 168.938 70.376 169.066 70.752C169.202 71.128 169.27 71.548 169.27 72.012C169.27 72.172 169.226 72.292 169.138 72.372C169.05 72.444 168.91 72.48 168.718 72.48H165.046V71.472H167.71L167.518 71.628C167.518 71.332 167.478 71.092 167.398 70.908C167.318 70.724 167.198 70.584 167.038 70.488C166.886 70.392 166.694 70.344 166.462 70.344C166.214 70.344 165.998 70.404 165.814 70.524C165.638 70.636 165.502 70.804 165.406 71.028C165.31 71.252 165.262 71.532 165.262 71.868V71.976C165.262 72.544 165.386 72.952 165.634 73.2C165.89 73.44 166.282 73.56 166.81 73.56C166.986 73.56 167.186 73.54 167.41 73.5C167.642 73.452 167.862 73.388 168.07 73.308C168.278 73.228 168.458 73.216 168.61 73.272C168.762 73.32 168.878 73.408 168.958 73.536C169.046 73.656 169.094 73.796 169.102 73.956C169.11 74.108 169.074 74.26 168.994 74.412C168.914 74.556 168.782 74.668 168.598 74.748C168.318 74.876 168.018 74.972 167.698 75.036C167.386 75.1 167.07 75.132 166.75 75.132Z" fill="#1B2352"/>
</g>
<defs>
<linearGradient id="paint0_linear_24759_178022" x1="104.496" y1="57" x2="121.558" y2="76.9021" gradientUnits="userSpaceOnUse">
<stop stop-color="#749EF2"/>
<stop offset="1" stop-color="#565FCC"/>
</linearGradient>
<radialGradient id="paint1_radial_24759_178022" cx="0" cy="0" r="1" gradientUnits="userSpaceOnUse" gradientTransform="translate(236 200.868) rotate(150.504) scale(26.8652 28.0209)">
<stop offset="1" stop-color="#565FCC"/>
<stop stop-color="#749EF2"/>
</radialGradient>
<linearGradient id="paint2_linear_24759_178022" x1="152.088" y1="50.1447" x2="182.138" y2="191.803" gradientUnits="userSpaceOnUse">
<stop stop-color="#749EF2"/>
<stop offset="1" stop-color="#749EF2"/>
</linearGradient>
<linearGradient id="paint3_linear_24759_178022" x1="150.113" y1="80.7956" x2="150.123" y2="82.9485" gradientUnits="userSpaceOnUse">
<stop stop-color="#141A3D"/>
<stop offset="1" stop-color="#3646A3"/>
</linearGradient>
<linearGradient id="paint4_linear_24759_178022" x1="149.117" y1="94.8093" x2="149.127" y2="96.9622" gradientUnits="userSpaceOnUse">
<stop stop-color="#141A3D"/>
<stop offset="1" stop-color="#3646A3"/>
</linearGradient>
<linearGradient id="paint5_linear_24759_178022" x1="148.031" y1="108.816" x2="148.041" y2="110.969" gradientUnits="userSpaceOnUse">
<stop stop-color="#141A3D"/>
<stop offset="1" stop-color="#3646A3"/>
</linearGradient>
<linearGradient id="paint6_linear_24759_178022" x1="147.033" y1="122.83" x2="147.043" y2="124.983" gradientUnits="userSpaceOnUse">
<stop stop-color="#141A3D"/>
<stop offset="1" stop-color="#3646A3"/>
</linearGradient>
<linearGradient id="paint7_linear_24759_178022" x1="145.816" y1="136.843" x2="145.826" y2="138.995" gradientUnits="userSpaceOnUse">
<stop stop-color="#141A3D"/>
<stop offset="1" stop-color="#3646A3"/>
</linearGradient>
<linearGradient id="paint8_linear_24759_178022" x1="144.859" y1="150.856" x2="144.869" y2="153.009" gradientUnits="userSpaceOnUse">
<stop stop-color="#141A3D"/>
<stop offset="1" stop-color="#3646A3"/>
</linearGradient>
<linearGradient id="paint9_linear_24759_178022" x1="144.032" y1="164.869" x2="144.042" y2="167.022" gradientUnits="userSpaceOnUse">
<stop stop-color="#141A3D"/>
<stop offset="1" stop-color="#3646A3"/>
</linearGradient>
<linearGradient id="paint10_linear_24759_178022" x1="142.682" y1="178.877" x2="142.691" y2="181.03" gradientUnits="userSpaceOnUse">
<stop stop-color="#141A3D"/>
<stop offset="1" stop-color="#3646A3"/>
</linearGradient>
<linearGradient id="paint11_linear_24759_178022" x1="141.596" y1="192.89" x2="141.605" y2="195.043" gradientUnits="userSpaceOnUse">
<stop stop-color="#141A3D"/>
<stop offset="1" stop-color="#3646A3"/>
</linearGradient>
<linearGradient id="paint12_linear_24759_178022" x1="140.416" y1="206.903" x2="140.425" y2="209.056" gradientUnits="userSpaceOnUse">
<stop stop-color="#141A3D"/>
<stop offset="1" stop-color="#3646A3"/>
</linearGradient>
<linearGradient id="paint13_linear_24759_178022" x1="112.984" y1="100.364" x2="128.244" y2="176.168" gradientUnits="userSpaceOnUse">
<stop stop-color="#4180F2"/>
<stop offset="1" stop-color="#9DBCFB" stop-opacity="0.5"/>
</linearGradient>
<linearGradient id="paint14_linear_24759_178022" x1="117.33" y1="95.5576" x2="101.918" y2="236.333" gradientUnits="userSpaceOnUse">
<stop stop-color="#FABF49"/>
<stop offset="1" stop-color="#FF6D3B"/>
</linearGradient>
<clipPath id="clip0_24759_178022">
<rect width="220" height="260" rx="12" fill="white"/>
</clipPath>
<clipPath id="clip1_24759_178022">
<rect width="200" height="200" fill="white" transform="translate(42 52)"/>
</clipPath>
</defs>
</svg>
