<svg width="220" height="260" viewBox="0 0 220 260" fill="none" xmlns="http://www.w3.org/2000/svg">
<g clipPath="url(#clip0_24759_177198)">
<rect width="220" height="260" rx="12" fill="#E5F9F9"/>
<path d="M19.408 38C18.912 38 18.528 37.864 18.256 37.592C17.984 37.304 17.848 36.912 17.848 36.416V22.568C17.848 22.056 17.976 21.672 18.232 21.416C18.504 21.144 18.888 21.008 19.384 21.008C19.88 21.008 20.256 21.144 20.512 21.416C20.784 21.672 20.92 22.056 20.92 22.568V35.384H27.88C28.312 35.384 28.64 35.496 28.864 35.72C29.104 35.944 29.224 36.264 29.224 36.68C29.224 37.096 29.104 37.424 28.864 37.664C28.64 37.888 28.312 38 27.88 38H19.408ZM35.0502 38.24C34.0742 38.24 33.2662 38.064 32.6262 37.712C31.9862 37.344 31.5062 36.8 31.1862 36.08C30.8822 35.36 30.7302 34.464 30.7302 33.392V27.584C30.7302 27.072 30.8582 26.696 31.1142 26.456C31.3702 26.2 31.7382 26.072 32.2182 26.072C32.6982 26.072 33.0662 26.2 33.3222 26.456C33.5942 26.696 33.7302 27.072 33.7302 27.584V33.44C33.7302 34.272 33.8982 34.888 34.2342 35.288C34.5702 35.688 35.1062 35.888 35.8422 35.888C36.6422 35.888 37.2982 35.616 37.8102 35.072C38.3222 34.512 38.5782 33.776 38.5782 32.864V27.584C38.5782 27.072 38.7062 26.696 38.9622 26.456C39.2182 26.2 39.5862 26.072 40.0662 26.072C40.5462 26.072 40.9142 26.2 41.1702 26.456C41.4422 26.696 41.5782 27.072 41.5782 27.584V36.656C41.5782 37.68 41.0902 38.192 40.1142 38.192C39.6502 38.192 39.2902 38.064 39.0342 37.808C38.7782 37.536 38.6502 37.152 38.6502 36.656V34.832L38.9862 35.552C38.6502 36.416 38.1382 37.08 37.4502 37.544C36.7782 38.008 35.9782 38.24 35.0502 38.24ZM47.6766 42.512C47.3246 42.512 47.0366 42.416 46.8126 42.224C46.5886 42.048 46.4526 41.808 46.4046 41.504C46.3726 41.2 46.4286 40.88 46.5726 40.544L48.2046 36.92V38.168L43.8366 28.064C43.6926 27.712 43.6446 27.384 43.6926 27.08C43.7406 26.776 43.8846 26.536 44.1246 26.36C44.3806 26.168 44.7246 26.072 45.1566 26.072C45.5246 26.072 45.8206 26.16 46.0446 26.336C46.2686 26.496 46.4686 26.808 46.6446 27.272L49.8846 35.36H49.1646L52.4766 27.248C52.6526 26.8 52.8606 26.496 53.1006 26.336C53.3406 26.16 53.6606 26.072 54.0606 26.072C54.4126 26.072 54.6926 26.168 54.9006 26.36C55.1086 26.536 55.2366 26.776 55.2846 27.08C55.3326 27.368 55.2766 27.688 55.1166 28.04L49.2846 41.36C49.0766 41.808 48.8526 42.112 48.6126 42.272C48.3726 42.432 48.0606 42.512 47.6766 42.512ZM62.8831 38.24C61.5551 38.24 60.4111 37.992 59.4511 37.496C58.4911 37 57.7471 36.296 57.2191 35.384C56.7071 34.472 56.4511 33.392 56.4511 32.144C56.4511 30.928 56.6991 29.864 57.1951 28.952C57.7071 28.04 58.4031 27.328 59.2831 26.816C60.1791 26.288 61.1951 26.024 62.3311 26.024C63.1631 26.024 63.9071 26.16 64.5631 26.432C65.2351 26.704 65.8031 27.096 66.2671 27.608C66.7471 28.12 67.1071 28.744 67.3471 29.48C67.6031 30.2 67.7311 31.016 67.7311 31.928C67.7311 32.216 67.6271 32.44 67.4191 32.6C67.2271 32.744 66.9471 32.816 66.5791 32.816H58.8751V31.088H65.6191L65.2351 31.448C65.2351 30.712 65.1231 30.096 64.8991 29.6C64.6911 29.104 64.3791 28.728 63.9631 28.472C63.5631 28.2 63.0591 28.064 62.4511 28.064C61.7791 28.064 61.2031 28.224 60.7231 28.544C60.2591 28.848 59.8991 29.288 59.6431 29.864C59.4031 30.424 59.2831 31.096 59.2831 31.88V32.048C59.2831 33.36 59.5871 34.344 60.1951 35C60.8191 35.64 61.7311 35.96 62.9311 35.96C63.3471 35.96 63.8111 35.912 64.3231 35.816C64.8511 35.704 65.3471 35.52 65.8111 35.264C66.1471 35.072 66.4431 34.992 66.6991 35.024C66.9551 35.04 67.1551 35.128 67.2991 35.288C67.4591 35.448 67.5551 35.648 67.5871 35.888C67.6191 36.112 67.5711 36.344 67.4431 36.584C67.3311 36.824 67.1311 37.032 66.8431 37.208C66.2831 37.56 65.6351 37.824 64.8991 38C64.1791 38.16 63.5071 38.24 62.8831 38.24ZM62.3551 43.016C61.8591 43.016 61.4751 42.88 61.2031 42.608C60.9311 42.352 60.7951 41.984 60.7951 41.504C60.7951 41.024 60.9311 40.656 61.2031 40.4C61.4751 40.144 61.8591 40.016 62.3551 40.016C62.8671 40.016 63.2591 40.144 63.5311 40.4C63.8031 40.656 63.9391 41.024 63.9391 41.504C63.9391 41.984 63.8031 42.352 63.5311 42.608C63.2591 42.88 62.8671 43.016 62.3551 43.016ZM65.7631 23.672C65.9071 23.928 65.9391 24.16 65.8591 24.368C65.7791 24.576 65.6431 24.736 65.4511 24.848C65.2591 24.944 65.0511 24.976 64.8271 24.944C64.6191 24.912 64.4431 24.784 64.2991 24.56L62.3551 21.536L60.4111 24.56C60.2671 24.784 60.0831 24.912 59.8591 24.944C59.6511 24.976 59.4511 24.944 59.2591 24.848C59.0671 24.736 58.9311 24.576 58.8511 24.368C58.7711 24.16 58.8031 23.928 58.9471 23.672L60.6751 20.504C60.8671 20.136 61.0991 19.864 61.3711 19.688C61.6591 19.512 61.9871 19.424 62.3551 19.424C62.7231 19.424 63.0511 19.512 63.3391 19.688C63.6271 19.864 63.8671 20.136 64.0591 20.504L65.7631 23.672ZM71.5949 38.192C71.1149 38.192 70.7469 38.064 70.4909 37.808C70.2349 37.536 70.1069 37.152 70.1069 36.656V27.584C70.1069 27.088 70.2349 26.712 70.4909 26.456C70.7469 26.2 71.1069 26.072 71.5709 26.072C72.0349 26.072 72.3949 26.2 72.6509 26.456C72.9069 26.712 73.0349 27.088 73.0349 27.584V29.216L72.7709 28.616C73.1229 27.768 73.6669 27.128 74.4029 26.696C75.1549 26.248 76.0029 26.024 76.9469 26.024C77.8909 26.024 78.6669 26.2 79.2749 26.552C79.8829 26.904 80.3389 27.44 80.6429 28.16C80.9469 28.864 81.0989 29.76 81.0989 30.848V36.656C81.0989 37.152 80.9709 37.536 80.7149 37.808C80.4589 38.064 80.0909 38.192 79.6109 38.192C79.1309 38.192 78.7549 38.064 78.4829 37.808C78.2269 37.536 78.0989 37.152 78.0989 36.656V30.992C78.0989 30.08 77.9229 29.416 77.5709 29C77.2349 28.584 76.7069 28.376 75.9869 28.376C75.1069 28.376 74.4029 28.656 73.8749 29.216C73.3629 29.76 73.1069 30.488 73.1069 31.4V36.656C73.1069 37.68 72.6029 38.192 71.5949 38.192ZM92.1496 38.192C91.6696 38.192 91.3016 38.064 91.0456 37.808C90.7896 37.536 90.6616 37.152 90.6616 36.656V27.584C90.6616 27.088 90.7896 26.712 91.0456 26.456C91.3016 26.2 91.6616 26.072 92.1256 26.072C92.5896 26.072 92.9496 26.2 93.2056 26.456C93.4616 26.712 93.5896 27.088 93.5896 27.584V29.216L93.3256 28.616C93.6776 27.768 94.2216 27.128 94.9576 26.696C95.7096 26.248 96.5576 26.024 97.5016 26.024C98.4456 26.024 99.2216 26.2 99.8296 26.552C100.438 26.904 100.894 27.44 101.198 28.16C101.502 28.864 101.654 29.76 101.654 30.848V36.656C101.654 37.152 101.526 37.536 101.27 37.808C101.014 38.064 100.646 38.192 100.166 38.192C99.6856 38.192 99.3096 38.064 99.0376 37.808C98.7816 37.536 98.6536 37.152 98.6536 36.656V30.992C98.6536 30.08 98.4776 29.416 98.1256 29C97.7896 28.584 97.2616 28.376 96.5416 28.376C95.6616 28.376 94.9576 28.656 94.4296 29.216C93.9176 29.76 93.6616 30.488 93.6616 31.4V36.656C93.6616 37.68 93.1576 38.192 92.1496 38.192ZM110.053 38.24C108.837 38.24 107.781 37.992 106.885 37.496C105.989 37 105.293 36.296 104.797 35.384C104.301 34.456 104.053 33.368 104.053 32.12C104.053 31.176 104.189 30.336 104.461 29.6C104.749 28.848 105.157 28.208 105.685 27.68C106.213 27.136 106.845 26.728 107.581 26.456C108.317 26.168 109.141 26.024 110.053 26.024C111.269 26.024 112.325 26.272 113.221 26.768C114.117 27.264 114.813 27.968 115.309 28.88C115.805 29.792 116.053 30.872 116.053 32.12C116.053 33.064 115.909 33.912 115.621 34.664C115.349 35.416 114.949 36.064 114.421 36.608C113.893 37.136 113.261 37.544 112.525 37.832C111.789 38.104 110.965 38.24 110.053 38.24ZM110.053 35.96C110.645 35.96 111.165 35.816 111.613 35.528C112.061 35.24 112.405 34.816 112.645 34.256C112.901 33.68 113.029 32.968 113.029 32.12C113.029 30.84 112.757 29.888 112.213 29.264C111.669 28.624 110.949 28.304 110.053 28.304C109.461 28.304 108.941 28.448 108.493 28.736C108.045 29.008 107.693 29.432 107.437 30.008C107.197 30.568 107.077 31.272 107.077 32.12C107.077 33.384 107.349 34.344 107.893 35C108.437 35.64 109.157 35.96 110.053 35.96ZM111.181 24.56C111.021 24.784 110.829 24.912 110.605 24.944C110.381 24.976 110.165 24.936 109.957 24.824C109.749 24.712 109.597 24.552 109.501 24.344C109.421 24.136 109.445 23.904 109.573 23.648L111.397 20.072C111.541 19.768 111.733 19.576 111.973 19.496C112.213 19.4 112.461 19.384 112.717 19.448C112.973 19.512 113.189 19.632 113.365 19.808C113.557 19.984 113.669 20.2 113.701 20.456C113.749 20.696 113.685 20.944 113.509 21.2L111.181 24.56ZM120.017 38.168C119.537 38.168 119.169 38.024 118.913 37.736C118.657 37.448 118.529 37.048 118.529 36.536V27.728C118.529 27.2 118.657 26.8 118.913 26.528C119.169 26.24 119.537 26.096 120.017 26.096C120.497 26.096 120.865 26.24 121.121 26.528C121.393 26.8 121.529 27.2 121.529 27.728V36.536C121.529 37.048 121.401 37.448 121.145 37.736C120.889 38.024 120.513 38.168 120.017 38.168ZM120.017 23.864C119.457 23.864 119.017 23.728 118.697 23.456C118.393 23.168 118.241 22.776 118.241 22.28C118.241 21.768 118.393 21.376 118.697 21.104C119.017 20.832 119.457 20.696 120.017 20.696C120.593 20.696 121.033 20.832 121.337 21.104C121.641 21.376 121.793 21.768 121.793 22.28C121.793 22.776 121.641 23.168 121.337 23.456C121.033 23.728 120.593 23.864 120.017 23.864ZM23.68 66.24C22.976 66.24 22.272 66.184 21.568 66.072C20.864 65.976 20.2 65.824 19.576 65.616C18.952 65.392 18.392 65.12 17.896 64.8C17.608 64.608 17.408 64.376 17.296 64.104C17.184 63.832 17.144 63.568 17.176 63.312C17.224 63.04 17.328 62.808 17.488 62.616C17.664 62.408 17.88 62.28 18.136 62.232C18.392 62.184 18.672 62.256 18.976 62.448C19.68 62.864 20.424 63.168 21.208 63.36C21.992 63.552 22.816 63.648 23.68 63.648C24.944 63.648 25.864 63.44 26.44 63.024C27.016 62.592 27.304 62.04 27.304 61.368C27.304 60.808 27.096 60.368 26.68 60.048C26.28 59.728 25.584 59.464 24.592 59.256L21.952 58.704C20.432 58.384 19.296 57.848 18.544 57.096C17.808 56.328 17.44 55.32 17.44 54.072C17.44 53.288 17.6 52.576 17.92 51.936C18.24 51.296 18.688 50.744 19.264 50.28C19.856 49.816 20.552 49.464 21.352 49.224C22.168 48.968 23.064 48.84 24.04 48.84C25 48.84 25.912 48.96 26.776 49.2C27.64 49.44 28.416 49.792 29.104 50.256C29.36 50.432 29.528 50.648 29.608 50.904C29.704 51.16 29.728 51.416 29.68 51.672C29.632 51.912 29.52 52.12 29.344 52.296C29.168 52.472 28.944 52.576 28.672 52.608C28.416 52.64 28.12 52.56 27.784 52.368C27.192 52.032 26.592 51.792 25.984 51.648C25.376 51.504 24.72 51.432 24.016 51.432C23.28 51.432 22.648 51.536 22.12 51.744C21.592 51.952 21.184 52.248 20.896 52.632C20.624 53 20.488 53.44 20.488 53.952C20.488 54.528 20.68 54.992 21.064 55.344C21.448 55.68 22.104 55.944 23.032 56.136L25.648 56.688C27.232 57.024 28.408 57.552 29.176 58.272C29.96 58.992 30.352 59.952 30.352 61.152C30.352 61.92 30.192 62.616 29.872 63.24C29.568 63.864 29.12 64.4 28.528 64.848C27.952 65.296 27.256 65.64 26.44 65.88C25.624 66.12 24.704 66.24 23.68 66.24ZM34.1886 70.512C33.7086 70.512 33.3406 70.384 33.0846 70.128C32.8286 69.872 32.7006 69.496 32.7006 69V55.584C32.7006 55.088 32.8286 54.712 33.0846 54.456C33.3406 54.2 33.7006 54.072 34.1646 54.072C34.6446 54.072 35.0126 54.2 35.2686 54.456C35.5246 54.712 35.6526 55.088 35.6526 55.584V57.456L35.3886 56.736C35.6286 55.92 36.1166 55.264 36.8526 54.768C37.6046 54.272 38.4766 54.024 39.4686 54.024C40.4926 54.024 41.3886 54.272 42.1566 54.768C42.9406 55.264 43.5486 55.968 43.9806 56.88C44.4126 57.776 44.6286 58.856 44.6286 60.12C44.6286 61.368 44.4126 62.456 43.9806 63.384C43.5486 64.296 42.9486 65 42.1806 65.496C41.4126 65.992 40.5086 66.24 39.4686 66.24C38.4926 66.24 37.6366 66 36.9006 65.52C36.1646 65.024 35.6686 64.384 35.4126 63.6H35.7006V69C35.7006 69.496 35.5646 69.872 35.2926 70.128C35.0366 70.384 34.6686 70.512 34.1886 70.512ZM38.6286 63.96C39.2206 63.96 39.7406 63.816 40.1886 63.528C40.6366 63.24 40.9806 62.816 41.2206 62.256C41.4766 61.68 41.6046 60.968 41.6046 60.12C41.6046 58.84 41.3326 57.888 40.7886 57.264C40.2446 56.624 39.5246 56.304 38.6286 56.304C38.0366 56.304 37.5166 56.448 37.0686 56.736C36.6206 57.008 36.2686 57.432 36.0126 58.008C35.7726 58.568 35.6526 59.272 35.6526 60.12C35.6526 61.384 35.9246 62.344 36.4686 63C37.0126 63.64 37.7326 63.96 38.6286 63.96ZM52.8753 66.24C51.5473 66.24 50.4033 65.992 49.4433 65.496C48.4833 65 47.7393 64.296 47.2113 63.384C46.6993 62.472 46.4433 61.392 46.4433 60.144C46.4433 58.928 46.6913 57.864 47.1873 56.952C47.6993 56.04 48.3953 55.328 49.2753 54.816C50.1713 54.288 51.1873 54.024 52.3233 54.024C53.1553 54.024 53.8993 54.16 54.5553 54.432C55.2273 54.704 55.7953 55.096 56.2593 55.608C56.7393 56.12 57.0993 56.744 57.3393 57.48C57.5953 58.2 57.7233 59.016 57.7233 59.928C57.7233 60.216 57.6193 60.44 57.4113 60.6C57.2193 60.744 56.9393 60.816 56.5713 60.816H48.8673V59.088H55.6113L55.2273 59.448C55.2273 58.712 55.1153 58.096 54.8913 57.6C54.6833 57.104 54.3713 56.728 53.9553 56.472C53.5553 56.2 53.0513 56.064 52.4433 56.064C51.7713 56.064 51.1953 56.224 50.7153 56.544C50.2513 56.848 49.8913 57.288 49.6353 57.864C49.3953 58.424 49.2753 59.096 49.2753 59.88V60.048C49.2753 61.36 49.5793 62.344 50.1873 63C50.8113 63.64 51.7233 63.96 52.9233 63.96C53.3393 63.96 53.8033 63.912 54.3153 63.816C54.8433 63.704 55.3393 63.52 55.8033 63.264C56.1393 63.072 56.4353 62.992 56.6913 63.024C56.9473 63.04 57.1473 63.128 57.2913 63.288C57.4513 63.448 57.5473 63.648 57.5793 63.888C57.6113 64.112 57.5633 64.344 57.4353 64.584C57.3233 64.824 57.1233 65.032 56.8353 65.208C56.2753 65.56 55.6273 65.824 54.8913 66C54.1713 66.16 53.4993 66.24 52.8753 66.24ZM63.9631 66.24C63.1151 66.24 62.3551 66.08 61.6831 65.76C61.0271 65.424 60.5071 64.976 60.1231 64.416C59.7551 63.856 59.5711 63.224 59.5711 62.52C59.5711 61.656 59.7951 60.976 60.2431 60.48C60.6911 59.968 61.4191 59.6 62.4271 59.376C63.4351 59.152 64.7871 59.04 66.4831 59.04H67.6831V60.768H66.5071C65.5151 60.768 64.7231 60.816 64.1311 60.912C63.5391 61.008 63.1151 61.176 62.8591 61.416C62.6191 61.64 62.4991 61.96 62.4991 62.376C62.4991 62.904 62.6831 63.336 63.0511 63.672C63.4191 64.008 63.9311 64.176 64.5871 64.176C65.1151 64.176 65.5791 64.056 65.9791 63.816C66.3951 63.56 66.7231 63.216 66.9631 62.784C67.2031 62.352 67.3231 61.856 67.3231 61.296V58.536C67.3231 57.736 67.1471 57.16 66.7951 56.808C66.4431 56.456 65.8511 56.28 65.0191 56.28C64.5551 56.28 64.0511 56.336 63.5071 56.448C62.9791 56.56 62.4191 56.752 61.8271 57.024C61.5231 57.168 61.2511 57.208 61.0111 57.144C60.7871 57.08 60.6111 56.952 60.4831 56.76C60.3551 56.552 60.2911 56.328 60.2911 56.088C60.2911 55.848 60.3551 55.616 60.4831 55.392C60.6111 55.152 60.8271 54.976 61.1311 54.864C61.8671 54.56 62.5711 54.344 63.2431 54.216C63.9311 54.088 64.5551 54.024 65.1151 54.024C66.2671 54.024 67.2111 54.2 67.9471 54.552C68.6991 54.904 69.2591 55.44 69.6271 56.16C69.9951 56.864 70.1791 57.776 70.1791 58.896V64.656C70.1791 65.152 70.0591 65.536 69.8191 65.808C69.5791 66.064 69.2351 66.192 68.7871 66.192C68.3391 66.192 67.9871 66.064 67.7311 65.808C67.4911 65.536 67.3711 65.152 67.3711 64.656V63.504H67.5631C67.4511 64.064 67.2271 64.552 66.8911 64.968C66.5711 65.368 66.1631 65.68 65.6671 65.904C65.1711 66.128 64.6031 66.24 63.9631 66.24ZM74.7121 66.192C74.2321 66.192 73.8641 66.064 73.6081 65.808C73.3521 65.536 73.2241 65.152 73.2241 64.656V50.4C73.2241 49.904 73.3521 49.528 73.6081 49.272C73.8641 49.016 74.2321 48.888 74.7121 48.888C75.1921 48.888 75.5601 49.016 75.8161 49.272C76.0881 49.528 76.2241 49.904 76.2241 50.4V59.256H76.2721L80.2321 55.08C80.5521 54.76 80.8321 54.512 81.0721 54.336C81.3121 54.16 81.6401 54.072 82.0561 54.072C82.4721 54.072 82.7841 54.184 82.9921 54.408C83.2161 54.616 83.3281 54.872 83.3281 55.176C83.3281 55.48 83.1841 55.784 82.8961 56.088L78.7201 60.504V59.256L83.3041 64.2C83.5921 64.504 83.7201 64.816 83.6881 65.136C83.6721 65.44 83.5441 65.696 83.3041 65.904C83.0641 66.096 82.7601 66.192 82.3921 66.192C81.9441 66.192 81.5841 66.104 81.3121 65.928C81.0561 65.752 80.7681 65.488 80.4481 65.136L76.2721 60.768H76.2241V64.656C76.2241 65.68 75.7201 66.192 74.7121 66.192ZM87.5793 66.168C87.0993 66.168 86.7313 66.024 86.4753 65.736C86.2193 65.448 86.0913 65.048 86.0913 64.536V55.728C86.0913 55.2 86.2193 54.8 86.4753 54.528C86.7313 54.24 87.0993 54.096 87.5793 54.096C88.0593 54.096 88.4273 54.24 88.6833 54.528C88.9553 54.8 89.0913 55.2 89.0913 55.728V64.536C89.0913 65.048 88.9633 65.448 88.7073 65.736C88.4513 66.024 88.0753 66.168 87.5793 66.168ZM87.5793 51.864C87.0193 51.864 86.5793 51.728 86.2593 51.456C85.9553 51.168 85.8033 50.776 85.8033 50.28C85.8033 49.768 85.9553 49.376 86.2593 49.104C86.5793 48.832 87.0193 48.696 87.5793 48.696C88.1553 48.696 88.5953 48.832 88.8993 49.104C89.2033 49.376 89.3553 49.768 89.3553 50.28C89.3553 50.776 89.2033 51.168 88.8993 51.456C88.5953 51.728 88.1553 51.864 87.5793 51.864ZM93.6964 66.192C93.2164 66.192 92.8484 66.064 92.5924 65.808C92.3364 65.536 92.2084 65.152 92.2084 64.656V55.584C92.2084 55.088 92.3364 54.712 92.5924 54.456C92.8484 54.2 93.2084 54.072 93.6724 54.072C94.1364 54.072 94.4964 54.2 94.7524 54.456C95.0084 54.712 95.1364 55.088 95.1364 55.584V57.216L94.8724 56.616C95.2244 55.768 95.7684 55.128 96.5044 54.696C97.2564 54.248 98.1044 54.024 99.0484 54.024C99.9924 54.024 100.768 54.2 101.376 54.552C101.984 54.904 102.44 55.44 102.744 56.16C103.048 56.864 103.2 57.76 103.2 58.848V64.656C103.2 65.152 103.072 65.536 102.816 65.808C102.56 66.064 102.192 66.192 101.712 66.192C101.232 66.192 100.856 66.064 100.584 65.808C100.328 65.536 100.2 65.152 100.2 64.656V58.992C100.2 58.08 100.024 57.416 99.6724 57C99.3364 56.584 98.8084 56.376 98.0884 56.376C97.2084 56.376 96.5044 56.656 95.9764 57.216C95.4644 57.76 95.2084 58.488 95.2084 59.4V64.656C95.2084 65.68 94.7044 66.192 93.6964 66.192ZM111.72 70.56C110.856 70.56 110.016 70.48 109.2 70.32C108.4 70.16 107.672 69.912 107.016 69.576C106.712 69.416 106.504 69.224 106.392 69C106.296 68.776 106.264 68.544 106.296 68.304C106.344 68.08 106.44 67.88 106.584 67.704C106.744 67.528 106.936 67.408 107.16 67.344C107.384 67.28 107.616 67.312 107.855 67.44C108.56 67.792 109.224 68.016 109.848 68.112C110.488 68.224 111.032 68.28 111.48 68.28C112.552 68.28 113.352 68.016 113.88 67.488C114.424 66.976 114.696 66.208 114.696 65.184V63.024H114.912C114.672 63.84 114.168 64.496 113.4 64.992C112.648 65.472 111.792 65.712 110.832 65.712C109.776 65.712 108.856 65.472 108.072 64.992C107.288 64.496 106.68 63.808 106.248 62.928C105.816 62.048 105.6 61.024 105.6 59.856C105.6 58.976 105.72 58.184 105.96 57.48C106.216 56.76 106.568 56.144 107.016 55.632C107.48 55.12 108.032 54.728 108.672 54.456C109.328 54.168 110.048 54.024 110.832 54.024C111.824 54.024 112.688 54.272 113.424 54.768C114.176 55.248 114.664 55.888 114.888 56.688L114.648 57.288V55.584C114.648 55.088 114.776 54.712 115.032 54.456C115.304 54.2 115.672 54.072 116.136 54.072C116.616 54.072 116.984 54.2 117.24 54.456C117.496 54.712 117.624 55.088 117.624 55.584V64.824C117.624 66.728 117.12 68.16 116.112 69.12C115.104 70.08 113.64 70.56 111.72 70.56ZM111.648 63.432C112.272 63.432 112.808 63.288 113.256 63C113.704 62.712 114.048 62.304 114.288 61.776C114.544 61.232 114.672 60.592 114.672 59.856C114.672 58.752 114.4 57.888 113.856 57.264C113.312 56.624 112.576 56.304 111.648 56.304C111.024 56.304 110.488 56.448 110.04 56.736C109.592 57.024 109.24 57.432 108.984 57.96C108.744 58.488 108.624 59.12 108.624 59.856C108.624 60.96 108.896 61.832 109.44 62.472C109.984 63.112 110.72 63.432 111.648 63.432ZM127.704 66.192C127.32 66.192 127.008 66.104 126.768 65.928C126.544 65.752 126.408 65.52 126.36 65.232C126.312 64.928 126.368 64.592 126.528 64.224L132.864 50.184C133.072 49.72 133.32 49.392 133.608 49.2C133.912 48.992 134.256 48.888 134.64 48.888C135.008 48.888 135.336 48.992 135.624 49.2C135.928 49.392 136.184 49.72 136.392 50.184L142.752 64.224C142.928 64.592 142.992 64.928 142.944 65.232C142.896 65.536 142.76 65.776 142.536 65.952C142.312 66.112 142.016 66.192 141.648 66.192C141.2 66.192 140.848 66.088 140.592 65.88C140.352 65.656 140.136 65.32 139.944 64.872L138.384 61.248L139.68 62.088H129.552L130.848 61.248L129.312 64.872C129.104 65.336 128.888 65.672 128.664 65.88C128.44 66.088 128.12 66.192 127.704 66.192ZM134.592 52.416L131.232 60.408L130.608 59.64H138.624L138.023 60.408L134.64 52.416H134.592ZM146.931 66.192C146.435 66.192 146.051 66.056 145.779 65.784C145.523 65.496 145.395 65.104 145.395 64.608V50.472C145.395 49.96 145.523 49.568 145.779 49.296C146.051 49.024 146.435 48.888 146.931 48.888C147.427 48.888 147.803 49.024 148.059 49.296C148.331 49.568 148.467 49.96 148.467 50.472V64.608C148.467 65.104 148.339 65.496 148.083 65.784C147.827 66.056 147.443 66.192 146.931 66.192Z" fill="#00ADA4"/>
<g clipPath="url(#clip1_24759_177198)">
<path d="M157.531 234.926C156.783 234.04 156.895 232.715 157.778 231.966C158.662 231.218 159.985 231.331 160.733 232.217C162.676 234.522 164.814 236.112 167.031 237.099C176.244 241.201 186.849 236.016 190.769 227.169C192.365 223.567 192.235 219.456 192.1 215.323C191.867 208.027 191.633 200.68 199.377 194.221C202.739 191.417 206.786 189.805 210.949 189.424C215.108 189.05 219.39 189.91 223.205 192.067C224.214 192.633 224.57 193.91 224.006 194.92C223.442 195.93 222.167 196.285 221.159 195.719C218.11 193.998 214.68 193.311 211.342 193.61C208 193.915 204.752 195.21 202.061 197.454C195.888 202.6 196.094 208.918 196.293 215.187C196.442 219.808 196.59 224.402 194.607 228.874C189.746 239.851 176.651 245.972 165.336 240.931C162.553 239.701 159.904 237.741 157.531 234.926Z" fill="#5A5BAB"/>
<path fillRule="evenodd" clipRule="evenodd" d="M102.752 135.891L89.173 160.711L64.4656 172.177C56.5915 172.728 48.5283 171.121 41.2159 167.396L26.957 156.094C11.7437 138.206 12.4624 111.871 28.9905 96.2059C45.5187 80.5405 71.8067 81.2782 88.7997 97.4834L99.2773 112.371C102.58 119.896 103.736 128.047 102.752 135.891Z" fill="url(#paint0_linear_24759_177198)"/>
<path fillRule="evenodd" clipRule="evenodd" d="M89.4426 96.8723L26.3058 156.713C22.9299 159.915 22.2939 164.741 24.8967 167.49L27.8527 170.618C30.4501 173.368 35.2975 173.007 38.6788 169.804L101.811 109.97C105.187 106.767 105.823 101.941 103.221 99.1925L100.265 96.0644C97.6658 93.3088 92.8197 93.6753 89.4426 96.8723Z" fill="url(#paint1_linear_24759_177198)"/>
<path fillRule="evenodd" clipRule="evenodd" d="M102.752 135.891L64.461 172.184L141.812 244.797C144.418 247.247 148.464 247.238 151.057 244.777L170.329 226.512C172.922 224.051 173.157 220.007 170.857 217.261L102.752 135.891Z" fill="url(#paint2_linear_24759_177198)"/>
<path fillRule="evenodd" clipRule="evenodd" d="M109.202 181.129C105.932 184.226 105.971 189.584 109.28 193.091L123.183 207.808C126.498 211.314 131.831 211.649 135.099 208.547C138.369 205.45 138.33 200.092 135.021 196.585L121.118 181.868C117.805 178.368 112.466 178.034 109.202 181.129Z" fill="url(#paint3_linear_24759_177198)"/>
<path d="M104.977 161.501C105.815 160.706 107.144 160.75 107.933 161.591C108.727 162.432 108.685 163.763 107.846 164.553L92.7423 178.866C91.9041 179.661 90.5748 179.617 89.7859 178.776C88.9916 177.935 89.0336 176.604 89.8731 175.814L104.977 161.501Z" fill="url(#paint4_linear_24759_177198)"/>
<path d="M151.543 210.815C152.382 210.02 153.708 210.053 154.508 210.892C155.308 211.731 155.271 213.061 154.434 213.861L139.331 228.174C138.492 228.969 137.166 228.937 136.366 228.098C135.572 227.257 135.603 225.928 136.44 225.128L151.543 210.815Z" fill="url(#paint5_linear_24759_177198)"/>
<path d="M57.744 187.364C55.2924 188.01 52.7518 187.731 50.5286 186.471C48.7396 185.455 50.2154 182.683 52.0159 183.706C53.4902 184.542 55.0966 184.806 56.7421 184.373C58.7337 183.847 59.7381 186.838 57.744 187.364Z" fill="#FABF49"/>
<path d="M57.6737 192.765C55.5469 194.889 52.9536 195.83 50.1313 195.597C49.2829 195.528 48.8023 194.42 48.975 193.606C49.1839 192.618 50.0261 192.221 50.8642 192.291C52.496 192.423 54.1969 191.726 55.4136 190.513C56.9085 189.022 59.1819 191.26 57.6737 192.765Z" fill="#FABF49"/>
<path d="M117.225 128.193C118.871 126.694 119.006 124.385 117.778 122.569C116.543 120.744 119.584 119.179 120.808 120.991C122.883 124.058 122.256 128.253 119.565 130.7C117.949 132.176 115.599 129.672 117.225 128.193Z" fill="#565FCC"/>
<path d="M148.188 118.827L159.083 114.26C161.443 113.272 162.933 111.039 162.842 108.668L162.368 97.7326L166.882 107.705C167.857 109.864 170.206 111.169 172.76 110.997L184.544 110.154L173.648 114.721C171.288 115.709 169.798 117.942 169.889 120.313L170.363 131.248L165.85 121.276C164.874 119.117 162.526 117.812 159.972 117.984L148.188 118.827Z" fill="#FE6C3A"/>
<path d="M112.644 98.182L120.78 94.5736C122.537 93.7937 123.621 91.9481 123.492 89.9547L122.893 80.7319L126.522 89.2319C127.307 91.073 129.106 92.2267 131.028 92.1333L139.912 91.6817L131.78 95.2892C130.019 96.0701 128.939 97.9148 129.069 99.9122L129.668 109.135L126.038 100.631C125.254 98.7939 123.454 97.6362 121.534 97.7335L112.644 98.182Z" fill="#FABF49"/>
<path d="M150.168 164.88L158.303 161.271C160.061 160.491 161.144 158.646 161.015 156.652L160.416 147.43L164.045 155.93C164.831 157.771 166.63 158.924 168.551 158.831L177.436 158.379L169.304 161.987C167.543 162.768 166.463 164.613 166.593 166.61L167.192 175.833L163.562 167.329C162.777 165.492 160.977 164.334 159.057 164.431L150.168 164.88Z" fill="#565FCC"/>
<path d="M25.3653 112.022L31.4174 106.522L36.1475 111.728L34.0604 113.624L44.8255 134.198L38.0778 140.33L25.3653 112.022ZM35.8326 126.183L46.5137 116.477L51.9542 119.791L38.6095 131.917L35.83 126.185L35.8326 126.183ZM34.1821 113.514L29.452 108.308L33.4171 104.705L60.3816 120.063L53.6339 126.195L34.1821 113.514Z" fill="#191F51"/>
<path d="M42.5088 96.4443L48.9233 90.6158L68.7618 112.449L62.3473 118.277L42.5088 96.4443Z" fill="#191F51"/>
</g>
</g>
<defs>
<linearGradient id="paint0_linear_24759_177198" x1="69.6732" y1="170.935" x2="49.3341" y2="85.67" gradientUnits="userSpaceOnUse">
<stop stop-color="#FF713C"/>
<stop offset="1" stop-color="#FBBE49"/>
</linearGradient>
<linearGradient id="paint1_linear_24759_177198" x1="57.3057" y1="159.417" x2="78.7456" y2="95.7653" gradientUnits="userSpaceOnUse">
<stop stop-color="#665CA1"/>
<stop offset="1" stop-color="#A76069"/>
</linearGradient>
<linearGradient id="paint2_linear_24759_177198" x1="131.314" y1="250.422" x2="94.2759" y2="133.187" gradientUnits="userSpaceOnUse">
<stop stop-color="#A86067"/>
<stop offset="1" stop-color="#555AAE"/>
</linearGradient>
<linearGradient id="paint3_linear_24759_177198" x1="126.182" y1="211.738" x2="110.883" y2="179.527" gradientUnits="userSpaceOnUse">
<stop stop-color="#FF803F"/>
<stop offset="1" stop-color="#FCBD49"/>
</linearGradient>
<linearGradient id="paint4_linear_24759_177198" x1="100.554" y1="177.289" x2="95.4545" y2="162.926" gradientUnits="userSpaceOnUse">
<stop stop-color="#FF803F"/>
<stop offset="1" stop-color="#FCBD49"/>
</linearGradient>
<linearGradient id="paint5_linear_24759_177198" x1="147.134" y1="226.603" x2="142.032" y2="212.234" gradientUnits="userSpaceOnUse">
<stop stop-color="#FF803F"/>
<stop offset="1" stop-color="#FCBD49"/>
</linearGradient>
<clipPath id="clip0_24759_177198">
<rect width="220" height="260" rx="12" fill="white"/>
</clipPath>
<clipPath id="clip1_24759_177198">
<rect width="188.632" height="188.632" fill="white" transform="translate(7 95.7686) rotate(-13.4166)"/>
</clipPath>
</defs>
</svg>
