<svg width="220" height="260" viewBox="0 0 220 260" fill="none" xmlns="http://www.w3.org/2000/svg">
<rect width="220" height="260" rx="12" fill="#FFECF0"/>
<path d="M19.408 38C18.912 38 18.528 37.864 18.256 37.592C17.984 37.304 17.848 36.912 17.848 36.416V22.568C17.848 22.056 17.976 21.672 18.232 21.416C18.504 21.144 18.888 21.008 19.384 21.008C19.88 21.008 20.256 21.144 20.512 21.416C20.784 21.672 20.92 22.056 20.92 22.568V35.384H27.88C28.312 35.384 28.64 35.496 28.864 35.72C29.104 35.944 29.224 36.264 29.224 36.68C29.224 37.096 29.104 37.424 28.864 37.664C28.64 37.888 28.312 38 27.88 38H19.408ZM35.0502 38.24C34.0742 38.24 33.2662 38.064 32.6262 37.712C31.9862 37.344 31.5062 36.8 31.1862 36.08C30.8822 35.36 30.7302 34.464 30.7302 33.392V27.584C30.7302 27.072 30.8582 26.696 31.1142 26.456C31.3702 26.2 31.7382 26.072 32.2182 26.072C32.6982 26.072 33.0662 26.2 33.3222 26.456C33.5942 26.696 33.7302 27.072 33.7302 27.584V33.44C33.7302 34.272 33.8982 34.888 34.2342 35.288C34.5702 35.688 35.1062 35.888 35.8422 35.888C36.6422 35.888 37.2982 35.616 37.8102 35.072C38.3222 34.512 38.5782 33.776 38.5782 32.864V27.584C38.5782 27.072 38.7062 26.696 38.9622 26.456C39.2182 26.2 39.5862 26.072 40.0662 26.072C40.5462 26.072 40.9142 26.2 41.1702 26.456C41.4422 26.696 41.5782 27.072 41.5782 27.584V36.656C41.5782 37.68 41.0902 38.192 40.1142 38.192C39.6502 38.192 39.2902 38.064 39.0342 37.808C38.7782 37.536 38.6502 37.152 38.6502 36.656V34.832L38.9862 35.552C38.6502 36.416 38.1382 37.08 37.4502 37.544C36.7782 38.008 35.9782 38.24 35.0502 38.24ZM47.6766 42.512C47.3246 42.512 47.0366 42.416 46.8126 42.224C46.5886 42.048 46.4526 41.808 46.4046 41.504C46.3726 41.2 46.4286 40.88 46.5726 40.544L48.2046 36.92V38.168L43.8366 28.064C43.6926 27.712 43.6446 27.384 43.6926 27.08C43.7406 26.776 43.8846 26.536 44.1246 26.36C44.3806 26.168 44.7246 26.072 45.1566 26.072C45.5246 26.072 45.8206 26.16 46.0446 26.336C46.2686 26.496 46.4686 26.808 46.6446 27.272L49.8846 35.36H49.1646L52.4766 27.248C52.6526 26.8 52.8606 26.496 53.1006 26.336C53.3406 26.16 53.6606 26.072 54.0606 26.072C54.4126 26.072 54.6926 26.168 54.9006 26.36C55.1086 26.536 55.2366 26.776 55.2846 27.08C55.3326 27.368 55.2766 27.688 55.1166 28.04L49.2846 41.36C49.0766 41.808 48.8526 42.112 48.6126 42.272C48.3726 42.432 48.0606 42.512 47.6766 42.512ZM62.8831 38.24C61.5551 38.24 60.4111 37.992 59.4511 37.496C58.4911 37 57.7471 36.296 57.2191 35.384C56.7071 34.472 56.4511 33.392 56.4511 32.144C56.4511 30.928 56.6991 29.864 57.1951 28.952C57.7071 28.04 58.4031 27.328 59.2831 26.816C60.1791 26.288 61.1951 26.024 62.3311 26.024C63.1631 26.024 63.9071 26.16 64.5631 26.432C65.2351 26.704 65.8031 27.096 66.2671 27.608C66.7471 28.12 67.1071 28.744 67.3471 29.48C67.6031 30.2 67.7311 31.016 67.7311 31.928C67.7311 32.216 67.6271 32.44 67.4191 32.6C67.2271 32.744 66.9471 32.816 66.5791 32.816H58.8751V31.088H65.6191L65.2351 31.448C65.2351 30.712 65.1231 30.096 64.8991 29.6C64.6911 29.104 64.3791 28.728 63.9631 28.472C63.5631 28.2 63.0591 28.064 62.4511 28.064C61.7791 28.064 61.2031 28.224 60.7231 28.544C60.2591 28.848 59.8991 29.288 59.6431 29.864C59.4031 30.424 59.2831 31.096 59.2831 31.88V32.048C59.2831 33.36 59.5871 34.344 60.1951 35C60.8191 35.64 61.7311 35.96 62.9311 35.96C63.3471 35.96 63.8111 35.912 64.3231 35.816C64.8511 35.704 65.3471 35.52 65.8111 35.264C66.1471 35.072 66.4431 34.992 66.6991 35.024C66.9551 35.04 67.1551 35.128 67.2991 35.288C67.4591 35.448 67.5551 35.648 67.5871 35.888C67.6191 36.112 67.5711 36.344 67.4431 36.584C67.3311 36.824 67.1311 37.032 66.8431 37.208C66.2831 37.56 65.6351 37.824 64.8991 38C64.1791 38.16 63.5071 38.24 62.8831 38.24ZM62.3551 43.016C61.8591 43.016 61.4751 42.88 61.2031 42.608C60.9311 42.352 60.7951 41.984 60.7951 41.504C60.7951 41.024 60.9311 40.656 61.2031 40.4C61.4751 40.144 61.8591 40.016 62.3551 40.016C62.8671 40.016 63.2591 40.144 63.5311 40.4C63.8031 40.656 63.9391 41.024 63.9391 41.504C63.9391 41.984 63.8031 42.352 63.5311 42.608C63.2591 42.88 62.8671 43.016 62.3551 43.016ZM65.7631 23.672C65.9071 23.928 65.9391 24.16 65.8591 24.368C65.7791 24.576 65.6431 24.736 65.4511 24.848C65.2591 24.944 65.0511 24.976 64.8271 24.944C64.6191 24.912 64.4431 24.784 64.2991 24.56L62.3551 21.536L60.4111 24.56C60.2671 24.784 60.0831 24.912 59.8591 24.944C59.6511 24.976 59.4511 24.944 59.2591 24.848C59.0671 24.736 58.9311 24.576 58.8511 24.368C58.7711 24.16 58.8031 23.928 58.9471 23.672L60.6751 20.504C60.8671 20.136 61.0991 19.864 61.3711 19.688C61.6591 19.512 61.9871 19.424 62.3551 19.424C62.7231 19.424 63.0511 19.512 63.3391 19.688C63.6271 19.864 63.8671 20.136 64.0591 20.504L65.7631 23.672ZM71.5949 38.192C71.1149 38.192 70.7469 38.064 70.4909 37.808C70.2349 37.536 70.1069 37.152 70.1069 36.656V27.584C70.1069 27.088 70.2349 26.712 70.4909 26.456C70.7469 26.2 71.1069 26.072 71.5709 26.072C72.0349 26.072 72.3949 26.2 72.6509 26.456C72.9069 26.712 73.0349 27.088 73.0349 27.584V29.216L72.7709 28.616C73.1229 27.768 73.6669 27.128 74.4029 26.696C75.1549 26.248 76.0029 26.024 76.9469 26.024C77.8909 26.024 78.6669 26.2 79.2749 26.552C79.8829 26.904 80.3389 27.44 80.6429 28.16C80.9469 28.864 81.0989 29.76 81.0989 30.848V36.656C81.0989 37.152 80.9709 37.536 80.7149 37.808C80.4589 38.064 80.0909 38.192 79.6109 38.192C79.1309 38.192 78.7549 38.064 78.4829 37.808C78.2269 37.536 78.0989 37.152 78.0989 36.656V30.992C78.0989 30.08 77.9229 29.416 77.5709 29C77.2349 28.584 76.7069 28.376 75.9869 28.376C75.1069 28.376 74.4029 28.656 73.8749 29.216C73.3629 29.76 73.1069 30.488 73.1069 31.4V36.656C73.1069 37.68 72.6029 38.192 71.5949 38.192ZM95.4136 38.192C95.0136 38.192 94.6616 38.088 94.3576 37.88C94.0696 37.672 93.8296 37.352 93.6376 36.92L89.8216 28.064C89.6776 27.712 89.6216 27.384 89.6536 27.08C89.7016 26.776 89.8456 26.536 90.0856 26.36C90.3416 26.168 90.6856 26.072 91.1176 26.072C91.4856 26.072 91.7816 26.16 92.0056 26.336C92.2296 26.496 92.4296 26.808 92.6056 27.272L95.8456 35.36H95.1256L98.4616 27.248C98.6376 26.8 98.8376 26.496 99.0616 26.336C99.3016 26.16 99.6216 26.072 100.022 26.072C100.374 26.072 100.654 26.168 100.862 26.36C101.07 26.536 101.198 26.776 101.246 27.08C101.294 27.368 101.238 27.688 101.078 28.04L97.1896 36.92C97.0136 37.352 96.7736 37.672 96.4696 37.88C96.1816 38.088 95.8296 38.192 95.4136 38.192ZM104.806 38.168C104.326 38.168 103.958 38.024 103.702 37.736C103.446 37.448 103.318 37.048 103.318 36.536V27.728C103.318 27.2 103.446 26.8 103.702 26.528C103.958 26.24 104.326 26.096 104.806 26.096C105.286 26.096 105.654 26.24 105.91 26.528C106.182 26.8 106.318 27.2 106.318 27.728V36.536C106.318 37.048 106.19 37.448 105.934 37.736C105.678 38.024 105.302 38.168 104.806 38.168ZM104.806 23.864C104.246 23.864 103.806 23.728 103.486 23.456C103.182 23.168 103.03 22.776 103.03 22.28C103.03 21.768 103.182 21.376 103.486 21.104C103.806 20.832 104.246 20.696 104.806 20.696C105.382 20.696 105.822 20.832 106.126 21.104C106.43 21.376 106.582 21.768 106.582 22.28C106.582 22.776 106.43 23.168 106.126 23.456C105.822 23.728 105.382 23.864 104.806 23.864ZM115.219 38.24C113.891 38.24 112.747 37.992 111.787 37.496C110.827 37 110.083 36.296 109.555 35.384C109.043 34.472 108.787 33.392 108.787 32.144C108.787 30.928 109.035 29.864 109.531 28.952C110.043 28.04 110.739 27.328 111.619 26.816C112.515 26.288 113.531 26.024 114.667 26.024C115.499 26.024 116.243 26.16 116.899 26.432C117.571 26.704 118.139 27.096 118.603 27.608C119.083 28.12 119.443 28.744 119.683 29.48C119.939 30.2 120.067 31.016 120.067 31.928C120.067 32.216 119.963 32.44 119.755 32.6C119.563 32.744 119.283 32.816 118.915 32.816H111.211V31.088H117.955L117.571 31.448C117.571 30.712 117.459 30.096 117.235 29.6C117.027 29.104 116.715 28.728 116.299 28.472C115.899 28.2 115.395 28.064 114.787 28.064C114.115 28.064 113.539 28.224 113.059 28.544C112.595 28.848 112.235 29.288 111.979 29.864C111.739 30.424 111.619 31.096 111.619 31.88V32.048C111.619 33.36 111.923 34.344 112.531 35C113.155 35.64 114.067 35.96 115.267 35.96C115.683 35.96 116.147 35.912 116.659 35.816C117.187 35.704 117.683 35.52 118.147 35.264C118.483 35.072 118.779 34.992 119.035 35.024C119.291 35.04 119.491 35.128 119.635 35.288C119.795 35.448 119.891 35.648 119.923 35.888C119.955 36.112 119.907 36.344 119.779 36.584C119.667 36.824 119.467 37.032 119.179 37.208C118.619 37.56 117.971 37.824 117.235 38C116.515 38.16 115.843 38.24 115.219 38.24ZM112.747 24.608C112.555 24.816 112.347 24.936 112.123 24.968C111.915 25 111.723 24.96 111.547 24.848C111.387 24.736 111.283 24.584 111.235 24.392C111.187 24.184 111.243 23.96 111.403 23.72L112.963 21.392C113.203 21.04 113.459 20.8 113.731 20.672C114.019 20.528 114.339 20.456 114.691 20.456C114.931 20.456 115.155 20.488 115.363 20.552C115.571 20.6 115.763 20.696 115.939 20.84C116.115 20.968 116.275 21.152 116.419 21.392L117.979 23.72C118.139 23.96 118.195 24.184 118.147 24.392C118.115 24.584 118.019 24.736 117.859 24.848C117.699 24.96 117.507 25 117.283 24.968C117.059 24.936 116.851 24.816 116.659 24.608L114.691 22.424L112.747 24.608ZM118.891 22.304C118.747 22.496 118.579 22.608 118.387 22.64C118.195 22.656 118.019 22.616 117.859 22.52C117.715 22.424 117.619 22.288 117.571 22.112C117.523 21.92 117.563 21.704 117.691 21.464L119.179 18.824C119.323 18.568 119.499 18.408 119.707 18.344C119.915 18.264 120.123 18.256 120.331 18.32C120.539 18.368 120.707 18.472 120.835 18.632C120.979 18.776 121.059 18.96 121.075 19.184C121.091 19.392 121.011 19.608 120.835 19.832L118.891 22.304ZM127.772 38.24C126.732 38.24 125.86 38.064 125.156 37.712C124.468 37.36 123.956 36.848 123.62 36.176C123.284 35.488 123.116 34.64 123.116 33.632V28.52H121.868C121.484 28.52 121.188 28.424 120.98 28.232C120.772 28.024 120.668 27.744 120.668 27.392C120.668 27.024 120.772 26.744 120.98 26.552C121.188 26.36 121.484 26.264 121.868 26.264H123.116V24.08C123.116 23.584 123.244 23.208 123.5 22.952C123.772 22.696 124.148 22.568 124.628 22.568C125.108 22.568 125.476 22.696 125.732 22.952C125.988 23.208 126.116 23.584 126.116 24.08V26.264H128.66C129.044 26.264 129.34 26.36 129.548 26.552C129.756 26.744 129.86 27.024 129.86 27.392C129.86 27.744 129.756 28.024 129.548 28.232C129.34 28.424 129.044 28.52 128.66 28.52H126.116V33.464C126.116 34.232 126.284 34.808 126.62 35.192C126.956 35.576 127.5 35.768 128.252 35.768C128.524 35.768 128.764 35.744 128.972 35.696C129.18 35.648 129.364 35.616 129.524 35.6C129.716 35.584 129.876 35.648 130.004 35.792C130.132 35.92 130.196 36.192 130.196 36.608C130.196 36.928 130.14 37.216 130.028 37.472C129.932 37.712 129.748 37.88 129.476 37.976C129.268 38.04 128.996 38.096 128.66 38.144C128.324 38.208 128.028 38.24 127.772 38.24ZM23.8 66.192C23.368 66.192 23.016 66.088 22.744 65.88C22.488 65.672 22.28 65.344 22.12 64.896L17.104 50.712C16.928 50.2 16.96 49.768 17.2 49.416C17.456 49.064 17.88 48.888 18.472 48.888C18.904 48.888 19.24 48.992 19.48 49.2C19.72 49.392 19.912 49.704 20.056 50.136L24.376 62.952H23.416L27.928 50.16C28.088 49.728 28.288 49.408 28.528 49.2C28.768 48.992 29.08 48.888 29.464 48.888C29.848 48.888 30.152 48.992 30.376 49.2C30.6 49.408 30.792 49.736 30.952 50.184L35.32 62.952H34.48L38.872 50.136C39.016 49.72 39.208 49.408 39.448 49.2C39.688 48.992 40.016 48.888 40.432 48.888C40.944 48.888 41.32 49.064 41.56 49.416C41.8 49.768 41.832 50.2 41.656 50.712L36.592 64.92C36.432 65.352 36.224 65.672 35.968 65.88C35.712 66.088 35.368 66.192 34.936 66.192C34.504 66.192 34.16 66.088 33.904 65.88C33.648 65.672 33.44 65.344 33.28 64.896L29.104 52.992H29.656L25.432 64.92C25.272 65.352 25.064 65.672 24.808 65.88C24.568 66.088 24.232 66.192 23.8 66.192ZM44.4319 66.192C43.9359 66.192 43.5519 66.064 43.2799 65.808C43.0239 65.536 42.8959 65.152 42.8959 64.656V55.584C42.8959 55.088 43.0239 54.712 43.2799 54.456C43.5359 54.2 43.8959 54.072 44.3599 54.072C44.8239 54.072 45.1839 54.2 45.4399 54.456C45.6959 54.712 45.8239 55.088 45.8239 55.584V57.096H45.5839C45.8079 56.136 46.2479 55.408 46.9039 54.912C47.5599 54.416 48.4319 54.12 49.5199 54.024C49.8559 53.992 50.1199 54.08 50.3119 54.288C50.5199 54.48 50.6399 54.784 50.6719 55.2C50.7039 55.6 50.6079 55.928 50.3839 56.184C50.1759 56.424 49.8559 56.568 49.4239 56.616L48.8959 56.664C47.9199 56.76 47.1839 57.064 46.6879 57.576C46.1919 58.072 45.9439 58.776 45.9439 59.688V64.656C45.9439 65.152 45.8159 65.536 45.5599 65.808C45.3039 66.064 44.9279 66.192 44.4319 66.192ZM53.7824 66.168C53.3024 66.168 52.9344 66.024 52.6784 65.736C52.4224 65.448 52.2944 65.048 52.2944 64.536V55.728C52.2944 55.2 52.4224 54.8 52.6784 54.528C52.9344 54.24 53.3024 54.096 53.7824 54.096C54.2624 54.096 54.6304 54.24 54.8864 54.528C55.1584 54.8 55.2944 55.2 55.2944 55.728V64.536C55.2944 65.048 55.1664 65.448 54.9104 65.736C54.6544 66.024 54.2784 66.168 53.7824 66.168ZM53.7824 51.864C53.2224 51.864 52.7824 51.728 52.4624 51.456C52.1584 51.168 52.0064 50.776 52.0064 50.28C52.0064 49.768 52.1584 49.376 52.4624 49.104C52.7824 48.832 53.2224 48.696 53.7824 48.696C54.3584 48.696 54.7984 48.832 55.1024 49.104C55.4064 49.376 55.5584 49.768 55.5584 50.28C55.5584 50.776 55.4064 51.168 55.1024 51.456C54.7984 51.728 54.3584 51.864 53.7824 51.864ZM63.7876 66.24C62.7476 66.24 61.8756 66.064 61.1716 65.712C60.4836 65.36 59.9716 64.848 59.6356 64.176C59.2996 63.488 59.1316 62.64 59.1316 61.632V56.52H57.8836C57.4996 56.52 57.2036 56.424 56.9956 56.232C56.7876 56.024 56.6836 55.744 56.6836 55.392C56.6836 55.024 56.7876 54.744 56.9956 54.552C57.2036 54.36 57.4996 54.264 57.8836 54.264H59.1316V52.08C59.1316 51.584 59.2596 51.208 59.5156 50.952C59.7876 50.696 60.1636 50.568 60.6436 50.568C61.1236 50.568 61.4916 50.696 61.7476 50.952C62.0036 51.208 62.1316 51.584 62.1316 52.08V54.264H64.6756C65.0596 54.264 65.3556 54.36 65.5636 54.552C65.7716 54.744 65.8756 55.024 65.8756 55.392C65.8756 55.744 65.7716 56.024 65.5636 56.232C65.3556 56.424 65.0596 56.52 64.6756 56.52H62.1316V61.464C62.1316 62.232 62.2996 62.808 62.6356 63.192C62.9716 63.576 63.5156 63.768 64.2676 63.768C64.5396 63.768 64.7796 63.744 64.9876 63.696C65.1956 63.648 65.3796 63.616 65.5396 63.6C65.7316 63.584 65.8916 63.648 66.0196 63.792C66.1476 63.92 66.2116 64.192 66.2116 64.608C66.2116 64.928 66.1556 65.216 66.0436 65.472C65.9476 65.712 65.7636 65.88 65.4916 65.976C65.2836 66.04 65.0116 66.096 64.6756 66.144C64.3396 66.208 64.0436 66.24 63.7876 66.24ZM69.4152 66.168C68.9352 66.168 68.5672 66.024 68.3112 65.736C68.0552 65.448 67.9272 65.048 67.9272 64.536V55.728C67.9272 55.2 68.0552 54.8 68.3112 54.528C68.5672 54.24 68.9352 54.096 69.4152 54.096C69.8952 54.096 70.2632 54.24 70.5192 54.528C70.7912 54.8 70.9272 55.2 70.9272 55.728V64.536C70.9272 65.048 70.7992 65.448 70.5432 65.736C70.2872 66.024 69.9112 66.168 69.4152 66.168ZM69.4152 51.864C68.8552 51.864 68.4152 51.728 68.0952 51.456C67.7912 51.168 67.6392 50.776 67.6392 50.28C67.6392 49.768 67.7912 49.376 68.0952 49.104C68.4152 48.832 68.8552 48.696 69.4152 48.696C69.9912 48.696 70.4312 48.832 70.7352 49.104C71.0392 49.376 71.1912 49.768 71.1912 50.28C71.1912 50.776 71.0392 51.168 70.7352 51.456C70.4312 51.728 69.9912 51.864 69.4152 51.864ZM75.5324 66.192C75.0524 66.192 74.6844 66.064 74.4284 65.808C74.1724 65.536 74.0444 65.152 74.0444 64.656V55.584C74.0444 55.088 74.1724 54.712 74.4284 54.456C74.6844 54.2 75.0444 54.072 75.5084 54.072C75.9724 54.072 76.3324 54.2 76.5884 54.456C76.8444 54.712 76.9724 55.088 76.9724 55.584V57.216L76.7084 56.616C77.0604 55.768 77.6044 55.128 78.3404 54.696C79.0924 54.248 79.9404 54.024 80.8844 54.024C81.8284 54.024 82.6044 54.2 83.2124 54.552C83.8204 54.904 84.2764 55.44 84.5804 56.16C84.8844 56.864 85.0364 57.76 85.0364 58.848V64.656C85.0364 65.152 84.9084 65.536 84.6524 65.808C84.3964 66.064 84.0284 66.192 83.5484 66.192C83.0684 66.192 82.6924 66.064 82.4204 65.808C82.1644 65.536 82.0364 65.152 82.0364 64.656V58.992C82.0364 58.08 81.8604 57.416 81.5084 57C81.1724 56.584 80.6444 56.376 79.9244 56.376C79.0444 56.376 78.3404 56.656 77.8124 57.216C77.3004 57.76 77.0444 58.488 77.0444 59.4V64.656C77.0444 65.68 76.5404 66.192 75.5324 66.192ZM93.5554 70.56C92.6914 70.56 91.8514 70.48 91.0354 70.32C90.2354 70.16 89.5074 69.912 88.8514 69.576C88.5474 69.416 88.3394 69.224 88.2274 69C88.1314 68.776 88.0994 68.544 88.1314 68.304C88.1794 68.08 88.2754 67.88 88.4194 67.704C88.5794 67.528 88.7714 67.408 88.9954 67.344C89.2194 67.28 89.4514 67.312 89.6914 67.44C90.3954 67.792 91.0594 68.016 91.6834 68.112C92.3234 68.224 92.8674 68.28 93.3154 68.28C94.3874 68.28 95.1874 68.016 95.7154 67.488C96.2594 66.976 96.5314 66.208 96.5314 65.184V63.024H96.7474C96.5074 63.84 96.0034 64.496 95.2354 64.992C94.4834 65.472 93.6274 65.712 92.6674 65.712C91.6114 65.712 90.6914 65.472 89.9074 64.992C89.1234 64.496 88.5154 63.808 88.0834 62.928C87.6514 62.048 87.4354 61.024 87.4354 59.856C87.4354 58.976 87.5554 58.184 87.7954 57.48C88.0514 56.76 88.4034 56.144 88.8514 55.632C89.3154 55.12 89.8674 54.728 90.5074 54.456C91.1634 54.168 91.8834 54.024 92.6674 54.024C93.6594 54.024 94.5234 54.272 95.2594 54.768C96.0114 55.248 96.4994 55.888 96.7234 56.688L96.4834 57.288V55.584C96.4834 55.088 96.6114 54.712 96.8674 54.456C97.1394 54.2 97.5074 54.072 97.9714 54.072C98.4514 54.072 98.8194 54.2 99.0754 54.456C99.3314 54.712 99.4594 55.088 99.4594 55.584V64.824C99.4594 66.728 98.9554 68.16 97.9474 69.12C96.9394 70.08 95.4754 70.56 93.5554 70.56ZM93.4834 63.432C94.1074 63.432 94.6434 63.288 95.0914 63C95.5394 62.712 95.8834 62.304 96.1234 61.776C96.3794 61.232 96.5074 60.592 96.5074 59.856C96.5074 58.752 96.2354 57.888 95.6914 57.264C95.1474 56.624 94.4114 56.304 93.4834 56.304C92.8594 56.304 92.3234 56.448 91.8754 56.736C91.4274 57.024 91.0754 57.432 90.8194 57.96C90.5794 58.488 90.4594 59.12 90.4594 59.856C90.4594 60.96 90.7314 61.832 91.2754 62.472C91.8194 63.112 92.5554 63.432 93.4834 63.432ZM109.539 66.192C109.155 66.192 108.843 66.104 108.603 65.928C108.379 65.752 108.243 65.52 108.195 65.232C108.147 64.928 108.203 64.592 108.363 64.224L114.699 50.184C114.907 49.72 115.155 49.392 115.443 49.2C115.747 48.992 116.091 48.888 116.475 48.888C116.843 48.888 117.171 48.992 117.459 49.2C117.763 49.392 118.019 49.72 118.227 50.184L124.587 64.224C124.763 64.592 124.827 64.928 124.779 65.232C124.731 65.536 124.595 65.776 124.371 65.952C124.147 66.112 123.851 66.192 123.483 66.192C123.035 66.192 122.683 66.088 122.427 65.88C122.187 65.656 121.971 65.32 121.779 64.872L120.219 61.248L121.515 62.088H111.387L112.683 61.248L111.147 64.872C110.939 65.336 110.723 65.672 110.499 65.88C110.275 66.088 109.955 66.192 109.539 66.192ZM116.427 52.416L113.067 60.408L112.443 59.64H120.459L119.859 60.408L116.475 52.416H116.427ZM128.767 66.192C128.271 66.192 127.887 66.056 127.615 65.784C127.359 65.496 127.231 65.104 127.231 64.608V50.472C127.231 49.96 127.359 49.568 127.615 49.296C127.887 49.024 128.271 48.888 128.767 48.888C129.263 48.888 129.639 49.024 129.895 49.296C130.167 49.568 130.303 49.96 130.303 50.472V64.608C130.303 65.104 130.175 65.496 129.919 65.784C129.663 66.056 129.279 66.192 128.767 66.192Z" fill="#FF4266"/>
<g clipPath="url(#clip0_24759_276001)">
<g clipPath="url(#clip1_24759_276001)">
<path d="M9.79167 124.761C9.50622 117.479 14.621 111.145 21.0151 110.854C32.3631 110.333 46.0674 110.953 61.1108 114.357C77.1013 117.975 90.1127 123.728 99.8622 129.084C101.518 129.992 103.35 130.4 105.2 130.213C116.891 129.056 132.222 128.929 149.546 132.624C163.946 135.694 175.92 140.593 185.223 145.378C188.669 147.151 190.932 151.144 191.111 155.699C192.18 183.063 193.257 210.576 194.342 238.244C194.684 247.012 187.618 253.959 180.77 251.502C161.764 244.677 146.515 241.63 138.038 240.943C133.011 240.535 118.331 239.347 112.355 241.833C111.823 242.056 110.001 242.871 107.642 242.746C104.126 242.559 101.718 240.413 101.129 239.92C95.3702 235.117 72.4225 229.057 60.0961 226.849C51.7168 225.346 39.7486 224.101 24.6741 225.445C18.5992 225.987 13.5752 220.867 13.3001 213.892C12.1272 184.013 10.9594 154.303 9.79686 124.761H9.79426H9.79167Z" fill="url(#paint0_linear_24759_276001)"/>
<path d="M185.677 244.111C166.17 236.624 150.626 233.03 142.034 232.018C136.958 231.424 122.224 229.691 116.229 231.842C115.692 232.034 113.875 232.74 111.53 232.522C108.047 232.203 105.68 230.054 105.102 229.563C99.4601 224.752 77.0287 218.138 65.0968 215.613C57.0315 213.902 45.5693 212.33 31.25 213.085C25.515 213.389 20.7972 208.437 20.5481 201.908C19.4842 173.83 18.415 145.757 17.3459 117.677C17.0864 110.732 21.9468 104.689 28.0451 104.408C34.966 104.092 42.8445 104.221 51.4263 105.213C56.3308 105.778 61.4716 106.624 66.7991 107.828C74.2365 109.515 81.0406 111.667 87.1623 114.028C93.9638 116.657 99.9427 119.545 105.032 122.327C106.677 123.225 108.511 123.632 110.37 123.463C118.139 122.763 127.554 122.511 138.141 123.5C139.27 123.604 140.409 123.723 141.567 123.858C146.03 124.377 150.688 125.122 155.505 126.147C170.387 129.315 182.815 134.321 192.507 139.213C196.112 141.034 198.603 145.127 198.691 149.697C198.712 150.675 198.73 151.656 198.748 152.634C198.751 152.725 198.753 152.813 198.753 152.904C199.262 179.181 199.61 205.409 200.131 231.691C200.303 240.325 192.764 246.82 185.682 244.109L185.677 244.111Z" fill="url(#paint1_linear_24759_276001)"/>
<path d="M189.283 224.197C189.154 224.197 189.021 224.163 188.902 224.091C168.072 211.455 137.183 210.347 123.759 211.528C123.354 211.562 122.996 211.263 122.96 210.859C122.924 210.454 123.225 210.096 123.63 210.059C137.217 208.866 168.508 210 189.665 222.832C190.013 223.042 190.124 223.496 189.914 223.847C189.774 224.075 189.533 224.202 189.283 224.202V224.197ZM188.393 211.097C188.264 211.097 188.131 211.064 188.012 210.991C167.182 198.356 136.293 197.248 122.869 198.429C122.464 198.462 122.106 198.164 122.07 197.759C122.034 197.354 122.335 196.996 122.739 196.96C136.33 195.766 167.618 196.897 188.775 209.732C189.123 209.943 189.234 210.397 189.024 210.747C188.884 210.975 188.643 211.103 188.393 211.103V211.097ZM187.994 199.511C187.864 199.511 187.732 199.477 187.612 199.404C166.782 186.769 135.894 185.661 122.47 186.842C122.062 186.875 121.707 186.577 121.67 186.172C121.634 185.767 121.935 185.409 122.34 185.373C135.927 184.179 167.218 185.311 188.375 198.146C188.723 198.356 188.835 198.81 188.624 199.16C188.484 199.389 188.243 199.516 187.994 199.516V199.511ZM187.594 187.926C187.464 187.926 187.332 187.893 187.213 187.82C166.382 175.185 135.494 174.077 122.07 175.255C121.665 175.291 121.307 174.99 121.271 174.585C121.234 174.181 121.535 173.823 121.94 173.786C135.528 172.592 166.818 173.724 187.976 186.559C188.323 186.769 188.435 187.223 188.225 187.574C188.085 187.802 187.843 187.929 187.594 187.929V187.926ZM187.192 176.342C187.062 176.342 186.93 176.309 186.81 176.236C165.98 163.601 135.089 162.493 121.668 163.673C121.26 163.707 120.905 163.409 120.868 163.004C120.832 162.599 121.133 162.241 121.538 162.205C135.128 161.011 166.416 162.142 187.573 174.977C187.921 175.188 188.033 175.642 187.823 175.989C187.682 176.218 187.441 176.345 187.192 176.345V176.342ZM186.071 165.651C185.941 165.651 185.809 165.617 185.689 165.544C164.859 152.909 133.971 151.801 120.547 152.979C120.142 153.013 119.784 152.715 119.747 152.31C119.711 151.905 120.012 151.547 120.417 151.511C134.004 150.317 165.295 151.448 186.452 164.283C186.8 164.493 186.912 164.948 186.701 165.295C186.561 165.524 186.32 165.651 186.071 165.651ZM184.854 156.179C184.724 156.179 184.592 156.145 184.472 156.073C163.642 143.437 132.754 142.329 119.33 143.508C118.925 143.541 118.567 143.243 118.53 142.838C118.494 142.433 118.795 142.075 119.2 142.039C132.787 140.845 164.078 141.976 185.235 154.811C185.583 155.022 185.695 155.476 185.484 155.823C185.344 156.052 185.103 156.179 184.854 156.179Z" fill="#191F51"/>
<path fillRule="evenodd" clipRule="evenodd" d="M195.72 112.988C192.652 112.321 189.58 111.482 186.539 110.424C184.273 109.635 182.026 108.727 179.828 107.668L179.607 108.221L173.621 123.355L173.371 123.985L166.186 142.148L166.033 142.534L161.808 153.21C160.897 155.515 160.586 158.029 160.902 160.502L163.225 178.421C163.471 180.344 165.633 181.265 167.11 180.079L180.871 169.024C182.768 167.504 184.242 165.493 185.155 163.191L189.372 152.538L189.437 152.375L196.28 135.084L196.535 134.441L204.263 114.916L204.455 114.428C201.564 114.109 198.644 113.613 195.72 112.985V112.988ZM208.085 95.5257L191.098 88.27C189.341 87.5174 187.33 88.3894 186.609 90.2137L185.713 92.4791C185.181 93.8259 185.796 95.3648 187.089 95.9175L205.731 103.923C207.026 104.481 208.513 103.838 209.048 102.491L209.959 100.189C210.68 98.3646 209.839 96.273 208.082 95.5231L208.085 95.5257Z" fill="url(#paint2_linear_24759_276001)"/>
<path d="M206.133 110.185L204.942 113.19L204.748 113.68L204.452 114.425C201.561 114.106 198.642 113.61 195.717 112.982C192.65 112.315 189.577 111.477 186.536 110.418C184.27 109.629 182.023 108.721 179.825 107.662L182.591 100.666L182.789 100.173C182.796 100.155 182.802 100.137 182.812 100.121C183.362 98.8056 184.826 98.188 186.108 98.7381L204.753 106.744C206.048 107.299 206.665 108.835 206.131 110.185H206.133Z" fill="url(#paint3_linear_24759_276001)"/>
<path d="M185.236 204.82L183.469 204.937C183.087 204.963 182.76 205.225 182.651 205.593L182.148 207.303L182.034 205.526C182.008 205.142 181.748 204.812 181.382 204.706L179.683 204.2L181.45 204.083C181.834 204.057 182.161 203.795 182.267 203.426L182.771 201.716L182.885 203.494C182.911 203.878 183.17 204.208 183.536 204.314L185.233 204.82H185.236Z" fill="#5A88E5"/>
<path d="M61.5185 215.011C61.1941 214.951 60.8646 214.891 60.5298 214.834C56.7203 214.165 52.3399 213.583 47.4224 213.249L46.4363 190.48C46.2702 186.616 49.2674 183.346 53.1314 183.18C53.2352 183.175 53.339 183.172 53.4428 183.172C57.1693 183.172 60.2677 186.113 60.4312 189.873L61.5185 215.011Z" fill="#191F51"/>
<path d="M83.8017 220.772C83.4721 220.665 83.1399 220.556 82.8052 220.45C78.7699 219.152 74.3402 217.886 69.6043 216.747L67.9072 177.534C67.7385 173.667 70.7383 170.4 74.5997 170.231C76.5356 170.148 78.3158 170.857 79.6393 172.066C80.9575 173.278 81.8165 174.996 81.9021 176.926L83.8017 220.772Z" fill="#191F51"/>
<path d="M106.256 230.523C105.942 230.324 105.605 230.113 105.246 229.893C105.096 229.799 104.938 229.706 104.777 229.607C102.322 228.128 97.8714 225.972 91.9366 223.675L89.1677 159.788C89.0016 155.922 91.9989 152.655 95.8629 152.486C97.7962 152.403 99.5789 153.111 100.9 154.321C102.221 155.533 103.08 157.248 103.163 159.181L106.256 230.523Z" fill="#191F51"/>
<path d="M60.5297 214.834C56.4685 214.121 51.756 213.508 46.4388 213.184L45.3982 189.183C45.2321 185.319 48.2294 182.049 52.0933 181.883C52.1971 181.878 52.3009 181.875 52.4047 181.875C56.1312 181.875 59.2296 184.815 59.3931 188.575L60.5297 214.834Z" fill="url(#paint4_linear_24759_276001)"/>
<path d="M82.8051 220.45C78.4896 219.061 73.7225 217.709 68.6129 216.513L66.8691 176.236C66.7004 172.369 69.7002 169.102 73.5616 168.933C75.4975 168.85 77.2777 169.559 78.6012 170.768C79.9194 171.98 80.7784 173.698 80.864 175.628L82.8051 220.45Z" fill="url(#paint5_linear_24759_276001)"/>
<path d="M105.246 229.893C105.096 229.8 104.938 229.706 104.777 229.608C102.187 228.045 97.3731 225.731 90.9374 223.291L88.1296 158.491C87.9635 154.625 90.9608 151.357 94.8248 151.189C96.7581 151.106 98.5408 151.814 99.8617 153.023C101.183 154.235 102.042 155.951 102.125 157.884L105.246 229.893Z" fill="url(#paint6_linear_24759_276001)"/>
<path d="M74.5117 137.92C74.5117 151.388 63.5944 162.306 50.1263 162.306C36.6581 162.306 25.7383 151.388 25.7383 137.92C25.7383 124.452 36.6555 113.532 50.1263 113.532C63.597 113.532 74.5117 124.449 74.5117 137.92Z" fill="#191F51"/>
<path d="M73.4706 137.142C73.4706 150.61 62.5534 161.527 49.0853 161.527C35.6171 161.527 24.6973 150.61 24.6973 137.142C24.6973 123.674 35.6145 112.754 49.0853 112.754C62.556 112.754 73.4706 123.671 73.4706 137.142Z" fill="#FF8054"/>
<path d="M73.4704 137.142H49.085V112.754C62.5531 112.754 73.4704 123.671 73.4704 137.142Z" fill="url(#paint7_linear_24759_276001)"/>
<path d="M39.7146 126.43H45.652V131.537H43.6045L39.3435 147.849H32.7236L39.7146 126.43ZM38.4249 139.15H48.9036L50.2089 143.588H37.117L38.4223 139.15H38.4249ZM43.7239 131.537V126.43H47.6138L54.6048 147.849H47.9849L43.7239 131.537Z" fill="#191F51"/>
<path d="M56.5332 126.43H62.8261V147.849H56.5332V126.43Z" fill="#191F51"/>
<path d="M29.7165 241.224C23.5617 240.931 17.8773 238.433 13.6458 233.896C10.2419 230.242 15.6884 224.908 19.1132 228.588C21.9193 231.597 25.4496 233.379 29.5804 233.575C34.5808 233.812 34.7222 241.463 29.7165 241.224Z" fill="#FABF49"/>
<path d="M171.068 101.059C171.031 97.39 172.427 94.323 175.046 92.0584C175.832 91.3769 177.212 91.9034 177.776 92.7489C178.462 93.775 178.089 94.849 177.311 95.5211C175.799 96.8326 174.952 98.9117 174.972 101.009C174.998 103.588 171.095 103.661 171.068 101.059Z" fill="#565FCC"/>
<path d="M206.502 131.776C206.338 135.441 204.777 138.428 202.038 140.546C201.215 141.184 199.866 140.583 199.349 139.708C198.72 138.646 199.152 137.594 199.966 136.965C201.547 135.738 202.506 133.708 202.601 131.613C202.717 129.037 206.618 129.176 206.502 131.776Z" fill="#565FCC"/>
<path d="M101.982 108.997L109.49 107.663C111.112 107.375 112.384 106.106 112.673 104.488L114.01 97L115.346 104.488C115.635 106.109 116.907 107.375 118.529 107.667L126.034 109L118.529 110.333C116.904 110.622 115.635 111.891 115.346 113.512L114.01 121L112.673 113.509C112.384 111.891 111.112 110.622 109.49 110.333L101.982 108.997Z" fill="#FABF49"/>
</g>
<path d="M12 89.497L18.5556 88.3304C19.9719 88.078 21.0823 86.9678 21.3347 85.5517L22.5015 79L23.6683 85.5517C23.9207 86.9707 25.0311 88.078 26.4473 88.3333L33 89.5L26.4473 90.6667C25.0281 90.919 23.9207 92.0293 23.6683 93.4483L22.5015 100L21.3347 93.4453C21.0823 92.0293 19.9719 90.919 18.5556 90.6667L12 89.497Z" fill="#FABF49"/>
<path d="M28 97.2549L31.431 96.6993C32.1739 96.5795 32.7531 96.0494 32.8889 95.374L33.5 92.2549L34.1111 95.374C34.2429 96.0494 34.8261 96.5759 35.569 96.6993L39 97.2549L35.569 97.8104C34.8261 97.9303 34.2469 98.4604 34.1111 99.1358L33.5 102.255L32.8889 99.1358C32.7571 98.4604 32.1739 97.9339 31.431 97.8104L28 97.2549Z" fill="#FABF49"/>
</g>
<defs>
<linearGradient id="paint0_linear_24759_276001" x1="131.638" y1="119.701" x2="70.0325" y2="248.613" gradientUnits="userSpaceOnUse">
<stop stop-color="#A65A5B"/>
<stop offset="1" stop-color="#4D53A8"/>
</linearGradient>
<linearGradient id="paint1_linear_24759_276001" x1="123.098" y1="267.809" x2="97.1012" y2="90.2265" gradientUnits="userSpaceOnUse">
<stop stop-color="#FF7F3F"/>
<stop offset="0.47" stop-color="#FABF49"/>
</linearGradient>
<linearGradient id="paint2_linear_24759_276001" x1="185.501" y1="98.5437" x2="185.501" y2="180.611" gradientUnits="userSpaceOnUse">
<stop stop-color="#749EF2"/>
<stop offset="1" stop-color="#565FCC"/>
</linearGradient>
<linearGradient id="paint3_linear_24759_276001" x1="189.063" y1="121.961" x2="222.544" y2="10.7151" gradientUnits="userSpaceOnUse">
<stop stop-color="#749EF2"/>
<stop offset="1" stop-color="#565FCC"/>
</linearGradient>
<linearGradient id="paint4_linear_24759_276001" x1="52.9601" y1="232.013" x2="52.9601" y2="141.517" gradientUnits="userSpaceOnUse">
<stop stop-color="#A65A5B"/>
<stop offset="1" stop-color="#4D53A8"/>
</linearGradient>
<linearGradient id="paint5_linear_24759_276001" x1="74.8332" y1="232.013" x2="74.8332" y2="141.517" gradientUnits="userSpaceOnUse">
<stop stop-color="#A65A5B"/>
<stop offset="1" stop-color="#4D53A8"/>
</linearGradient>
<linearGradient id="paint6_linear_24759_276001" x1="96.6828" y1="232.013" x2="96.6828" y2="141.517" gradientUnits="userSpaceOnUse">
<stop stop-color="#A65A5B"/>
<stop offset="1" stop-color="#4D53A8"/>
</linearGradient>
<linearGradient id="paint7_linear_24759_276001" x1="60.8845" y1="105.958" x2="62.1613" y2="207.054" gradientUnits="userSpaceOnUse">
<stop stop-color="#FF7F3F"/>
<stop offset="0.62" stop-color="#FABF49"/>
</linearGradient>
<clipPath id="clip0_24759_276001">
<rect width="200" height="200" fill="white" transform="translate(10 52)"/>
</clipPath>
<clipPath id="clip1_24759_276001">
<rect width="200.437" height="164" fill="white" transform="translate(9.78125 88)"/>
</clipPath>
</defs>
</svg>
