<svg width="220" height="260" viewBox="0 0 220 260" fill="none" xmlns="http://www.w3.org/2000/svg">
<g clipPath="url(#clip0_24759_177767)">
<rect width="220" height="260" rx="12" fill="#FFEDD1"/>
<path d="M19.408 38C18.912 38 18.528 37.864 18.256 37.592C17.984 37.304 17.848 36.912 17.848 36.416V22.568C17.848 22.056 17.976 21.672 18.232 21.416C18.504 21.144 18.888 21.008 19.384 21.008C19.88 21.008 20.256 21.144 20.512 21.416C20.784 21.672 20.92 22.056 20.92 22.568V35.384H27.88C28.312 35.384 28.64 35.496 28.864 35.72C29.104 35.944 29.224 36.264 29.224 36.68C29.224 37.096 29.104 37.424 28.864 37.664C28.64 37.888 28.312 38 27.88 38H19.408ZM32.5246 38.168C32.0446 38.168 31.6766 38.024 31.4206 37.736C31.1646 37.448 31.0366 37.048 31.0366 36.536V27.728C31.0366 27.2 31.1646 26.8 31.4206 26.528C31.6766 26.24 32.0446 26.096 32.5246 26.096C33.0046 26.096 33.3726 26.24 33.6286 26.528C33.9006 26.8 34.0366 27.2 34.0366 27.728V36.536C34.0366 37.048 33.9086 37.448 33.6526 37.736C33.3966 38.024 33.0206 38.168 32.5246 38.168ZM32.5246 23.864C31.9646 23.864 31.5246 23.728 31.2046 23.456C30.9006 23.168 30.7486 22.776 30.7486 22.28C30.7486 21.768 30.9006 21.376 31.2046 21.104C31.5246 20.832 31.9646 20.696 32.5246 20.696C33.1006 20.696 33.5406 20.832 33.8446 21.104C34.1486 21.376 34.3006 21.768 34.3006 22.28C34.3006 22.776 34.1486 23.168 33.8446 23.456C33.5406 23.728 33.1006 23.864 32.5246 23.864ZM41.4498 38.24C40.7618 38.24 40.0338 38.168 39.2658 38.024C38.4978 37.88 37.8098 37.632 37.2018 37.28C36.9458 37.12 36.7618 36.936 36.6498 36.728C36.5538 36.504 36.5138 36.288 36.5298 36.08C36.5618 35.856 36.6418 35.664 36.7698 35.504C36.9138 35.344 37.0898 35.24 37.2978 35.192C37.5218 35.144 37.7618 35.184 38.0178 35.312C38.6578 35.616 39.2578 35.832 39.8178 35.96C40.3778 36.072 40.9298 36.128 41.4738 36.128C42.2418 36.128 42.8098 36 43.1778 35.744C43.5618 35.472 43.7538 35.12 43.7538 34.688C43.7538 34.32 43.6258 34.04 43.3698 33.848C43.1298 33.64 42.7618 33.488 42.2658 33.392L39.8658 32.936C38.8738 32.744 38.1138 32.384 37.5858 31.856C37.0738 31.312 36.8178 30.616 36.8178 29.768C36.8178 29 37.0258 28.336 37.4418 27.776C37.8738 27.216 38.4658 26.784 39.2178 26.48C39.9698 26.176 40.8338 26.024 41.8098 26.024C42.5138 26.024 43.1698 26.104 43.7778 26.264C44.4018 26.408 45.0018 26.64 45.5778 26.96C45.8178 27.088 45.9778 27.256 46.0578 27.464C46.1538 27.672 46.1778 27.888 46.1298 28.112C46.0818 28.32 45.9858 28.512 45.8418 28.688C45.6978 28.848 45.5138 28.952 45.2898 29C45.0818 29.032 44.8418 28.984 44.5698 28.856C44.0738 28.6 43.5938 28.416 43.1298 28.304C42.6818 28.192 42.2498 28.136 41.8338 28.136C41.0498 28.136 40.4658 28.272 40.0818 28.544C39.7138 28.816 39.5298 29.176 39.5298 29.624C39.5298 29.96 39.6418 30.24 39.8658 30.464C40.0898 30.688 40.4338 30.84 40.8978 30.92L43.2978 31.376C44.3378 31.568 45.1218 31.92 45.6498 32.432C46.1938 32.944 46.4658 33.632 46.4658 34.496C46.4658 35.664 46.0098 36.584 45.0978 37.256C44.1858 37.912 42.9698 38.24 41.4498 38.24ZM54.1313 38.24C53.0913 38.24 52.2193 38.064 51.5153 37.712C50.8273 37.36 50.3153 36.848 49.9793 36.176C49.6433 35.488 49.4753 34.64 49.4753 33.632V28.52H48.2273C47.8433 28.52 47.5473 28.424 47.3393 28.232C47.1313 28.024 47.0273 27.744 47.0273 27.392C47.0273 27.024 47.1313 26.744 47.3393 26.552C47.5473 26.36 47.8433 26.264 48.2273 26.264H49.4753V24.08C49.4753 23.584 49.6033 23.208 49.8593 22.952C50.1313 22.696 50.5073 22.568 50.9873 22.568C51.4673 22.568 51.8353 22.696 52.0913 22.952C52.3473 23.208 52.4753 23.584 52.4753 24.08V26.264H55.0193C55.4033 26.264 55.6993 26.36 55.9073 26.552C56.1153 26.744 56.2193 27.024 56.2193 27.392C56.2193 27.744 56.1153 28.024 55.9073 28.232C55.6993 28.424 55.4033 28.52 55.0193 28.52H52.4753V33.464C52.4753 34.232 52.6433 34.808 52.9793 35.192C53.3153 35.576 53.8593 35.768 54.6113 35.768C54.8833 35.768 55.1233 35.744 55.3313 35.696C55.5393 35.648 55.7233 35.616 55.8833 35.6C56.0753 35.584 56.2353 35.648 56.3633 35.792C56.4913 35.92 56.5553 36.192 56.5553 36.608C56.5553 36.928 56.4993 37.216 56.3873 37.472C56.2913 37.712 56.1073 37.88 55.8353 37.976C55.6273 38.04 55.3553 38.096 55.0193 38.144C54.6833 38.208 54.3873 38.24 54.1313 38.24ZM63.6331 38.24C62.3051 38.24 61.1611 37.992 60.2011 37.496C59.2411 37 58.4971 36.296 57.9691 35.384C57.4571 34.472 57.2011 33.392 57.2011 32.144C57.2011 30.928 57.4491 29.864 57.9451 28.952C58.4571 28.04 59.1531 27.328 60.0331 26.816C60.9291 26.288 61.9451 26.024 63.0811 26.024C63.9131 26.024 64.6571 26.16 65.3131 26.432C65.9851 26.704 66.5531 27.096 67.0171 27.608C67.4971 28.12 67.8571 28.744 68.0971 29.48C68.3531 30.2 68.4811 31.016 68.4811 31.928C68.4811 32.216 68.3771 32.44 68.1691 32.6C67.9771 32.744 67.6971 32.816 67.3291 32.816H59.6251V31.088H66.3691L65.9851 31.448C65.9851 30.712 65.8731 30.096 65.6491 29.6C65.4411 29.104 65.1291 28.728 64.7131 28.472C64.3131 28.2 63.8091 28.064 63.2011 28.064C62.5291 28.064 61.9531 28.224 61.4731 28.544C61.0091 28.848 60.6491 29.288 60.3931 29.864C60.1531 30.424 60.0331 31.096 60.0331 31.88V32.048C60.0331 33.36 60.3371 34.344 60.9451 35C61.5691 35.64 62.4811 35.96 63.6811 35.96C64.0971 35.96 64.5611 35.912 65.0731 35.816C65.6011 35.704 66.0971 35.52 66.5611 35.264C66.8971 35.072 67.1931 34.992 67.4491 35.024C67.7051 35.04 67.9051 35.128 68.0491 35.288C68.2091 35.448 68.3051 35.648 68.3371 35.888C68.3691 36.112 68.3211 36.344 68.1931 36.584C68.0811 36.824 67.8811 37.032 67.5931 37.208C67.0331 37.56 66.3851 37.824 65.6491 38C64.9291 38.16 64.2571 38.24 63.6331 38.24ZM72.3449 38.192C71.8649 38.192 71.4969 38.064 71.2409 37.808C70.9849 37.536 70.8569 37.152 70.8569 36.656V27.584C70.8569 27.088 70.9849 26.712 71.2409 26.456C71.4969 26.2 71.8569 26.072 72.3209 26.072C72.7849 26.072 73.1449 26.2 73.4009 26.456C73.6569 26.712 73.7849 27.088 73.7849 27.584V29.216L73.5209 28.616C73.8729 27.768 74.4169 27.128 75.1529 26.696C75.9049 26.248 76.7529 26.024 77.6969 26.024C78.6409 26.024 79.4169 26.2 80.0249 26.552C80.6329 26.904 81.0889 27.44 81.3929 28.16C81.6969 28.864 81.8489 29.76 81.8489 30.848V36.656C81.8489 37.152 81.7209 37.536 81.4649 37.808C81.2089 38.064 80.8409 38.192 80.3609 38.192C79.8809 38.192 79.5049 38.064 79.2329 37.808C78.9769 37.536 78.8489 37.152 78.8489 36.656V30.992C78.8489 30.08 78.6729 29.416 78.3209 29C77.9849 28.584 77.4569 28.376 76.7369 28.376C75.8569 28.376 75.1529 28.656 74.6249 29.216C74.1129 29.76 73.8569 30.488 73.8569 31.4V36.656C73.8569 37.68 73.3529 38.192 72.3449 38.192ZM86.3839 38.168C85.9039 38.168 85.5359 38.024 85.2799 37.736C85.0239 37.448 84.8959 37.048 84.8959 36.536V27.728C84.8959 27.2 85.0239 26.8 85.2799 26.528C85.5359 26.24 85.9039 26.096 86.3839 26.096C86.8639 26.096 87.2319 26.24 87.4879 26.528C87.7599 26.8 87.8959 27.2 87.8959 27.728V36.536C87.8959 37.048 87.7679 37.448 87.5119 37.736C87.2559 38.024 86.8799 38.168 86.3839 38.168ZM86.3839 23.864C85.8239 23.864 85.3839 23.728 85.0639 23.456C84.7599 23.168 84.6079 22.776 84.6079 22.28C84.6079 21.768 84.7599 21.376 85.0639 21.104C85.3839 20.832 85.8239 20.696 86.3839 20.696C86.9599 20.696 87.3999 20.832 87.7039 21.104C88.0079 21.376 88.1599 21.768 88.1599 22.28C88.1599 22.776 88.0079 23.168 87.7039 23.456C87.3999 23.728 86.9599 23.864 86.3839 23.864ZM92.5011 38.192C92.0211 38.192 91.6531 38.064 91.3971 37.808C91.1411 37.536 91.0131 37.152 91.0131 36.656V27.584C91.0131 27.088 91.1411 26.712 91.3971 26.456C91.6531 26.2 92.0131 26.072 92.4771 26.072C92.9411 26.072 93.3011 26.2 93.5571 26.456C93.8131 26.712 93.9411 27.088 93.9411 27.584V29.216L93.6771 28.616C94.0291 27.768 94.5731 27.128 95.3091 26.696C96.0611 26.248 96.9091 26.024 97.8531 26.024C98.7971 26.024 99.5731 26.2 100.181 26.552C100.789 26.904 101.245 27.44 101.549 28.16C101.853 28.864 102.005 29.76 102.005 30.848V36.656C102.005 37.152 101.877 37.536 101.621 37.808C101.365 38.064 100.997 38.192 100.517 38.192C100.037 38.192 99.6611 38.064 99.3891 37.808C99.1331 37.536 99.0051 37.152 99.0051 36.656V30.992C99.0051 30.08 98.8291 29.416 98.4771 29C98.1411 28.584 97.6131 28.376 96.8931 28.376C96.0131 28.376 95.3091 28.656 94.7811 29.216C94.2691 29.76 94.0131 30.488 94.0131 31.4V36.656C94.0131 37.68 93.5091 38.192 92.5011 38.192ZM110.524 42.56C109.66 42.56 108.82 42.48 108.004 42.32C107.204 42.16 106.476 41.912 105.82 41.576C105.516 41.416 105.308 41.224 105.196 41C105.1 40.776 105.068 40.544 105.1 40.304C105.148 40.08 105.244 39.88 105.388 39.704C105.548 39.528 105.74 39.408 105.964 39.344C106.188 39.28 106.42 39.312 106.66 39.44C107.364 39.792 108.028 40.016 108.652 40.112C109.292 40.224 109.836 40.28 110.284 40.28C111.356 40.28 112.156 40.016 112.684 39.488C113.228 38.976 113.5 38.208 113.5 37.184V35.024H113.716C113.476 35.84 112.972 36.496 112.204 36.992C111.452 37.472 110.596 37.712 109.636 37.712C108.58 37.712 107.66 37.472 106.876 36.992C106.092 36.496 105.484 35.808 105.052 34.928C104.62 34.048 104.404 33.024 104.404 31.856C104.404 30.976 104.524 30.184 104.764 29.48C105.02 28.76 105.372 28.144 105.82 27.632C106.284 27.12 106.836 26.728 107.476 26.456C108.132 26.168 108.852 26.024 109.636 26.024C110.628 26.024 111.492 26.272 112.228 26.768C112.98 27.248 113.468 27.888 113.692 28.688L113.452 29.288V27.584C113.452 27.088 113.58 26.712 113.836 26.456C114.108 26.2 114.476 26.072 114.94 26.072C115.42 26.072 115.788 26.2 116.044 26.456C116.3 26.712 116.428 27.088 116.428 27.584V36.824C116.428 38.728 115.924 40.16 114.916 41.12C113.908 42.08 112.444 42.56 110.524 42.56ZM110.452 35.432C111.076 35.432 111.612 35.288 112.06 35C112.508 34.712 112.852 34.304 113.092 33.776C113.348 33.232 113.476 32.592 113.476 31.856C113.476 30.752 113.204 29.888 112.66 29.264C112.116 28.624 111.38 28.304 110.452 28.304C109.828 28.304 109.292 28.448 108.844 28.736C108.396 29.024 108.044 29.432 107.788 29.96C107.548 30.488 107.428 31.12 107.428 31.856C107.428 32.96 107.7 33.832 108.244 34.472C108.788 35.112 109.524 35.432 110.452 35.432Z" fill="#CC7100"/>
<g clipPath="url(#clip1_24759_177767)">
<path d="M149.25 69.7254C105.55 106.525 104.591 151.759 109.575 169.775C104.016 200.442 98.1899 245.1 119.35 178.4C140.51 111.7 237.033 100.009 282.65 102.5V11.6504H256.775C239.141 15.6754 192.95 32.9254 149.25 69.7254Z" fill="url(#paint0_linear_24759_177767)"/>
<path d="M182.478 167.13C179.512 166.847 176.5 167.004 173.559 167.601L166.873 168.958L160.289 136.792C156.544 118.49 138.533 106.631 120.145 110.358C101.757 114.085 89.8404 132.011 93.5852 150.313L100.169 182.479L93.4834 183.837C90.5375 184.434 87.7085 185.462 85.0882 186.88L78.2448 153.427C72.7752 126.704 90.1711 100.533 117.021 95.0897C143.87 89.6458 170.165 106.96 175.635 133.683L182.478 167.13Z" fill="url(#paint1_linear_24759_177767)"/>
<path d="M127.035 178.354L131.026 198.027C132.317 204.393 131.194 210.692 128.276 215.959C125.246 221.452 120.274 225.826 114.077 227.991C112.979 228.379 111.835 228.695 110.661 228.935L103.478 230.405C102.304 230.645 101.129 230.803 99.9702 230.88C96.5744 231.11 93.2446 230.66 90.1437 229.634C81.5321 226.791 74.6438 219.517 72.707 209.962L68.7164 190.289C66.7796 180.733 70.2821 171.331 77.1043 165.333C80.3985 162.428 84.4755 160.325 89.0761 159.386L96.2592 157.916C97.4437 157.676 98.6281 157.513 99.8024 157.441C112.613 156.594 124.402 165.363 127.035 178.354Z" fill="url(#paint2_radial_24759_177767)"/>
<path d="M199.458 163.645L203.448 183.318C205.385 192.873 201.883 202.276 195.061 208.274C192.606 210.438 189.718 212.159 186.501 213.282C185.403 213.67 184.259 213.986 183.085 214.226L175.902 215.696C174.728 215.936 173.554 216.094 172.395 216.171C165.848 216.61 159.57 214.537 154.644 210.673C149.912 206.972 146.419 201.612 145.128 195.252L141.138 175.579C138.505 162.588 145.931 149.888 158.05 145.631C159.158 145.238 160.312 144.916 161.496 144.676L168.679 143.206C173.284 142.267 177.849 142.604 182.012 143.977C190.628 146.815 197.521 154.084 199.458 163.645Z" fill="url(#paint3_radial_24759_177767)"/>
<path d="M56.4559 184.278C52.0182 181.99 47.015 181.444 42.2036 182.92C38.3314 184.111 39.9873 190.069 43.8848 188.868C47.0756 187.889 50.2764 188.066 53.2551 189.601C56.8598 191.461 60.0657 186.138 56.4559 184.278Z" fill="#5D61CF"/>
<path d="M58.62 173.863C55.4362 168.875 50.8514 165.96 45.3263 165.205C43.6658 164.976 42.2698 166.902 42.2551 168.54C42.2355 170.528 43.6854 171.651 45.3263 171.874C48.5199 172.315 51.4931 174.379 53.3152 177.229C55.5537 180.734 60.8781 177.399 58.62 173.863Z" fill="#5D61CF"/>
<path d="M98.153 244.077C94.383 246.312 89.9566 245.234 87.2472 241.874C84.5221 238.497 79.8227 243.319 82.5268 246.669C87.1054 252.345 95.3649 253.583 101.524 249.929C105.236 247.736 101.876 241.868 98.153 244.077Z" fill="#FF6D3B"/>
<path d="M70.2258 88.556L75.9613 87.613C77.2033 87.4096 78.1714 86.5097 78.3984 85.3633L79.42 80.069L80.4416 85.3633C80.6619 86.5097 81.6368 87.4034 82.8787 87.613L88.6143 88.556L82.8787 89.499C81.6368 89.7024 80.6686 90.6022 80.4416 91.7486L79.42 97.043L78.3984 91.7486C78.1781 90.6022 77.2033 89.7085 75.9613 89.499L70.2258 88.556Z" fill="#FE6C3A"/>
<path d="M39.9997 75.0979L51.2624 73.0309C53.6955 72.5838 55.6032 70.6167 56.0368 68.1079L58.0415 56.5002L60.0461 68.1079C60.4797 70.622 62.3874 72.5838 64.8205 73.0361L76.0781 75.1031L64.8205 77.1701C62.3823 77.6172 60.4797 79.5842 60.0461 82.0983L58.0415 93.7061L56.0368 82.093C55.6032 79.5842 53.6955 77.6172 51.2624 77.1701L39.9997 75.0979Z" fill="#5D61CF"/>
</g>
</g>
<defs>
<linearGradient id="paint0_linear_24759_177767" x1="193.518" y1="11.6504" x2="193.518" y2="213.077" gradientUnits="userSpaceOnUse">
<stop stop-color="#FF6D3B"/>
<stop offset="1" stop-color="#FABF49"/>
</linearGradient>
<linearGradient id="paint1_linear_24759_177767" x1="90.0341" y1="110.06" x2="229.908" y2="251.254" gradientUnits="userSpaceOnUse">
<stop stop-color="#565FCC"/>
<stop offset="1" stop-color="#FF6D3B"/>
</linearGradient>
<radialGradient id="paint2_radial_24759_177767" cx="0" cy="0" r="1" gradientUnits="userSpaceOnUse" gradientTransform="translate(76.6735 174.359) rotate(45) scale(113.623 113.567)">
<stop stop-color="#FE6C3A"/>
<stop offset="1" stop-color="#5D61CC"/>
<stop offset="1.0001" stop-color="#164675"/>
</radialGradient>
<radialGradient id="paint3_radial_24759_177767" cx="0" cy="0" r="1" gradientUnits="userSpaceOnUse" gradientTransform="translate(149.661 151.162) rotate(45) scale(99.2201 90.2333)">
<stop stop-color="#FF6D3B"/>
<stop offset="1" stop-color="#565FCC"/>
<stop stop-color="#FE6C3A"/>
</radialGradient>
<clipPath id="clip0_24759_177767">
<rect width="220" height="260" rx="12" fill="white"/>
</clipPath>
<clipPath id="clip1_24759_177767">
<rect width="230" height="230" fill="white" transform="translate(40 22)"/>
</clipPath>
</defs>
</svg>
