<svg width="561" height="54" viewBox="0 0 561 54" fill="none" xmlns="http://www.w3.org/2000/svg">
<path d="M342.127 0.144583C341.86 0.0903645 341.601 0.0451823 341.334 0C323.584 0.262057 309.215 0.750026 299.421 1.14763C289.711 1.5362 283.85 1.87958 253.426 3.30734C246.696 3.62362 239.967 3.93989 233.238 4.25617C217.349 5.0062 205.159 5.1056 197.846 5.23211C191.183 5.34958 187.852 5.4038 186.282 5.36765C179.102 5.205 175.37 4.65377 168.557 5.24114C165.968 5.46705 163.915 5.63875 162.704 5.96406C151.433 8.99127 148.819 42.3358 148.26 50.8843C148.043 51.4355 147.859 52.1313 148.151 52.5741C148.527 53.1343 149.487 52.9807 149.738 52.9807C165.434 52.9265 181.139 52.9536 196.835 52.9446C203.439 52.9355 210.035 52.8904 216.631 52.8633C231.342 52.9084 246.054 52.9355 260.765 52.9446C284.193 52.9627 307.62 52.9446 331.04 52.8904C331.298 52.5379 331.641 52.0409 331.991 51.4084C333.002 49.6192 333.394 48.0468 333.519 47.5589C335.406 40.2935 339.698 28.013 342.319 9.57864C342.762 6.4701 343.697 3.24409 342.119 0.144583H342.127ZM330.255 15.4433C330.071 15.1993 329.837 15.0457 329.528 15.0457H330.255V15.4433Z" fill="#FFA41B"/>
<path d="M5.64 37.32C4.81333 37.32 4.17333 37.0933 3.72 36.64C3.29333 36.16 3.08 35.5067 3.08 34.68V11.08C3.08 10.2267 3.29333 9.58667 3.72 9.16C4.17333 8.70666 4.81333 8.48 5.64 8.48C6.46667 8.48 7.09333 8.70666 7.52 9.16C7.97333 9.58667 8.2 10.2267 8.2 11.08V21.28H8.28L19.76 9.76C20.1867 9.33333 20.6133 9.01333 21.04 8.8C21.4667 8.58666 21.9467 8.48 22.48 8.48C23.2533 8.48 23.8 8.68 24.12 9.08C24.4667 9.48 24.6 9.94667 24.52 10.48C24.4667 11.0133 24.2133 11.5067 23.76 11.96L12.08 23.52L12.12 21.2L24.32 33.6C24.88 34.1333 25.1733 34.6933 25.2 35.28C25.2267 35.8667 25.04 36.36 24.64 36.76C24.2667 37.1333 23.7067 37.32 22.96 37.32C22.32 37.32 21.8 37.1867 21.4 36.92C21.0267 36.6533 20.5867 36.2667 20.08 35.76L8.28 23.96H8.2V34.68C8.2 35.5067 7.98667 36.16 7.56 36.64C7.13333 37.0933 6.49333 37.32 5.64 37.32ZM32.9506 44.52C32.364 44.52 31.884 44.36 31.5106 44.04C31.1373 43.7467 30.9106 43.3467 30.8306 42.84C30.7773 42.3333 30.8706 41.8 31.1106 41.24L33.8306 35.2V37.28L26.5506 20.44C26.3106 19.8533 26.2306 19.3067 26.3106 18.8C26.3906 18.2933 26.6306 17.8933 27.0306 17.6C27.4573 17.28 28.0306 17.12 28.7506 17.12C29.364 17.12 29.8573 17.2667 30.2306 17.56C30.604 17.8267 30.9373 18.3467 31.2306 19.12L36.6306 32.6H35.4306L40.9506 19.08C41.244 18.3333 41.5906 17.8267 41.9906 17.56C42.3906 17.2667 42.924 17.12 43.5906 17.12C44.1773 17.12 44.644 17.28 44.9906 17.6C45.3373 17.8933 45.5506 18.2933 45.6306 18.8C45.7106 19.28 45.6173 19.8133 45.3506 20.4L35.6306 42.6C35.284 43.3467 34.9106 43.8533 34.5106 44.12C34.1106 44.3867 33.5906 44.52 32.9506 44.52ZM29.4306 13.76C29.0306 13.7333 28.724 13.6 28.5106 13.36C28.2973 13.12 28.244 12.7467 28.3506 12.24C28.4573 11.68 28.6173 11.1333 28.8306 10.6C29.0706 10.04 29.3773 9.53333 29.7506 9.08C30.124 8.62667 30.5773 8.26667 31.1106 8C31.644 7.70666 32.2706 7.56 32.9906 7.56C33.6573 7.56 34.244 7.69333 34.7506 7.96C35.2573 8.22667 35.724 8.53333 36.1506 8.88C36.5773 9.22667 37.004 9.53333 37.4306 9.8C37.8573 10.0667 38.324 10.2 38.8306 10.2C39.3906 10.2 39.8706 10.0133 40.2706 9.64C40.6973 9.24 40.964 8.74666 41.0706 8.16C41.124 7.86667 41.2573 7.64 41.4706 7.48C41.7106 7.32 42.044 7.25333 42.4706 7.28C42.8706 7.30667 43.1773 7.44 43.3906 7.68C43.604 7.92 43.6573 8.29333 43.5506 8.8C43.4173 9.52 43.164 10.24 42.7906 10.96C42.4173 11.68 41.9106 12.28 41.2706 12.76C40.6573 13.24 39.8706 13.48 38.9106 13.48C38.244 13.48 37.6573 13.3467 37.1506 13.08C36.644 12.8133 36.164 12.5067 35.7106 12.16C35.284 11.8133 34.8573 11.5067 34.4306 11.24C34.004 10.9733 33.5506 10.84 33.0706 10.84C32.5106 10.84 32.0306 11.0267 31.6306 11.4C31.2306 11.7733 30.964 12.2667 30.8306 12.88C30.7773 13.1733 30.6306 13.4 30.3906 13.56C30.1773 13.72 29.8573 13.7867 29.4306 13.76ZM62.3847 37.32C61.5847 37.32 60.9714 37.1067 60.5447 36.68C60.118 36.2267 59.9047 35.5867 59.9047 34.76V19.64C59.9047 18.8133 60.118 18.1867 60.5447 17.76C60.9714 17.3333 61.5714 17.12 62.3447 17.12C63.118 17.12 63.718 17.3333 64.1447 17.76C64.5714 18.1867 64.7847 18.8133 64.7847 19.64V22.36L64.3447 21.36C64.9314 19.9467 65.838 18.88 67.0647 18.16C68.318 17.4133 69.7314 17.04 71.3047 17.04C72.878 17.04 74.1714 17.3333 75.1847 17.92C76.198 18.5067 76.958 19.4 77.4647 20.6C77.9714 21.7733 78.2247 23.2667 78.2247 25.08V34.76C78.2247 35.5867 78.0114 36.2267 77.5847 36.68C77.158 37.1067 76.5447 37.32 75.7447 37.32C74.9447 37.32 74.318 37.1067 73.8647 36.68C73.438 36.2267 73.2247 35.5867 73.2247 34.76V25.32C73.2247 23.8 72.9314 22.6933 72.3447 22C71.7847 21.3067 70.9047 20.96 69.7047 20.96C68.238 20.96 67.0647 21.4267 66.1847 22.36C65.3314 23.2667 64.9047 24.48 64.9047 26V34.76C64.9047 36.4667 64.0647 37.32 62.3847 37.32ZM89.7431 37.4C88.3298 37.4 87.0631 37.1333 85.9431 36.6C84.8498 36.04 83.9831 35.2933 83.3431 34.36C82.7298 33.4267 82.4231 32.3733 82.4231 31.2C82.4231 29.76 82.7965 28.6267 83.5431 27.8C84.2898 26.9467 85.5031 26.3333 87.1831 25.96C88.8631 25.5867 91.1165 25.4 93.9431 25.4H95.9431V28.28H93.9831C92.3298 28.28 91.0098 28.36 90.0231 28.52C89.0365 28.68 88.3298 28.96 87.9031 29.36C87.5031 29.7333 87.3031 30.2667 87.3031 30.96C87.3031 31.84 87.6098 32.56 88.2231 33.12C88.8365 33.68 89.6898 33.96 90.7831 33.96C91.6631 33.96 92.4365 33.76 93.1031 33.36C93.7965 32.9333 94.3431 32.36 94.7431 31.64C95.1431 30.92 95.3431 30.0933 95.3431 29.16V24.56C95.3431 23.2267 95.0498 22.2667 94.4631 21.68C93.8765 21.0933 92.8898 20.8 91.5031 20.8C90.7298 20.8 89.8898 20.8933 88.9831 21.08C88.1031 21.2667 87.1698 21.5867 86.1831 22.04C85.6765 22.28 85.2231 22.3467 84.8231 22.24C84.4498 22.1333 84.1565 21.92 83.9431 21.6C83.7298 21.2533 83.6231 20.88 83.6231 20.48C83.6231 20.08 83.7298 19.6933 83.9431 19.32C84.1565 18.92 84.5165 18.6267 85.0231 18.44C86.2498 17.9333 87.4231 17.5733 88.5431 17.36C89.6898 17.1467 90.7298 17.04 91.6631 17.04C93.5831 17.04 95.1565 17.3333 96.3831 17.92C97.6365 18.5067 98.5698 19.4 99.1831 20.6C99.7965 21.7733 100.103 23.2933 100.103 25.16V34.76C100.103 35.5867 99.9031 36.2267 99.5031 36.68C99.1031 37.1067 98.5298 37.32 97.7831 37.32C97.0365 37.32 96.4498 37.1067 96.0231 36.68C95.6231 36.2267 95.4231 35.5867 95.4231 34.76V32.84H95.7431C95.5565 33.7733 95.1831 34.5867 94.6231 35.28C94.0898 35.9467 93.4098 36.4667 92.5831 36.84C91.7565 37.2133 90.8098 37.4 89.7431 37.4ZM91.8631 14.96C90.6098 14.96 89.5298 14.6933 88.6231 14.16C87.7165 13.6 86.9831 12.8533 86.4231 11.92C85.8898 10.96 85.5298 9.89333 85.3431 8.72C85.2631 8.18666 85.3431 7.76 85.5831 7.44C85.8498 7.09333 86.1965 6.90667 86.6231 6.88C87.0765 6.85333 87.4365 6.96 87.7031 7.2C87.9965 7.44 88.1831 7.81333 88.2631 8.32C88.4765 9.52 88.9031 10.4267 89.5431 11.04C90.1831 11.6267 90.9565 11.92 91.8631 11.92C92.7698 11.92 93.5431 11.6267 94.1831 11.04C94.8498 10.4267 95.2765 9.52 95.4631 8.32C95.5431 7.81333 95.7298 7.44 96.0231 7.2C96.3165 6.96 96.6765 6.85333 97.1031 6.88C97.5565 6.90667 97.9031 7.09333 98.1431 7.44C98.3831 7.76 98.4631 8.18666 98.3831 8.72C98.2231 9.89333 97.8631 10.96 97.3031 11.92C96.7431 12.8533 96.0098 13.6 95.1031 14.16C94.1965 14.6933 93.1165 14.96 91.8631 14.96ZM107.658 37.32C106.858 37.32 106.245 37.1067 105.818 36.68C105.391 36.2267 105.178 35.5867 105.178 34.76V19.64C105.178 18.8133 105.391 18.1867 105.818 17.76C106.245 17.3333 106.845 17.12 107.618 17.12C108.391 17.12 108.991 17.3333 109.418 17.76C109.845 18.1867 110.058 18.8133 110.058 19.64V22.36L109.618 21.36C110.205 19.9467 111.111 18.88 112.338 18.16C113.591 17.4133 115.005 17.04 116.578 17.04C118.151 17.04 119.445 17.3333 120.458 17.92C121.471 18.5067 122.231 19.4 122.738 20.6C123.245 21.7733 123.498 23.2667 123.498 25.08V34.76C123.498 35.5867 123.285 36.2267 122.858 36.68C122.431 37.1067 121.818 37.32 121.018 37.32C120.218 37.32 119.591 37.1067 119.138 36.68C118.711 36.2267 118.498 35.5867 118.498 34.76V25.32C118.498 23.8 118.205 22.6933 117.618 22C117.058 21.3067 116.178 20.96 114.978 20.96C113.511 20.96 112.338 21.4267 111.458 22.36C110.605 23.2667 110.178 24.48 110.178 26V34.76C110.178 36.4667 109.338 37.32 107.658 37.32ZM137.697 44.6C136.257 44.6 134.857 44.4667 133.497 44.2C132.163 43.9333 130.95 43.52 129.857 42.96C129.35 42.6933 129.003 42.3733 128.817 42C128.657 41.6267 128.603 41.24 128.657 40.84C128.737 40.4667 128.897 40.1333 129.137 39.84C129.403 39.5467 129.723 39.3467 130.097 39.24C130.47 39.1333 130.857 39.1867 131.257 39.4C132.43 39.9867 133.537 40.36 134.577 40.52C135.643 40.7067 136.55 40.8 137.297 40.8C139.083 40.8 140.417 40.36 141.297 39.48C142.203 38.6267 142.657 37.3467 142.657 35.64V32.04H143.017C142.617 33.4 141.777 34.4933 140.497 35.32C139.243 36.12 137.817 36.52 136.217 36.52C134.457 36.52 132.923 36.12 131.617 35.32C130.31 34.4933 129.297 33.3467 128.577 31.88C127.857 30.4133 127.497 28.7067 127.497 26.76C127.497 25.2933 127.697 23.9733 128.097 22.8C128.523 21.6 129.11 20.5733 129.857 19.72C130.63 18.8667 131.55 18.2133 132.617 17.76C133.71 17.28 134.91 17.04 136.217 17.04C137.87 17.04 139.31 17.4533 140.537 18.28C141.79 19.08 142.603 20.1467 142.977 21.48L142.577 22.48V19.64C142.577 18.8133 142.79 18.1867 143.217 17.76C143.67 17.3333 144.283 17.12 145.057 17.12C145.857 17.12 146.47 17.3333 146.897 17.76C147.323 18.1867 147.537 18.8133 147.537 19.64V35.04C147.537 38.2133 146.697 40.6 145.017 42.2C143.337 43.8 140.897 44.6 137.697 44.6ZM137.577 32.72C138.617 32.72 139.51 32.48 140.257 32C141.003 31.52 141.577 30.84 141.977 29.96C142.403 29.0533 142.617 27.9867 142.617 26.76C142.617 24.92 142.163 23.48 141.257 22.44C140.35 21.3733 139.123 20.84 137.577 20.84C136.537 20.84 135.643 21.08 134.897 21.56C134.15 22.04 133.563 22.72 133.137 23.6C132.737 24.48 132.537 25.5333 132.537 26.76C132.537 28.6 132.99 30.0533 133.897 31.12C134.803 32.1867 136.03 32.72 137.577 32.72Z" fill="black"/>
<path d="M166.657 37C165.83 37 165.19 36.7733 164.737 36.32C164.283 35.84 164.057 35.1867 164.057 34.36V11.28C164.057 10.4267 164.27 9.78667 164.697 9.36C165.15 8.90667 165.79 8.68 166.617 8.68C167.443 8.68 168.07 8.90667 168.497 9.36C168.95 9.78667 169.177 10.4267 169.177 11.28V32.64H180.777C181.497 32.64 182.043 32.8267 182.417 33.2C182.817 33.5733 183.017 34.1067 183.017 34.8C183.017 35.4933 182.817 36.04 182.417 36.44C182.043 36.8133 181.497 37 180.777 37H166.657ZM188.518 37.28C187.718 37.28 187.104 37.04 186.678 36.56C186.251 36.08 186.038 35.4133 186.038 34.56V19.88C186.038 19 186.251 18.3333 186.678 17.88C187.104 17.4 187.718 17.16 188.518 17.16C189.318 17.16 189.931 17.4 190.358 17.88C190.811 18.3333 191.038 19 191.038 19.88V34.56C191.038 35.4133 190.824 36.08 190.398 36.56C189.971 37.04 189.344 37.28 188.518 37.28ZM188.518 13.44C187.584 13.44 186.851 13.2133 186.318 12.76C185.811 12.28 185.558 11.6267 185.558 10.8C185.558 9.94667 185.811 9.29333 186.318 8.84C186.851 8.38667 187.584 8.16 188.518 8.16C189.478 8.16 190.211 8.38667 190.718 8.84C191.224 9.29333 191.478 9.94667 191.478 10.8C191.478 11.6267 191.224 12.28 190.718 12.76C190.211 13.2133 189.478 13.44 188.518 13.44ZM203.393 37.4C202.246 37.4 201.033 37.28 199.753 37.04C198.473 36.8 197.326 36.3867 196.313 35.8C195.886 35.5333 195.579 35.2267 195.393 34.88C195.233 34.5067 195.166 34.1467 195.193 33.8C195.246 33.4267 195.379 33.1067 195.593 32.84C195.833 32.5733 196.126 32.4 196.473 32.32C196.846 32.24 197.246 32.3067 197.673 32.52C198.739 33.0267 199.739 33.3867 200.673 33.6C201.606 33.7867 202.526 33.88 203.433 33.88C204.713 33.88 205.659 33.6667 206.273 33.24C206.913 32.7867 207.233 32.2 207.233 31.48C207.233 30.8667 207.019 30.4 206.593 30.08C206.193 29.7333 205.579 29.48 204.753 29.32L200.753 28.56C199.099 28.24 197.833 27.64 196.953 26.76C196.099 25.8533 195.673 24.6933 195.673 23.28C195.673 22 196.019 20.8933 196.713 19.96C197.433 19.0267 198.419 18.3067 199.673 17.8C200.926 17.2933 202.366 17.04 203.993 17.04C205.166 17.04 206.259 17.1733 207.273 17.44C208.313 17.68 209.313 18.0667 210.273 18.6C210.673 18.8133 210.939 19.0933 211.073 19.44C211.233 19.7867 211.273 20.1467 211.193 20.52C211.113 20.8667 210.953 21.1867 210.713 21.48C210.473 21.7467 210.166 21.92 209.793 22C209.446 22.0533 209.046 21.9733 208.593 21.76C207.766 21.3333 206.966 21.0267 206.193 20.84C205.446 20.6533 204.726 20.56 204.033 20.56C202.726 20.56 201.753 20.7867 201.113 21.24C200.499 21.6933 200.193 22.2933 200.193 23.04C200.193 23.6 200.379 24.0667 200.753 24.44C201.126 24.8133 201.699 25.0667 202.473 25.2L206.473 25.96C208.206 26.28 209.513 26.8667 210.393 27.72C211.299 28.5733 211.753 29.72 211.753 31.16C211.753 33.1067 210.993 34.64 209.473 35.76C207.953 36.8533 205.926 37.4 203.393 37.4ZM224.529 37.4C222.795 37.4 221.342 37.1067 220.169 36.52C219.022 35.9333 218.169 35.08 217.609 33.96C217.049 32.8133 216.769 31.4 216.769 29.72V21.2H214.689C214.049 21.2 213.555 21.04 213.209 20.72C212.862 20.3733 212.689 19.9067 212.689 19.32C212.689 18.7067 212.862 18.24 213.209 17.92C213.555 17.6 214.049 17.44 214.689 17.44H216.769V13.8C216.769 12.9733 216.982 12.3467 217.409 11.92C217.862 11.4933 218.489 11.28 219.289 11.28C220.089 11.28 220.702 11.4933 221.129 11.92C221.555 12.3467 221.769 12.9733 221.769 13.8V17.44H226.009C226.649 17.44 227.142 17.6 227.489 17.92C227.835 18.24 228.009 18.7067 228.009 19.32C228.009 19.9067 227.835 20.3733 227.489 20.72C227.142 21.04 226.649 21.2 226.009 21.2H221.769V29.44C221.769 30.72 222.049 31.68 222.609 32.32C223.169 32.96 224.075 33.28 225.329 33.28C225.782 33.28 226.182 33.24 226.529 33.16C226.875 33.08 227.182 33.0267 227.449 33C227.769 32.9733 228.035 33.08 228.249 33.32C228.462 33.5333 228.569 33.9867 228.569 34.68C228.569 35.2133 228.475 35.6933 228.289 36.12C228.129 36.52 227.822 36.8 227.369 36.96C227.022 37.0667 226.569 37.16 226.009 37.24C225.449 37.3467 224.955 37.4 224.529 37.4ZM240.365 37.4C238.152 37.4 236.245 36.9867 234.645 36.16C233.045 35.3333 231.805 34.16 230.925 32.64C230.072 31.12 229.645 29.32 229.645 27.24C229.645 25.2133 230.058 23.44 230.885 21.92C231.738 20.4 232.898 19.2133 234.365 18.36C235.858 17.48 237.552 17.04 239.445 17.04C240.832 17.04 242.072 17.2667 243.165 17.72C244.285 18.1733 245.232 18.8267 246.005 19.68C246.805 20.5333 247.405 21.5733 247.805 22.8C248.232 24 248.445 25.36 248.445 26.88C248.445 27.36 248.272 27.7333 247.925 28C247.605 28.24 247.138 28.36 246.525 28.36H233.685V25.48H244.925L244.285 26.08C244.285 24.8533 244.098 23.8267 243.725 23C243.378 22.1733 242.858 21.5467 242.165 21.12C241.498 20.6667 240.658 20.44 239.645 20.44C238.525 20.44 237.565 20.7067 236.765 21.24C235.992 21.7467 235.392 22.48 234.965 23.44C234.565 24.3733 234.365 25.4933 234.365 26.8V27.08C234.365 29.2667 234.872 30.9067 235.885 32C236.925 33.0667 238.445 33.6 240.445 33.6C241.138 33.6 241.912 33.52 242.765 33.36C243.645 33.1733 244.472 32.8667 245.245 32.44C245.805 32.12 246.298 31.9867 246.725 32.04C247.152 32.0667 247.485 32.2133 247.725 32.48C247.992 32.7467 248.152 33.08 248.205 33.48C248.258 33.8533 248.178 34.24 247.965 34.64C247.778 35.04 247.445 35.3867 246.965 35.68C246.032 36.2667 244.952 36.7067 243.725 37C242.525 37.2667 241.405 37.4 240.365 37.4ZM254.885 37.32C254.085 37.32 253.471 37.1067 253.045 36.68C252.618 36.2267 252.405 35.5867 252.405 34.76V19.64C252.405 18.8133 252.618 18.1867 253.045 17.76C253.471 17.3333 254.071 17.12 254.845 17.12C255.618 17.12 256.218 17.3333 256.645 17.76C257.071 18.1867 257.285 18.8133 257.285 19.64V22.36L256.845 21.36C257.431 19.9467 258.338 18.88 259.565 18.16C260.818 17.4133 262.231 17.04 263.805 17.04C265.378 17.04 266.671 17.3333 267.685 17.92C268.698 18.5067 269.458 19.4 269.965 20.6C270.471 21.7733 270.725 23.2667 270.725 25.08V34.76C270.725 35.5867 270.511 36.2267 270.085 36.68C269.658 37.1067 269.045 37.32 268.245 37.32C267.445 37.32 266.818 37.1067 266.365 36.68C265.938 36.2267 265.725 35.5867 265.725 34.76V25.32C265.725 23.8 265.431 22.6933 264.845 22C264.285 21.3067 263.405 20.96 262.205 20.96C260.738 20.96 259.565 21.4267 258.685 22.36C257.831 23.2667 257.405 24.48 257.405 26V34.76C257.405 36.4667 256.565 37.32 254.885 37.32ZM278.283 37.28C277.483 37.28 276.87 37.04 276.443 36.56C276.016 36.08 275.803 35.4133 275.803 34.56V19.88C275.803 19 276.016 18.3333 276.443 17.88C276.87 17.4 277.483 17.16 278.283 17.16C279.083 17.16 279.696 17.4 280.123 17.88C280.576 18.3333 280.803 19 280.803 19.88V34.56C280.803 35.4133 280.59 36.08 280.163 36.56C279.736 37.04 279.11 37.28 278.283 37.28ZM278.283 13.44C277.35 13.44 276.616 13.2133 276.083 12.76C275.576 12.28 275.323 11.6267 275.323 10.8C275.323 9.94667 275.576 9.29333 276.083 8.84C276.616 8.38667 277.35 8.16 278.283 8.16C279.243 8.16 279.976 8.38667 280.483 8.84C280.99 9.29333 281.243 9.94667 281.243 10.8C281.243 11.6267 280.99 12.28 280.483 12.76C279.976 13.2133 279.243 13.44 278.283 13.44ZM288.478 37.32C287.678 37.32 287.065 37.1067 286.638 36.68C286.212 36.2267 285.998 35.5867 285.998 34.76V19.64C285.998 18.8133 286.212 18.1867 286.638 17.76C287.065 17.3333 287.665 17.12 288.438 17.12C289.212 17.12 289.812 17.3333 290.238 17.76C290.665 18.1867 290.878 18.8133 290.878 19.64V22.36L290.438 21.36C291.025 19.9467 291.932 18.88 293.158 18.16C294.412 17.4133 295.825 17.04 297.398 17.04C298.972 17.04 300.265 17.3333 301.278 17.92C302.292 18.5067 303.052 19.4 303.558 20.6C304.065 21.7733 304.318 23.2667 304.318 25.08V34.76C304.318 35.5867 304.105 36.2267 303.678 36.68C303.252 37.1067 302.638 37.32 301.838 37.32C301.038 37.32 300.412 37.1067 299.958 36.68C299.532 36.2267 299.318 35.5867 299.318 34.76V25.32C299.318 23.8 299.025 22.6933 298.438 22C297.878 21.3067 296.998 20.96 295.798 20.96C294.332 20.96 293.158 21.4267 292.278 22.36C291.425 23.2667 290.998 24.48 290.998 26V34.76C290.998 36.4667 290.158 37.32 288.478 37.32ZM318.517 44.6C317.077 44.6 315.677 44.4667 314.317 44.2C312.984 43.9333 311.77 43.52 310.677 42.96C310.17 42.6933 309.824 42.3733 309.637 42C309.477 41.6267 309.424 41.24 309.477 40.84C309.557 40.4667 309.717 40.1333 309.957 39.84C310.224 39.5467 310.544 39.3467 310.917 39.24C311.29 39.1333 311.677 39.1867 312.077 39.4C313.25 39.9867 314.357 40.36 315.397 40.52C316.464 40.7067 317.37 40.8 318.117 40.8C319.904 40.8 321.237 40.36 322.117 39.48C323.024 38.6267 323.477 37.3467 323.477 35.64V32.04H323.837C323.437 33.4 322.597 34.4933 321.317 35.32C320.064 36.12 318.637 36.52 317.037 36.52C315.277 36.52 313.744 36.12 312.437 35.32C311.13 34.4933 310.117 33.3467 309.397 31.88C308.677 30.4133 308.317 28.7067 308.317 26.76C308.317 25.2933 308.517 23.9733 308.917 22.8C309.344 21.6 309.93 20.5733 310.677 19.72C311.45 18.8667 312.37 18.2133 313.437 17.76C314.53 17.28 315.73 17.04 317.037 17.04C318.69 17.04 320.13 17.4533 321.357 18.28C322.61 19.08 323.424 20.1467 323.797 21.48L323.397 22.48V19.64C323.397 18.8133 323.61 18.1867 324.037 17.76C324.49 17.3333 325.104 17.12 325.877 17.12C326.677 17.12 327.29 17.3333 327.717 17.76C328.144 18.1867 328.357 18.8133 328.357 19.64V35.04C328.357 38.2133 327.517 40.6 325.837 42.2C324.157 43.8 321.717 44.6 318.517 44.6ZM318.397 32.72C319.437 32.72 320.33 32.48 321.077 32C321.824 31.52 322.397 30.84 322.797 29.96C323.224 29.0533 323.437 27.9867 323.437 26.76C323.437 24.92 322.984 23.48 322.077 22.44C321.17 21.3733 319.944 20.84 318.397 20.84C317.357 20.84 316.464 21.08 315.717 21.56C314.97 22.04 314.384 22.72 313.957 23.6C313.557 24.48 313.357 25.5333 313.357 26.76C313.357 28.6 313.81 30.0533 314.717 31.12C315.624 32.1867 316.85 32.72 318.397 32.72Z" fill="#FFF8F2"/>
</svg>
