<svg width="830" height="448" viewBox="0 0 830 448" fill="none" xmlns="http://www.w3.org/2000/svg">
<path opacity="0.5" d="M436.703 448C559.147 448 658.407 347.712 658.407 224C658.407 100.288 559.147 0 436.703 0C314.26 0 215 100.288 215 224C215 347.712 314.26 448 436.703 448Z" fill="#FFEACC"/>
<path d="M436.705 430.1C409.161 430.1 382.446 424.654 357.31 413.91C345.225 408.746 333.572 402.353 322.665 394.912C311.861 387.535 301.699 379.066 292.464 369.735C283.229 360.405 274.844 350.138 267.545 339.221C260.178 328.205 253.853 316.427 248.742 304.218C238.109 278.821 232.719 251.83 232.719 224C232.719 196.17 238.109 169.179 248.742 143.782C253.853 131.572 260.181 119.798 267.545 108.778C274.844 97.8619 283.229 87.595 292.464 78.2644C301.699 68.9339 311.861 60.4617 322.665 53.0876C333.569 45.6438 345.225 39.2534 357.31 34.0893C382.446 23.3458 409.161 17.9001 436.705 17.9001C464.25 17.9001 490.965 23.3458 516.101 34.0893C528.185 39.2534 539.839 45.6465 550.746 53.0876C561.55 60.4645 571.712 68.9339 580.947 78.2644C590.182 87.595 598.567 97.8619 605.866 108.778C613.233 119.795 619.558 131.572 624.669 143.782C635.302 169.179 640.692 196.17 640.692 224C640.692 251.83 635.302 278.821 624.669 304.218C619.558 316.427 613.23 328.202 605.866 339.221C598.564 350.138 590.182 360.405 580.947 369.735C571.712 379.066 561.55 387.538 550.746 394.912C539.842 402.356 528.185 408.746 516.101 413.91C490.965 424.654 464.25 430.1 436.705 430.1Z" fill="#FFDFB2"/>
<path d="M436.702 412.202C411.541 412.202 387.149 407.23 364.208 397.426C353.177 392.714 342.536 386.878 332.581 380.08C322.709 373.342 313.427 365.603 304.989 357.077C296.552 348.552 288.892 339.172 282.222 329.2C275.495 319.139 269.719 308.39 265.054 297.245C255.351 274.067 250.43 249.422 250.43 224C250.43 198.578 255.351 173.933 265.054 150.755C269.719 139.61 275.495 128.858 282.222 118.8C288.892 108.826 296.552 99.4479 304.989 90.9228C313.427 82.3976 322.712 74.6584 332.581 67.9197C342.539 61.1224 353.177 55.2866 364.208 50.574C387.149 40.7697 411.541 35.7979 436.702 35.7979C461.864 35.7979 486.256 40.7697 509.197 50.574C520.227 55.2866 530.866 61.1224 540.824 67.9197C550.696 74.6584 559.978 82.3976 568.415 90.9228C576.853 99.4479 584.513 108.829 591.183 118.8C597.91 128.861 603.686 139.61 608.35 150.755C618.054 173.933 622.975 198.578 622.975 224C622.975 249.422 618.054 274.067 608.35 297.245C603.686 308.39 597.91 319.139 591.183 329.2C584.513 339.174 576.853 348.552 568.415 357.077C559.978 365.603 550.693 373.342 540.824 380.08C530.866 386.878 520.227 392.714 509.197 397.426C486.256 407.23 461.864 412.202 436.702 412.202Z" fill="#FFCA80"/>
<path d="M368.992 405.961C368.682 405.732 368.378 405.494 368.078 405.251C368.388 405.478 368.693 405.713 368.992 405.961Z" fill="#FABF49"/>
<path d="M257.226 126.771C262.628 126.771 267.007 122.347 267.007 116.889C267.007 111.431 262.628 107.007 257.226 107.007C251.824 107.007 247.445 111.431 247.445 116.889C247.445 122.347 251.824 126.771 257.226 126.771Z" fill="#FF6D3B"/>
<path d="M289.703 126.771C295.105 126.771 299.484 122.347 299.484 116.889C299.484 111.431 295.105 107.007 289.703 107.007C284.301 107.007 279.922 111.431 279.922 116.889C279.922 122.347 284.301 126.771 289.703 126.771Z" fill="#FF6D3B"/>
<path d="M321.519 126.771C326.921 126.771 331.3 122.347 331.3 116.889C331.3 111.431 326.921 107.007 321.519 107.007C316.117 107.007 311.738 111.431 311.738 116.889C311.738 122.347 316.117 126.771 321.519 126.771Z" fill="#FF6D3B"/>
<path d="M370.403 115.831C370.403 126.835 366.684 137.173 360.162 146.135L380.824 155.858L345.811 158.67C332.377 166.359 307.729 177.943 289.701 177.943C245.131 177.943 209 150.134 209 115.831C209 81.5277 245.131 53.7188 289.701 53.7188C334.272 53.7188 370.403 81.5277 370.403 115.831Z" fill="#FF6D3B"/>
<path d="M321.706 149.833C321.313 149.833 321.012 149.727 320.802 149.516C320.593 149.304 320.488 148.992 320.488 148.582V137.476C320.488 137.066 320.593 136.755 320.802 136.543C321.012 136.331 321.306 136.225 321.686 136.225C322.079 136.225 322.38 136.331 322.589 136.543C322.799 136.755 322.904 137.066 322.904 137.476V139.026L322.688 138.43C322.884 137.755 323.283 137.211 323.885 136.801C324.501 136.39 325.214 136.185 326.026 136.185C326.864 136.185 327.597 136.39 328.225 136.801C328.867 137.211 329.364 137.794 329.718 138.549C330.071 139.291 330.248 140.185 330.248 141.231C330.248 142.264 330.071 143.165 329.718 143.933C329.364 144.688 328.873 145.271 328.245 145.681C327.616 146.092 326.877 146.297 326.026 146.297C325.227 146.297 324.527 146.098 323.925 145.701C323.323 145.291 322.917 144.761 322.707 144.112H322.943V148.582C322.943 148.992 322.832 149.304 322.609 149.516C322.4 149.727 322.099 149.833 321.706 149.833ZM325.339 144.41C325.823 144.41 326.248 144.291 326.615 144.052C326.982 143.814 327.263 143.463 327.459 142.999C327.669 142.523 327.774 141.933 327.774 141.231C327.774 140.172 327.551 139.384 327.106 138.867C326.661 138.337 326.072 138.072 325.339 138.072C324.854 138.072 324.429 138.192 324.062 138.43C323.696 138.655 323.408 139.006 323.198 139.483C323.002 139.946 322.904 140.529 322.904 141.231C322.904 142.277 323.126 143.072 323.571 143.615C324.016 144.145 324.605 144.41 325.339 144.41Z" fill="#F4EBE2"/>
<path d="M312.715 146.297C312.021 146.297 311.399 146.165 310.849 145.9C310.312 145.622 309.887 145.251 309.573 144.787C309.272 144.324 309.121 143.801 309.121 143.218C309.121 142.503 309.304 141.94 309.671 141.529C310.037 141.106 310.633 140.801 311.458 140.615C312.283 140.43 313.389 140.337 314.777 140.337H315.758V141.768H314.796C313.985 141.768 313.337 141.807 312.852 141.887C312.368 141.966 312.021 142.105 311.811 142.304C311.615 142.49 311.517 142.754 311.517 143.099C311.517 143.536 311.667 143.893 311.968 144.172C312.27 144.45 312.688 144.589 313.225 144.589C313.657 144.589 314.037 144.489 314.364 144.291C314.705 144.079 314.973 143.794 315.169 143.437C315.366 143.079 315.464 142.668 315.464 142.205V139.92C315.464 139.258 315.32 138.781 315.032 138.49C314.744 138.198 314.259 138.053 313.579 138.053C313.199 138.053 312.787 138.099 312.342 138.192C311.91 138.284 311.451 138.443 310.967 138.669C310.718 138.788 310.496 138.821 310.299 138.768C310.116 138.715 309.972 138.609 309.867 138.45C309.763 138.278 309.71 138.092 309.71 137.894C309.71 137.695 309.763 137.503 309.867 137.318C309.972 137.119 310.149 136.973 310.397 136.881C311 136.629 311.576 136.45 312.126 136.344C312.688 136.238 313.199 136.185 313.657 136.185C314.6 136.185 315.372 136.331 315.974 136.622C316.59 136.914 317.048 137.357 317.349 137.953C317.65 138.536 317.801 139.291 317.801 140.218V144.986C317.801 145.397 317.702 145.715 317.506 145.94C317.31 146.152 317.028 146.258 316.662 146.258C316.295 146.258 316.007 146.152 315.798 145.94C315.601 145.715 315.503 145.397 315.503 144.986V144.033H315.66C315.569 144.496 315.385 144.9 315.11 145.244C314.849 145.576 314.515 145.834 314.109 146.019C313.703 146.205 313.238 146.297 312.715 146.297ZM313.677 150.251C313.271 150.251 312.957 150.138 312.734 149.913C312.512 149.701 312.4 149.397 312.4 148.999C312.4 148.602 312.512 148.297 312.734 148.085C312.957 147.873 313.271 147.767 313.677 147.767C314.096 147.767 314.417 147.873 314.639 148.085C314.862 148.297 314.973 148.602 314.973 148.999C314.973 149.397 314.862 149.701 314.639 149.913C314.417 150.138 314.096 150.251 313.677 150.251ZM316.544 134.238C316.662 134.45 316.688 134.642 316.622 134.814C316.557 134.987 316.446 135.119 316.289 135.212C316.131 135.291 315.961 135.318 315.778 135.291C315.608 135.265 315.464 135.159 315.346 134.973L313.755 132.47L312.165 134.973C312.047 135.159 311.896 135.265 311.713 135.291C311.543 135.318 311.379 135.291 311.222 135.212C311.065 135.119 310.954 134.987 310.888 134.814C310.823 134.642 310.849 134.45 310.967 134.238L312.381 131.616C312.538 131.311 312.728 131.086 312.95 130.94C313.186 130.795 313.454 130.722 313.755 130.722C314.057 130.722 314.325 130.795 314.561 130.94C314.796 131.086 314.993 131.311 315.15 131.616L316.544 134.238Z" fill="#F4EBE2"/>
<path d="M306.219 146.297C305.368 146.297 304.654 146.151 304.078 145.86C303.515 145.569 303.097 145.145 302.822 144.589C302.547 144.019 302.409 143.317 302.409 142.483V138.251H301.388C301.074 138.251 300.832 138.172 300.662 138.013C300.491 137.841 300.406 137.609 300.406 137.317C300.406 137.013 300.491 136.781 300.662 136.622C300.832 136.463 301.074 136.384 301.388 136.384H302.409V134.576C302.409 134.165 302.514 133.854 302.723 133.642C302.946 133.43 303.254 133.324 303.646 133.324C304.039 133.324 304.34 133.43 304.55 133.642C304.759 133.854 304.864 134.165 304.864 134.576V136.384H306.945C307.26 136.384 307.502 136.463 307.672 136.622C307.842 136.781 307.927 137.013 307.927 137.317C307.927 137.609 307.842 137.841 307.672 138.013C307.502 138.172 307.26 138.251 306.945 138.251H304.864V142.344C304.864 142.979 305.001 143.456 305.276 143.774C305.551 144.092 305.996 144.251 306.612 144.251C306.834 144.251 307.03 144.231 307.201 144.191C307.371 144.152 307.521 144.125 307.652 144.112C307.809 144.099 307.94 144.152 308.045 144.271C308.15 144.377 308.202 144.602 308.202 144.946C308.202 145.211 308.156 145.449 308.065 145.661C307.986 145.86 307.836 145.999 307.613 146.079C307.443 146.132 307.22 146.178 306.945 146.218C306.67 146.271 306.428 146.297 306.219 146.297Z" fill="#F4EBE2"/>
<path d="M285.827 146.257C285.434 146.257 285.133 146.151 284.924 145.94C284.714 145.714 284.609 145.397 284.609 144.986V137.476C284.609 137.066 284.714 136.755 284.924 136.543C285.133 136.331 285.428 136.225 285.807 136.225C286.187 136.225 286.481 136.331 286.691 136.543C286.9 136.755 287.005 137.066 287.005 137.476V138.827L286.789 138.331C287.077 137.629 287.522 137.099 288.124 136.741C288.74 136.37 289.434 136.185 290.206 136.185C290.978 136.185 291.613 136.331 292.111 136.622C292.608 136.914 292.981 137.357 293.23 137.953C293.479 138.536 293.603 139.278 293.603 140.178V144.986C293.603 145.397 293.498 145.714 293.289 145.94C293.079 146.151 292.778 146.257 292.386 146.257C291.993 146.257 291.685 146.151 291.463 145.94C291.253 145.714 291.148 145.397 291.148 144.986V140.297C291.148 139.543 291.004 138.993 290.716 138.649C290.442 138.304 290.01 138.132 289.42 138.132C288.7 138.132 288.124 138.364 287.692 138.827C287.273 139.278 287.064 139.88 287.064 140.635V144.986C287.064 145.834 286.652 146.257 285.827 146.257Z" fill="#F4EBE2"/>
<path d="M278.505 146.297C277.418 146.297 276.482 146.092 275.697 145.681C274.911 145.271 274.303 144.688 273.871 143.933C273.452 143.178 273.242 142.284 273.242 141.251C273.242 140.245 273.445 139.364 273.851 138.609C274.27 137.854 274.839 137.265 275.559 136.841C276.292 136.404 277.124 136.185 278.053 136.185C278.734 136.185 279.343 136.298 279.879 136.523C280.429 136.748 280.894 137.073 281.274 137.496C281.666 137.92 281.961 138.437 282.157 139.046C282.367 139.642 282.472 140.317 282.472 141.072C282.472 141.311 282.386 141.496 282.216 141.629C282.059 141.748 281.83 141.807 281.529 141.807H275.226V140.377H280.744L280.429 140.675C280.429 140.066 280.338 139.556 280.154 139.145C279.984 138.735 279.729 138.424 279.389 138.212C279.061 137.986 278.649 137.874 278.151 137.874C277.602 137.874 277.13 138.006 276.738 138.271C276.358 138.523 276.063 138.887 275.854 139.364C275.658 139.827 275.559 140.384 275.559 141.033V141.172C275.559 142.258 275.808 143.072 276.306 143.615C276.816 144.145 277.562 144.41 278.544 144.41C278.885 144.41 279.264 144.37 279.683 144.291C280.115 144.198 280.521 144.046 280.901 143.834C281.176 143.675 281.418 143.609 281.627 143.635C281.837 143.648 282 143.721 282.118 143.854C282.249 143.986 282.328 144.152 282.354 144.35C282.38 144.536 282.341 144.728 282.236 144.927C282.144 145.125 281.981 145.297 281.745 145.443C281.287 145.734 280.757 145.953 280.154 146.099C279.565 146.231 279.015 146.297 278.505 146.297ZM278.073 150.251C277.667 150.251 277.353 150.138 277.13 149.913C276.908 149.701 276.796 149.397 276.796 148.999C276.796 148.602 276.908 148.297 277.13 148.085C277.353 147.873 277.667 147.767 278.073 147.767C278.492 147.767 278.813 147.873 279.035 148.085C279.258 148.297 279.369 148.602 279.369 148.999C279.369 149.397 279.258 149.701 279.035 149.913C278.813 150.138 278.492 150.251 278.073 150.251ZM280.861 134.238C280.979 134.45 281.005 134.642 280.94 134.814C280.874 134.987 280.763 135.119 280.606 135.212C280.449 135.291 280.279 135.318 280.095 135.291C279.925 135.265 279.781 135.159 279.663 134.973L278.073 132.47L276.482 134.973C276.364 135.159 276.214 135.265 276.031 135.291C275.86 135.318 275.697 135.291 275.54 135.212C275.383 135.119 275.271 134.987 275.206 134.814C275.14 134.642 275.167 134.45 275.284 134.238L276.698 131.616C276.855 131.311 277.045 131.086 277.268 130.94C277.503 130.795 277.772 130.722 278.073 130.722C278.374 130.722 278.642 130.795 278.878 130.94C279.114 131.086 279.31 131.311 279.467 131.616L280.861 134.238Z" fill="#F4EBE2"/>
<path d="M265.864 149.833C265.576 149.833 265.341 149.754 265.157 149.595C264.974 149.449 264.863 149.251 264.824 148.999C264.797 148.747 264.843 148.483 264.961 148.204L266.296 145.205V146.238L262.722 137.874C262.605 137.582 262.565 137.311 262.605 137.059C262.644 136.808 262.762 136.609 262.958 136.463C263.167 136.304 263.449 136.225 263.802 136.225C264.104 136.225 264.346 136.298 264.529 136.443C264.712 136.576 264.876 136.834 265.02 137.218L267.671 143.913H267.082L269.792 137.198C269.936 136.827 270.106 136.576 270.302 136.443C270.499 136.298 270.76 136.225 271.088 136.225C271.376 136.225 271.605 136.304 271.775 136.463C271.945 136.609 272.05 136.808 272.089 137.059C272.129 137.298 272.083 137.563 271.952 137.854L267.18 148.88C267.01 149.251 266.827 149.502 266.63 149.635C266.434 149.767 266.178 149.833 265.864 149.833Z" fill="#F4EBE2"/>
<path d="M255.335 146.297C254.537 146.297 253.876 146.152 253.352 145.86C252.828 145.556 252.436 145.105 252.174 144.509C251.925 143.913 251.801 143.172 251.801 142.284V137.476C251.801 137.053 251.906 136.741 252.115 136.543C252.324 136.331 252.626 136.225 253.018 136.225C253.411 136.225 253.712 136.331 253.922 136.543C254.144 136.741 254.255 137.053 254.255 137.476V142.324C254.255 143.013 254.393 143.523 254.668 143.854C254.943 144.185 255.381 144.35 255.983 144.35C256.638 144.35 257.175 144.125 257.594 143.675C258.013 143.211 258.222 142.602 258.222 141.847V137.476C258.222 137.053 258.327 136.741 258.536 136.543C258.746 136.331 259.047 136.225 259.44 136.225C259.832 136.225 260.133 136.331 260.343 136.543C260.565 136.741 260.677 137.053 260.677 137.476V144.986C260.677 145.834 260.277 146.257 259.479 146.257C259.099 146.257 258.805 146.152 258.595 145.94C258.386 145.714 258.281 145.397 258.281 144.986V143.476L258.556 144.072C258.281 144.787 257.862 145.337 257.299 145.721C256.749 146.105 256.095 146.297 255.335 146.297Z" fill="#F4EBE2"/>
<path d="M248.674 146.297C247.587 146.297 246.769 145.986 246.219 145.363C245.669 144.728 245.395 143.801 245.395 142.582V133.185C245.395 132.775 245.499 132.463 245.709 132.251C245.918 132.04 246.219 131.934 246.612 131.934C247.005 131.934 247.306 132.04 247.515 132.251C247.738 132.463 247.849 132.775 247.849 133.185V142.463C247.849 143.072 247.974 143.522 248.222 143.814C248.484 144.105 248.851 144.251 249.322 144.251C249.427 144.251 249.525 144.251 249.616 144.251C249.708 144.238 249.8 144.224 249.891 144.211C250.075 144.185 250.199 144.238 250.265 144.37C250.33 144.489 250.363 144.741 250.363 145.125C250.363 145.456 250.297 145.714 250.166 145.9C250.035 146.085 249.819 146.198 249.518 146.238C249.387 146.251 249.25 146.264 249.106 146.277C248.962 146.291 248.818 146.297 248.674 146.297Z" fill="#F4EBE2"/>
<path d="M350.452 122.418C350.059 122.418 349.758 122.312 349.549 122.1C349.339 121.875 349.234 121.557 349.234 121.146V113.637C349.234 113.226 349.339 112.915 349.549 112.703C349.758 112.491 350.053 112.385 350.432 112.385C350.812 112.385 351.106 112.491 351.316 112.703C351.525 112.915 351.63 113.226 351.63 113.637V114.987L351.414 114.491C351.702 113.789 352.147 113.259 352.749 112.901C353.365 112.531 354.059 112.345 354.831 112.345C355.603 112.345 356.238 112.491 356.736 112.782C357.233 113.074 357.606 113.517 357.855 114.113C358.104 114.696 358.228 115.438 358.228 116.338V121.146C358.228 121.557 358.123 121.875 357.914 122.1C357.704 122.312 357.403 122.418 357.011 122.418C356.618 122.418 356.31 122.312 356.088 122.1C355.878 121.875 355.773 121.557 355.773 121.146V116.458C355.773 115.703 355.629 115.153 355.341 114.809C355.067 114.464 354.635 114.292 354.045 114.292C353.325 114.292 352.749 114.524 352.317 114.987C351.898 115.438 351.689 116.04 351.689 116.795V121.146C351.689 121.994 351.277 122.418 350.452 122.418Z" fill="#F4EBE2"/>
<path d="M342.101 122.457C341.106 122.457 340.242 122.252 339.509 121.841C338.775 121.431 338.206 120.848 337.8 120.093C337.394 119.325 337.191 118.424 337.191 117.391C337.191 116.61 337.303 115.914 337.525 115.305C337.761 114.683 338.095 114.153 338.527 113.716C338.959 113.266 339.476 112.928 340.078 112.703C340.68 112.464 341.354 112.345 342.101 112.345C343.096 112.345 343.96 112.55 344.693 112.961C345.426 113.372 345.995 113.954 346.401 114.709C346.807 115.464 347.01 116.358 347.01 117.391C347.01 118.173 346.892 118.875 346.656 119.497C346.434 120.12 346.107 120.656 345.675 121.106C345.243 121.543 344.725 121.881 344.123 122.119C343.521 122.345 342.847 122.457 342.101 122.457ZM342.101 120.57C342.585 120.57 343.01 120.451 343.377 120.212C343.744 119.974 344.025 119.623 344.221 119.159C344.431 118.683 344.536 118.093 344.536 117.391C344.536 116.332 344.313 115.544 343.868 115.027C343.423 114.497 342.834 114.232 342.101 114.232C341.616 114.232 341.191 114.352 340.824 114.59C340.458 114.815 340.17 115.166 339.96 115.643C339.764 116.107 339.666 116.689 339.666 117.391C339.666 118.438 339.888 119.232 340.333 119.775C340.778 120.305 341.368 120.57 342.101 120.57ZM340.51 111.173C340.353 111.345 340.183 111.445 339.999 111.471C339.829 111.497 339.672 111.464 339.528 111.372C339.397 111.279 339.312 111.153 339.273 110.994C339.234 110.822 339.279 110.637 339.41 110.438L340.687 108.511C340.883 108.219 341.093 108.021 341.315 107.915C341.551 107.796 341.813 107.736 342.101 107.736C342.297 107.736 342.48 107.763 342.65 107.816C342.821 107.855 342.978 107.935 343.122 108.054C343.266 108.16 343.397 108.312 343.515 108.511L344.791 110.438C344.922 110.637 344.968 110.822 344.928 110.994C344.902 111.153 344.824 111.279 344.693 111.372C344.562 111.464 344.405 111.497 344.221 111.471C344.038 111.445 343.868 111.345 343.711 111.173L342.101 109.365L340.51 111.173ZM345.537 109.266C345.419 109.425 345.282 109.517 345.125 109.544C344.968 109.557 344.824 109.524 344.693 109.445C344.575 109.365 344.496 109.253 344.457 109.107C344.418 108.948 344.451 108.769 344.555 108.57L345.773 106.385C345.891 106.173 346.035 106.041 346.205 105.988C346.375 105.922 346.545 105.915 346.715 105.968C346.886 106.008 347.023 106.094 347.128 106.226C347.246 106.345 347.311 106.498 347.324 106.683C347.337 106.855 347.272 107.034 347.128 107.22L345.537 109.266Z" fill="#F4EBE2"/>
<path d="M329.628 122.457C328.83 122.457 328.169 122.312 327.645 122.02C327.121 121.716 326.729 121.265 326.467 120.669C326.218 120.073 326.094 119.332 326.094 118.444V113.637C326.094 113.213 326.198 112.902 326.408 112.703C326.617 112.491 326.919 112.385 327.311 112.385C327.704 112.385 328.005 112.491 328.215 112.703C328.437 112.902 328.548 113.213 328.548 113.637V118.484C328.548 119.173 328.686 119.683 328.961 120.014C329.236 120.345 329.674 120.51 330.276 120.51C330.931 120.51 331.468 120.285 331.887 119.835C332.306 119.371 332.515 118.762 332.515 118.007V113.637C332.515 113.213 332.62 112.902 332.829 112.703C333.039 112.491 333.34 112.385 333.733 112.385C334.125 112.385 334.426 112.491 334.636 112.703C334.858 112.902 334.97 113.213 334.97 113.637V121.146C334.97 121.994 334.57 122.418 333.772 122.418C333.392 122.418 333.098 122.312 332.888 122.1C332.679 121.875 332.574 121.557 332.574 121.146V119.636L332.849 120.232C332.574 120.948 332.155 121.497 331.592 121.881C331.042 122.265 330.388 122.457 329.628 122.457Z" fill="#F4EBE2"/>
<path d="M309.991 122.418C309.598 122.418 309.297 122.312 309.088 122.1C308.878 121.875 308.773 121.557 308.773 121.146V113.637C308.773 113.226 308.878 112.915 309.088 112.703C309.297 112.491 309.592 112.385 309.971 112.385C310.351 112.385 310.645 112.491 310.855 112.703C311.064 112.915 311.169 113.226 311.169 113.637V115.087L310.953 114.491C311.215 113.829 311.621 113.305 312.171 112.921C312.72 112.537 313.375 112.345 314.134 112.345C314.907 112.345 315.542 112.531 316.039 112.901C316.537 113.272 316.884 113.842 317.08 114.61H316.805C317.067 113.908 317.499 113.358 318.101 112.961C318.703 112.551 319.397 112.345 320.183 112.345C320.916 112.345 321.518 112.491 321.989 112.782C322.474 113.074 322.834 113.517 323.069 114.113C323.305 114.696 323.423 115.438 323.423 116.338V121.146C323.423 121.557 323.311 121.875 323.089 122.1C322.879 122.312 322.578 122.418 322.185 122.418C321.793 122.418 321.492 122.312 321.282 122.1C321.073 121.875 320.968 121.557 320.968 121.146V116.438C320.968 115.696 320.844 115.153 320.595 114.809C320.359 114.464 319.953 114.292 319.377 114.292C318.736 114.292 318.232 114.524 317.865 114.987C317.499 115.438 317.316 116.067 317.316 116.875V121.146C317.316 121.557 317.211 121.875 317.001 122.1C316.792 122.312 316.491 122.418 316.098 122.418C315.705 122.418 315.398 122.312 315.175 122.1C314.966 121.875 314.861 121.557 314.861 121.146V116.438C314.861 115.696 314.737 115.153 314.488 114.809C314.252 114.464 313.853 114.292 313.29 114.292C312.648 114.292 312.144 114.524 311.778 114.987C311.411 115.438 311.228 116.067 311.228 116.875V121.146C311.228 121.994 310.816 122.418 309.991 122.418Z" fill="#F4EBE2"/>
<path d="M292.741 122.418C292.348 122.418 292.047 122.312 291.838 122.1C291.628 121.875 291.523 121.557 291.523 121.146V113.637C291.523 113.226 291.628 112.915 291.838 112.703C292.047 112.491 292.342 112.385 292.721 112.385C293.101 112.385 293.395 112.491 293.605 112.703C293.814 112.915 293.919 113.226 293.919 113.637V114.987L293.703 114.491C293.991 113.789 294.436 113.259 295.038 112.901C295.654 112.531 296.348 112.345 297.12 112.345C297.892 112.345 298.527 112.491 299.025 112.782C299.522 113.074 299.895 113.517 300.144 114.113C300.393 114.696 300.517 115.438 300.517 116.338V121.146C300.517 121.557 300.412 121.875 300.203 122.1C299.994 122.312 299.692 122.418 299.3 122.418C298.907 122.418 298.599 122.312 298.377 122.1C298.167 121.875 298.063 121.557 298.063 121.146V116.458C298.063 115.703 297.919 115.153 297.631 114.809C297.356 114.464 296.924 114.292 296.334 114.292C295.614 114.292 295.038 114.524 294.606 114.987C294.188 115.438 293.978 116.04 293.978 116.795V121.146C293.978 121.994 293.566 122.418 292.741 122.418Z" fill="#F4EBE2"/>
<path d="M283.75 122.457C283.056 122.457 282.434 122.325 281.884 122.06C281.348 121.782 280.922 121.411 280.608 120.947C280.307 120.484 280.156 119.961 280.156 119.378C280.156 118.663 280.34 118.1 280.706 117.689C281.073 117.266 281.668 116.961 282.493 116.775C283.318 116.59 284.424 116.497 285.812 116.497H286.794V117.928H285.831C285.02 117.928 284.372 117.967 283.887 118.047C283.403 118.126 283.056 118.265 282.847 118.464C282.65 118.65 282.552 118.914 282.552 119.259C282.552 119.696 282.703 120.053 283.004 120.332C283.305 120.61 283.724 120.749 284.26 120.749C284.692 120.749 285.072 120.649 285.399 120.451C285.74 120.239 286.008 119.954 286.204 119.597C286.401 119.239 286.499 118.828 286.499 118.365V116.08C286.499 115.418 286.355 114.941 286.067 114.65C285.779 114.358 285.295 114.213 284.614 114.213C284.234 114.213 283.822 114.259 283.377 114.352C282.945 114.444 282.487 114.603 282.002 114.829C281.753 114.948 281.531 114.981 281.334 114.928C281.151 114.875 281.007 114.769 280.902 114.61C280.798 114.438 280.745 114.252 280.745 114.054C280.745 113.855 280.798 113.663 280.902 113.478C281.007 113.279 281.184 113.133 281.433 113.041C282.035 112.789 282.611 112.61 283.161 112.504C283.724 112.398 284.234 112.345 284.692 112.345C285.635 112.345 286.407 112.491 287.01 112.782C287.625 113.074 288.083 113.517 288.384 114.113C288.685 114.696 288.836 115.451 288.836 116.378V121.146C288.836 121.557 288.738 121.875 288.541 122.1C288.345 122.312 288.063 122.418 287.697 122.418C287.33 122.418 287.042 122.312 286.833 122.1C286.636 121.875 286.538 121.557 286.538 121.146V120.193H286.695C286.604 120.656 286.42 121.06 286.146 121.404C285.884 121.736 285.55 121.994 285.144 122.179C284.738 122.365 284.273 122.457 283.75 122.457ZM284.712 126.411C284.306 126.411 283.992 126.298 283.769 126.073C283.547 125.861 283.436 125.557 283.436 125.159C283.436 124.762 283.547 124.457 283.769 124.245C283.992 124.033 284.306 123.927 284.712 123.927C285.131 123.927 285.452 124.033 285.674 124.245C285.897 124.457 286.008 124.762 286.008 125.159C286.008 125.557 285.897 125.861 285.674 126.073C285.452 126.298 285.131 126.411 284.712 126.411Z" fill="#F4EBE2"/>
<path d="M274.155 122.457C273.343 122.457 272.63 122.252 272.014 121.841C271.412 121.431 271.013 120.881 270.817 120.193L271.033 119.696V121.146C271.033 121.557 270.928 121.875 270.718 122.1C270.509 122.312 270.214 122.418 269.835 122.418C269.442 122.418 269.141 122.312 268.931 122.1C268.722 121.875 268.617 121.557 268.617 121.146V109.345C268.617 108.935 268.722 108.624 268.931 108.412C269.141 108.2 269.442 108.094 269.835 108.094C270.227 108.094 270.529 108.2 270.738 108.412C270.961 108.624 271.072 108.935 271.072 109.345V114.511H270.836C271.046 113.862 271.451 113.339 272.054 112.941C272.656 112.544 273.356 112.345 274.155 112.345C275.006 112.345 275.745 112.55 276.374 112.961C277.002 113.372 277.493 113.954 277.847 114.709C278.2 115.451 278.377 116.345 278.377 117.391C278.377 118.424 278.2 119.325 277.847 120.093C277.493 120.848 276.996 121.431 276.354 121.841C275.726 122.252 274.993 122.457 274.155 122.457ZM273.468 120.57C273.952 120.57 274.377 120.451 274.744 120.212C275.11 119.974 275.392 119.623 275.588 119.159C275.798 118.683 275.903 118.093 275.903 117.391C275.903 116.332 275.68 115.544 275.235 115.027C274.79 114.497 274.201 114.233 273.468 114.233C272.983 114.233 272.558 114.352 272.191 114.59C271.825 114.815 271.537 115.166 271.327 115.643C271.131 116.107 271.033 116.689 271.033 117.391C271.033 118.438 271.255 119.232 271.7 119.775C272.145 120.305 272.734 120.57 273.468 120.57Z" fill="#F4EBE2"/>
<path d="M255.523 126.033C254.816 126.033 254.129 125.967 253.461 125.835C252.807 125.702 252.211 125.497 251.674 125.219C251.425 125.086 251.255 124.927 251.164 124.742C251.085 124.557 251.059 124.365 251.085 124.166C251.124 123.98 251.203 123.815 251.321 123.669C251.452 123.523 251.609 123.424 251.792 123.371C251.975 123.318 252.165 123.345 252.362 123.451C252.938 123.742 253.481 123.927 253.991 124.007C254.515 124.1 254.96 124.146 255.327 124.146C256.204 124.146 256.858 123.927 257.29 123.49C257.735 123.067 257.958 122.431 257.958 121.583V119.795H258.135C257.938 120.471 257.526 121.014 256.898 121.424C256.282 121.822 255.582 122.02 254.796 122.02C253.932 122.02 253.18 121.822 252.538 121.424C251.897 121.014 251.399 120.444 251.046 119.716C250.692 118.987 250.516 118.14 250.516 117.173C250.516 116.444 250.614 115.789 250.81 115.206C251.02 114.61 251.308 114.1 251.674 113.676C252.054 113.252 252.506 112.928 253.029 112.703C253.566 112.464 254.155 112.345 254.796 112.345C255.608 112.345 256.315 112.551 256.917 112.961C257.533 113.358 257.932 113.888 258.115 114.55L257.919 115.047V113.637C257.919 113.226 258.023 112.915 258.233 112.703C258.456 112.491 258.757 112.385 259.136 112.385C259.529 112.385 259.83 112.491 260.04 112.703C260.249 112.915 260.354 113.226 260.354 113.637V121.285C260.354 122.861 259.941 124.047 259.117 124.841C258.292 125.636 257.094 126.033 255.523 126.033ZM255.464 120.133C255.975 120.133 256.413 120.014 256.78 119.775C257.146 119.537 257.428 119.199 257.624 118.762C257.834 118.312 257.938 117.782 257.938 117.173C257.938 116.259 257.716 115.544 257.271 115.027C256.826 114.497 256.223 114.233 255.464 114.233C254.954 114.233 254.515 114.352 254.148 114.59C253.782 114.829 253.494 115.166 253.284 115.603C253.088 116.04 252.99 116.564 252.99 117.173C252.99 118.087 253.212 118.808 253.658 119.338C254.103 119.868 254.705 120.133 255.464 120.133Z" fill="#F4EBE2"/>
<path d="M240.577 122.418C240.184 122.418 239.883 122.312 239.674 122.1C239.464 121.875 239.359 121.557 239.359 121.146V113.637C239.359 113.226 239.464 112.915 239.674 112.703C239.883 112.491 240.178 112.385 240.557 112.385C240.937 112.385 241.231 112.491 241.441 112.703C241.65 112.915 241.755 113.226 241.755 113.637V114.987L241.539 114.491C241.827 113.789 242.272 113.259 242.874 112.901C243.49 112.531 244.184 112.345 244.956 112.345C245.728 112.345 246.363 112.491 246.861 112.782C247.358 113.074 247.731 113.517 247.98 114.113C248.229 114.696 248.353 115.438 248.353 116.338V121.146C248.353 121.557 248.248 121.875 248.039 122.1C247.829 122.312 247.528 122.418 247.136 122.418C246.743 122.418 246.435 122.312 246.213 122.1C246.003 121.875 245.898 121.557 245.898 121.146V116.458C245.898 115.703 245.754 115.153 245.466 114.809C245.192 114.464 244.76 114.292 244.17 114.292C243.45 114.292 242.874 114.524 242.442 114.987C242.023 115.438 241.814 116.04 241.814 116.795V121.146C241.814 121.994 241.402 122.418 240.577 122.418Z" fill="#F4EBE2"/>
<path d="M231.586 122.457C230.892 122.457 230.27 122.325 229.72 122.06C229.183 121.782 228.758 121.411 228.444 120.947C228.143 120.484 227.992 119.961 227.992 119.378C227.992 118.663 228.175 118.1 228.542 117.689C228.909 117.265 229.504 116.961 230.329 116.775C231.154 116.59 232.26 116.497 233.648 116.497H234.629V117.928H233.667C232.856 117.928 232.208 117.967 231.723 118.047C231.239 118.126 230.892 118.265 230.682 118.464C230.486 118.649 230.388 118.914 230.388 119.259C230.388 119.696 230.538 120.053 230.84 120.331C231.141 120.609 231.56 120.749 232.096 120.749C232.528 120.749 232.908 120.649 233.235 120.451C233.576 120.239 233.844 119.954 234.04 119.596C234.237 119.239 234.335 118.828 234.335 118.365V116.08C234.335 115.418 234.191 114.941 233.903 114.65C233.615 114.358 233.131 114.212 232.45 114.212C232.07 114.212 231.658 114.259 231.213 114.352C230.781 114.444 230.322 114.603 229.838 114.828C229.589 114.948 229.367 114.981 229.17 114.928C228.987 114.875 228.843 114.769 228.738 114.61C228.634 114.438 228.581 114.252 228.581 114.054C228.581 113.855 228.634 113.663 228.738 113.477C228.843 113.279 229.02 113.133 229.269 113.04C229.871 112.789 230.447 112.61 230.997 112.504C231.56 112.398 232.07 112.345 232.528 112.345C233.471 112.345 234.243 112.491 234.845 112.782C235.461 113.073 235.919 113.517 236.22 114.113C236.521 114.696 236.672 115.451 236.672 116.378V121.146C236.672 121.556 236.574 121.874 236.377 122.099C236.181 122.311 235.899 122.417 235.533 122.417C235.166 122.417 234.878 122.311 234.669 122.099C234.472 121.874 234.374 121.556 234.374 121.146V120.192H234.531C234.44 120.656 234.256 121.06 233.981 121.404C233.72 121.735 233.386 121.994 232.98 122.179C232.574 122.364 232.109 122.457 231.586 122.457ZM232.627 111.312C232.011 111.312 231.481 111.179 231.036 110.915C230.591 110.636 230.231 110.266 229.956 109.802C229.694 109.325 229.517 108.795 229.426 108.213C229.386 107.948 229.426 107.736 229.544 107.577C229.674 107.405 229.845 107.312 230.054 107.299C230.277 107.286 230.453 107.339 230.584 107.458C230.728 107.577 230.82 107.762 230.859 108.014C230.964 108.61 231.173 109.06 231.488 109.365C231.802 109.656 232.181 109.802 232.627 109.802C233.072 109.802 233.451 109.656 233.765 109.365C234.093 109.06 234.302 108.61 234.394 108.014C234.433 107.762 234.525 107.577 234.669 107.458C234.813 107.339 234.989 107.286 235.199 107.299C235.422 107.312 235.592 107.405 235.71 107.577C235.827 107.736 235.867 107.948 235.827 108.213C235.749 108.795 235.572 109.325 235.297 109.802C235.022 110.266 234.662 110.636 234.217 110.915C233.772 111.179 233.242 111.312 232.627 111.312Z" fill="#F4EBE2"/>
<path d="M217.96 122.418C217.567 122.418 217.266 122.312 217.056 122.1C216.847 121.875 216.742 121.557 216.742 121.146V113.637C216.742 113.226 216.847 112.915 217.056 112.703C217.266 112.491 217.56 112.385 217.94 112.385C218.32 112.385 218.614 112.491 218.824 112.703C219.033 112.915 219.138 113.226 219.138 113.637V114.987L218.922 114.491C219.21 113.789 219.655 113.259 220.257 112.901C220.872 112.531 221.566 112.345 222.339 112.345C223.111 112.345 223.746 112.491 224.244 112.782C224.741 113.074 225.114 113.517 225.363 114.113C225.612 114.696 225.736 115.438 225.736 116.338V121.146C225.736 121.557 225.631 121.875 225.422 122.1C225.212 122.312 224.911 122.418 224.518 122.418C224.126 122.418 223.818 122.312 223.595 122.1C223.386 121.875 223.281 121.557 223.281 121.146V116.458C223.281 115.703 223.137 115.153 222.849 114.809C222.574 114.464 222.142 114.292 221.553 114.292C220.833 114.292 220.257 114.524 219.825 114.987C219.406 115.438 219.197 116.04 219.197 116.795V121.146C219.197 121.994 218.784 122.418 217.96 122.418Z" fill="#F4EBE2"/>
<path d="M335.649 102.154C335.361 102.154 335.126 102.074 334.943 101.915C334.759 101.77 334.648 101.571 334.609 101.319C334.583 101.068 334.628 100.803 334.746 100.525L336.081 97.5248V98.5578L332.508 90.194C332.39 89.9026 332.35 89.6311 332.39 89.3795C332.429 89.1278 332.547 88.9291 332.743 88.7835C332.953 88.6245 333.234 88.5451 333.588 88.5451C333.889 88.5451 334.131 88.6179 334.314 88.7636C334.497 88.896 334.661 89.1543 334.805 89.5384L337.456 96.2334H336.867L339.577 89.5185C339.721 89.1477 339.891 88.896 340.087 88.7636C340.284 88.6179 340.546 88.5451 340.873 88.5451C341.161 88.5451 341.39 88.6245 341.56 88.7835C341.73 88.9291 341.835 89.1278 341.874 89.3795C341.914 89.6179 341.868 89.8827 341.737 90.1741L336.965 101.2C336.795 101.571 336.612 101.823 336.415 101.955C336.219 102.087 335.964 102.154 335.649 102.154ZM333.921 86.8763C333.725 86.863 333.574 86.7968 333.47 86.6776C333.365 86.5584 333.339 86.373 333.391 86.1213C333.444 85.8432 333.522 85.5717 333.627 85.3068C333.745 85.0287 333.895 84.777 334.079 84.5519C334.262 84.3267 334.484 84.1479 334.746 84.0155C335.008 83.8698 335.316 83.7969 335.669 83.7969C335.996 83.7969 336.284 83.8632 336.533 83.9956C336.782 84.128 337.011 84.2804 337.22 84.4525C337.43 84.6247 337.639 84.777 337.849 84.9095C338.058 85.0419 338.287 85.1081 338.536 85.1081C338.811 85.1081 339.047 85.0154 339.243 84.83C339.452 84.6313 339.583 84.3863 339.636 84.0949C339.662 83.9492 339.727 83.8367 339.832 83.7572C339.95 83.6777 340.114 83.6446 340.323 83.6579C340.519 83.6711 340.67 83.7373 340.775 83.8565C340.879 83.9757 340.906 84.1612 340.853 84.4128C340.788 84.7704 340.663 85.128 340.48 85.4856C340.297 85.8432 340.048 86.1412 339.734 86.3796C339.433 86.618 339.047 86.7372 338.575 86.7372C338.248 86.7372 337.96 86.671 337.711 86.5385C337.463 86.4061 337.227 86.2538 337.004 86.0816C336.795 85.9094 336.585 85.7571 336.376 85.6247C336.167 85.4922 335.944 85.426 335.708 85.426C335.433 85.426 335.198 85.5187 335.001 85.7041C334.805 85.8896 334.674 86.1346 334.609 86.4392C334.583 86.5849 334.511 86.6975 334.393 86.7769C334.288 86.8564 334.131 86.8895 333.921 86.8763Z" fill="#F4EBE2"/>
<path d="M324.053 98.5775C323.661 98.5775 323.36 98.4715 323.15 98.2596C322.941 98.0345 322.836 97.7166 322.836 97.306V85.5053C322.836 85.0947 322.941 84.7834 323.15 84.5715C323.36 84.3596 323.661 84.2537 324.053 84.2537C324.446 84.2537 324.747 84.3596 324.957 84.5715C325.179 84.7834 325.291 85.0947 325.291 85.5053V92.836H325.33L328.57 89.3793C328.832 89.1144 329.061 88.9091 329.257 88.7634C329.454 88.6177 329.722 88.5449 330.062 88.5449C330.403 88.5449 330.658 88.6376 330.828 88.823C331.011 88.9952 331.103 89.2071 331.103 89.4587C331.103 89.7104 330.985 89.962 330.75 90.2136L327.333 93.8691V92.836L331.083 96.9286C331.319 97.1802 331.424 97.4385 331.398 97.7034C331.385 97.955 331.28 98.1669 331.083 98.3391C330.887 98.498 330.638 98.5775 330.337 98.5775C329.971 98.5775 329.676 98.5047 329.454 98.359C329.244 98.2133 329.008 97.9947 328.747 97.7034L325.33 94.0876H325.291V97.306C325.291 98.1537 324.878 98.5775 324.053 98.5775Z" fill="#F4EBE2"/>
<path d="M306.842 98.5775C306.45 98.5775 306.149 98.4715 305.939 98.2596C305.73 98.0345 305.625 97.7166 305.625 97.306V89.7965C305.625 89.3859 305.73 89.0746 305.939 88.8627C306.149 88.6508 306.443 88.5449 306.823 88.5449C307.202 88.5449 307.497 88.6508 307.707 88.8627C307.916 89.0746 308.021 89.3859 308.021 89.7965V91.1474L307.805 90.6507C308.093 89.9488 308.538 89.419 309.14 89.0614C309.755 88.6905 310.449 88.5051 311.222 88.5051C311.994 88.5051 312.629 88.6508 313.126 88.9422C313.624 89.2336 313.997 89.6773 314.246 90.2733C314.494 90.856 314.619 91.5977 314.619 92.4983V97.306C314.619 97.7166 314.514 98.0345 314.305 98.2596C314.095 98.4715 313.794 98.5775 313.401 98.5775C313.008 98.5775 312.701 98.4715 312.478 98.2596C312.269 98.0345 312.164 97.7166 312.164 97.306V92.6175C312.164 91.8626 312.02 91.3129 311.732 90.9686C311.457 90.6242 311.025 90.4521 310.436 90.4521C309.716 90.4521 309.14 90.6838 308.708 91.1474C308.289 91.5977 308.08 92.2003 308.08 92.9553V97.306C308.08 98.1537 307.667 98.5775 306.842 98.5775Z" fill="#F4EBE2"/>
<path d="M298.495 98.6172C297.5 98.6172 296.636 98.4119 295.903 98.0014C295.17 97.5908 294.601 97.008 294.195 96.2531C293.789 95.4849 293.586 94.5843 293.586 93.5512C293.586 92.7698 293.697 92.0745 293.92 91.4653C294.155 90.8428 294.489 90.313 294.921 89.8759C295.353 89.4256 295.87 89.0879 296.473 88.8627C297.075 88.6243 297.749 88.5051 298.495 88.5051C299.49 88.5051 300.354 88.7104 301.087 89.121C301.82 89.5316 302.39 90.1143 302.796 90.8693C303.202 91.6242 303.404 92.5182 303.404 93.5512C303.404 94.3327 303.287 95.0346 303.051 95.6571C302.828 96.2796 302.501 96.816 302.069 97.2663C301.637 97.7034 301.12 98.0411 300.518 98.2795C299.916 98.5047 299.241 98.6172 298.495 98.6172ZM298.495 96.7299C298.98 96.7299 299.405 96.6107 299.772 96.3723C300.138 96.1339 300.42 95.7829 300.616 95.3194C300.825 94.8426 300.93 94.2532 300.93 93.5512C300.93 92.4917 300.708 91.7037 300.263 91.1871C299.817 90.6573 299.228 90.3925 298.495 90.3925C298.011 90.3925 297.585 90.5117 297.219 90.7501C296.852 90.9752 296.564 91.3262 296.355 91.803C296.158 92.2665 296.06 92.8493 296.06 93.5512C296.06 94.5976 296.283 95.3922 296.728 95.9352C297.173 96.465 297.762 96.7299 298.495 96.7299ZM298.495 102.571C298.089 102.571 297.775 102.458 297.553 102.233C297.33 102.021 297.219 101.716 297.219 101.319C297.219 100.922 297.33 100.617 297.553 100.405C297.775 100.193 298.089 100.087 298.495 100.087C298.914 100.087 299.235 100.193 299.457 100.405C299.68 100.617 299.791 100.922 299.791 101.319C299.791 101.716 299.68 102.021 299.457 102.233C299.235 102.458 298.914 102.571 298.495 102.571Z" fill="#F4EBE2"/>
<path d="M283.647 98.5775C283.254 98.5775 282.953 98.4715 282.744 98.2596C282.534 98.0345 282.43 97.7166 282.43 97.306V85.5053C282.43 85.0947 282.534 84.7834 282.744 84.5715C282.953 84.3596 283.254 84.2537 283.647 84.2537C284.04 84.2537 284.341 84.3596 284.55 84.5715C284.773 84.7834 284.884 85.0947 284.884 85.5053V90.6507H284.609C284.897 89.9488 285.342 89.419 285.945 89.0614C286.56 88.6905 287.254 88.5051 288.026 88.5051C288.799 88.5051 289.434 88.6508 289.931 88.9422C290.428 89.2336 290.802 89.6772 291.05 90.2732C291.299 90.856 291.423 91.5977 291.423 92.4983V97.306C291.423 97.7166 291.319 98.0345 291.109 98.2596C290.9 98.4715 290.599 98.5775 290.206 98.5775C289.813 98.5775 289.506 98.4715 289.283 98.2596C289.074 98.0345 288.969 97.7166 288.969 97.306V92.6175C288.969 91.8626 288.825 91.3129 288.537 90.9686C288.262 90.6242 287.83 90.452 287.241 90.452C286.521 90.452 285.945 90.6838 285.513 91.1474C285.094 91.5977 284.884 92.2003 284.884 92.9552V97.306C284.884 98.1537 284.472 98.5775 283.647 98.5775Z" fill="#F4EBE2"/>
<path d="M277.41 98.6172C276.402 98.6172 275.524 98.4119 274.778 98.0014C274.032 97.5775 273.456 96.9816 273.05 96.2134C272.644 95.4452 272.441 94.5446 272.441 93.5115C272.441 92.7301 272.553 92.0348 272.775 91.4255C273.011 90.803 273.345 90.2799 273.777 89.8561C274.209 89.419 274.732 89.0879 275.348 88.8627C275.963 88.6243 276.65 88.5051 277.41 88.5051C277.842 88.5051 278.306 88.5647 278.804 88.6839C279.314 88.8031 279.792 89.0018 280.237 89.2799C280.447 89.4124 280.584 89.5713 280.65 89.7567C280.715 89.9421 280.728 90.1342 280.689 90.3329C280.65 90.5183 280.565 90.6838 280.434 90.8295C280.316 90.962 280.165 91.0481 279.982 91.0878C279.799 91.1143 279.596 91.0679 279.373 90.9487C279.085 90.7765 278.791 90.6507 278.49 90.5713C278.188 90.4785 277.9 90.4322 277.626 90.4322C277.194 90.4322 276.814 90.505 276.487 90.6507C276.159 90.7832 275.878 90.9818 275.642 91.2467C275.42 91.4984 275.249 91.8162 275.132 92.2003C275.014 92.5844 274.955 93.0281 274.955 93.5314C274.955 94.5115 275.184 95.2863 275.642 95.8558C276.114 96.412 276.775 96.6902 277.626 96.6902C277.9 96.6902 278.182 96.6504 278.47 96.571C278.771 96.4915 279.072 96.3657 279.373 96.1935C279.596 96.0743 279.792 96.0346 279.962 96.0743C280.146 96.114 280.296 96.2068 280.414 96.3524C280.532 96.4849 280.604 96.6504 280.63 96.8491C280.656 97.0345 280.63 97.22 280.551 97.4054C280.486 97.5908 280.355 97.7431 280.159 97.8623C279.727 98.1272 279.269 98.3192 278.784 98.4384C278.3 98.5576 277.842 98.6172 277.41 98.6172Z" fill="#F4EBE2"/>
<path d="M259.672 98.6172C258.978 98.6172 258.356 98.4848 257.806 98.2199C257.269 97.9418 256.844 97.5709 256.53 97.1074C256.229 96.6438 256.078 96.1207 256.078 95.5379C256.078 94.8227 256.261 94.2598 256.628 93.8492C256.995 93.4254 257.59 93.1208 258.415 92.9354C259.24 92.75 260.346 92.6573 261.734 92.6573H262.715V94.0876H261.753C260.942 94.0876 260.294 94.1274 259.809 94.2068C259.325 94.2863 258.978 94.4254 258.768 94.624C258.572 94.8095 258.474 95.0744 258.474 95.4187C258.474 95.8558 258.624 96.2134 258.925 96.4915C259.227 96.7696 259.646 96.9087 260.182 96.9087C260.614 96.9087 260.994 96.8094 261.321 96.6107C261.662 96.3988 261.93 96.114 262.126 95.7564C262.323 95.3988 262.421 94.9883 262.421 94.5247V92.2401C262.421 91.5778 262.277 91.101 261.989 90.8097C261.701 90.5183 261.216 90.3726 260.536 90.3726C260.156 90.3726 259.744 90.4189 259.299 90.5117C258.867 90.6044 258.408 90.7633 257.924 90.9885C257.675 91.1077 257.453 91.1408 257.256 91.0878C257.073 91.0348 256.929 90.9289 256.824 90.7699C256.72 90.5977 256.667 90.4123 256.667 90.2137C256.667 90.015 256.72 89.8229 256.824 89.6375C256.929 89.4389 257.106 89.2932 257.355 89.2005C257.957 88.9488 258.533 88.77 259.083 88.6641C259.646 88.5581 260.156 88.5051 260.614 88.5051C261.557 88.5051 262.329 88.6508 262.931 88.9422C263.547 89.2336 264.005 89.6773 264.306 90.2733C264.607 90.856 264.758 91.6109 264.758 92.5381V97.306C264.758 97.7166 264.659 98.0345 264.463 98.2596C264.267 98.4715 263.985 98.5775 263.619 98.5775C263.252 98.5775 262.964 98.4715 262.755 98.2596C262.558 98.0345 262.46 97.7166 262.46 97.306V96.3524H262.617C262.526 96.816 262.342 97.22 262.067 97.5643C261.806 97.8954 261.472 98.1537 261.066 98.3391C260.66 98.5245 260.195 98.6172 259.672 98.6172Z" fill="#F4EBE2"/>
<path d="M248.417 98.6174C247.619 98.6174 246.958 98.4718 246.434 98.1804C245.91 97.8758 245.518 97.4254 245.256 96.8294C245.007 96.2334 244.883 95.4918 244.883 94.6044V89.7967C244.883 89.3861 244.988 89.0748 245.197 88.8629C245.406 88.651 245.708 88.5451 246.1 88.5451C246.493 88.5451 246.794 88.651 247.004 88.8629C247.226 89.0748 247.337 89.3861 247.337 89.7967V94.6441C247.337 95.3328 247.475 95.8427 247.75 96.1738C248.025 96.505 248.463 96.6705 249.065 96.6705C249.72 96.6705 250.257 96.4454 250.676 95.995C251.095 95.5315 251.304 94.9223 251.304 94.1673V89.9159C251.304 89.5053 251.409 89.2139 251.618 89.0417C251.828 88.8563 252.129 88.7305 252.522 88.6643C252.81 88.6113 253.052 88.5252 253.248 88.406C253.445 88.2736 253.589 88.0948 253.68 87.8696C253.785 87.6312 253.837 87.32 253.837 86.9359C253.837 86.3928 254.197 86.1213 254.917 86.1213C255.258 86.1213 255.52 86.1876 255.703 86.32C255.886 86.4524 255.978 86.6511 255.978 86.916C255.978 87.6974 255.781 88.353 255.389 88.8828C254.996 89.4126 254.453 89.7569 253.759 89.9159V97.3062C253.759 98.1539 253.359 98.5777 252.561 98.5777C252.181 98.5777 251.887 98.4718 251.677 98.2598C251.468 98.0347 251.363 97.7168 251.363 97.3062V95.7964L251.638 96.3924C251.363 97.1076 250.944 97.6572 250.381 98.0413C249.831 98.4254 249.177 98.6174 248.417 98.6174ZM249.36 102.571C248.954 102.571 248.64 102.458 248.417 102.233C248.195 102.021 248.084 101.717 248.084 101.319C248.084 100.922 248.195 100.617 248.417 100.405C248.64 100.194 248.954 100.088 249.36 100.088C249.779 100.088 250.1 100.194 250.322 100.405C250.545 100.617 250.656 100.922 250.656 101.319C250.656 101.717 250.545 102.021 250.322 102.233C250.1 102.458 249.779 102.571 249.36 102.571Z" fill="#F4EBE2"/>
<path d="M235.425 98.4188C235.019 98.4188 234.705 98.3063 234.482 98.0811C234.26 97.8427 234.148 97.5182 234.148 97.1076V85.6446C234.148 85.2208 234.253 84.9029 234.463 84.691C234.685 84.4658 234.999 84.3533 235.405 84.3533C235.811 84.3533 236.119 84.4658 236.328 84.691C236.551 84.9029 236.662 85.2208 236.662 85.6446V96.2534H242.357C242.71 96.2534 242.979 96.3461 243.162 96.5315C243.358 96.7169 243.456 96.9818 243.456 97.3262C243.456 97.6705 243.358 97.942 243.162 98.1407C242.979 98.3261 242.71 98.4188 242.357 98.4188H235.425Z" fill="#F4EBE2"/>
<g opacity="0.1">
<path d="M531.414 336.569C531.414 336.569 531.42 336.581 531.425 336.588C531.425 336.592 531.429 336.598 531.431 336.602C531.435 336.613 531.439 336.626 531.444 336.636C531.469 336.701 531.496 336.767 531.526 336.832C531.528 336.834 531.528 336.836 531.528 336.84C531.534 336.855 531.54 336.868 531.547 336.883C531.551 336.893 531.553 336.902 531.557 336.912C531.559 336.916 531.562 336.921 531.562 336.923C531.711 337.346 531.825 337.827 531.414 336.569Z" fill="black"/>
<path d="M531.428 336.602C531.432 336.613 531.437 336.626 531.441 336.636C531.437 336.623 531.432 336.613 531.426 336.602C531.424 336.598 531.422 336.592 531.422 336.588C531.422 336.592 531.426 336.598 531.428 336.602Z" fill="black"/>
<path d="M531.557 336.912C531.553 336.902 531.548 336.893 531.544 336.883C531.54 336.868 531.534 336.853 531.527 336.841C531.534 336.855 531.54 336.868 531.546 336.883C531.551 336.893 531.553 336.902 531.557 336.912Z" fill="black"/>
<path d="M524.378 324.864C523.503 323.882 523.937 324.329 524.224 324.67C524.237 324.683 524.247 324.698 524.26 324.71C524.287 324.748 524.317 324.784 524.348 324.822C524.35 324.826 524.354 324.828 524.357 324.833C524.363 324.843 524.369 324.854 524.378 324.864Z" fill="black"/>
</g>
<g opacity="0.1">
<path d="M360.078 346.465C360.493 346.619 360.666 346.684 360.695 346.701C360.662 346.695 360.489 346.634 360.323 346.568C360.31 346.562 360.299 346.558 360.287 346.554L360.236 346.535C360.217 346.526 360.198 346.518 360.181 346.511C360.162 346.503 360.146 346.495 360.131 346.488C360.114 346.48 360.097 346.471 360.078 346.465Z" fill="black"/>
</g>
<path d="M515.184 336.569C515.607 337.867 515.47 337.313 515.314 336.883C515.274 336.79 515.234 336.697 515.198 336.603C515.194 336.592 515.188 336.579 515.184 336.569Z" fill="#EF5F23"/>
<path d="M524.162 375.345C516.404 392.657 508.577 409.94 500.805 427.246C499.477 430.199 495.407 430.662 492.876 429.326C491.623 428.662 490.584 427.206 490.215 425.862C489.983 425.025 489.973 424.249 490.108 423.491C492.362 418.475 494.614 413.462 496.867 408.446C501.797 397.473 506.845 386.544 511.634 375.509C511.79 375.153 511.944 374.795 512.098 374.437C512.121 374.38 512.159 374.306 512.199 374.226C512.464 373.708 512.647 373.113 512.862 372.58C513.1 371.99 513.336 371.398 513.564 370.804C513.804 370.186 514.038 369.567 514.268 368.945C515.243 366.281 516.113 363.577 516.796 360.823C517.133 359.459 517.426 358.085 517.664 356.701C517.706 356.454 517.744 356.206 517.784 355.957C517.624 355.605 517.953 354.49 517.986 354.079C518.206 351.415 518.14 348.766 517.873 346.111C517.828 345.846 517.788 345.582 517.742 345.317C517.649 344.792 517.546 344.267 517.432 343.747C517.196 342.657 516.916 341.578 516.592 340.512C516.24 339.346 515.839 338.198 515.391 337.066C515.367 337.005 515.342 336.944 515.315 336.883C515.29 336.813 515.264 336.746 515.239 336.693C515.226 336.662 515.214 336.632 515.199 336.603C515.19 336.577 515.18 336.55 515.169 336.525C515.174 336.539 515.178 336.554 515.184 336.569C514.986 336.126 514.784 335.684 514.573 335.248C513.553 333.125 512.384 331.075 511.109 329.096C510.463 328.093 509.788 327.109 509.091 326.141C508.79 325.724 508.482 325.309 508.172 324.896C508.181 324.906 508.189 324.915 508.198 324.925C508.174 324.896 508.149 324.864 508.126 324.835C508.124 324.831 508.12 324.829 508.118 324.824C508.094 324.791 508.063 324.753 508.029 324.713C508.016 324.7 508.006 324.685 507.995 324.673C507.934 324.592 507.875 324.512 507.814 324.437C501.793 316.85 494.553 310.33 487.263 303.993C484.821 301.87 485.264 297.978 487.263 295.797C489.482 293.38 493.171 293.81 495.457 295.797C504.049 303.266 512.407 311.021 519.097 320.291C522.681 325.258 525.58 330.731 527.44 336.533C528.74 340.586 529.53 344.798 529.692 349.112C530.032 358.214 527.491 366.953 524.162 375.345Z" fill="#EF5F23"/>
<path d="M508.172 324.896C507.264 323.876 507.704 324.327 507.995 324.673C508.006 324.685 508.016 324.7 508.029 324.713C508.056 324.751 508.086 324.786 508.117 324.824C508.119 324.829 508.124 324.831 508.126 324.835C508.141 324.856 508.155 324.877 508.172 324.896Z" fill="#EF5F23"/>
<path d="M507.143 34.9385C504.254 35.7963 501.427 36.8394 498.688 38.0638C475.948 48.232 463.049 70.482 457.767 94.0006C454.641 107.918 453.031 122.257 448.08 135.634C432.379 178.065 385.726 204.612 374.664 248.481C369.045 270.765 374.479 296.199 390.818 312.359C410.128 331.456 440.345 334.788 467.16 330.504C520.848 321.924 569.297 285.917 593.493 237.215C617.688 188.513 617.204 128.419 592.713 79.8662C585.242 65.0533 575.344 50.9569 561.459 41.8824C545.577 31.5056 525.182 29.5879 507.143 34.9407V34.9385Z" fill="#FF9400"/>
<path d="M520.585 32.3591C520.585 32.3591 491.942 40.6518 477.973 69.481C460.174 106.215 475.765 134.431 449.793 171.368C423.821 208.306 407.946 200.987 389.592 234.117C371.717 266.386 376.616 289.319 376.885 290.486C371.938 277.241 371.193 262.266 374.663 248.492C385.728 204.62 432.379 178.075 448.08 135.645C453.031 122.267 454.639 107.926 457.766 94.0111C463.052 70.4925 475.948 48.2426 498.69 38.0723C501.429 36.8479 504.257 35.8068 507.141 34.9512C511.515 33.651 516.032 32.7806 520.585 32.3591Z" fill="#FAA32C"/>
<path d="M525.893 139.441C528.271 144.014 532.081 147.021 536.91 148.136C538.568 148.517 540.293 148.625 542.044 148.456C548.498 147.839 554.372 143.544 556.66 137.774C556.738 137.573 556.812 137.375 556.883 137.171C557.349 135.799 557.442 134.598 557.166 133.502C556.411 130.492 553.154 129.089 550.261 129.034C549.397 129.017 548.559 129.081 547.75 129.142C546.424 129.243 545.173 129.336 544.061 129.059C542.501 128.674 540.974 127.481 539.507 125.511C538.939 124.746 538.42 123.945 537.877 123.093C537.131 121.932 536.36 120.733 535.431 119.616C534.089 118.002 531.811 116.36 529.43 116.59C528.716 116.657 528.048 116.887 527.445 117.275C526.213 118.067 525.589 119.306 525.14 120.415C522.671 126.507 522.962 133.799 525.893 139.443V139.441Z" fill="#D56100"/>
<g filter="url(#filter0_d_8442_2744)">
<path d="M578.488 111.362C579.109 112.689 580.131 113.848 581.4 114.584C584.117 116.16 587.653 115.935 590.423 114.451C592.061 113.574 593.497 112.259 594.325 110.597C596.548 106.141 593.483 101.429 588.774 100.742C586.216 100.369 583.572 101.166 581.433 102.616C580.001 103.587 578.732 104.896 578.151 106.525C577.586 108.103 577.776 109.844 578.488 111.362Z" fill="#F8A9A9"/>
</g>
<g filter="url(#filter1_d_8442_2744)">
<path d="M493.193 121.159C493.086 121.867 493.109 122.592 493.292 123.291C493.88 125.548 495.93 127.137 498.062 128.079C500.629 129.213 503.694 129.633 506.199 128.368C512.372 125.251 508.279 117.018 503.125 115.477C500.399 114.664 497.249 115.376 495.203 117.351C494.156 118.362 493.41 119.73 493.193 121.157V121.159Z" fill="#F8A9A9"/>
</g>
<path d="M524.184 135.171C524.578 136.656 525.125 138.087 525.819 139.426C528.197 143.999 532.007 147.006 536.836 148.121C538.494 148.502 540.217 148.61 541.97 148.441C543.177 148.325 544.364 148.081 545.51 147.724C546.719 142.051 543.331 135.735 537.921 133.632C535.449 132.671 532.719 132.332 530.087 132.652C527.845 132.924 526.307 133.546 524.184 135.171Z" fill="#F27500"/>
<path d="M593.738 237.196C569.542 285.898 521.094 321.905 467.405 330.485C440.589 334.769 410.371 331.439 391.061 312.34C388.129 309.438 385.546 306.239 383.316 302.81C399.919 312.77 420.992 316.019 440.721 315.067C495.029 312.441 547.139 281.977 576.539 236.231C605.724 190.817 611.971 131.571 593.466 80.863C617.453 129.238 617.763 188.834 593.738 237.196Z" fill="#F27500"/>
<path d="M570.295 94.4428C573.359 93.2258 574.573 89.0403 573.006 85.0942C571.439 81.1481 567.685 78.9358 564.622 80.1528C561.558 81.3699 560.344 85.5554 561.911 89.5014C563.478 93.4475 567.232 95.6598 570.295 94.4428Z" fill="black"/>
<path d="M527.281 103.836C530.563 103.53 532.905 99.8542 532.51 95.6267C532.116 91.3992 529.136 88.2204 525.853 88.5267C522.571 88.833 520.23 92.5084 520.624 96.7359C521.018 100.963 523.999 104.142 527.281 103.836Z" fill="black"/>
<path d="M571.03 88.1005C571.852 87.774 572.178 86.6508 571.757 85.5918C571.337 84.5328 570.33 83.939 569.508 84.2655C568.686 84.592 568.36 85.7152 568.781 86.7742C569.201 87.8331 570.208 88.427 571.03 88.1005Z" fill="white"/>
<path d="M529.638 97.497C530.518 97.4149 531.146 96.4285 531.04 95.294C530.935 94.1595 530.135 93.3064 529.254 93.3886C528.374 93.4707 527.746 94.4571 527.852 95.5916C527.958 96.7261 528.757 97.5792 529.638 97.497Z" fill="white"/>
<path opacity="0.1" d="M473.108 149.381C473.239 150.49 473.292 151.611 473.296 152.728C473.317 160.588 470.831 168.367 466.672 175.037C462.513 181.706 456.729 187.289 450.189 191.645C445.169 194.989 439.632 197.657 433.73 198.911C432.719 199.126 431.64 199.295 430.667 198.941C429.365 198.467 428.532 197.107 428.368 195.731C428.206 194.355 428.612 192.973 429.177 191.708C431.421 186.693 435.993 183.192 440.236 179.704C449.012 172.493 457.378 163.987 460.857 153.172C461.83 150.142 463.372 138.604 468.953 141.013C470.534 141.695 471.494 143.32 472.086 144.937C472.611 146.367 472.929 147.864 473.108 149.379V149.381Z" fill="black"/>
<path d="M470.236 143.765C470.416 144.867 470.521 145.984 470.574 147.099C470.946 154.951 468.808 162.832 464.952 169.682C461.097 176.531 455.566 182.366 449.226 187.009C444.359 190.574 438.947 193.485 433.106 195.002C432.106 195.261 431.035 195.478 430.049 195.168C428.728 194.753 427.835 193.432 427.609 192.066C427.384 190.699 427.729 189.299 428.237 188.01C430.254 182.899 434.665 179.199 438.751 175.525C447.195 167.928 455.176 159.06 458.168 148.1C459.007 145.029 460.033 133.434 465.715 135.59C467.325 136.201 468.355 137.782 469.019 139.371C469.606 140.779 469.992 142.256 470.236 143.763V143.765Z" fill="#FFE9CB"/>
<path d="M439.438 181.308C449.132 175.561 456.635 166.421 460.273 155.741C460.815 154.152 463.381 154.732 462.835 156.331C458.963 167.694 451.138 177.428 440.803 183.557C439.349 184.419 437.976 182.174 439.436 181.308H439.438Z" fill="#CB633A"/>
<path d="M421.499 283.344C418.669 281.85 415.269 282.664 413.571 285.424C408.046 294.412 402.518 303.407 396.517 312.089C395.057 314.203 393.57 316.298 392.046 318.369C391.286 319.404 390.517 320.432 389.739 321.454C389.6 321.636 389.461 321.817 389.324 321.998C388.899 322.54 388.475 323.086 388.045 323.625C384.902 327.581 381.63 331.463 378.082 335.064C376.468 336.704 374.793 338.282 373.04 339.774C372.602 340.147 372.159 340.514 371.713 340.874C371.559 340.999 371.405 341.121 371.249 341.243C370.293 341.951 369.326 342.642 368.327 343.293C366.5 344.482 364.6 345.515 362.628 346.431C362.364 346.516 362.097 346.655 361.846 346.75C361.332 346.941 360.814 347.123 360.291 347.289C359.248 347.622 358.188 347.9 357.118 348.119C356.581 348.229 356.039 348.303 355.5 348.402C357.472 348.044 355.527 348.374 355.072 348.408C353.899 348.492 352.723 348.499 351.547 348.429C351.084 348.402 350.585 348.286 350.117 348.29C349.915 348.254 349.712 348.218 349.51 348.178C348.277 347.938 347.062 347.616 345.871 347.222C345.328 347.043 344.791 346.849 344.257 346.642C344.19 346.615 344.121 346.587 344.053 346.56C344.036 346.554 344.019 346.545 344.003 346.539C343.876 346.486 343.748 346.434 343.619 346.387C343.701 346.417 343.775 346.444 343.845 346.469C342.757 345.976 341.693 345.43 340.657 344.842C339.645 344.269 338.655 343.654 337.69 343.003C337.206 342.676 336.727 342.343 336.253 342C336.064 341.863 335.876 341.723 335.687 341.584C335.621 341.536 335.558 341.487 335.493 341.439C326.635 334.267 319.963 324.887 311.388 317.419C309.104 315.429 305.41 315.004 303.194 317.419C301.19 319.6 300.754 323.488 303.194 325.614C311.145 332.539 317.382 341.188 325.382 348.058C333.521 355.049 343.674 360.677 354.739 360.02C365.533 359.379 374.934 353.7 382.791 346.606C390.744 339.426 397.406 330.712 403.637 322.04C410.768 312.11 417.176 301.687 423.574 291.277C425.163 288.691 424.219 284.788 421.495 283.346L421.499 283.344Z" fill="#EF5F23"/>
<path d="M344.006 346.533C344.023 346.539 344.039 346.545 344.056 346.554C344.421 346.699 344.857 346.832 343.848 346.463C343.865 346.472 343.881 346.48 343.898 346.486C343.93 346.501 343.968 346.516 344.004 346.533H344.006Z" fill="#EF5F23"/>
<path d="M696.836 32.0388C696.836 32.0388 660.66 103.712 568.597 158.843C476.533 213.975 328.027 219.682 328.027 219.682L362.941 307.063C362.941 307.063 488.448 291.161 593.349 199.149C669.292 132.537 718.984 47.3765 718.124 32.8186L696.836 32.0409V32.0388Z" fill="#8CD7B4"/>
<g opacity="0.1">
<path d="M427.852 195.697C427.852 195.737 427.854 195.775 427.856 195.815C427.925 195.206 427.911 195.114 427.885 195.217C427.879 195.274 427.873 195.333 427.868 195.39C427.86 195.491 427.856 195.594 427.852 195.697Z" fill="black"/>
<path d="M439.449 209.33C439.089 209.191 439.2 209.237 439.449 209.33V209.33Z" fill="black"/>
<path d="M526.105 219.992C522.091 222.95 516.592 222.504 513.05 219.189C502.591 221.72 491.926 223.37 481.173 223.989C469.641 224.653 457.961 224.259 446.516 222.678C437.206 221.395 427.497 218.512 421.305 210.999C417.398 206.258 416.061 200.138 416.398 194.127C416.718 188.404 419.16 183.064 422.362 178.396C425.314 174.094 429.258 170.185 433.586 167.279C438.263 164.133 443.83 161.844 449.544 161.899C451.164 161.916 452.487 162.213 453.787 163.193C455.019 164.12 455.66 165.623 455.871 167.106C456.075 168.537 455.481 170.253 454.579 171.351C453.73 172.381 452.057 173.447 450.664 173.435C449.32 173.422 447.991 173.534 446.672 173.791H446.666C446.666 173.791 446.666 173.791 446.661 173.793C446.44 173.861 446.215 173.92 445.991 173.987C445.378 174.179 444.776 174.394 444.184 174.632C443.594 174.872 443.01 175.133 442.439 175.416C442.252 175.574 441.927 175.692 441.725 175.814C440.604 176.486 439.527 177.232 438.497 178.033C437.979 178.436 437.473 178.851 436.98 179.279C436.757 179.473 436.54 179.669 436.319 179.867C435.438 180.762 434.563 181.652 433.744 182.606C432.916 183.569 432.134 184.572 431.409 185.616C431.218 185.894 431.045 186.265 430.822 186.53C430.56 186.983 430.303 187.439 430.065 187.904C429.515 188.979 429.035 190.083 428.635 191.221C428.559 191.438 428.496 191.66 428.418 191.875C428.483 191.695 428.533 191.55 428.576 191.434C428.552 191.506 428.533 191.577 428.515 191.639C428.378 192.163 428.26 192.696 428.158 193.23C428.038 193.887 427.948 194.551 427.885 195.215C427.868 195.295 427.842 195.485 427.849 195.645C427.849 195.662 427.849 195.678 427.851 195.695C427.845 195.809 427.838 195.921 427.828 196.03C427.838 195.952 427.845 195.881 427.853 195.813C427.895 196.964 427.96 198.096 428.169 199.234C428.171 199.234 428.171 199.24 428.171 199.242C428.232 199.428 428.27 199.63 428.325 199.811C428.504 200.382 428.708 200.945 428.946 201.493C429.037 201.706 429.144 201.916 429.237 202.131C429.454 202.477 429.667 202.825 429.903 203.16C430.211 203.598 430.539 204.022 430.885 204.43C431.007 204.574 431.157 204.713 431.27 204.865C431.22 204.797 431.173 204.736 431.129 204.679C431.734 205.259 432.376 205.796 433.051 206.293C433.268 206.454 433.487 206.61 433.712 206.763C433.948 206.898 434.378 207.155 434.513 207.229C435.387 207.705 436.287 208.133 437.206 208.515C438.078 208.881 438.977 209.155 439.86 209.488C439.742 209.44 439.643 209.402 439.559 209.37C439.784 209.452 440.073 209.554 440.235 209.6C440.682 209.724 441.126 209.842 441.575 209.952C445.937 211.037 450.424 211.56 454.891 211.992C457.491 212.243 460.101 212.437 462.712 212.569C463.114 212.592 463.517 212.609 463.917 212.628C463.991 212.632 464.113 212.643 464.239 212.656C464.749 212.692 465.272 212.675 465.779 212.685C467.052 212.717 468.327 212.734 469.601 212.738C474.829 212.748 480.058 212.527 485.266 212.07C490.542 211.608 495.797 210.904 501.007 209.962C503.58 209.499 506.142 208.976 508.691 208.397C508.71 208.392 508.727 208.388 508.746 208.386C508.986 208.361 509.232 208.285 509.475 208.215C509.559 208.194 509.641 208.171 509.723 208.15C509.966 208.091 510.208 208.032 510.448 207.969C511.12 206.207 512.281 204.616 513.906 203.421C518.438 200.083 524.862 201.08 528.224 205.649C531.587 210.215 530.634 216.647 526.102 219.985L526.105 219.992Z" fill="black"/>
<path d="M428.574 191.436C428.682 191.099 428.819 190.758 428.574 191.436V191.436Z" fill="black"/>
<path d="M431.063 204.616C431.086 204.637 431.109 204.658 431.13 204.679C430.319 203.611 430.724 204.289 431.063 204.616Z" fill="black"/>
</g>
<path d="M425.01 192.205C425.008 192.246 425.006 192.283 425.004 192.323C425.132 191.723 425.126 191.63 425.092 191.731C425.082 191.788 425.069 191.845 425.059 191.902C425.04 192.001 425.027 192.104 425.012 192.205H425.01Z" fill="#EF5F23"/>
<path d="M435.232 206.898C434.887 206.726 434.994 206.782 435.232 206.898V206.898Z" fill="#EF5F23"/>
<path d="M518.18 215.644C517.14 212.426 514.259 211.029 511.053 211.596C509.732 211.83 508.411 212.051 507.085 212.255C506.489 212.348 505.893 212.437 505.294 212.521C504.972 212.567 504.624 212.658 504.298 212.66C504.547 212.626 504.793 212.595 505.042 212.561C504.776 212.597 504.511 212.631 504.243 212.664C501.65 212.995 499.05 213.269 496.443 213.482C491.166 213.914 485.869 214.108 480.572 214.057C475.343 214.009 470.117 213.724 464.913 213.206C463.645 213.079 462.381 212.94 461.117 212.786C460.613 212.725 460.091 212.692 459.587 212.605C459.463 212.58 459.343 212.557 459.269 212.546C458.871 212.489 458.473 212.432 458.074 212.373C455.489 211.988 452.912 211.545 450.346 211.044C445.945 210.182 441.525 209.229 437.29 207.727C436.854 207.573 436.422 207.413 435.99 207.244C435.802 207.172 435.457 207.008 435.231 206.896C435.358 206.959 435.547 207.054 435.813 207.189C434.909 206.734 433.973 206.35 433.078 205.872C432.201 205.402 431.346 204.89 430.524 204.332C430.396 204.245 429.993 203.948 429.77 203.788C429.564 203.615 429.357 203.438 429.157 203.257C428.535 202.696 427.948 202.098 427.4 201.463C427.438 201.525 427.478 201.59 427.522 201.661C427.423 201.501 427.29 201.345 427.183 201.192C426.875 200.753 426.591 200.298 426.327 199.832C426.125 199.476 425.948 199.109 425.763 198.743C425.691 198.519 425.607 198.302 425.535 198.079C425.354 197.51 425.202 196.93 425.082 196.345C425.044 196.159 425.023 195.953 424.981 195.763C424.981 195.761 424.981 195.757 424.981 195.754C424.882 194.602 424.928 193.468 424.998 192.319C424.979 192.408 424.958 192.503 424.933 192.612C424.962 192.477 424.983 192.338 425.004 192.201C425.004 192.185 425.004 192.168 425.006 192.151C425.017 191.991 425.057 191.805 425.084 191.727C425.211 191.072 425.365 190.421 425.548 189.778C425.697 189.255 425.868 188.739 426.056 188.229C426.077 188.17 426.106 188.1 426.136 188.031C426.083 188.143 426.018 188.282 425.933 188.452C426.032 188.246 426.119 188.031 426.216 187.822C426.724 186.728 427.309 185.675 427.96 184.661C428.243 184.221 428.544 183.793 428.845 183.365C429.094 183.123 429.3 182.771 429.519 182.514C430.341 181.544 431.215 180.623 432.132 179.745C433.04 178.874 433.997 178.071 434.959 177.266C435.195 177.091 435.433 176.916 435.674 176.746C436.207 176.366 436.75 176.002 437.304 175.652C438.408 174.954 439.553 174.316 440.732 173.753C440.945 173.652 441.278 173.566 441.482 173.427C442.079 173.201 442.683 172.997 443.294 172.817C443.91 172.636 444.529 172.478 445.157 172.35C445.384 172.303 445.614 172.267 445.842 172.219H445.846C445.846 172.219 445.848 172.219 445.85 172.219C447.188 172.09 448.524 172.107 449.86 172.251C451.244 172.398 453.014 171.496 453.957 170.554C454.962 169.549 455.719 167.899 455.654 166.455C455.586 164.957 455.095 163.402 453.957 162.356C452.759 161.256 451.471 160.831 449.86 160.66C444.179 160.051 438.417 161.794 433.455 164.47C428.866 166.946 424.564 170.455 421.212 174.449C417.573 178.784 414.628 183.862 413.755 189.529C412.839 195.48 413.578 201.699 417.009 206.797C422.444 214.875 431.831 218.683 440.973 220.86C452.211 223.538 463.799 225.062 475.341 225.515C488.328 226.023 501.331 225.03 514.127 222.767C515.479 222.527 516.92 221.246 517.588 220.103C518.315 218.862 518.623 217.031 518.172 215.638L518.18 215.644Z" fill="#EF5F23"/>
<path d="M426.141 188.037C426.28 187.713 426.448 187.386 426.141 188.037V188.037Z" fill="#EF5F23"/>
<path d="M427.339 201.396C427.36 201.419 427.381 201.442 427.4 201.465C426.696 200.323 427.034 201.038 427.339 201.396Z" fill="#EF5F23"/>
<g opacity="0.1">
<path d="M627.311 166.371C626.27 165.576 626.98 166.021 627.311 166.371V166.371Z" fill="black"/>
<path d="M632.071 187.639C631.652 188.168 631.584 188.298 631.652 188.239C631.784 188.041 631.919 187.845 632.062 187.656C632.064 187.649 632.069 187.645 632.071 187.639Z" fill="black"/>
</g>
<path d="M636.472 172.992C636.149 177.768 634.392 182.587 631.445 186.37C628.463 190.193 624.334 192.987 619.92 194.903C611.598 198.513 602.076 199.598 593.046 199.413C592.669 199.404 592.294 199.396 591.919 199.383C582.625 199.082 573.29 196.928 564.767 193.213C561.788 191.915 560.528 188.661 561.609 185.651C562.654 182.745 566.392 181.281 569.171 182.492C571.387 183.458 573.646 184.313 575.949 185.044C576.524 185.228 577.103 185.401 577.683 185.569C577.906 185.635 578.131 185.696 578.355 185.757C578.329 185.748 578.312 185.744 578.304 185.74C578.367 185.75 579.016 185.93 579.157 185.961C579.391 186.018 579.627 186.073 579.861 186.128C580.451 186.263 581.041 186.391 581.633 186.511C586.203 187.436 590.828 187.858 595.488 187.911C595.711 187.904 595.937 187.9 596.16 187.894C596.645 187.879 597.127 187.86 597.61 187.835C598.634 187.782 599.658 187.708 600.679 187.611C602.649 187.424 604.609 187.15 606.551 186.791C606.686 186.768 606.819 186.743 606.954 186.718C606.975 186.714 606.996 186.709 607.017 186.705C608.035 186.513 609.048 186.296 610.053 186.052C610.485 185.949 610.913 185.807 611.347 185.721C611.014 185.788 610.803 185.83 610.681 185.856C610.896 185.807 611.317 185.715 611.526 185.649C613.388 185.074 615.217 184.376 616.962 183.506C617.181 183.396 617.396 183.283 617.613 183.167C617.659 183.12 618.407 182.686 618.536 182.602C619.307 182.09 620.048 181.534 620.75 180.929C620.819 180.87 620.942 180.779 621.066 180.68C621.077 180.665 621.089 180.653 621.102 180.64C621.393 180.313 621.692 179.995 621.97 179.658C622.328 179.224 622.625 178.745 622.937 178.278C623.004 178.219 623.215 177.961 623.331 177.732C623.337 177.719 623.341 177.706 623.348 177.694C623.371 177.664 623.394 177.633 623.417 177.603C623.396 177.628 623.375 177.654 623.356 177.677C623.445 177.502 623.529 177.325 623.611 177.148C623.792 176.756 623.959 176.358 624.11 175.953C624.262 175.553 624.386 175.144 624.519 174.737C624.549 174.606 624.578 174.474 624.603 174.343C624.795 173.382 624.917 172.408 624.976 171.431C624.989 171.247 625.012 171.041 625.027 170.836C625.023 170.786 625.019 170.72 625.012 170.636C624.997 170.419 624.991 170.198 624.976 169.981C624.955 169.663 624.926 169.344 624.89 169.028C628.057 165.751 631.158 162.464 634.19 159.172C636.05 163.507 636.79 168.297 636.472 172.992Z" fill="#EF5F23"/>
<path d="M618.596 156.409C617.555 155.615 618.265 156.059 618.596 156.409V156.409Z" fill="#EF5F23"/>
<path d="M623.356 177.677C622.937 178.206 622.869 178.337 622.937 178.278C623.069 178.08 623.204 177.884 623.348 177.694C623.35 177.688 623.354 177.683 623.356 177.677Z" fill="#EF5F23"/>
<path d="M714.811 22.0834L630.798 51.2899C626.115 52.9189 625.173 59.1294 629.161 62.0735L710.018 121.774C714.007 124.72 719.664 121.989 719.841 117.032L722.997 28.1254C723.151 23.7947 718.905 20.6588 714.813 22.0834H714.811Z" fill="#8CD7B4"/>
<path d="M520.456 225.879C525.298 222.99 526.864 216.693 523.954 211.814C521.044 206.935 514.76 205.323 509.919 208.212C505.077 211.101 503.511 217.398 506.421 222.276C509.331 227.155 515.615 228.768 520.456 225.879Z" fill="#EF5F23"/>
<path d="M566.496 192.573C571.337 189.684 572.903 183.387 569.993 178.508C567.083 173.629 560.799 172.016 555.958 174.906C551.116 177.795 549.55 184.092 552.46 188.97C555.37 193.849 561.654 195.462 566.496 192.573Z" fill="#EF5F23"/>
<path d="M509.811 439.475L494.051 434.146C488.855 432.388 486.066 426.751 487.823 421.554L494.015 403.232C495.625 398.472 500.787 395.917 505.546 397.527C510.306 399.138 512.859 404.301 511.25 409.061L507.08 420.993C515.67 417.921 520.318 421.297 522.21 427.659C524.433 435.132 517.193 441.973 509.811 439.475Z" fill="#982F00"/>
<path d="M284.661 324.228L296.095 312.142C299.865 308.157 306.152 307.984 310.136 311.754L324.18 325.048C327.83 328.502 327.988 334.259 324.534 337.909C321.081 341.559 315.323 341.717 311.674 338.263L302.585 329.482C301.78 338.571 296.769 341.38 290.2 340.438C282.485 339.33 279.303 329.891 284.661 324.228Z" fill="#982F00"/>
<path d="M497.809 21.1267C497.809 21.1267 498.325 21.133 498.833 21.2299C495.244 17.3713 489.41 16.1911 489.316 16.1722C489.412 16.1722 495.586 16.0752 499.361 20.2668C498.957 18.3238 497.44 14.3745 491.77 11.42C485.829 8.32209 478.383 11.205 478.383 11.205C478.383 11.205 482.005 21.8642 497.809 21.1267Z" fill="#8CD7B4"/>
<path d="M517.474 0C517.474 0 519.229 9.40322 516.439 15.2913C514.414 19.5609 508.344 21.6999 505.157 22.5555C508.365 17.8202 508.517 15.1101 508.517 15.1101C506.762 18.6948 504.377 20.7263 502.894 21.721C501.975 18.9181 500.772 13.2324 503.817 8.23151C508.049 1.27498 513.761 0.225492 517.474 0Z" fill="#8CD7B4"/>
<path d="M504.148 36.7762C504.158 31.1684 502.34 25.607 500.598 20.2773C503.931 24.6818 506.307 30.8038 507.439 36.2114L504.146 36.7762H504.148Z" fill="#8CD7B4"/>
<defs>
<filter id="filter0_d_8442_2744" x="557.82" y="80.6509" width="57.2422" height="55.0178" filterUnits="userSpaceOnUse" color-interpolation-filters="sRGB">
<feFlood flood-opacity="0" result="BackgroundImageFix"/>
<feColorMatrix in="SourceAlpha" type="matrix" values="0 0 0 0 0 0 0 0 0 0 0 0 0 0 0 0 0 0 127 0" result="hardAlpha"/>
<feOffset/>
<feGaussianBlur stdDeviation="10"/>
<feColorMatrix type="matrix" values="0 0 0 0 1 0 0 0 0 1 0 0 0 0 1 0 0 0 0.75 0"/>
<feBlend mode="normal" in2="BackgroundImageFix" result="effect1_dropShadow_8442_2744"/>
<feBlend mode="normal" in="SourceGraphic" in2="effect1_dropShadow_8442_2744" result="shape"/>
</filter>
<filter id="filter1_d_8442_2744" x="473.129" y="95.1467" width="56.1758" height="53.9956" filterUnits="userSpaceOnUse" color-interpolation-filters="sRGB">
<feFlood flood-opacity="0" result="BackgroundImageFix"/>
<feColorMatrix in="SourceAlpha" type="matrix" values="0 0 0 0 0 0 0 0 0 0 0 0 0 0 0 0 0 0 127 0" result="hardAlpha"/>
<feOffset/>
<feGaussianBlur stdDeviation="10"/>
<feColorMatrix type="matrix" values="0 0 0 0 1 0 0 0 0 1 0 0 0 0 1 0 0 0 0.75 0"/>
<feBlend mode="normal" in2="BackgroundImageFix" result="effect1_dropShadow_8442_2744"/>
<feBlend mode="normal" in="SourceGraphic" in2="effect1_dropShadow_8442_2744" result="shape"/>
</filter>
</defs>
</svg>
