<svg width="561" height="56" viewBox="0 0 561 56" fill="none" xmlns="http://www.w3.org/2000/svg">
<path d="M145 55.5068C149.459 37.9227 144.225 19.3838 148.684 1.80198C166.595 3.78364 204.661 0.215187 213.991 0.0536853C249.252 -0.566132 266.309 4.37842 308.101 4.7298C315.569 4.79309 319.241 2.06008 322.837 2.23904C323.036 6.46646 323.072 8.21379 322.837 13.1658C321.933 32.199 321.314 46.5347 317.671 56C264.691 55.8363 211.711 55.6705 158.73 55.5068H145Z" fill="#565FCC"/>
<path d="M5.64 37.32C4.81333 37.32 4.17333 37.0933 3.72 36.64C3.29333 36.16 3.08 35.5067 3.08 34.68V11.08C3.08 10.2267 3.29333 9.58667 3.72 9.16C4.17333 8.70666 4.81333 8.48 5.64 8.48C6.46667 8.48 7.09333 8.70666 7.52 9.16C7.97333 9.58667 8.2 10.2267 8.2 11.08V21.28H8.28L19.76 9.76C20.1867 9.33333 20.6133 9.01333 21.04 8.8C21.4667 8.58666 21.9467 8.48 22.48 8.48C23.2533 8.48 23.8 8.68 24.12 9.08C24.4667 9.48 24.6 9.94667 24.52 10.48C24.4667 11.0133 24.2133 11.5067 23.76 11.96L12.08 23.52L12.12 21.2L24.32 33.6C24.88 34.1333 25.1733 34.6933 25.2 35.28C25.2267 35.8667 25.04 36.36 24.64 36.76C24.2667 37.1333 23.7067 37.32 22.96 37.32C22.32 37.32 21.8 37.1867 21.4 36.92C21.0267 36.6533 20.5867 36.2667 20.08 35.76L8.28 23.96H8.2V34.68C8.2 35.5067 7.98667 36.16 7.56 36.64C7.13333 37.0933 6.49333 37.32 5.64 37.32ZM32.9506 44.52C32.364 44.52 31.884 44.36 31.5106 44.04C31.1373 43.7467 30.9106 43.3467 30.8306 42.84C30.7773 42.3333 30.8706 41.8 31.1106 41.24L33.8306 35.2V37.28L26.5506 20.44C26.3106 19.8533 26.2306 19.3067 26.3106 18.8C26.3906 18.2933 26.6306 17.8933 27.0306 17.6C27.4573 17.28 28.0306 17.12 28.7506 17.12C29.364 17.12 29.8573 17.2667 30.2306 17.56C30.604 17.8267 30.9373 18.3467 31.2306 19.12L36.6306 32.6H35.4306L40.9506 19.08C41.244 18.3333 41.5906 17.8267 41.9906 17.56C42.3906 17.2667 42.924 17.12 43.5906 17.12C44.1773 17.12 44.644 17.28 44.9906 17.6C45.3373 17.8933 45.5506 18.2933 45.6306 18.8C45.7106 19.28 45.6173 19.8133 45.3506 20.4L35.6306 42.6C35.284 43.3467 34.9106 43.8533 34.5106 44.12C34.1106 44.3867 33.5906 44.52 32.9506 44.52ZM29.4306 13.76C29.0306 13.7333 28.724 13.6 28.5106 13.36C28.2973 13.12 28.244 12.7467 28.3506 12.24C28.4573 11.68 28.6173 11.1333 28.8306 10.6C29.0706 10.04 29.3773 9.53333 29.7506 9.08C30.124 8.62667 30.5773 8.26667 31.1106 8C31.644 7.70666 32.2706 7.56 32.9906 7.56C33.6573 7.56 34.244 7.69333 34.7506 7.96C35.2573 8.22667 35.724 8.53333 36.1506 8.88C36.5773 9.22667 37.004 9.53333 37.4306 9.8C37.8573 10.0667 38.324 10.2 38.8306 10.2C39.3906 10.2 39.8706 10.0133 40.2706 9.64C40.6973 9.24 40.964 8.74666 41.0706 8.16C41.124 7.86667 41.2573 7.64 41.4706 7.48C41.7106 7.32 42.044 7.25333 42.4706 7.28C42.8706 7.30667 43.1773 7.44 43.3906 7.68C43.604 7.92 43.6573 8.29333 43.5506 8.8C43.4173 9.52 43.164 10.24 42.7906 10.96C42.4173 11.68 41.9106 12.28 41.2706 12.76C40.6573 13.24 39.8706 13.48 38.9106 13.48C38.244 13.48 37.6573 13.3467 37.1506 13.08C36.644 12.8133 36.164 12.5067 35.7106 12.16C35.284 11.8133 34.8573 11.5067 34.4306 11.24C34.004 10.9733 33.5506 10.84 33.0706 10.84C32.5106 10.84 32.0306 11.0267 31.6306 11.4C31.2306 11.7733 30.964 12.2667 30.8306 12.88C30.7773 13.1733 30.6306 13.4 30.3906 13.56C30.1773 13.72 29.8573 13.7867 29.4306 13.76ZM62.3847 37.32C61.5847 37.32 60.9714 37.1067 60.5447 36.68C60.118 36.2267 59.9047 35.5867 59.9047 34.76V19.64C59.9047 18.8133 60.118 18.1867 60.5447 17.76C60.9714 17.3333 61.5714 17.12 62.3447 17.12C63.118 17.12 63.718 17.3333 64.1447 17.76C64.5714 18.1867 64.7847 18.8133 64.7847 19.64V22.36L64.3447 21.36C64.9314 19.9467 65.838 18.88 67.0647 18.16C68.318 17.4133 69.7314 17.04 71.3047 17.04C72.878 17.04 74.1714 17.3333 75.1847 17.92C76.198 18.5067 76.958 19.4 77.4647 20.6C77.9714 21.7733 78.2247 23.2667 78.2247 25.08V34.76C78.2247 35.5867 78.0114 36.2267 77.5847 36.68C77.158 37.1067 76.5447 37.32 75.7447 37.32C74.9447 37.32 74.318 37.1067 73.8647 36.68C73.438 36.2267 73.2247 35.5867 73.2247 34.76V25.32C73.2247 23.8 72.9314 22.6933 72.3447 22C71.7847 21.3067 70.9047 20.96 69.7047 20.96C68.238 20.96 67.0647 21.4267 66.1847 22.36C65.3314 23.2667 64.9047 24.48 64.9047 26V34.76C64.9047 36.4667 64.0647 37.32 62.3847 37.32ZM89.7431 37.4C88.3298 37.4 87.0631 37.1333 85.9431 36.6C84.8498 36.04 83.9831 35.2933 83.3431 34.36C82.7298 33.4267 82.4231 32.3733 82.4231 31.2C82.4231 29.76 82.7965 28.6267 83.5431 27.8C84.2898 26.9467 85.5031 26.3333 87.1831 25.96C88.8631 25.5867 91.1165 25.4 93.9431 25.4H95.9431V28.28H93.9831C92.3298 28.28 91.0098 28.36 90.0231 28.52C89.0365 28.68 88.3298 28.96 87.9031 29.36C87.5031 29.7333 87.3031 30.2667 87.3031 30.96C87.3031 31.84 87.6098 32.56 88.2231 33.12C88.8365 33.68 89.6898 33.96 90.7831 33.96C91.6631 33.96 92.4365 33.76 93.1031 33.36C93.7965 32.9333 94.3431 32.36 94.7431 31.64C95.1431 30.92 95.3431 30.0933 95.3431 29.16V24.56C95.3431 23.2267 95.0498 22.2667 94.4631 21.68C93.8765 21.0933 92.8898 20.8 91.5031 20.8C90.7298 20.8 89.8898 20.8933 88.9831 21.08C88.1031 21.2667 87.1698 21.5867 86.1831 22.04C85.6765 22.28 85.2231 22.3467 84.8231 22.24C84.4498 22.1333 84.1565 21.92 83.9431 21.6C83.7298 21.2533 83.6231 20.88 83.6231 20.48C83.6231 20.08 83.7298 19.6933 83.9431 19.32C84.1565 18.92 84.5165 18.6267 85.0231 18.44C86.2498 17.9333 87.4231 17.5733 88.5431 17.36C89.6898 17.1467 90.7298 17.04 91.6631 17.04C93.5831 17.04 95.1565 17.3333 96.3831 17.92C97.6365 18.5067 98.5698 19.4 99.1831 20.6C99.7965 21.7733 100.103 23.2933 100.103 25.16V34.76C100.103 35.5867 99.9031 36.2267 99.5031 36.68C99.1031 37.1067 98.5298 37.32 97.7831 37.32C97.0365 37.32 96.4498 37.1067 96.0231 36.68C95.6231 36.2267 95.4231 35.5867 95.4231 34.76V32.84H95.7431C95.5565 33.7733 95.1831 34.5867 94.6231 35.28C94.0898 35.9467 93.4098 36.4667 92.5831 36.84C91.7565 37.2133 90.8098 37.4 89.7431 37.4ZM91.8631 14.96C90.6098 14.96 89.5298 14.6933 88.6231 14.16C87.7165 13.6 86.9831 12.8533 86.4231 11.92C85.8898 10.96 85.5298 9.89333 85.3431 8.72C85.2631 8.18666 85.3431 7.76 85.5831 7.44C85.8498 7.09333 86.1965 6.90667 86.6231 6.88C87.0765 6.85333 87.4365 6.96 87.7031 7.2C87.9965 7.44 88.1831 7.81333 88.2631 8.32C88.4765 9.52 88.9031 10.4267 89.5431 11.04C90.1831 11.6267 90.9565 11.92 91.8631 11.92C92.7698 11.92 93.5431 11.6267 94.1831 11.04C94.8498 10.4267 95.2765 9.52 95.4631 8.32C95.5431 7.81333 95.7298 7.44 96.0231 7.2C96.3165 6.96 96.6765 6.85333 97.1031 6.88C97.5565 6.90667 97.9031 7.09333 98.1431 7.44C98.3831 7.76 98.4631 8.18666 98.3831 8.72C98.2231 9.89333 97.8631 10.96 97.3031 11.92C96.7431 12.8533 96.0098 13.6 95.1031 14.16C94.1965 14.6933 93.1165 14.96 91.8631 14.96ZM107.658 37.32C106.858 37.32 106.245 37.1067 105.818 36.68C105.391 36.2267 105.178 35.5867 105.178 34.76V19.64C105.178 18.8133 105.391 18.1867 105.818 17.76C106.245 17.3333 106.845 17.12 107.618 17.12C108.391 17.12 108.991 17.3333 109.418 17.76C109.845 18.1867 110.058 18.8133 110.058 19.64V22.36L109.618 21.36C110.205 19.9467 111.111 18.88 112.338 18.16C113.591 17.4133 115.005 17.04 116.578 17.04C118.151 17.04 119.445 17.3333 120.458 17.92C121.471 18.5067 122.231 19.4 122.738 20.6C123.245 21.7733 123.498 23.2667 123.498 25.08V34.76C123.498 35.5867 123.285 36.2267 122.858 36.68C122.431 37.1067 121.818 37.32 121.018 37.32C120.218 37.32 119.591 37.1067 119.138 36.68C118.711 36.2267 118.498 35.5867 118.498 34.76V25.32C118.498 23.8 118.205 22.6933 117.618 22C117.058 21.3067 116.178 20.96 114.978 20.96C113.511 20.96 112.338 21.4267 111.458 22.36C110.605 23.2667 110.178 24.48 110.178 26V34.76C110.178 36.4667 109.338 37.32 107.658 37.32ZM137.697 44.6C136.257 44.6 134.857 44.4667 133.497 44.2C132.163 43.9333 130.95 43.52 129.857 42.96C129.35 42.6933 129.003 42.3733 128.817 42C128.657 41.6267 128.603 41.24 128.657 40.84C128.737 40.4667 128.897 40.1333 129.137 39.84C129.403 39.5467 129.723 39.3467 130.097 39.24C130.47 39.1333 130.857 39.1867 131.257 39.4C132.43 39.9867 133.537 40.36 134.577 40.52C135.643 40.7067 136.55 40.8 137.297 40.8C139.083 40.8 140.417 40.36 141.297 39.48C142.203 38.6267 142.657 37.3467 142.657 35.64V32.04H143.017C142.617 33.4 141.777 34.4933 140.497 35.32C139.243 36.12 137.817 36.52 136.217 36.52C134.457 36.52 132.923 36.12 131.617 35.32C130.31 34.4933 129.297 33.3467 128.577 31.88C127.857 30.4133 127.497 28.7067 127.497 26.76C127.497 25.2933 127.697 23.9733 128.097 22.8C128.523 21.6 129.11 20.5733 129.857 19.72C130.63 18.8667 131.55 18.2133 132.617 17.76C133.71 17.28 134.91 17.04 136.217 17.04C137.87 17.04 139.31 17.4533 140.537 18.28C141.79 19.08 142.603 20.1467 142.977 21.48L142.577 22.48V19.64C142.577 18.8133 142.79 18.1867 143.217 17.76C143.67 17.3333 144.283 17.12 145.057 17.12C145.857 17.12 146.47 17.3333 146.897 17.76C147.323 18.1867 147.537 18.8133 147.537 19.64V35.04C147.537 38.2133 146.697 40.6 145.017 42.2C143.337 43.8 140.897 44.6 137.697 44.6ZM137.577 32.72C138.617 32.72 139.51 32.48 140.257 32C141.003 31.52 141.577 30.84 141.977 29.96C142.403 29.0533 142.617 27.9867 142.617 26.76C142.617 24.92 142.163 23.48 141.257 22.44C140.35 21.3733 139.123 20.84 137.577 20.84C136.537 20.84 135.643 21.08 134.897 21.56C134.15 22.04 133.563 22.72 133.137 23.6C132.737 24.48 132.537 25.5333 132.537 26.76C132.537 28.6 132.99 30.0533 133.897 31.12C134.803 32.1867 136.03 32.72 137.577 32.72Z" fill="black"/>
<path d="M166.617 37.32C165.79 37.32 165.15 37.0933 164.697 36.64C164.27 36.16 164.057 35.5067 164.057 34.68V11.4C164.057 10.5467 164.283 9.90667 164.737 9.48C165.19 9.02667 165.83 8.8 166.657 8.8H176.297C179.39 8.8 181.777 9.54666 183.457 11.04C185.137 12.5067 185.977 14.5733 185.977 17.24C185.977 18.9733 185.59 20.4667 184.817 21.72C184.07 22.9733 182.977 23.9333 181.537 24.6C180.097 25.2667 178.35 25.6 176.297 25.6L176.657 25H177.977C179.07 25 180.017 25.2667 180.817 25.8C181.643 26.3333 182.363 27.1733 182.977 28.32L185.977 33.88C186.297 34.44 186.443 34.9867 186.417 35.52C186.39 36.0533 186.19 36.4933 185.817 36.84C185.443 37.16 184.897 37.32 184.177 37.32C183.457 37.32 182.87 37.1733 182.417 36.88C181.963 36.56 181.563 36.08 181.217 35.44L177.177 28C176.697 27.0933 176.123 26.4933 175.457 26.2C174.817 25.88 173.99 25.72 172.977 25.72H169.177V34.68C169.177 35.5067 168.963 36.16 168.537 36.64C168.11 37.0933 167.47 37.32 166.617 37.32ZM169.177 21.92H175.417C177.257 21.92 178.643 21.5467 179.577 20.8C180.537 20.0267 181.017 18.88 181.017 17.36C181.017 15.8667 180.537 14.7467 179.577 14C178.643 13.2267 177.257 12.84 175.417 12.84H169.177V21.92ZM200.131 37.4C197.917 37.4 196.011 36.9867 194.411 36.16C192.811 35.3333 191.571 34.16 190.691 32.64C189.837 31.12 189.411 29.32 189.411 27.24C189.411 25.2133 189.824 23.44 190.651 21.92C191.504 20.4 192.664 19.2133 194.131 18.36C195.624 17.48 197.317 17.04 199.211 17.04C200.597 17.04 201.837 17.2667 202.931 17.72C204.051 18.1733 204.997 18.8267 205.771 19.68C206.571 20.5333 207.171 21.5733 207.571 22.8C207.997 24 208.211 25.36 208.211 26.88C208.211 27.36 208.037 27.7333 207.691 28C207.371 28.24 206.904 28.36 206.291 28.36H193.451V25.48H204.691L204.051 26.08C204.051 24.8533 203.864 23.8267 203.491 23C203.144 22.1733 202.624 21.5467 201.931 21.12C201.264 20.6667 200.424 20.44 199.411 20.44C198.291 20.44 197.331 20.7067 196.531 21.24C195.757 21.7467 195.157 22.48 194.731 23.44C194.331 24.3733 194.131 25.4933 194.131 26.8V27.08C194.131 29.2667 194.637 30.9067 195.651 32C196.691 33.0667 198.211 33.6 200.211 33.6C200.904 33.6 201.677 33.52 202.531 33.36C203.411 33.1733 204.237 32.8667 205.011 32.44C205.571 32.12 206.064 31.9867 206.491 32.04C206.917 32.0667 207.251 32.2133 207.491 32.48C207.757 32.7467 207.917 33.08 207.971 33.48C208.024 33.8533 207.944 34.24 207.731 34.64C207.544 35.04 207.211 35.3867 206.731 35.68C205.797 36.2667 204.717 36.7067 203.491 37C202.291 37.2667 201.171 37.4 200.131 37.4ZM218.61 37.4C217.197 37.4 215.93 37.1333 214.81 36.6C213.717 36.04 212.85 35.2933 212.21 34.36C211.597 33.4267 211.29 32.3733 211.29 31.2C211.29 29.76 211.664 28.6267 212.41 27.8C213.157 26.9467 214.37 26.3333 216.05 25.96C217.73 25.5867 219.984 25.4 222.81 25.4H224.81V28.28H222.85C221.197 28.28 219.877 28.36 218.89 28.52C217.904 28.68 217.197 28.96 216.77 29.36C216.37 29.7333 216.17 30.2667 216.17 30.96C216.17 31.84 216.477 32.56 217.09 33.12C217.704 33.68 218.557 33.96 219.65 33.96C220.53 33.96 221.304 33.76 221.97 33.36C222.664 32.9333 223.21 32.36 223.61 31.64C224.01 30.92 224.21 30.0933 224.21 29.16V24.56C224.21 23.2267 223.917 22.2667 223.33 21.68C222.744 21.0933 221.757 20.8 220.37 20.8C219.597 20.8 218.757 20.8933 217.85 21.08C216.97 21.2667 216.037 21.5867 215.05 22.04C214.544 22.28 214.09 22.3467 213.69 22.24C213.317 22.1333 213.024 21.92 212.81 21.6C212.597 21.2533 212.49 20.88 212.49 20.48C212.49 20.08 212.597 19.6933 212.81 19.32C213.024 18.92 213.384 18.6267 213.89 18.44C215.117 17.9333 216.29 17.5733 217.41 17.36C218.557 17.1467 219.597 17.04 220.53 17.04C222.45 17.04 224.024 17.3333 225.25 17.92C226.504 18.5067 227.437 19.4 228.05 20.6C228.664 21.7733 228.97 23.2933 228.97 25.16V34.76C228.97 35.5867 228.77 36.2267 228.37 36.68C227.97 37.1067 227.397 37.32 226.65 37.32C225.904 37.32 225.317 37.1067 224.89 36.68C224.49 36.2267 224.29 35.5867 224.29 34.76V32.84H224.61C224.424 33.7733 224.05 34.5867 223.49 35.28C222.957 35.9467 222.277 36.4667 221.45 36.84C220.624 37.2133 219.677 37.4 218.61 37.4ZM241.565 37.4C239.859 37.4 238.352 36.9867 237.045 36.16C235.765 35.3333 234.765 34.16 234.045 32.64C233.325 31.0933 232.965 29.28 232.965 27.2C232.965 25.0933 233.325 23.2933 234.045 21.8C234.765 20.28 235.765 19.1067 237.045 18.28C238.352 17.4533 239.859 17.04 241.565 17.04C243.192 17.04 244.605 17.44 245.805 18.24C247.032 19.04 247.859 20.0933 248.285 21.4H247.845V11C247.845 10.1733 248.059 9.54666 248.485 9.12C248.912 8.69333 249.525 8.48 250.325 8.48C251.125 8.48 251.739 8.69333 252.165 9.12C252.619 9.54666 252.845 10.1733 252.845 11V34.76C252.845 35.5867 252.632 36.2267 252.205 36.68C251.779 37.1067 251.165 37.32 250.365 37.32C249.565 37.32 248.952 37.1067 248.525 36.68C248.099 36.2267 247.885 35.5867 247.885 34.76V31.64L248.325 32.84C247.925 34.2267 247.112 35.3333 245.885 36.16C244.659 36.9867 243.219 37.4 241.565 37.4ZM242.965 33.6C243.952 33.6 244.819 33.36 245.565 32.88C246.312 32.4 246.885 31.6933 247.285 30.76C247.712 29.8 247.925 28.6133 247.925 27.2C247.925 25.0667 247.472 23.48 246.565 22.44C245.659 21.3733 244.459 20.84 242.965 20.84C241.979 20.84 241.112 21.08 240.365 21.56C239.619 22.0133 239.032 22.72 238.605 23.68C238.205 24.6133 238.005 25.7867 238.005 27.2C238.005 29.3067 238.459 30.9067 239.365 32C240.272 33.0667 241.472 33.6 242.965 33.6ZM260.51 37.28C259.71 37.28 259.096 37.04 258.67 36.56C258.243 36.08 258.03 35.4133 258.03 34.56V19.88C258.03 19 258.243 18.3333 258.67 17.88C259.096 17.4 259.71 17.16 260.51 17.16C261.31 17.16 261.923 17.4 262.35 17.88C262.803 18.3333 263.03 19 263.03 19.88V34.56C263.03 35.4133 262.816 36.08 262.39 36.56C261.963 37.04 261.336 37.28 260.51 37.28ZM260.51 13.44C259.576 13.44 258.843 13.2133 258.31 12.76C257.803 12.28 257.55 11.6267 257.55 10.8C257.55 9.94667 257.803 9.29333 258.31 8.84C258.843 8.38667 259.576 8.16 260.51 8.16C261.47 8.16 262.203 8.38667 262.71 8.84C263.216 9.29333 263.47 9.94667 263.47 10.8C263.47 11.6267 263.216 12.28 262.71 12.76C262.203 13.2133 261.47 13.44 260.51 13.44ZM270.705 37.32C269.905 37.32 269.292 37.1067 268.865 36.68C268.438 36.2267 268.225 35.5867 268.225 34.76V19.64C268.225 18.8133 268.438 18.1867 268.865 17.76C269.292 17.3333 269.892 17.12 270.665 17.12C271.438 17.12 272.038 17.3333 272.465 17.76C272.892 18.1867 273.105 18.8133 273.105 19.64V22.36L272.665 21.36C273.252 19.9467 274.158 18.88 275.385 18.16C276.638 17.4133 278.052 17.04 279.625 17.04C281.198 17.04 282.492 17.3333 283.505 17.92C284.518 18.5067 285.278 19.4 285.785 20.6C286.292 21.7733 286.545 23.2667 286.545 25.08V34.76C286.545 35.5867 286.332 36.2267 285.905 36.68C285.478 37.1067 284.865 37.32 284.065 37.32C283.265 37.32 282.638 37.1067 282.185 36.68C281.758 36.2267 281.545 35.5867 281.545 34.76V25.32C281.545 23.8 281.252 22.6933 280.665 22C280.105 21.3067 279.225 20.96 278.025 20.96C276.558 20.96 275.385 21.4267 274.505 22.36C273.652 23.2667 273.225 24.48 273.225 26V34.76C273.225 36.4667 272.385 37.32 270.705 37.32ZM300.743 44.6C299.303 44.6 297.903 44.4667 296.543 44.2C295.21 43.9333 293.997 43.52 292.903 42.96C292.397 42.6933 292.05 42.3733 291.863 42C291.703 41.6267 291.65 41.24 291.703 40.84C291.783 40.4667 291.943 40.1333 292.183 39.84C292.45 39.5467 292.77 39.3467 293.143 39.24C293.517 39.1333 293.903 39.1867 294.303 39.4C295.477 39.9867 296.583 40.36 297.623 40.52C298.69 40.7067 299.597 40.8 300.343 40.8C302.13 40.8 303.463 40.36 304.343 39.48C305.25 38.6267 305.703 37.3467 305.703 35.64V32.04H306.063C305.663 33.4 304.823 34.4933 303.543 35.32C302.29 36.12 300.863 36.52 299.263 36.52C297.503 36.52 295.97 36.12 294.663 35.32C293.357 34.4933 292.343 33.3467 291.623 31.88C290.903 30.4133 290.543 28.7067 290.543 26.76C290.543 25.2933 290.743 23.9733 291.143 22.8C291.57 21.6 292.157 20.5733 292.903 19.72C293.677 18.8667 294.597 18.2133 295.663 17.76C296.757 17.28 297.957 17.04 299.263 17.04C300.917 17.04 302.357 17.4533 303.583 18.28C304.837 19.08 305.65 20.1467 306.023 21.48L305.623 22.48V19.64C305.623 18.8133 305.837 18.1867 306.263 17.76C306.717 17.3333 307.33 17.12 308.103 17.12C308.903 17.12 309.517 17.3333 309.943 17.76C310.37 18.1867 310.583 18.8133 310.583 19.64V35.04C310.583 38.2133 309.743 40.6 308.063 42.2C306.383 43.8 303.943 44.6 300.743 44.6ZM300.623 32.72C301.663 32.72 302.557 32.48 303.303 32C304.05 31.52 304.623 30.84 305.023 29.96C305.45 29.0533 305.663 27.9867 305.663 26.76C305.663 24.92 305.21 23.48 304.303 22.44C303.397 21.3733 302.17 20.84 300.623 20.84C299.583 20.84 298.69 21.08 297.943 21.56C297.197 22.04 296.61 22.72 296.183 23.6C295.783 24.48 295.583 25.5333 295.583 26.76C295.583 28.6 296.037 30.0533 296.943 31.12C297.85 32.1867 299.077 32.72 300.623 32.72Z" fill="#FFF8F2"/>
</svg>
