<svg width="561" height="54" viewBox="0 0 561 54" fill="none" xmlns="http://www.w3.org/2000/svg">
<path d="M360.065 52.8554C359.778 52.9096 359.501 52.9548 359.215 53C340.19 52.7379 324.789 52.25 314.293 51.8524C303.885 51.4638 297.604 51.1204 264.995 49.6927C257.782 49.3764 250.57 49.0601 243.357 48.7438C226.328 47.9938 213.263 47.8944 205.424 47.7679C198.283 47.6504 194.713 47.5962 193.03 47.6323C185.335 47.795 181.335 48.3462 174.033 47.7589C171.258 47.5329 169.057 47.3613 167.76 47.0359C155.679 44.0087 152.878 10.6642 152.279 2.11573C152.046 1.5645 151.849 0.868698 152.162 0.425911C152.565 -0.13435 153.594 0.019268 153.862 0.019268C170.686 0.0734863 187.518 0.0463791 204.341 0.0554161C211.42 0.0644531 218.489 0.109634 225.558 0.136745C241.326 0.0915604 257.093 0.0644531 272.861 0.0554161C297.97 0.0373421 323.08 0.0554161 348.181 0.109634C348.458 0.462059 348.825 0.959061 349.201 1.59161C350.284 3.38083 350.704 4.95317 350.839 5.44114C352.861 12.7065 357.461 24.987 360.27 43.4214C360.745 46.5299 361.747 49.7559 360.056 52.8554H360.065ZM347.34 37.5567C347.143 37.8007 346.892 37.9543 346.561 37.9543H347.34V37.5567Z" fill="#00C7BE"/>
<path d="M5.64 37.32C4.81333 37.32 4.17333 37.0933 3.72 36.64C3.29333 36.16 3.08 35.5067 3.08 34.68V11.08C3.08 10.2267 3.29333 9.58667 3.72 9.16C4.17333 8.70666 4.81333 8.48 5.64 8.48C6.46667 8.48 7.09333 8.70666 7.52 9.16C7.97333 9.58667 8.2 10.2267 8.2 11.08V21.28H8.28L19.76 9.76C20.1867 9.33333 20.6133 9.01333 21.04 8.8C21.4667 8.58666 21.9467 8.48 22.48 8.48C23.2533 8.48 23.8 8.68 24.12 9.08C24.4667 9.48 24.6 9.94667 24.52 10.48C24.4667 11.0133 24.2133 11.5067 23.76 11.96L12.08 23.52L12.12 21.2L24.32 33.6C24.88 34.1333 25.1733 34.6933 25.2 35.28C25.2267 35.8667 25.04 36.36 24.64 36.76C24.2667 37.1333 23.7067 37.32 22.96 37.32C22.32 37.32 21.8 37.1867 21.4 36.92C21.0267 36.6533 20.5867 36.2667 20.08 35.76L8.28 23.96H8.2V34.68C8.2 35.5067 7.98667 36.16 7.56 36.64C7.13333 37.0933 6.49333 37.32 5.64 37.32ZM32.9506 44.52C32.364 44.52 31.884 44.36 31.5106 44.04C31.1373 43.7467 30.9106 43.3467 30.8306 42.84C30.7773 42.3333 30.8706 41.8 31.1106 41.24L33.8306 35.2V37.28L26.5506 20.44C26.3106 19.8533 26.2306 19.3067 26.3106 18.8C26.3906 18.2933 26.6306 17.8933 27.0306 17.6C27.4573 17.28 28.0306 17.12 28.7506 17.12C29.364 17.12 29.8573 17.2667 30.2306 17.56C30.604 17.8267 30.9373 18.3467 31.2306 19.12L36.6306 32.6H35.4306L40.9506 19.08C41.244 18.3333 41.5906 17.8267 41.9906 17.56C42.3906 17.2667 42.924 17.12 43.5906 17.12C44.1773 17.12 44.644 17.28 44.9906 17.6C45.3373 17.8933 45.5506 18.2933 45.6306 18.8C45.7106 19.28 45.6173 19.8133 45.3506 20.4L35.6306 42.6C35.284 43.3467 34.9106 43.8533 34.5106 44.12C34.1106 44.3867 33.5906 44.52 32.9506 44.52ZM29.4306 13.76C29.0306 13.7333 28.724 13.6 28.5106 13.36C28.2973 13.12 28.244 12.7467 28.3506 12.24C28.4573 11.68 28.6173 11.1333 28.8306 10.6C29.0706 10.04 29.3773 9.53333 29.7506 9.08C30.124 8.62667 30.5773 8.26667 31.1106 8C31.644 7.70666 32.2706 7.56 32.9906 7.56C33.6573 7.56 34.244 7.69333 34.7506 7.96C35.2573 8.22667 35.724 8.53333 36.1506 8.88C36.5773 9.22667 37.004 9.53333 37.4306 9.8C37.8573 10.0667 38.324 10.2 38.8306 10.2C39.3906 10.2 39.8706 10.0133 40.2706 9.64C40.6973 9.24 40.964 8.74666 41.0706 8.16C41.124 7.86667 41.2573 7.64 41.4706 7.48C41.7106 7.32 42.044 7.25333 42.4706 7.28C42.8706 7.30667 43.1773 7.44 43.3906 7.68C43.604 7.92 43.6573 8.29333 43.5506 8.8C43.4173 9.52 43.164 10.24 42.7906 10.96C42.4173 11.68 41.9106 12.28 41.2706 12.76C40.6573 13.24 39.8706 13.48 38.9106 13.48C38.244 13.48 37.6573 13.3467 37.1506 13.08C36.644 12.8133 36.164 12.5067 35.7106 12.16C35.284 11.8133 34.8573 11.5067 34.4306 11.24C34.004 10.9733 33.5506 10.84 33.0706 10.84C32.5106 10.84 32.0306 11.0267 31.6306 11.4C31.2306 11.7733 30.964 12.2667 30.8306 12.88C30.7773 13.1733 30.6306 13.4 30.3906 13.56C30.1773 13.72 29.8573 13.7867 29.4306 13.76ZM62.3847 37.32C61.5847 37.32 60.9714 37.1067 60.5447 36.68C60.118 36.2267 59.9047 35.5867 59.9047 34.76V19.64C59.9047 18.8133 60.118 18.1867 60.5447 17.76C60.9714 17.3333 61.5714 17.12 62.3447 17.12C63.118 17.12 63.718 17.3333 64.1447 17.76C64.5714 18.1867 64.7847 18.8133 64.7847 19.64V22.36L64.3447 21.36C64.9314 19.9467 65.838 18.88 67.0647 18.16C68.318 17.4133 69.7314 17.04 71.3047 17.04C72.878 17.04 74.1714 17.3333 75.1847 17.92C76.198 18.5067 76.958 19.4 77.4647 20.6C77.9714 21.7733 78.2247 23.2667 78.2247 25.08V34.76C78.2247 35.5867 78.0114 36.2267 77.5847 36.68C77.158 37.1067 76.5447 37.32 75.7447 37.32C74.9447 37.32 74.318 37.1067 73.8647 36.68C73.438 36.2267 73.2247 35.5867 73.2247 34.76V25.32C73.2247 23.8 72.9314 22.6933 72.3447 22C71.7847 21.3067 70.9047 20.96 69.7047 20.96C68.238 20.96 67.0647 21.4267 66.1847 22.36C65.3314 23.2667 64.9047 24.48 64.9047 26V34.76C64.9047 36.4667 64.0647 37.32 62.3847 37.32ZM89.7431 37.4C88.3298 37.4 87.0631 37.1333 85.9431 36.6C84.8498 36.04 83.9831 35.2933 83.3431 34.36C82.7298 33.4267 82.4231 32.3733 82.4231 31.2C82.4231 29.76 82.7965 28.6267 83.5431 27.8C84.2898 26.9467 85.5031 26.3333 87.1831 25.96C88.8631 25.5867 91.1165 25.4 93.9431 25.4H95.9431V28.28H93.9831C92.3298 28.28 91.0098 28.36 90.0231 28.52C89.0365 28.68 88.3298 28.96 87.9031 29.36C87.5031 29.7333 87.3031 30.2667 87.3031 30.96C87.3031 31.84 87.6098 32.56 88.2231 33.12C88.8365 33.68 89.6898 33.96 90.7831 33.96C91.6631 33.96 92.4365 33.76 93.1031 33.36C93.7965 32.9333 94.3431 32.36 94.7431 31.64C95.1431 30.92 95.3431 30.0933 95.3431 29.16V24.56C95.3431 23.2267 95.0498 22.2667 94.4631 21.68C93.8765 21.0933 92.8898 20.8 91.5031 20.8C90.7298 20.8 89.8898 20.8933 88.9831 21.08C88.1031 21.2667 87.1698 21.5867 86.1831 22.04C85.6765 22.28 85.2231 22.3467 84.8231 22.24C84.4498 22.1333 84.1565 21.92 83.9431 21.6C83.7298 21.2533 83.6231 20.88 83.6231 20.48C83.6231 20.08 83.7298 19.6933 83.9431 19.32C84.1565 18.92 84.5165 18.6267 85.0231 18.44C86.2498 17.9333 87.4231 17.5733 88.5431 17.36C89.6898 17.1467 90.7298 17.04 91.6631 17.04C93.5831 17.04 95.1565 17.3333 96.3831 17.92C97.6365 18.5067 98.5698 19.4 99.1831 20.6C99.7965 21.7733 100.103 23.2933 100.103 25.16V34.76C100.103 35.5867 99.9031 36.2267 99.5031 36.68C99.1031 37.1067 98.5298 37.32 97.7831 37.32C97.0365 37.32 96.4498 37.1067 96.0231 36.68C95.6231 36.2267 95.4231 35.5867 95.4231 34.76V32.84H95.7431C95.5565 33.7733 95.1831 34.5867 94.6231 35.28C94.0898 35.9467 93.4098 36.4667 92.5831 36.84C91.7565 37.2133 90.8098 37.4 89.7431 37.4ZM91.8631 14.96C90.6098 14.96 89.5298 14.6933 88.6231 14.16C87.7165 13.6 86.9831 12.8533 86.4231 11.92C85.8898 10.96 85.5298 9.89333 85.3431 8.72C85.2631 8.18666 85.3431 7.76 85.5831 7.44C85.8498 7.09333 86.1965 6.90667 86.6231 6.88C87.0765 6.85333 87.4365 6.96 87.7031 7.2C87.9965 7.44 88.1831 7.81333 88.2631 8.32C88.4765 9.52 88.9031 10.4267 89.5431 11.04C90.1831 11.6267 90.9565 11.92 91.8631 11.92C92.7698 11.92 93.5431 11.6267 94.1831 11.04C94.8498 10.4267 95.2765 9.52 95.4631 8.32C95.5431 7.81333 95.7298 7.44 96.0231 7.2C96.3165 6.96 96.6765 6.85333 97.1031 6.88C97.5565 6.90667 97.9031 7.09333 98.1431 7.44C98.3831 7.76 98.4631 8.18666 98.3831 8.72C98.2231 9.89333 97.8631 10.96 97.3031 11.92C96.7431 12.8533 96.0098 13.6 95.1031 14.16C94.1965 14.6933 93.1165 14.96 91.8631 14.96ZM107.658 37.32C106.858 37.32 106.245 37.1067 105.818 36.68C105.391 36.2267 105.178 35.5867 105.178 34.76V19.64C105.178 18.8133 105.391 18.1867 105.818 17.76C106.245 17.3333 106.845 17.12 107.618 17.12C108.391 17.12 108.991 17.3333 109.418 17.76C109.845 18.1867 110.058 18.8133 110.058 19.64V22.36L109.618 21.36C110.205 19.9467 111.111 18.88 112.338 18.16C113.591 17.4133 115.005 17.04 116.578 17.04C118.151 17.04 119.445 17.3333 120.458 17.92C121.471 18.5067 122.231 19.4 122.738 20.6C123.245 21.7733 123.498 23.2667 123.498 25.08V34.76C123.498 35.5867 123.285 36.2267 122.858 36.68C122.431 37.1067 121.818 37.32 121.018 37.32C120.218 37.32 119.591 37.1067 119.138 36.68C118.711 36.2267 118.498 35.5867 118.498 34.76V25.32C118.498 23.8 118.205 22.6933 117.618 22C117.058 21.3067 116.178 20.96 114.978 20.96C113.511 20.96 112.338 21.4267 111.458 22.36C110.605 23.2667 110.178 24.48 110.178 26V34.76C110.178 36.4667 109.338 37.32 107.658 37.32ZM137.697 44.6C136.257 44.6 134.857 44.4667 133.497 44.2C132.163 43.9333 130.95 43.52 129.857 42.96C129.35 42.6933 129.003 42.3733 128.817 42C128.657 41.6267 128.603 41.24 128.657 40.84C128.737 40.4667 128.897 40.1333 129.137 39.84C129.403 39.5467 129.723 39.3467 130.097 39.24C130.47 39.1333 130.857 39.1867 131.257 39.4C132.43 39.9867 133.537 40.36 134.577 40.52C135.643 40.7067 136.55 40.8 137.297 40.8C139.083 40.8 140.417 40.36 141.297 39.48C142.203 38.6267 142.657 37.3467 142.657 35.64V32.04H143.017C142.617 33.4 141.777 34.4933 140.497 35.32C139.243 36.12 137.817 36.52 136.217 36.52C134.457 36.52 132.923 36.12 131.617 35.32C130.31 34.4933 129.297 33.3467 128.577 31.88C127.857 30.4133 127.497 28.7067 127.497 26.76C127.497 25.2933 127.697 23.9733 128.097 22.8C128.523 21.6 129.11 20.5733 129.857 19.72C130.63 18.8667 131.55 18.2133 132.617 17.76C133.71 17.28 134.91 17.04 136.217 17.04C137.87 17.04 139.31 17.4533 140.537 18.28C141.79 19.08 142.603 20.1467 142.977 21.48L142.577 22.48V19.64C142.577 18.8133 142.79 18.1867 143.217 17.76C143.67 17.3333 144.283 17.12 145.057 17.12C145.857 17.12 146.47 17.3333 146.897 17.76C147.323 18.1867 147.537 18.8133 147.537 19.64V35.04C147.537 38.2133 146.697 40.6 145.017 42.2C143.337 43.8 140.897 44.6 137.697 44.6ZM137.577 32.72C138.617 32.72 139.51 32.48 140.257 32C141.003 31.52 141.577 30.84 141.977 29.96C142.403 29.0533 142.617 27.9867 142.617 26.76C142.617 24.92 142.163 23.48 141.257 22.44C140.35 21.3733 139.123 20.84 137.577 20.84C136.537 20.84 135.643 21.08 134.897 21.56C134.15 22.04 133.563 22.72 133.137 23.6C132.737 24.48 132.537 25.5333 132.537 26.76C132.537 28.6 132.99 30.0533 133.897 31.12C134.803 32.1867 136.03 32.72 137.577 32.72Z" fill="black"/>
<path d="M173.777 37.4C172.603 37.4 171.43 37.3067 170.257 37.12C169.083 36.96 167.977 36.7067 166.937 36.36C165.897 35.9867 164.963 35.5333 164.137 35C163.657 34.68 163.323 34.2933 163.137 33.84C162.95 33.3867 162.883 32.9467 162.937 32.52C163.017 32.0667 163.19 31.68 163.457 31.36C163.75 31.0133 164.11 30.8 164.537 30.72C164.963 30.64 165.43 30.76 165.937 31.08C167.11 31.7733 168.35 32.28 169.657 32.6C170.963 32.92 172.337 33.08 173.777 33.08C175.883 33.08 177.417 32.7333 178.377 32.04C179.337 31.32 179.817 30.4 179.817 29.28C179.817 28.3467 179.47 27.6133 178.777 27.08C178.11 26.5467 176.95 26.1067 175.297 25.76L170.897 24.84C168.363 24.3067 166.47 23.4133 165.217 22.16C163.99 20.88 163.377 19.2 163.377 17.12C163.377 15.8133 163.643 14.6267 164.177 13.56C164.71 12.4933 165.457 11.5733 166.417 10.8C167.403 10.0267 168.563 9.44 169.897 9.04C171.257 8.61333 172.75 8.4 174.377 8.4C175.977 8.4 177.497 8.6 178.937 9C180.377 9.4 181.67 9.98666 182.817 10.76C183.243 11.0533 183.523 11.4133 183.657 11.84C183.817 12.2667 183.857 12.6933 183.777 13.12C183.697 13.52 183.51 13.8667 183.217 14.16C182.923 14.4533 182.55 14.6267 182.097 14.68C181.67 14.7333 181.177 14.6 180.617 14.28C179.63 13.72 178.63 13.32 177.617 13.08C176.603 12.84 175.51 12.72 174.337 12.72C173.11 12.72 172.057 12.8933 171.177 13.24C170.297 13.5867 169.617 14.08 169.137 14.72C168.683 15.3333 168.457 16.0667 168.457 16.92C168.457 17.88 168.777 18.6533 169.417 19.24C170.057 19.8 171.15 20.24 172.697 20.56L177.057 21.48C179.697 22.04 181.657 22.92 182.937 24.12C184.243 25.32 184.897 26.92 184.897 28.92C184.897 30.2 184.63 31.36 184.097 32.4C183.59 33.44 182.843 34.3333 181.857 35.08C180.897 35.8267 179.737 36.4 178.377 36.8C177.017 37.2 175.483 37.4 173.777 37.4ZM191.291 44.52C190.491 44.52 189.878 44.3067 189.451 43.88C189.024 43.4533 188.811 42.8267 188.811 42V19.64C188.811 18.8133 189.024 18.1867 189.451 17.76C189.878 17.3333 190.478 17.12 191.251 17.12C192.051 17.12 192.664 17.3333 193.091 17.76C193.518 18.1867 193.731 18.8133 193.731 19.64V22.76L193.291 21.56C193.691 20.2 194.504 19.1067 195.731 18.28C196.984 17.4533 198.438 17.04 200.091 17.04C201.798 17.04 203.291 17.4533 204.571 18.28C205.878 19.1067 206.891 20.28 207.611 21.8C208.331 23.2933 208.691 25.0933 208.691 27.2C208.691 29.28 208.331 31.0933 207.611 32.64C206.891 34.16 205.891 35.3333 204.611 36.16C203.331 36.9867 201.824 37.4 200.091 37.4C198.464 37.4 197.038 37 195.811 36.2C194.584 35.3733 193.758 34.3067 193.331 33H193.811V42C193.811 42.8267 193.584 43.4533 193.131 43.88C192.704 44.3067 192.091 44.52 191.291 44.52ZM198.691 33.6C199.678 33.6 200.544 33.36 201.291 32.88C202.038 32.4 202.611 31.6933 203.011 30.76C203.438 29.8 203.651 28.6133 203.651 27.2C203.651 25.0667 203.198 23.48 202.291 22.44C201.384 21.3733 200.184 20.84 198.691 20.84C197.704 20.84 196.838 21.08 196.091 21.56C195.344 22.0133 194.758 22.72 194.331 23.68C193.931 24.6133 193.731 25.7867 193.731 27.2C193.731 29.3067 194.184 30.9067 195.091 32C195.998 33.0667 197.198 33.6 198.691 33.6ZM222.435 37.4C220.222 37.4 218.315 36.9867 216.715 36.16C215.115 35.3333 213.875 34.16 212.995 32.64C212.142 31.12 211.715 29.32 211.715 27.24C211.715 25.2133 212.129 23.44 212.955 21.92C213.809 20.4 214.969 19.2133 216.435 18.36C217.929 17.48 219.622 17.04 221.515 17.04C222.902 17.04 224.142 17.2667 225.235 17.72C226.355 18.1733 227.302 18.8267 228.075 19.68C228.875 20.5333 229.475 21.5733 229.875 22.8C230.302 24 230.515 25.36 230.515 26.88C230.515 27.36 230.342 27.7333 229.995 28C229.675 28.24 229.209 28.36 228.595 28.36H215.755V25.48H226.995L226.355 26.08C226.355 24.8533 226.169 23.8267 225.795 23C225.449 22.1733 224.929 21.5467 224.235 21.12C223.569 20.6667 222.729 20.44 221.715 20.44C220.595 20.44 219.635 20.7067 218.835 21.24C218.062 21.7467 217.462 22.48 217.035 23.44C216.635 24.3733 216.435 25.4933 216.435 26.8V27.08C216.435 29.2667 216.942 30.9067 217.955 32C218.995 33.0667 220.515 33.6 222.515 33.6C223.209 33.6 223.982 33.52 224.835 33.36C225.715 33.1733 226.542 32.8667 227.315 32.44C227.875 32.12 228.369 31.9867 228.795 32.04C229.222 32.0667 229.555 32.2133 229.795 32.48C230.062 32.7467 230.222 33.08 230.275 33.48C230.329 33.8533 230.249 34.24 230.035 34.64C229.849 35.04 229.515 35.3867 229.035 35.68C228.102 36.2667 227.022 36.7067 225.795 37C224.595 37.2667 223.475 37.4 222.435 37.4ZM240.915 37.4C239.502 37.4 238.235 37.1333 237.115 36.6C236.022 36.04 235.155 35.2933 234.515 34.36C233.902 33.4267 233.595 32.3733 233.595 31.2C233.595 29.76 233.968 28.6267 234.715 27.8C235.462 26.9467 236.675 26.3333 238.355 25.96C240.035 25.5867 242.288 25.4 245.115 25.4H247.115V28.28H245.155C243.502 28.28 242.182 28.36 241.195 28.52C240.208 28.68 239.502 28.96 239.075 29.36C238.675 29.7333 238.475 30.2667 238.475 30.96C238.475 31.84 238.782 32.56 239.395 33.12C240.008 33.68 240.862 33.96 241.955 33.96C242.835 33.96 243.608 33.76 244.275 33.36C244.968 32.9333 245.515 32.36 245.915 31.64C246.315 30.92 246.515 30.0933 246.515 29.16V24.56C246.515 23.2267 246.222 22.2667 245.635 21.68C245.048 21.0933 244.062 20.8 242.675 20.8C241.902 20.8 241.062 20.8933 240.155 21.08C239.275 21.2667 238.342 21.5867 237.355 22.04C236.848 22.28 236.395 22.3467 235.995 22.24C235.622 22.1333 235.328 21.92 235.115 21.6C234.902 21.2533 234.795 20.88 234.795 20.48C234.795 20.08 234.902 19.6933 235.115 19.32C235.328 18.92 235.688 18.6267 236.195 18.44C237.422 17.9333 238.595 17.5733 239.715 17.36C240.862 17.1467 241.902 17.04 242.835 17.04C244.755 17.04 246.328 17.3333 247.555 17.92C248.808 18.5067 249.742 19.4 250.355 20.6C250.968 21.7733 251.275 23.2933 251.275 25.16V34.76C251.275 35.5867 251.075 36.2267 250.675 36.68C250.275 37.1067 249.702 37.32 248.955 37.32C248.208 37.32 247.622 37.1067 247.195 36.68C246.795 36.2267 246.595 35.5867 246.595 34.76V32.84H246.915C246.728 33.7733 246.355 34.5867 245.795 35.28C245.262 35.9467 244.582 36.4667 243.755 36.84C242.928 37.2133 241.982 37.4 240.915 37.4ZM258.83 37.32C258.03 37.32 257.417 37.1067 256.99 36.68C256.563 36.2267 256.35 35.5867 256.35 34.76V11C256.35 10.1733 256.563 9.54666 256.99 9.12C257.417 8.69333 258.03 8.48 258.83 8.48C259.63 8.48 260.243 8.69333 260.67 9.12C261.123 9.54666 261.35 10.1733 261.35 11V25.76H261.43L268.03 18.8C268.563 18.2667 269.03 17.8533 269.43 17.56C269.83 17.2667 270.377 17.12 271.07 17.12C271.763 17.12 272.283 17.3067 272.63 17.68C273.003 18.0267 273.19 18.4533 273.19 18.96C273.19 19.4667 272.95 19.9733 272.47 20.48L265.51 27.84V25.76L273.15 34C273.63 34.5067 273.843 35.0267 273.79 35.56C273.763 36.0667 273.55 36.4933 273.15 36.84C272.75 37.16 272.243 37.32 271.63 37.32C270.883 37.32 270.283 37.1733 269.83 36.88C269.403 36.5867 268.923 36.1467 268.39 35.56L261.43 28.28H261.35V34.76C261.35 36.4667 260.51 37.32 258.83 37.32ZM280.275 37.28C279.475 37.28 278.862 37.04 278.435 36.56C278.009 36.08 277.795 35.4133 277.795 34.56V19.88C277.795 19 278.009 18.3333 278.435 17.88C278.862 17.4 279.475 17.16 280.275 17.16C281.075 17.16 281.689 17.4 282.115 17.88C282.569 18.3333 282.795 19 282.795 19.88V34.56C282.795 35.4133 282.582 36.08 282.155 36.56C281.729 37.04 281.102 37.28 280.275 37.28ZM280.275 13.44C279.342 13.44 278.609 13.2133 278.075 12.76C277.569 12.28 277.315 11.6267 277.315 10.8C277.315 9.94667 277.569 9.29333 278.075 8.84C278.609 8.38667 279.342 8.16 280.275 8.16C281.235 8.16 281.969 8.38667 282.475 8.84C282.982 9.29333 283.235 9.94667 283.235 10.8C283.235 11.6267 282.982 12.28 282.475 12.76C281.969 13.2133 281.235 13.44 280.275 13.44ZM290.471 37.32C289.671 37.32 289.057 37.1067 288.631 36.68C288.204 36.2267 287.991 35.5867 287.991 34.76V19.64C287.991 18.8133 288.204 18.1867 288.631 17.76C289.057 17.3333 289.657 17.12 290.431 17.12C291.204 17.12 291.804 17.3333 292.231 17.76C292.657 18.1867 292.871 18.8133 292.871 19.64V22.36L292.431 21.36C293.017 19.9467 293.924 18.88 295.151 18.16C296.404 17.4133 297.817 17.04 299.391 17.04C300.964 17.04 302.257 17.3333 303.271 17.92C304.284 18.5067 305.044 19.4 305.551 20.6C306.057 21.7733 306.311 23.2667 306.311 25.08V34.76C306.311 35.5867 306.097 36.2267 305.671 36.68C305.244 37.1067 304.631 37.32 303.831 37.32C303.031 37.32 302.404 37.1067 301.951 36.68C301.524 36.2267 301.311 35.5867 301.311 34.76V25.32C301.311 23.8 301.017 22.6933 300.431 22C299.871 21.3067 298.991 20.96 297.791 20.96C296.324 20.96 295.151 21.4267 294.271 22.36C293.417 23.2667 292.991 24.48 292.991 26V34.76C292.991 36.4667 292.151 37.32 290.471 37.32ZM320.509 44.6C319.069 44.6 317.669 44.4667 316.309 44.2C314.976 43.9333 313.762 43.52 312.669 42.96C312.162 42.6933 311.816 42.3733 311.629 42C311.469 41.6267 311.416 41.24 311.469 40.84C311.549 40.4667 311.709 40.1333 311.949 39.84C312.216 39.5467 312.536 39.3467 312.909 39.24C313.282 39.1333 313.669 39.1867 314.069 39.4C315.242 39.9867 316.349 40.36 317.389 40.52C318.456 40.7067 319.362 40.8 320.109 40.8C321.896 40.8 323.229 40.36 324.109 39.48C325.016 38.6267 325.469 37.3467 325.469 35.64V32.04H325.829C325.429 33.4 324.589 34.4933 323.309 35.32C322.056 36.12 320.629 36.52 319.029 36.52C317.269 36.52 315.736 36.12 314.429 35.32C313.122 34.4933 312.109 33.3467 311.389 31.88C310.669 30.4133 310.309 28.7067 310.309 26.76C310.309 25.2933 310.509 23.9733 310.909 22.8C311.336 21.6 311.922 20.5733 312.669 19.72C313.442 18.8667 314.362 18.2133 315.429 17.76C316.522 17.28 317.722 17.04 319.029 17.04C320.682 17.04 322.122 17.4533 323.349 18.28C324.602 19.08 325.416 20.1467 325.789 21.48L325.389 22.48V19.64C325.389 18.8133 325.602 18.1867 326.029 17.76C326.482 17.3333 327.096 17.12 327.869 17.12C328.669 17.12 329.282 17.3333 329.709 17.76C330.136 18.1867 330.349 18.8133 330.349 19.64V35.04C330.349 38.2133 329.509 40.6 327.829 42.2C326.149 43.8 323.709 44.6 320.509 44.6ZM320.389 32.72C321.429 32.72 322.322 32.48 323.069 32C323.816 31.52 324.389 30.84 324.789 29.96C325.216 29.0533 325.429 27.9867 325.429 26.76C325.429 24.92 324.976 23.48 324.069 22.44C323.162 21.3733 321.936 20.84 320.389 20.84C319.349 20.84 318.456 21.08 317.709 21.56C316.962 22.04 316.376 22.72 315.949 23.6C315.549 24.48 315.349 25.5333 315.349 26.76C315.349 28.6 315.802 30.0533 316.709 31.12C317.616 32.1867 318.842 32.72 320.389 32.72Z" fill="white"/>
</svg>
