<svg width="561" height="54" viewBox="0 0 561 54" fill="none" xmlns="http://www.w3.org/2000/svg">
<path d="M317.257 52.8554C317.03 52.9096 316.809 52.9548 316.582 53C301.471 52.7379 289.239 52.25 280.902 51.8524C272.636 51.4638 267.647 51.1204 241.747 49.6927C236.019 49.3764 230.29 49.0601 224.561 48.7438C211.036 47.9938 200.659 47.8944 194.433 47.7679C188.761 47.6504 185.925 47.5962 184.589 47.6323C178.476 47.795 175.299 48.3462 169.5 47.7589C167.296 47.5329 165.548 47.3613 164.517 47.0359C154.922 44.0087 152.697 10.6642 152.221 2.11573C152.036 1.5645 151.88 0.868698 152.129 0.425911C152.449 -0.13435 153.266 0.019268 153.479 0.019268C166.841 0.0734863 180.211 0.0463791 193.573 0.0554161C199.195 0.0644531 204.81 0.109634 210.424 0.136745C222.948 0.0915604 235.471 0.0644531 247.995 0.0554161C267.938 0.0373421 287.882 0.0554161 307.818 0.109634C308.039 0.462059 308.33 0.959061 308.629 1.59161C309.489 3.38083 309.823 4.95317 309.929 5.44114C311.536 12.7065 315.189 24.987 317.421 43.4214C317.797 46.5299 318.593 49.7559 317.25 52.8554H317.257ZM307.15 37.5567C306.994 37.8007 306.795 37.9543 306.532 37.9543H307.15V37.5567Z" fill="#FA494C"/>
<path d="M5.64 37.32C4.81333 37.32 4.17333 37.0933 3.72 36.64C3.29333 36.16 3.08 35.5067 3.08 34.68V11.08C3.08 10.2267 3.29333 9.58667 3.72 9.16C4.17333 8.70666 4.81333 8.48 5.64 8.48C6.46667 8.48 7.09333 8.70666 7.52 9.16C7.97333 9.58667 8.2 10.2267 8.2 11.08V21.28H8.28L19.76 9.76C20.1867 9.33333 20.6133 9.01333 21.04 8.8C21.4667 8.58666 21.9467 8.48 22.48 8.48C23.2533 8.48 23.8 8.68 24.12 9.08C24.4667 9.48 24.6 9.94667 24.52 10.48C24.4667 11.0133 24.2133 11.5067 23.76 11.96L12.08 23.52L12.12 21.2L24.32 33.6C24.88 34.1333 25.1733 34.6933 25.2 35.28C25.2267 35.8667 25.04 36.36 24.64 36.76C24.2667 37.1333 23.7067 37.32 22.96 37.32C22.32 37.32 21.8 37.1867 21.4 36.92C21.0267 36.6533 20.5867 36.2667 20.08 35.76L8.28 23.96H8.2V34.68C8.2 35.5067 7.98667 36.16 7.56 36.64C7.13333 37.0933 6.49333 37.32 5.64 37.32ZM32.9506 44.52C32.364 44.52 31.884 44.36 31.5106 44.04C31.1373 43.7467 30.9106 43.3467 30.8306 42.84C30.7773 42.3333 30.8706 41.8 31.1106 41.24L33.8306 35.2V37.28L26.5506 20.44C26.3106 19.8533 26.2306 19.3067 26.3106 18.8C26.3906 18.2933 26.6306 17.8933 27.0306 17.6C27.4573 17.28 28.0306 17.12 28.7506 17.12C29.364 17.12 29.8573 17.2667 30.2306 17.56C30.604 17.8267 30.9373 18.3467 31.2306 19.12L36.6306 32.6H35.4306L40.9506 19.08C41.244 18.3333 41.5906 17.8267 41.9906 17.56C42.3906 17.2667 42.924 17.12 43.5906 17.12C44.1773 17.12 44.644 17.28 44.9906 17.6C45.3373 17.8933 45.5506 18.2933 45.6306 18.8C45.7106 19.28 45.6173 19.8133 45.3506 20.4L35.6306 42.6C35.284 43.3467 34.9106 43.8533 34.5106 44.12C34.1106 44.3867 33.5906 44.52 32.9506 44.52ZM29.4306 13.76C29.0306 13.7333 28.724 13.6 28.5106 13.36C28.2973 13.12 28.244 12.7467 28.3506 12.24C28.4573 11.68 28.6173 11.1333 28.8306 10.6C29.0706 10.04 29.3773 9.53333 29.7506 9.08C30.124 8.62667 30.5773 8.26667 31.1106 8C31.644 7.70666 32.2706 7.56 32.9906 7.56C33.6573 7.56 34.244 7.69333 34.7506 7.96C35.2573 8.22667 35.724 8.53333 36.1506 8.88C36.5773 9.22667 37.004 9.53333 37.4306 9.8C37.8573 10.0667 38.324 10.2 38.8306 10.2C39.3906 10.2 39.8706 10.0133 40.2706 9.64C40.6973 9.24 40.964 8.74666 41.0706 8.16C41.124 7.86667 41.2573 7.64 41.4706 7.48C41.7106 7.32 42.044 7.25333 42.4706 7.28C42.8706 7.30667 43.1773 7.44 43.3906 7.68C43.604 7.92 43.6573 8.29333 43.5506 8.8C43.4173 9.52 43.164 10.24 42.7906 10.96C42.4173 11.68 41.9106 12.28 41.2706 12.76C40.6573 13.24 39.8706 13.48 38.9106 13.48C38.244 13.48 37.6573 13.3467 37.1506 13.08C36.644 12.8133 36.164 12.5067 35.7106 12.16C35.284 11.8133 34.8573 11.5067 34.4306 11.24C34.004 10.9733 33.5506 10.84 33.0706 10.84C32.5106 10.84 32.0306 11.0267 31.6306 11.4C31.2306 11.7733 30.964 12.2667 30.8306 12.88C30.7773 13.1733 30.6306 13.4 30.3906 13.56C30.1773 13.72 29.8573 13.7867 29.4306 13.76ZM62.3847 37.32C61.5847 37.32 60.9714 37.1067 60.5447 36.68C60.118 36.2267 59.9047 35.5867 59.9047 34.76V19.64C59.9047 18.8133 60.118 18.1867 60.5447 17.76C60.9714 17.3333 61.5714 17.12 62.3447 17.12C63.118 17.12 63.718 17.3333 64.1447 17.76C64.5714 18.1867 64.7847 18.8133 64.7847 19.64V22.36L64.3447 21.36C64.9314 19.9467 65.838 18.88 67.0647 18.16C68.318 17.4133 69.7314 17.04 71.3047 17.04C72.878 17.04 74.1714 17.3333 75.1847 17.92C76.198 18.5067 76.958 19.4 77.4647 20.6C77.9714 21.7733 78.2247 23.2667 78.2247 25.08V34.76C78.2247 35.5867 78.0114 36.2267 77.5847 36.68C77.158 37.1067 76.5447 37.32 75.7447 37.32C74.9447 37.32 74.318 37.1067 73.8647 36.68C73.438 36.2267 73.2247 35.5867 73.2247 34.76V25.32C73.2247 23.8 72.9314 22.6933 72.3447 22C71.7847 21.3067 70.9047 20.96 69.7047 20.96C68.238 20.96 67.0647 21.4267 66.1847 22.36C65.3314 23.2667 64.9047 24.48 64.9047 26V34.76C64.9047 36.4667 64.0647 37.32 62.3847 37.32ZM89.7431 37.4C88.3298 37.4 87.0631 37.1333 85.9431 36.6C84.8498 36.04 83.9831 35.2933 83.3431 34.36C82.7298 33.4267 82.4231 32.3733 82.4231 31.2C82.4231 29.76 82.7965 28.6267 83.5431 27.8C84.2898 26.9467 85.5031 26.3333 87.1831 25.96C88.8631 25.5867 91.1165 25.4 93.9431 25.4H95.9431V28.28H93.9831C92.3298 28.28 91.0098 28.36 90.0231 28.52C89.0365 28.68 88.3298 28.96 87.9031 29.36C87.5031 29.7333 87.3031 30.2667 87.3031 30.96C87.3031 31.84 87.6098 32.56 88.2231 33.12C88.8365 33.68 89.6898 33.96 90.7831 33.96C91.6631 33.96 92.4365 33.76 93.1031 33.36C93.7965 32.9333 94.3431 32.36 94.7431 31.64C95.1431 30.92 95.3431 30.0933 95.3431 29.16V24.56C95.3431 23.2267 95.0498 22.2667 94.4631 21.68C93.8765 21.0933 92.8898 20.8 91.5031 20.8C90.7298 20.8 89.8898 20.8933 88.9831 21.08C88.1031 21.2667 87.1698 21.5867 86.1831 22.04C85.6765 22.28 85.2231 22.3467 84.8231 22.24C84.4498 22.1333 84.1565 21.92 83.9431 21.6C83.7298 21.2533 83.6231 20.88 83.6231 20.48C83.6231 20.08 83.7298 19.6933 83.9431 19.32C84.1565 18.92 84.5165 18.6267 85.0231 18.44C86.2498 17.9333 87.4231 17.5733 88.5431 17.36C89.6898 17.1467 90.7298 17.04 91.6631 17.04C93.5831 17.04 95.1565 17.3333 96.3831 17.92C97.6365 18.5067 98.5698 19.4 99.1831 20.6C99.7965 21.7733 100.103 23.2933 100.103 25.16V34.76C100.103 35.5867 99.9031 36.2267 99.5031 36.68C99.1031 37.1067 98.5298 37.32 97.7831 37.32C97.0365 37.32 96.4498 37.1067 96.0231 36.68C95.6231 36.2267 95.4231 35.5867 95.4231 34.76V32.84H95.7431C95.5565 33.7733 95.1831 34.5867 94.6231 35.28C94.0898 35.9467 93.4098 36.4667 92.5831 36.84C91.7565 37.2133 90.8098 37.4 89.7431 37.4ZM91.8631 14.96C90.6098 14.96 89.5298 14.6933 88.6231 14.16C87.7165 13.6 86.9831 12.8533 86.4231 11.92C85.8898 10.96 85.5298 9.89333 85.3431 8.72C85.2631 8.18666 85.3431 7.76 85.5831 7.44C85.8498 7.09333 86.1965 6.90667 86.6231 6.88C87.0765 6.85333 87.4365 6.96 87.7031 7.2C87.9965 7.44 88.1831 7.81333 88.2631 8.32C88.4765 9.52 88.9031 10.4267 89.5431 11.04C90.1831 11.6267 90.9565 11.92 91.8631 11.92C92.7698 11.92 93.5431 11.6267 94.1831 11.04C94.8498 10.4267 95.2765 9.52 95.4631 8.32C95.5431 7.81333 95.7298 7.44 96.0231 7.2C96.3165 6.96 96.6765 6.85333 97.1031 6.88C97.5565 6.90667 97.9031 7.09333 98.1431 7.44C98.3831 7.76 98.4631 8.18666 98.3831 8.72C98.2231 9.89333 97.8631 10.96 97.3031 11.92C96.7431 12.8533 96.0098 13.6 95.1031 14.16C94.1965 14.6933 93.1165 14.96 91.8631 14.96ZM107.658 37.32C106.858 37.32 106.245 37.1067 105.818 36.68C105.391 36.2267 105.178 35.5867 105.178 34.76V19.64C105.178 18.8133 105.391 18.1867 105.818 17.76C106.245 17.3333 106.845 17.12 107.618 17.12C108.391 17.12 108.991 17.3333 109.418 17.76C109.845 18.1867 110.058 18.8133 110.058 19.64V22.36L109.618 21.36C110.205 19.9467 111.111 18.88 112.338 18.16C113.591 17.4133 115.005 17.04 116.578 17.04C118.151 17.04 119.445 17.3333 120.458 17.92C121.471 18.5067 122.231 19.4 122.738 20.6C123.245 21.7733 123.498 23.2667 123.498 25.08V34.76C123.498 35.5867 123.285 36.2267 122.858 36.68C122.431 37.1067 121.818 37.32 121.018 37.32C120.218 37.32 119.591 37.1067 119.138 36.68C118.711 36.2267 118.498 35.5867 118.498 34.76V25.32C118.498 23.8 118.205 22.6933 117.618 22C117.058 21.3067 116.178 20.96 114.978 20.96C113.511 20.96 112.338 21.4267 111.458 22.36C110.605 23.2667 110.178 24.48 110.178 26V34.76C110.178 36.4667 109.338 37.32 107.658 37.32ZM137.697 44.6C136.257 44.6 134.857 44.4667 133.497 44.2C132.163 43.9333 130.95 43.52 129.857 42.96C129.35 42.6933 129.003 42.3733 128.817 42C128.657 41.6267 128.603 41.24 128.657 40.84C128.737 40.4667 128.897 40.1333 129.137 39.84C129.403 39.5467 129.723 39.3467 130.097 39.24C130.47 39.1333 130.857 39.1867 131.257 39.4C132.43 39.9867 133.537 40.36 134.577 40.52C135.643 40.7067 136.55 40.8 137.297 40.8C139.083 40.8 140.417 40.36 141.297 39.48C142.203 38.6267 142.657 37.3467 142.657 35.64V32.04H143.017C142.617 33.4 141.777 34.4933 140.497 35.32C139.243 36.12 137.817 36.52 136.217 36.52C134.457 36.52 132.923 36.12 131.617 35.32C130.31 34.4933 129.297 33.3467 128.577 31.88C127.857 30.4133 127.497 28.7067 127.497 26.76C127.497 25.2933 127.697 23.9733 128.097 22.8C128.523 21.6 129.11 20.5733 129.857 19.72C130.63 18.8667 131.55 18.2133 132.617 17.76C133.71 17.28 134.91 17.04 136.217 17.04C137.87 17.04 139.31 17.4533 140.537 18.28C141.79 19.08 142.603 20.1467 142.977 21.48L142.577 22.48V19.64C142.577 18.8133 142.79 18.1867 143.217 17.76C143.67 17.3333 144.283 17.12 145.057 17.12C145.857 17.12 146.47 17.3333 146.897 17.76C147.323 18.1867 147.537 18.8133 147.537 19.64V35.04C147.537 38.2133 146.697 40.6 145.017 42.2C143.337 43.8 140.897 44.6 137.697 44.6ZM137.577 32.72C138.617 32.72 139.51 32.48 140.257 32C141.003 31.52 141.577 30.84 141.977 29.96C142.403 29.0533 142.617 27.9867 142.617 26.76C142.617 24.92 142.163 23.48 141.257 22.44C140.35 21.3733 139.123 20.84 137.577 20.84C136.537 20.84 135.643 21.08 134.897 21.56C134.15 22.04 133.563 22.72 133.137 23.6C132.737 24.48 132.537 25.5333 132.537 26.76C132.537 28.6 132.99 30.0533 133.897 31.12C134.803 32.1867 136.03 32.72 137.577 32.72Z" fill="black"/>
<path d="M173.977 37.32C173.257 37.32 172.67 37.1467 172.217 36.8C171.79 36.4533 171.443 35.9067 171.177 35.16L162.817 11.52C162.523 10.6667 162.577 9.94667 162.977 9.36C163.403 8.77333 164.11 8.48 165.097 8.48C165.817 8.48 166.377 8.65333 166.777 9C167.177 9.32 167.497 9.84 167.737 10.56L174.937 31.92H173.337L180.857 10.6C181.123 9.88 181.457 9.34667 181.857 9C182.257 8.65333 182.777 8.48 183.417 8.48C184.057 8.48 184.563 8.65333 184.937 9C185.31 9.34667 185.63 9.89333 185.897 10.64L193.177 31.92H191.777L199.097 10.56C199.337 9.86667 199.657 9.34667 200.057 9C200.457 8.65333 201.003 8.48 201.697 8.48C202.55 8.48 203.177 8.77333 203.577 9.36C203.977 9.94667 204.03 10.6667 203.737 11.52L195.297 35.2C195.03 35.92 194.683 36.4533 194.257 36.8C193.83 37.1467 193.257 37.32 192.537 37.32C191.817 37.32 191.243 37.1467 190.817 36.8C190.39 36.4533 190.043 35.9067 189.777 35.16L182.817 15.32H183.737L176.697 35.2C176.43 35.92 176.083 36.4533 175.657 36.8C175.257 37.1467 174.697 37.32 173.977 37.32ZM208.363 37.32C207.536 37.32 206.896 37.1067 206.443 36.68C206.016 36.2267 205.803 35.5867 205.803 34.76V19.64C205.803 18.8133 206.016 18.1867 206.443 17.76C206.87 17.3333 207.47 17.12 208.243 17.12C209.016 17.12 209.616 17.3333 210.043 17.76C210.47 18.1867 210.683 18.8133 210.683 19.64V22.16H210.283C210.656 20.56 211.39 19.3467 212.483 18.52C213.576 17.6933 215.03 17.2 216.843 17.04C217.403 16.9867 217.843 17.1333 218.163 17.48C218.51 17.8 218.71 18.3067 218.763 19C218.816 19.6667 218.656 20.2133 218.283 20.64C217.936 21.04 217.403 21.28 216.683 21.36L215.803 21.44C214.176 21.6 212.95 22.1067 212.123 22.96C211.296 23.7867 210.883 24.96 210.883 26.48V34.76C210.883 35.5867 210.67 36.2267 210.243 36.68C209.816 37.1067 209.19 37.32 208.363 37.32ZM223.947 37.28C223.147 37.28 222.534 37.04 222.107 36.56C221.681 36.08 221.467 35.4133 221.467 34.56V19.88C221.467 19 221.681 18.3333 222.107 17.88C222.534 17.4 223.147 17.16 223.947 17.16C224.747 17.16 225.361 17.4 225.787 17.88C226.241 18.3333 226.467 19 226.467 19.88V34.56C226.467 35.4133 226.254 36.08 225.827 36.56C225.401 37.04 224.774 37.28 223.947 37.28ZM223.947 13.44C223.014 13.44 222.281 13.2133 221.747 12.76C221.241 12.28 220.987 11.6267 220.987 10.8C220.987 9.94667 221.241 9.29333 221.747 8.84C222.281 8.38667 223.014 8.16 223.947 8.16C224.907 8.16 225.641 8.38667 226.147 8.84C226.654 9.29333 226.907 9.94667 226.907 10.8C226.907 11.6267 226.654 12.28 226.147 12.76C225.641 13.2133 224.907 13.44 223.947 13.44ZM240.623 37.4C238.889 37.4 237.436 37.1067 236.263 36.52C235.116 35.9333 234.263 35.08 233.703 33.96C233.143 32.8133 232.863 31.4 232.863 29.72V21.2H230.783C230.143 21.2 229.649 21.04 229.303 20.72C228.956 20.3733 228.782 19.9067 228.782 19.32C228.782 18.7067 228.956 18.24 229.303 17.92C229.649 17.6 230.143 17.44 230.783 17.44H232.863V13.8C232.863 12.9733 233.076 12.3467 233.503 11.92C233.956 11.4933 234.583 11.28 235.383 11.28C236.183 11.28 236.796 11.4933 237.223 11.92C237.649 12.3467 237.863 12.9733 237.863 13.8V17.44H242.103C242.743 17.44 243.236 17.6 243.583 17.92C243.929 18.24 244.103 18.7067 244.103 19.32C244.103 19.9067 243.929 20.3733 243.583 20.72C243.236 21.04 242.743 21.2 242.103 21.2H237.863V29.44C237.863 30.72 238.143 31.68 238.703 32.32C239.263 32.96 240.169 33.28 241.423 33.28C241.876 33.28 242.276 33.24 242.623 33.16C242.969 33.08 243.276 33.0267 243.543 33C243.863 32.9733 244.129 33.08 244.343 33.32C244.556 33.5333 244.663 33.9867 244.663 34.68C244.663 35.2133 244.569 35.6933 244.383 36.12C244.223 36.52 243.916 36.8 243.463 36.96C243.116 37.0667 242.663 37.16 242.103 37.24C241.543 37.3467 241.049 37.4 240.623 37.4ZM250.002 37.28C249.202 37.28 248.589 37.04 248.162 36.56C247.735 36.08 247.522 35.4133 247.522 34.56V19.88C247.522 19 247.735 18.3333 248.162 17.88C248.589 17.4 249.202 17.16 250.002 17.16C250.802 17.16 251.415 17.4 251.842 17.88C252.295 18.3333 252.522 19 252.522 19.88V34.56C252.522 35.4133 252.309 36.08 251.882 36.56C251.455 37.04 250.829 37.28 250.002 37.28ZM250.002 13.44C249.069 13.44 248.335 13.2133 247.802 12.76C247.295 12.28 247.042 11.6267 247.042 10.8C247.042 9.94667 247.295 9.29333 247.802 8.84C248.335 8.38667 249.069 8.16 250.002 8.16C250.962 8.16 251.695 8.38667 252.202 8.84C252.709 9.29333 252.962 9.94667 252.962 10.8C252.962 11.6267 252.709 12.28 252.202 12.76C251.695 13.2133 250.962 13.44 250.002 13.44ZM260.197 37.32C259.397 37.32 258.784 37.1067 258.357 36.68C257.931 36.2267 257.717 35.5867 257.717 34.76V19.64C257.717 18.8133 257.931 18.1867 258.357 17.76C258.784 17.3333 259.384 17.12 260.157 17.12C260.931 17.12 261.531 17.3333 261.957 17.76C262.384 18.1867 262.597 18.8133 262.597 19.64V22.36L262.157 21.36C262.744 19.9467 263.651 18.88 264.877 18.16C266.131 17.4133 267.544 17.04 269.117 17.04C270.691 17.04 271.984 17.3333 272.997 17.92C274.011 18.5067 274.771 19.4 275.277 20.6C275.784 21.7733 276.037 23.2667 276.037 25.08V34.76C276.037 35.5867 275.824 36.2267 275.397 36.68C274.971 37.1067 274.357 37.32 273.557 37.32C272.757 37.32 272.131 37.1067 271.677 36.68C271.251 36.2267 271.037 35.5867 271.037 34.76V25.32C271.037 23.8 270.744 22.6933 270.157 22C269.597 21.3067 268.717 20.96 267.517 20.96C266.051 20.96 264.877 21.4267 263.997 22.36C263.144 23.2667 262.717 24.48 262.717 26V34.76C262.717 36.4667 261.877 37.32 260.197 37.32ZM290.236 44.6C288.796 44.6 287.396 44.4667 286.036 44.2C284.702 43.9333 283.489 43.52 282.396 42.96C281.889 42.6933 281.542 42.3733 281.356 42C281.196 41.6267 281.142 41.24 281.196 40.84C281.276 40.4667 281.436 40.1333 281.676 39.84C281.942 39.5467 282.262 39.3467 282.636 39.24C283.009 39.1333 283.396 39.1867 283.796 39.4C284.969 39.9867 286.076 40.36 287.116 40.52C288.182 40.7067 289.089 40.8 289.836 40.8C291.622 40.8 292.956 40.36 293.836 39.48C294.742 38.6267 295.196 37.3467 295.196 35.64V32.04H295.556C295.156 33.4 294.316 34.4933 293.036 35.32C291.782 36.12 290.356 36.52 288.756 36.52C286.996 36.52 285.462 36.12 284.156 35.32C282.849 34.4933 281.836 33.3467 281.116 31.88C280.396 30.4133 280.036 28.7067 280.036 26.76C280.036 25.2933 280.236 23.9733 280.636 22.8C281.062 21.6 281.649 20.5733 282.396 19.72C283.169 18.8667 284.089 18.2133 285.156 17.76C286.249 17.28 287.449 17.04 288.756 17.04C290.409 17.04 291.849 17.4533 293.076 18.28C294.329 19.08 295.142 20.1467 295.516 21.48L295.116 22.48V19.64C295.116 18.8133 295.329 18.1867 295.756 17.76C296.209 17.3333 296.822 17.12 297.596 17.12C298.396 17.12 299.009 17.3333 299.436 17.76C299.862 18.1867 300.076 18.8133 300.076 19.64V35.04C300.076 38.2133 299.236 40.6 297.556 42.2C295.876 43.8 293.436 44.6 290.236 44.6ZM290.116 32.72C291.156 32.72 292.049 32.48 292.796 32C293.542 31.52 294.116 30.84 294.516 29.96C294.942 29.0533 295.156 27.9867 295.156 26.76C295.156 24.92 294.702 23.48 293.796 22.44C292.889 21.3733 291.662 20.84 290.116 20.84C289.076 20.84 288.182 21.08 287.436 21.56C286.689 22.04 286.102 22.72 285.676 23.6C285.276 24.48 285.076 25.5333 285.076 26.76C285.076 28.6 285.529 30.0533 286.436 31.12C287.342 32.1867 288.569 32.72 290.116 32.72Z" fill="white"/>
</svg>
