<svg width="80" height="38" viewBox="0 0 80 38" fill="none" xmlns="http://www.w3.org/2000/svg">
<path d="M0.29177 36.7583C0.196489 36.7583 0.124076 36.7328 0.0745305 36.6821C0.0245612 36.6314 0 36.5573 0 36.4598V32.3774C0 32.28 0.0249847 32.2059 0.0745305 32.1552C0.124076 32.1045 0.196489 32.0789 0.29177 32.0789H1.54397C2.28377 32.0789 2.8546 32.2782 3.2569 32.6764C3.65919 33.0745 3.86034 33.6546 3.86034 34.4154C3.86034 34.7962 3.80952 35.1311 3.70789 35.4209C3.60626 35.7108 3.45593 35.9551 3.2569 36.1544C3.05787 36.3537 2.81564 36.504 2.53023 36.6058C2.24481 36.7077 1.91577 36.7583 1.54397 36.7583H0.29177ZM0.531877 36.2935H1.50501C1.80779 36.2935 2.07034 36.2536 2.29351 36.1739C2.51625 36.0942 2.70215 35.9772 2.85164 35.8221C3.0007 35.6674 3.11207 35.4716 3.18575 35.2346C3.25944 34.9981 3.29586 34.7247 3.29586 34.415C3.29586 33.7911 3.1468 33.3232 2.84825 33.0108C2.5497 32.6989 2.1021 32.5429 1.50501 32.5429H0.531877V36.2935Z" fill="#164675"/>
<path d="M6.42317 36.8177C6.0899 36.8177 5.80363 36.7501 5.56352 36.6154C5.32342 36.4802 5.13751 36.2891 5.00539 36.0413C4.87327 35.7935 4.80763 35.4972 4.80763 35.1519C4.80763 34.8066 4.87242 34.5224 5.00243 34.2724C5.13201 34.0224 5.31071 33.8266 5.53769 33.6849C5.76467 33.5433 6.02765 33.4727 6.32619 33.4727C6.53793 33.4727 6.72849 33.5091 6.89703 33.5823C7.06557 33.6555 7.20955 33.7603 7.32854 33.8977C7.44754 34.035 7.53816 34.2009 7.60126 34.3955C7.66393 34.5904 7.69527 34.8092 7.69527 35.0527C7.69527 35.1237 7.67579 35.1753 7.63683 35.2086C7.59787 35.242 7.54155 35.2585 7.46829 35.2585H5.21035V34.9067H7.34506L7.24131 34.9929C7.24131 34.7537 7.20658 34.5514 7.13756 34.3855C7.06811 34.2196 6.96775 34.0926 6.83605 34.0038C6.70392 33.9154 6.53877 33.8712 6.33974 33.8712C6.11911 33.8712 5.93194 33.9232 5.77865 34.0272C5.62493 34.1312 5.50932 34.275 5.4314 34.4587C5.35348 34.6424 5.31452 34.856 5.31452 35.0995V35.1393C5.31452 35.5466 5.41065 35.8563 5.60333 36.0686C5.79558 36.2809 6.06957 36.3871 6.42401 36.3871C6.57096 36.3871 6.71705 36.3671 6.86188 36.3273C7.0067 36.2874 7.14857 36.2211 7.28704 36.128C7.3476 36.0881 7.40265 36.0695 7.45262 36.0717C7.50216 36.0738 7.54239 36.0894 7.57246 36.118C7.60253 36.147 7.62328 36.1821 7.63429 36.2242C7.64487 36.2662 7.64064 36.3117 7.62116 36.3602C7.60168 36.4091 7.56399 36.4507 7.50767 36.4863C7.36496 36.5924 7.19642 36.6743 7.00162 36.7319C6.80683 36.7895 6.61457 36.8181 6.42401 36.8181L6.42317 36.8177Z" fill="#164675"/>
<path d="M9.84904 36.8047C9.77536 36.8047 9.71057 36.7835 9.65425 36.7414C9.59792 36.6994 9.5505 36.634 9.51154 36.5456L8.38892 33.8639C8.35843 33.7976 8.34784 33.7356 8.35631 33.678C8.36478 33.6204 8.39104 33.574 8.43423 33.5385C8.47743 33.503 8.53798 33.4852 8.6159 33.4852C8.68493 33.4852 8.73913 33.5008 8.77809 33.5316C8.81705 33.5628 8.85177 33.6178 8.88184 33.6975L9.94602 36.3593H9.7707L10.8544 33.6975C10.8844 33.6178 10.9191 33.5628 10.9581 33.5316C10.9971 33.5008 11.0534 33.4852 11.1266 33.4852C11.1957 33.4852 11.2486 33.503 11.2854 33.5385C11.3223 33.574 11.3439 33.6195 11.3502 33.6746C11.3566 33.73 11.3469 33.7907 11.321 33.8569L10.1857 36.5452C10.1552 36.6336 10.1112 36.699 10.0527 36.741C9.99429 36.783 9.92611 36.8043 9.84819 36.8043L9.84904 36.8047Z" fill="#164675"/>
<path d="M13.6514 36.8177C13.3181 36.8177 13.0318 36.7501 12.7917 36.6154C12.5516 36.4802 12.3657 36.2891 12.2336 36.0413C12.1015 35.7935 12.0358 35.4972 12.0358 35.1519C12.0358 34.8066 12.1006 34.5224 12.2306 34.2724C12.3602 34.0224 12.5389 33.8266 12.7659 33.6849C12.9929 33.5433 13.2558 33.4727 13.5544 33.4727C13.7661 33.4727 13.9567 33.5091 14.1252 33.5823C14.2938 33.6555 14.4377 33.7603 14.5567 33.8977C14.6757 34.035 14.7664 34.2009 14.8295 34.3955C14.8921 34.5904 14.9235 34.8092 14.9235 35.0527C14.9235 35.1237 14.904 35.1753 14.865 35.2086C14.8261 35.242 14.7697 35.2585 14.6965 35.2585H12.4385V34.9067H14.5733L14.4695 34.9929C14.4695 34.7537 14.4348 34.5514 14.3658 34.3855C14.2963 34.2196 14.1959 34.0926 14.0642 34.0038C13.9321 33.9154 13.767 33.8712 13.5679 33.8712C13.3473 33.8712 13.1601 33.9232 13.0068 34.0272C12.8531 34.1312 12.7375 34.275 12.6596 34.4587C12.5817 34.6424 12.5427 34.856 12.5427 35.0995V35.1393C12.5427 35.5466 12.6388 35.8563 12.8315 36.0686C13.0238 36.2809 13.2978 36.3871 13.6522 36.3871C13.7992 36.3871 13.9452 36.3671 14.0901 36.3273C14.2349 36.2874 14.3768 36.2211 14.5152 36.128C14.5758 36.0881 14.6308 36.0695 14.6808 36.0717C14.7304 36.0738 14.7706 36.0894 14.8007 36.118C14.8307 36.147 14.8515 36.1821 14.8625 36.2242C14.8731 36.2662 14.8688 36.3117 14.8494 36.3602C14.8299 36.4091 14.7922 36.4507 14.7359 36.4863C14.5932 36.5924 14.4246 36.6743 14.2298 36.7319C14.035 36.7895 13.8428 36.8181 13.6522 36.8181L13.6514 36.8177Z" fill="#164675"/>
<path d="M16.9019 36.8177C16.5906 36.8177 16.3527 36.7202 16.1884 36.5257C16.024 36.3312 15.9419 36.0522 15.9419 35.6891V32.3038C15.9419 32.2154 15.9635 32.1478 16.0067 32.1015C16.0499 32.0551 16.1147 32.0317 16.2015 32.0317C16.2836 32.0317 16.3484 32.0551 16.3963 32.1015C16.4437 32.1478 16.4678 32.2154 16.4678 32.3038V35.6492C16.4678 35.8884 16.5144 36.0665 16.6072 36.1834C16.7003 36.3008 16.8375 36.3593 17.0192 36.3593C17.0582 36.3593 17.0929 36.3572 17.1229 36.3528C17.153 36.3485 17.1835 36.3463 17.214 36.3463C17.2614 36.342 17.2953 36.3528 17.3148 36.3797C17.3343 36.4065 17.344 36.4594 17.344 36.5391C17.344 36.6188 17.3266 36.6786 17.2919 36.7185C17.2572 36.7583 17.2009 36.7848 17.1234 36.7982C17.0886 36.8025 17.0518 36.8069 17.0133 36.8116C16.9743 36.816 16.9375 36.8181 16.9032 36.8181L16.9019 36.8177Z" fill="#164675"/>
<path d="M19.3999 36.8177C19.0929 36.8177 18.8266 36.7492 18.6017 36.6119C18.3768 36.4746 18.2028 36.2813 18.0796 36.0309C17.9563 35.781 17.8945 35.4855 17.8945 35.145C17.8945 34.8885 17.9292 34.6571 17.9983 34.4513C18.0673 34.2456 18.1689 34.0697 18.3032 33.9237C18.4374 33.7777 18.5962 33.6659 18.78 33.5883C18.9638 33.5108 19.1704 33.4722 19.3995 33.4722C19.7065 33.4722 19.9725 33.5407 20.1978 33.678C20.4226 33.8154 20.5967 34.009 20.7199 34.259C20.8431 34.509 20.905 34.8044 20.905 35.1454C20.905 35.4019 20.8702 35.6324 20.8012 35.8355C20.7318 36.0392 20.6301 36.2151 20.4963 36.3632C20.3621 36.5114 20.2033 36.6245 20.0195 36.7016C19.8357 36.7791 19.629 36.8177 19.3999 36.8177ZM19.3999 36.3862C19.5947 36.3862 19.7654 36.3377 19.9123 36.2402C20.0593 36.1427 20.1728 36.001 20.2528 35.8152C20.3328 35.6293 20.3727 35.4058 20.3727 35.145C20.3727 34.7425 20.285 34.4349 20.1097 34.2222C19.9344 34.0099 19.6976 33.9037 19.3991 33.9037C19.2001 33.9037 19.0281 33.9514 18.8833 34.0463C18.7385 34.1416 18.6258 34.2811 18.5458 34.4643C18.4658 34.648 18.426 34.8751 18.426 35.145C18.426 35.5431 18.5145 35.8498 18.6919 36.0643C18.8693 36.2792 19.1048 36.3862 19.3991 36.3862H19.3999Z" fill="#164675"/>
<path d="M22.2156 37.9996C22.1292 37.9996 22.064 37.9762 22.0208 37.9298C21.9776 37.8835 21.956 37.8159 21.956 37.7275V33.7582C21.956 33.6698 21.9776 33.6022 22.0208 33.5558C22.064 33.5095 22.1267 33.4861 22.2088 33.4861C22.2952 33.4861 22.3613 33.5095 22.4066 33.5558C22.4519 33.6022 22.4747 33.6698 22.4747 33.7582V34.389L22.4032 34.2958C22.4722 34.0437 22.6098 33.8435 22.8152 33.6949C23.0206 33.5467 23.2662 33.4727 23.5516 33.4727C23.837 33.4727 24.078 33.5402 24.288 33.675C24.4977 33.8102 24.6598 34.0025 24.7746 34.2525C24.8894 34.5025 24.9465 34.8001 24.9465 35.1454C24.9465 35.4907 24.8894 35.7814 24.7746 36.0314C24.6598 36.2813 24.4989 36.475 24.291 36.6123C24.0835 36.7497 23.8366 36.8181 23.5512 36.8181C23.2658 36.8181 23.0214 36.744 22.8182 36.5959C22.6149 36.4477 22.4764 36.2497 22.4028 36.0019H22.4807V37.7279C22.4807 37.8163 22.457 37.8839 22.4091 37.9303C22.3617 37.9766 22.2965 38 22.2143 38L22.2156 37.9996ZM23.4419 36.3866C23.641 36.3866 23.8129 36.3381 23.9577 36.2406C24.1026 36.1431 24.2152 36.0015 24.2952 35.8156C24.3753 35.6298 24.4151 35.4062 24.4151 35.1454C24.4151 34.7429 24.3274 34.4353 24.1521 34.2226C23.9768 34.0103 23.7401 33.9042 23.4415 33.9042C23.2467 33.9042 23.0761 33.9518 22.9291 34.0467C22.7822 34.142 22.6687 34.2815 22.5887 34.4648C22.5086 34.6485 22.4688 34.8755 22.4688 35.1454C22.4688 35.5435 22.5573 35.8503 22.7348 36.0647C22.9122 36.2796 23.1476 36.3866 23.4419 36.3866Z" fill="#164675"/>
<path d="M27.4192 36.8177C27.0859 36.8177 26.7996 36.7501 26.5595 36.6154C26.3194 36.4802 26.1335 36.2891 26.0014 36.0413C25.8693 35.7935 25.8036 35.4972 25.8036 35.1519C25.8036 34.8066 25.8684 34.5224 25.9984 34.2724C26.128 34.0224 26.3067 33.8266 26.5337 33.6849C26.7607 33.5433 27.0236 33.4727 27.3222 33.4727C27.5339 33.4727 27.7245 33.5091 27.893 33.5823C28.0616 33.6555 28.2055 33.7603 28.3245 33.8977C28.4435 34.035 28.5342 34.2009 28.5973 34.3955C28.6599 34.5904 28.6913 34.8092 28.6913 35.0527C28.6913 35.1237 28.6718 35.1753 28.6328 35.2086C28.5939 35.242 28.5375 35.2585 28.4643 35.2585H26.2064V34.9067H28.3411L28.2373 34.9929C28.2373 34.7537 28.2026 34.5514 28.1336 34.3855C28.0641 34.2196 27.9637 34.0926 27.8321 34.0038C27.6999 33.9154 27.5348 33.8712 27.3357 33.8712C27.1151 33.8712 26.9279 33.9232 26.7746 34.0272C26.6209 34.1312 26.5053 34.275 26.4274 34.4587C26.3495 34.6424 26.3105 34.856 26.3105 35.0995V35.1393C26.3105 35.5466 26.4067 35.8563 26.5993 36.0686C26.7916 36.2809 27.0656 36.3871 27.42 36.3871C27.567 36.3871 27.7131 36.3671 27.8579 36.3273C28.0027 36.2874 28.1446 36.2211 28.283 36.128C28.3436 36.0881 28.3987 36.0695 28.4486 36.0717C28.4982 36.0738 28.5384 36.0894 28.5685 36.118C28.5985 36.147 28.6193 36.1821 28.6303 36.2242C28.6409 36.2662 28.6366 36.3117 28.6172 36.3602C28.5977 36.4091 28.56 36.4507 28.5037 36.4863C28.361 36.5924 28.1924 36.6743 27.9976 36.7319C27.8028 36.7895 27.6106 36.8181 27.42 36.8181L27.4192 36.8177Z" fill="#164675"/>
<path d="M30.9098 36.8177C30.6286 36.8177 30.383 36.7492 30.1734 36.6119C29.9634 36.4746 29.8012 36.2813 29.6868 36.0309C29.5721 35.7809 29.5149 35.4855 29.5149 35.1449C29.5149 34.8044 29.5721 34.502 29.6868 34.252C29.8016 34.0021 29.9638 33.8097 30.1734 33.6745C30.383 33.5394 30.6286 33.4722 30.9098 33.4722C31.191 33.4722 31.4396 33.545 31.6428 33.6914C31.8461 33.8374 31.9825 34.0346 32.0515 34.2824H31.9799V32.3042C31.9799 32.2158 32.0028 32.1482 32.0481 32.1019C32.0934 32.0555 32.1595 32.0321 32.2459 32.0321C32.328 32.0321 32.392 32.0555 32.4373 32.1019C32.4826 32.1482 32.5054 32.2158 32.5054 32.3042V36.5261C32.5054 36.6145 32.4838 36.6834 32.4407 36.7319C32.3975 36.7804 32.3327 36.8051 32.2459 36.8051C32.159 36.8051 32.0998 36.7809 32.0545 36.7319C32.0091 36.6834 31.9863 36.6145 31.9863 36.5261V35.8953L32.0578 35.988C31.9884 36.2402 31.8512 36.4416 31.6458 36.592C31.4404 36.7423 31.1948 36.8177 30.9094 36.8177H30.9098ZM31.0199 36.3862C31.2147 36.3862 31.3854 36.3377 31.5323 36.2402C31.6793 36.1427 31.7927 36.001 31.8728 35.8152C31.9528 35.6293 31.9926 35.4058 31.9926 35.1449C31.9926 34.7425 31.905 34.4349 31.7296 34.2221C31.5543 34.0099 31.3176 33.9037 31.0191 33.9037C30.82 33.9037 30.6481 33.9514 30.5033 34.0463C30.3585 34.1416 30.2458 34.2811 30.1658 34.4643C30.0857 34.648 30.0459 34.875 30.0459 35.1449C30.0459 35.5431 30.1344 35.8498 30.3119 36.0643C30.4893 36.2792 30.7248 36.3862 31.0191 36.3862H31.0199Z" fill="#164675"/>
<path d="M37.2813 36.8177C36.9959 36.8177 36.7503 36.7423 36.5449 36.592C36.3395 36.4416 36.2019 36.2402 36.1329 35.988L36.2045 35.9148V36.5257C36.2045 36.6141 36.1816 36.683 36.1363 36.7315C36.091 36.78 36.027 36.8047 35.9449 36.8047C35.8585 36.8047 35.7933 36.7804 35.7501 36.7315C35.7069 36.683 35.6853 36.6141 35.6853 36.5257V32.3038C35.6853 32.2154 35.7069 32.1478 35.7501 32.1015C35.7933 32.0551 35.8581 32.0317 35.9449 32.0317C36.027 32.0317 36.0918 32.0551 36.1397 32.1015C36.1871 32.1478 36.2112 32.2154 36.2112 32.3038V34.2819H36.1333C36.207 34.0341 36.345 33.837 36.5487 33.691C36.752 33.545 36.9963 33.4718 37.2818 33.4718C37.5672 33.4718 37.8136 33.5394 38.0216 33.6741C38.2291 33.8093 38.3904 34.0016 38.5052 34.2516C38.6199 34.5016 38.6771 34.7992 38.6771 35.1445C38.6771 35.4898 38.6199 35.7805 38.5052 36.0305C38.3904 36.2805 38.2282 36.4741 38.0186 36.6115C37.8086 36.7488 37.5634 36.8173 37.2822 36.8173L37.2813 36.8177ZM37.1712 36.3862C37.3703 36.3862 37.5422 36.3377 37.687 36.2402C37.8318 36.1427 37.9445 36.001 38.0245 35.8152C38.1046 35.6293 38.1444 35.4058 38.1444 35.145C38.1444 34.7425 38.0567 34.4349 37.8814 34.2222C37.7061 34.0099 37.4694 33.9037 37.1708 33.9037C36.976 33.9037 36.8054 33.9514 36.6584 34.0463C36.5115 34.1416 36.398 34.2811 36.3179 34.4643C36.2379 34.648 36.1981 34.8751 36.1981 35.145C36.1981 35.5431 36.2866 35.8498 36.464 36.0643C36.6415 36.2792 36.8769 36.3862 37.1712 36.3862Z" fill="#164675"/>
<path d="M40.3828 37.9996C40.318 37.9996 40.2659 37.9818 40.227 37.9463C40.188 37.9108 40.1651 37.8631 40.1588 37.8037C40.1524 37.7444 40.1622 37.6833 40.188 37.6214L40.6356 36.5924V36.8246L39.3898 33.8643C39.3639 33.798 39.3551 33.7361 39.3639 33.6785C39.3724 33.6208 39.3987 33.5745 39.4419 33.5389C39.4851 33.5034 39.5456 33.4857 39.6235 33.4857C39.6926 33.4857 39.7468 33.5013 39.7857 33.532C39.8247 33.5632 39.8594 33.6182 39.8895 33.6979L40.9536 36.3663H40.7783L41.8552 33.6979C41.8899 33.6182 41.9268 33.5632 41.9657 33.532C42.0047 33.5013 42.061 33.4857 42.1343 33.4857C42.2033 33.4857 42.2562 33.5034 42.2931 33.5389C42.3299 33.5745 42.3515 33.62 42.3579 33.675C42.3642 33.7304 42.3545 33.7911 42.3286 33.8574L40.6678 37.7873C40.6331 37.867 40.5954 37.922 40.5543 37.9532C40.5132 37.984 40.4561 37.9996 40.3824 37.9996H40.3828Z" fill="#164675"/>
<path d="M51.4989 36.1232V36.6318H48.5037V32.1184H51.4426V32.627H49.0627V34.0892H51.1317V34.5657H49.0627V36.1232H51.4984H51.4989Z" fill="#164675"/>
<path d="M52.1387 36.6318V32.1184H52.6981V36.1232H55.1585V36.6318H52.1387Z" fill="#164675"/>
<path d="M58.1473 32.627H56.625V36.6318H56.066V32.627H54.5436V32.1184H58.1473V32.627Z" fill="#164675"/>
<path d="M61.2475 33.0654C61.198 33.0061 61.1315 32.9489 61.0489 32.8939C60.9659 32.8388 60.8728 32.789 60.7694 32.7444C60.6661 32.6998 60.553 32.6638 60.4307 32.6365C60.3087 32.6088 60.1812 32.5954 60.0487 32.5954C59.7048 32.5954 59.4533 32.6612 59.2936 32.7925C59.134 32.9238 59.0544 33.104 59.0544 33.3327C59.0544 33.4558 59.0768 33.5571 59.1226 33.6377C59.1679 33.7183 59.2394 33.7872 59.3368 33.8444C59.4342 33.9016 59.5554 33.9514 59.7002 33.9938C59.845 34.0363 60.0169 34.0809 60.216 34.1273C60.4438 34.178 60.65 34.2365 60.8342 34.3019C61.0184 34.3677 61.176 34.4492 61.3064 34.5467C61.4368 34.6441 61.5363 34.7628 61.6045 34.9028C61.6727 35.0427 61.707 35.2143 61.707 35.4179C61.707 35.6341 61.6655 35.8212 61.5825 35.9802C61.4995 36.1392 61.3869 36.2705 61.2437 36.3745C61.1006 36.4785 60.932 36.5547 60.7373 36.6032C60.5425 36.6518 60.3311 36.6765 60.1033 36.6765C59.7637 36.6765 59.4414 36.6223 59.137 36.5144C58.8325 36.4066 58.556 36.2484 58.3074 36.0409L58.5746 35.5578C58.6407 35.6298 58.727 35.7021 58.8325 35.774C58.9379 35.8459 59.0582 35.9105 59.1929 35.9677C59.3275 36.0249 59.4724 36.0717 59.6278 36.1076C59.7832 36.1436 59.9458 36.1618 60.1156 36.1618C60.4302 36.1618 60.675 36.1046 60.849 35.9902C61.0227 35.8758 61.1099 35.7043 61.1099 35.4755C61.1099 35.3482 61.082 35.2416 61.0261 35.1545C60.9702 35.0678 60.8884 34.9925 60.7804 34.9288C60.6729 34.8651 60.5391 34.8088 60.3798 34.7602C60.2202 34.7113 60.039 34.6619 59.8361 34.6108C59.6125 34.5558 59.4156 34.4964 59.2458 34.4327C59.076 34.369 58.9341 34.2928 58.8202 34.204C58.7063 34.1152 58.6203 34.0068 58.5623 33.8799C58.5043 33.7525 58.4755 33.6 58.4755 33.4224C58.4755 33.2062 58.5149 33.0156 58.5937 32.8501C58.6724 32.685 58.7821 32.5451 58.9231 32.4307C59.0641 32.3164 59.2318 32.2306 59.4266 32.1734C59.6214 32.1162 59.8327 32.0876 60.0605 32.0876C60.3587 32.0876 60.628 32.1344 60.8681 32.2275C61.1082 32.3207 61.3216 32.4459 61.508 32.6023L61.2471 33.0663L61.2475 33.0654Z" fill="#164675"/>
<path d="M63.7329 35.6159H64.9271V33.2015H63.9201V32.4212C64.5675 32.3181 64.8839 32.2002 65.2582 31.965H66.1649V35.6159H67.1435V36.6318H63.7333V35.6159H63.7329Z" fill="#164675"/>
<path d="M67.8625 36.131L68.51 35.3802C68.6828 35.5422 68.9847 35.7043 69.2727 35.7043C69.7978 35.7043 70.2509 35.3365 70.2509 34.2174C70.2509 33.0983 69.8266 32.8189 69.517 32.8189C69.2075 32.8189 68.9271 32.9736 68.9271 33.4666C68.9271 33.8786 69.1719 34.0259 69.4882 34.0259C69.733 34.0259 69.9917 33.9081 70.2365 33.5844L70.2941 34.3794C69.9773 34.7178 69.5242 34.9093 69.2151 34.9093C68.438 34.9093 67.8049 34.4678 67.8049 33.4666C67.8049 32.4654 68.5892 31.8766 69.4887 31.8766C70.3881 31.8766 71.3735 32.5243 71.3735 34.2174C71.3735 35.9105 70.4021 36.7198 69.3879 36.7198C68.7044 36.7198 68.1793 36.4399 67.8625 36.131Z" fill="#C02626"/>
<path d="M72.1218 35.4391C72.1218 34.8945 72.4745 34.5705 72.9349 34.3352V34.3058C72.5533 34.0259 72.2802 33.6875 72.2802 33.2019C72.2802 32.3774 72.9493 31.877 73.8915 31.877C74.8337 31.877 75.4168 32.3779 75.4168 33.1724C75.4168 33.5992 75.1221 33.9379 74.7765 34.1511V34.1806C75.2512 34.4232 75.618 34.7914 75.618 35.4097C75.618 36.1605 74.9849 36.7198 73.8483 36.7198C72.7833 36.7198 72.1214 36.2046 72.1214 35.4391H72.1218ZM74.4674 35.3655C74.4674 35.0271 74.093 34.8945 73.496 34.6589C73.3088 34.8209 73.1868 35.0566 73.1868 35.2918C73.1868 35.6601 73.5032 35.8511 73.8775 35.8511C74.2082 35.8511 74.4674 35.7186 74.4674 35.3655ZM74.4098 33.2604C74.4098 32.9363 74.2082 32.7452 73.8631 32.7452C73.5895 32.7452 73.3596 32.8778 73.3596 33.2014C73.3596 33.5251 73.6691 33.6724 74.1511 33.8491C74.3238 33.6576 74.4102 33.4661 74.4102 33.2604H74.4098Z" fill="#164675"/>
<path d="M78.3235 34.0996C78.3235 33.7833 78.3523 33.3119 78.3667 32.9957H78.3379C78.1867 33.2755 77.9928 33.555 77.8272 33.8348L77.352 34.6298H80V35.5869H76.1867V34.7035L77.9491 31.9654H79.4745V36.6318H78.3231V34.0996H78.3235Z" fill="#164675"/>
<path d="M48.8179 31.3C48.9297 31.2532 49.2215 31.1297 49.3879 31.1145C49.3112 31.2003 48.9801 31.3962 48.8984 31.4676C49.2291 31.7098 49.6415 31.6418 49.8495 31.3307C49.9689 31.1522 50.0637 30.9568 50.176 30.7589C49.9469 30.7077 49.7144 30.6505 49.4954 30.6562C49.1003 30.6661 48.7781 31.0522 48.8179 31.3Z" fill="#164675"/>
<path d="M47.9976 31.2229C47.5195 31.2164 46.7471 31.4949 46.5125 31.9875C46.4342 31.6544 46.048 31.4464 45.7228 31.4143C46.2034 32.1963 46.8678 34.7607 45.3315 36.6184C46.0488 36.637 47.4696 36.6344 48.1149 36.6184C46.8166 35.3083 46.6366 32.5919 47.9972 31.2224L47.9976 31.2229Z" fill="#164675"/>
<path d="M45.5191 31.4837C45.3289 31.5785 45.1392 31.6734 44.9491 31.7683C45.1837 31.8142 45.3882 31.7051 45.6131 31.7293C45.486 32.2856 45.1498 32.4914 44.6416 32.3371C44.4282 32.2726 44.2182 32.1955 43.9865 32.1175C44.1716 31.8675 44.3376 31.6297 44.5176 31.4035C44.7492 31.1124 45.315 31.1379 45.5191 31.4832V31.4837Z" fill="#164675"/>
<path d="M47.7952 29.463C47.8969 29.3101 48.0667 29.0142 48.1353 28.9111C48.1289 28.964 48.0607 29.3491 48.0091 29.5302C48.5338 29.5077 48.8086 29.2261 48.7243 28.7291C48.6837 28.4896 48.6333 28.2517 48.5846 28C48.3423 28.1443 48.106 28.2721 47.8833 28.4211C47.5107 28.6698 47.4332 29.3417 47.7952 29.463Z" fill="#164675"/>
<path d="M45.9675 29.463C45.8659 29.3101 45.6961 29.0142 45.6275 28.9111C45.6338 28.964 45.702 29.3491 45.7537 29.5302C45.229 29.5077 44.9542 29.2261 45.0384 28.7291C45.0791 28.4896 45.1295 28.2517 45.1782 28C45.4204 28.1443 45.6567 28.2721 45.8794 28.4211C46.2521 28.6698 46.3296 29.3417 45.9675 29.463Z" fill="#164675"/>
<path d="M46.5206 31.1999C46.596 31.2523 46.7001 31.3091 46.7078 31.2662C46.7175 31.2133 46.7327 30.6618 46.7437 30.4378C46.7979 30.5695 46.8555 31.1275 46.9326 31.261C47.3832 30.9746 47.4628 30.5968 47.1626 30.1814C47.0266 29.9933 46.875 29.817 46.7205 29.6229C46.5748 29.8564 46.4215 30.0765 46.2957 30.3118C46.1229 30.635 46.2258 30.9945 46.5206 31.2003V31.1999Z" fill="#164675"/>
<path d="M46.6201 29.3556C46.7044 29.437 46.7522 29.4531 46.7759 29.311C46.8039 29.142 46.8437 28.9748 46.8788 28.8071C46.9042 28.9133 46.908 29.0172 46.9127 29.1208C46.9178 29.23 46.8822 29.3422 46.9246 29.4522C47.2985 29.2915 47.4035 29.0159 47.2252 28.665C47.1448 28.5065 47.0512 28.3544 46.9572 28.1885C46.8195 28.347 46.6777 28.4943 46.5553 28.6564C46.3868 28.8795 46.4219 29.1632 46.6205 29.3552L46.6201 29.3556Z" fill="#164675"/>
<path d="M49.1114 30.3174C49.1982 30.0471 49.2587 29.8404 49.3358 29.554C49.1719 29.564 48.6612 29.6259 48.5105 29.6723C48.0531 29.8131 47.7719 30.1159 47.868 30.5947C48.0582 30.5089 48.203 30.3975 48.4745 30.3079C48.2979 30.508 48.1484 30.6545 48.012 30.8087C48.6108 31.0054 48.9534 30.8087 49.1114 30.317V30.3174Z" fill="#164675"/>
<path d="M43.4661 30.9911C43.3408 30.7857 43.2332 30.5687 43.1125 30.3482C43.2497 30.3226 43.367 30.2996 43.4843 30.2784C43.6109 30.2559 43.7371 30.2268 43.8646 30.2138C44.2694 30.1736 44.568 30.4825 44.5324 30.904C44.3579 30.8724 44.2165 30.8104 43.9738 30.7927C44.1593 30.9218 44.2991 31.0184 44.4426 31.118C44.0882 31.4178 43.6935 31.3645 43.4657 30.9906L43.4661 30.9911Z" fill="#164675"/>
<path d="M45.6465 30.8485C45.5741 30.6731 45.3857 30.5734 45.3268 30.3395C45.5258 30.3776 45.6169 30.5106 45.7325 30.6029C45.8299 30.6804 45.8756 30.6605 45.9078 30.5435C46.0077 30.1848 45.7825 29.7377 45.4217 29.6433C45.118 29.5636 44.8038 29.5267 44.4833 29.4691C44.5315 29.7802 44.5629 30.0592 44.62 30.3326C44.7255 30.8377 45.1981 31.0708 45.6465 30.8485Z" fill="#164675"/>
<path d="M11.2529 25.0518V17.8366C11.2529 17.8366 11.1318 14.9568 13.5854 12.9904C16.039 11.024 16.9175 9.64603 16.9175 9.64603C16.9175 9.64603 14.7365 11.9066 11.5861 13.393C8.4358 14.8793 6.39111 16.5051 6.39111 19.3849V25.0673H11.2529V25.0518Z" fill="#F99D1C"/>
<path d="M6.40658 16.3193C6.40658 16.3193 6.42173 15.0806 11.0715 12.8975C15.7213 10.7144 20.4922 6.47197 19.8864 0C19.8864 0 19.2048 5.45008 13.8886 9.38281C8.57244 13.3155 7.6031 13.393 7.6031 13.393C7.6031 13.393 7.78485 10.6369 10.5717 8.68606C13.3585 6.73518 14.2067 5.68233 14.449 5.17138C14.449 5.17138 13.5251 6.11586 11.0412 7.44741C8.55729 8.77896 5.90677 11.4885 6.40658 16.3193Z" fill="#F15F22"/>
<path d="M11.4953 10.7763C10.8138 11.2563 10.2382 11.6279 9.7687 11.9375C9.45063 11.7363 9.25374 11.3647 9.25374 10.9621C9.25374 10.3273 9.75355 9.80086 10.3897 9.80086C10.9349 9.80086 11.4044 10.2344 11.4953 10.7763Z" fill="#F15F22"/>
<path d="M13.7825 9.13507C13.7674 9.15056 13.7522 9.15056 13.7371 9.16604C13.0252 9.69247 12.4042 10.1415 11.8438 10.5286C11.5258 10.2963 11.3137 9.90923 11.3137 9.4757C11.3137 8.76348 11.8741 8.1906 12.5708 8.1906C13.1464 8.1906 13.631 8.57768 13.7825 9.13507Z" fill="#F15F22"/>
<path d="M16.0398 7.0913C15.5097 7.67966 14.8887 8.26802 14.1769 8.82541C13.7831 8.59317 13.5105 8.15964 13.5105 7.66418C13.5105 6.92098 14.1012 6.31714 14.8282 6.31714C15.3734 6.30166 15.8278 6.62681 16.0398 7.0913Z" fill="#F15F22"/>
<path d="M17.5837 5.063C17.2354 5.60492 16.8416 6.16231 16.3721 6.70422C15.8874 6.59584 15.5088 6.14683 15.5088 5.60492C15.5088 4.98559 16.0086 4.47464 16.6144 4.47464C17.0385 4.47464 17.402 4.70689 17.5837 5.063Z" fill="#F15F22"/>
<path d="M18.9171 2.44634C18.6748 3.05018 18.3719 3.71596 17.9629 4.42819C17.4934 4.30432 17.1299 3.85531 17.1299 3.32888C17.1299 2.70955 17.6297 2.19861 18.2356 2.19861C18.493 2.21409 18.7354 2.29151 18.9171 2.44634Z" fill="#F15F22"/>
<path d="M0 1.64122H5.4828C5.4828 1.64122 8.10302 3.4063 9.37528 7.97384C9.37528 7.97384 6.86107 9.61506 6.52786 11.5659C6.52786 11.5659 3.60471 3.94821 0 1.64122Z" fill="#F99D1C"/>
<path d="M23.5966 19.6636C23.5966 20.4532 23.4755 21.1809 23.2331 21.8467C22.9908 22.5125 22.6424 23.0853 22.1881 23.5653C21.7337 24.0453 21.1884 24.4169 20.5523 24.6646C19.9162 24.9278 19.2043 25.0517 18.4167 25.0517C17.6292 25.0517 16.9325 24.9278 16.2963 24.6646C15.6753 24.4014 15.1301 24.0298 14.6606 23.5498C14.2062 23.0699 13.8578 22.497 13.6155 21.8467C13.3732 21.1964 13.252 20.4687 13.252 19.6636C13.252 18.8584 13.3732 18.1307 13.6155 17.465C13.8578 16.7992 14.2062 16.2263 14.6454 15.7618C15.0998 15.2818 15.6451 14.9257 16.2812 14.6625C16.9173 14.3993 17.6292 14.2754 18.4016 14.2754C19.1892 14.2754 19.901 14.3993 20.5372 14.6625C21.1733 14.9257 21.7185 15.2973 22.1729 15.7618C22.6273 16.2418 22.9756 16.8147 23.218 17.465C23.4755 18.1462 23.5966 18.8739 23.5966 19.6636ZM20.9915 19.6636C20.9915 18.5797 20.7644 17.7436 20.2948 17.1398C19.8253 16.536 19.2043 16.2418 18.4167 16.2418C17.9169 16.2418 17.4626 16.3811 17.0839 16.6443C16.6901 16.9076 16.4023 17.3101 16.1903 17.8365C15.9783 18.363 15.8722 18.9668 15.8722 19.679C15.8722 20.3758 15.9783 20.9796 16.1752 21.4906C16.3872 22.0015 16.675 22.4041 17.0536 22.6828C17.4323 22.9615 17.8866 23.1008 18.4016 23.1008C19.1892 23.1008 19.8102 22.7912 20.2797 22.1873C20.7643 21.568 20.9915 20.7319 20.9915 19.6636Z" fill="#F99D1C"/>
<path d="M32.3818 23.5653V23.2247C32.0789 23.6273 31.7457 23.9679 31.3973 24.2311C31.049 24.5098 30.6855 24.7111 30.2765 24.8349C29.8676 24.9743 29.4132 25.0362 28.8831 25.0362C28.2621 25.0362 27.7017 24.8969 27.2019 24.6337C26.7021 24.3705 26.3235 23.9989 26.0508 23.5344C25.7328 22.977 25.5662 22.1564 25.5662 21.1035V15.8547C25.5662 15.3283 25.6873 14.9257 25.9145 14.6625C26.1417 14.3993 26.4598 14.2754 26.8384 14.2754C27.2322 14.2754 27.5503 14.4148 27.7926 14.678C28.0349 14.9412 28.1561 15.3438 28.1561 15.8702V20.1126C28.1561 20.7319 28.2015 21.2428 28.3076 21.6609C28.4136 22.0789 28.5953 22.4041 28.8528 22.6363C29.1103 22.8686 29.4738 22.9924 29.9282 22.9924C30.3674 22.9924 30.7763 22.8531 31.1701 22.5899C31.5488 22.3267 31.8365 21.9706 32.0183 21.5525C32.1697 21.1809 32.2303 20.3603 32.2303 19.0907V15.8702C32.2303 15.3438 32.3515 14.9567 32.5938 14.678C32.8362 14.4148 33.1542 14.2754 33.5329 14.2754C33.9115 14.2754 34.2296 14.3993 34.4568 14.6625C34.684 14.9257 34.8051 15.3283 34.8051 15.8547V23.5344C34.8051 24.0453 34.6991 24.4169 34.4719 24.6646C34.2447 24.9124 33.957 25.0362 33.6086 25.0362C33.2602 25.0362 32.9573 24.9124 32.7301 24.6491C32.4878 24.4014 32.3818 24.0298 32.3818 23.5653Z" fill="#F99D1C"/>
<path d="M39.7876 15.7617V16.0869C40.2723 15.4675 40.7873 15.0185 41.3022 14.7398C41.8323 14.4457 42.423 14.3063 43.0894 14.3063C43.8921 14.3063 44.6191 14.5231 45.2856 14.9411C45.952 15.3592 46.4821 15.9785 46.8759 16.7836C47.2697 17.5887 47.4666 18.5487 47.4666 19.6635C47.4666 20.4841 47.3605 21.2273 47.1334 21.9085C46.9062 22.5898 46.6033 23.1627 46.2095 23.6272C45.8157 24.0917 45.3461 24.4478 44.816 24.6955C44.2859 24.9433 43.7104 25.0671 43.0894 25.0671C42.3473 25.0671 41.7263 24.9123 41.2265 24.6181C40.7267 24.3084 40.242 23.8749 39.7876 23.2711V27.2502C39.7876 28.4115 39.3787 28.9998 38.5457 28.9998C38.061 28.9998 37.7278 28.845 37.5763 28.5508C37.4249 28.2566 37.334 27.8076 37.334 27.2348V15.7927C37.334 15.2817 37.44 14.9101 37.6521 14.6624C37.8641 14.4147 38.167 14.2908 38.5305 14.2908C38.894 14.2908 39.1969 14.4147 39.4241 14.6779C39.6665 14.9256 39.7876 15.2817 39.7876 15.7617ZM44.8615 19.617C44.8615 18.9203 44.7555 18.3164 44.5434 17.821C44.3314 17.3255 44.0436 16.9384 43.6801 16.6597C43.3166 16.3965 42.8925 16.2572 42.4533 16.2572C41.7414 16.2572 41.1356 16.5514 40.6509 17.1242C40.1663 17.6971 39.9088 18.5487 39.9088 19.6635C39.9088 20.7163 40.1511 21.5369 40.6358 22.1253C41.1205 22.7137 41.7263 23.0079 42.4533 23.0079C42.8774 23.0079 43.2863 22.884 43.6498 22.6208C44.0133 22.3576 44.3162 21.986 44.5283 21.475C44.7555 20.9641 44.8615 20.3447 44.8615 19.617Z" fill="#F15F22"/>
<path d="M56.1002 23.5654C55.4792 24.0609 54.8734 24.4325 54.2827 24.6802C53.692 24.9279 53.0407 25.0518 52.3137 25.0518C51.6473 25.0518 51.0718 24.9124 50.5568 24.6492C50.057 24.386 49.6632 24.0144 49.3906 23.5499C49.1179 23.0854 48.9816 22.59 48.9816 22.048C48.9816 21.3203 49.2088 20.701 49.6632 20.1901C50.1176 19.6791 50.7234 19.3385 51.511 19.1682C51.6776 19.1372 52.0865 19.0443 52.7378 18.905C53.3891 18.7656 53.9495 18.6418 54.419 18.5334C54.8885 18.425 55.3883 18.2856 55.9336 18.1153C55.9033 17.4186 55.767 16.9076 55.5246 16.5825C55.2823 16.2573 54.7825 16.087 54.01 16.087C53.3588 16.087 52.859 16.1799 52.5258 16.3657C52.1925 16.5515 51.9048 16.8302 51.6776 17.2173C51.4353 17.5889 51.2687 17.8366 51.1778 17.9605C51.0869 18.0844 50.8749 18.1463 50.5416 18.1463C50.2539 18.1463 49.9964 18.0534 49.7844 17.8676C49.5723 17.6818 49.4663 17.4341 49.4663 17.1399C49.4663 16.6754 49.6329 16.2264 49.951 15.7774C50.269 15.3438 50.784 14.9722 51.4655 14.6935C52.1471 14.4148 52.9953 14.26 54.0252 14.26C55.1611 14.26 56.0547 14.3994 56.706 14.6781C57.3573 14.9568 57.8117 15.3903 58.0843 15.9786C58.3569 16.567 58.4932 17.3566 58.4932 18.3476C58.4932 18.9669 58.4932 19.4933 58.4932 19.9269C58.4932 20.3604 58.4781 20.8404 58.4781 21.3668C58.4781 21.8623 58.5538 22.3887 58.7204 22.9306C58.887 23.4725 58.9627 23.8131 58.9627 23.968C58.9627 24.2467 58.8416 24.4944 58.5841 24.7112C58.3266 24.9279 58.054 25.0518 57.7359 25.0518C57.4633 25.0518 57.2058 24.9279 56.9483 24.6647C56.6606 24.417 56.3879 24.0454 56.1002 23.5654ZM55.9336 19.7256C55.5549 19.8649 54.9945 20.0198 54.2827 20.1746C53.5557 20.3294 53.0559 20.4533 52.7832 20.5307C52.5106 20.6081 52.238 20.7475 51.9805 20.9642C51.723 21.181 51.6019 21.4907 51.6019 21.8777C51.6019 22.2803 51.7533 22.6209 52.0411 22.8996C52.344 23.1783 52.7227 23.3177 53.2073 23.3177C53.7223 23.3177 54.1918 23.2093 54.631 22.977C55.0703 22.7448 55.3883 22.4506 55.5852 22.0945C55.8124 21.6919 55.9336 21.0262 55.9336 20.1127V19.7256Z" fill="#F15F22"/>
<path d="M69.4583 21.5989C69.4583 22.3266 69.2765 22.9614 68.9433 23.4723C68.595 23.9988 68.08 24.3859 67.3985 24.6646C66.7169 24.9278 65.8839 25.0671 64.9145 25.0671C63.9906 25.0671 63.1879 24.9278 62.5215 24.6336C61.8551 24.3394 61.3704 23.9833 61.0524 23.5343C60.7343 23.1007 60.5828 22.6517 60.5828 22.2182C60.5828 21.924 60.6889 21.6763 60.8858 21.475C61.0827 21.2737 61.3401 21.1654 61.6582 21.1654C61.9308 21.1654 62.1429 21.2273 62.2792 21.3666C62.4306 21.506 62.5669 21.6918 62.7033 21.9395C62.9759 22.4195 63.2939 22.7601 63.6574 22.9924C64.0209 23.2246 64.5359 23.3485 65.172 23.3485C65.687 23.3485 66.1111 23.2246 66.4443 22.9924C66.7775 22.7601 66.9441 22.4814 66.9441 22.1872C66.9441 21.7227 66.7775 21.3821 66.4291 21.1654C66.0808 20.9486 65.5204 20.7473 64.7177 20.546C63.824 20.3138 63.097 20.0815 62.5366 19.8338C61.9763 19.5861 61.5219 19.2609 61.1887 18.8429C60.8555 18.4403 60.6889 17.9294 60.6889 17.341C60.6889 16.8146 60.8403 16.3036 61.1584 15.8391C61.4613 15.3592 61.9308 14.9876 62.5366 14.7089C63.1425 14.4302 63.8695 14.2908 64.7328 14.2908C65.3992 14.2908 66.005 14.3682 66.5352 14.5076C67.0653 14.6469 67.5196 14.8482 67.868 15.0805C68.2315 15.3127 68.5041 15.5914 68.6859 15.8701C68.8676 16.1643 68.9736 16.443 68.9736 16.7217C68.9736 17.0313 68.8676 17.2791 68.6707 17.4649C68.4738 17.6662 68.186 17.7591 67.8225 17.7591C67.5499 17.7591 67.3379 17.6816 67.141 17.5268C66.9592 17.372 66.7472 17.1397 66.5049 16.8301C66.308 16.5668 66.0808 16.3656 65.8082 16.2107C65.5355 16.0559 65.1872 15.9785 64.7328 15.9785C64.2633 15.9785 63.8695 16.0869 63.5666 16.2882C63.2636 16.4894 63.097 16.7526 63.097 17.0468C63.097 17.3255 63.2182 17.5578 63.4454 17.7281C63.6726 17.9139 63.9755 18.0532 64.3693 18.1771C64.7479 18.301 65.2932 18.4403 65.9596 18.6106C66.7623 18.8119 67.4136 19.0442 67.9286 19.3229C68.4435 19.6016 68.8222 19.9267 69.0948 20.3138C69.322 20.6699 69.4583 21.1034 69.4583 21.5989Z" fill="#F15F22"/>
<path d="M79.9999 21.5989C79.9999 22.3266 79.8182 22.9614 79.485 23.4723C79.1366 23.9988 78.6217 24.3859 77.9401 24.6646C77.2585 24.9278 76.4255 25.0671 75.4562 25.0671C74.5323 25.0671 73.7295 24.9278 73.0631 24.6336C72.3967 24.3394 71.912 23.9833 71.594 23.5343C71.2759 23.1007 71.1245 22.6517 71.1245 22.2182C71.1245 21.924 71.2305 21.6763 71.4274 21.475C71.6243 21.2737 71.8818 21.1654 72.1998 21.1654C72.4724 21.1654 72.6845 21.2273 72.8208 21.3666C72.9723 21.506 73.1086 21.6918 73.2449 21.9395C73.5175 22.4195 73.8356 22.7601 74.1991 22.9924C74.5626 23.2246 75.0775 23.3485 75.7137 23.3485C76.2286 23.3485 76.6527 23.2246 76.9859 22.9924C77.3191 22.7601 77.4857 22.4814 77.4857 22.1872C77.4857 21.7227 77.3191 21.3821 76.9708 21.1654C76.6224 20.9486 76.062 20.7473 75.2593 20.546C74.3657 20.3138 73.6387 20.0815 73.0783 19.8338C72.5179 19.5861 72.0635 19.2609 71.7303 18.8429C71.3971 18.4403 71.2305 17.9294 71.2305 17.341C71.2305 16.8146 71.3819 16.3036 71.7 15.8391C72.0029 15.3592 72.4724 14.9876 73.0783 14.7089C73.6841 14.4302 74.4111 14.2908 75.2744 14.2908C75.9408 14.2908 76.5467 14.3682 77.0768 14.5076C77.6069 14.6469 78.0613 14.8482 78.4096 15.0805C78.7731 15.3127 79.0457 15.5914 79.2275 15.8701C79.4092 16.1643 79.5153 16.443 79.5153 16.7217C79.5153 17.0313 79.4092 17.2791 79.2123 17.4649C79.0155 17.6662 78.7277 17.7591 78.3642 17.7591C78.0915 17.7591 77.8795 17.6816 77.6826 17.5268C77.5009 17.372 77.2888 17.1397 77.0465 16.8301C76.8496 16.5668 76.6224 16.3656 76.3498 16.2107C76.0772 16.0559 75.7288 15.9785 75.2744 15.9785C74.8049 15.9785 74.4111 16.0869 74.1082 16.2882C73.8053 16.4894 73.6387 16.7526 73.6387 17.0468C73.6387 17.3255 73.7598 17.5578 73.987 17.7281C74.2142 17.9139 74.5171 18.0532 74.9109 18.1771C75.2896 18.301 75.8348 18.4403 76.5012 18.6106C77.304 18.8119 77.9552 19.0442 78.4702 19.3229C78.9852 19.6016 79.3638 19.9267 79.6364 20.3138C79.8636 20.6699 79.9999 21.1034 79.9999 21.5989Z" fill="#F15F22"/>
<path d="M37.2879 11.0395C37.3182 11.1479 37.3636 11.2408 37.409 11.3337C37.4696 11.4266 37.5302 11.504 37.6059 11.5814C37.6817 11.6588 37.7725 11.7208 37.8634 11.7517C37.9543 11.7982 38.0603 11.8137 38.1663 11.8137C38.2723 11.8137 38.3784 11.7827 38.4844 11.7208C38.4995 11.7208 38.5147 11.7053 38.5147 11.7053C38.545 11.6898 38.545 11.6434 38.5298 11.6124C38.5147 11.5814 38.4692 11.5814 38.439 11.5969C38.4238 11.6124 38.3935 11.6279 38.3784 11.6279H38.3935C38.3481 11.6588 38.2875 11.6743 38.2421 11.6898H38.2572C38.2118 11.7053 38.1512 11.7053 38.1057 11.7053H38.1209C38.0603 11.7053 37.9997 11.6898 37.9543 11.6743H37.9694C37.9089 11.6588 37.8483 11.6124 37.7877 11.5814C37.7877 11.5814 37.8028 11.5814 37.8028 11.5969C37.7271 11.5505 37.6665 11.4885 37.6059 11.4266C37.6059 11.4266 37.6059 11.4421 37.6211 11.4421C37.5605 11.3801 37.5151 11.3027 37.4696 11.2098V11.2253C37.4393 11.1634 37.409 11.086 37.3939 11.0085C37.3939 10.9931 37.3787 10.9776 37.3636 10.9776C37.3485 10.9776 37.3333 10.9621 37.3182 10.9776C37.303 10.9776 37.2879 10.9931 37.2879 11.0085V11.024C37.2879 11.0085 37.2879 11.024 37.2879 11.0395Z" fill="#121212"/>
<path d="M37.3789 10.9928C37.3637 10.9928 37.3486 11.0083 37.3486 11.0083C37.288 11.0238 37.2274 11.0238 37.1668 10.9774C37.1365 10.9464 37.1214 10.9154 37.1365 10.8845C37.1668 10.8225 37.2274 10.7761 37.288 10.7916C37.3334 10.807 37.3637 10.8535 37.3637 10.9154C37.3637 10.869 37.3334 10.807 37.3789 10.7916C37.4243 10.7761 37.4395 10.8225 37.4546 10.869C37.4546 10.8999 37.4243 10.9309 37.4092 10.9619C37.394 10.9619 37.3789 10.9774 37.3789 10.9928Z" fill="#121212"/>
<path d="M37.3487 10.9311C37.3336 10.9466 37.3184 10.9466 37.3033 10.9466H37.3184C37.3033 10.9466 37.2881 10.9466 37.273 10.9466H37.2881C37.273 10.9466 37.2578 10.9466 37.2427 10.9311H37.2578C37.2427 10.9311 37.2275 10.9156 37.2124 10.9156C37.2124 10.9156 37.2275 10.9156 37.2275 10.9311C37.2124 10.9311 37.2124 10.9156 37.1972 10.9156C37.1972 10.9156 37.1972 10.9311 37.2124 10.9311L37.1972 10.9156V10.9311C37.1972 10.9156 37.1972 10.9156 37.1821 10.9002V10.9156C37.1821 10.9002 37.1821 10.9002 37.1821 10.8847V10.9002C37.1821 10.8847 37.1972 10.8847 37.1972 10.8692C37.1972 10.8692 37.1972 10.8847 37.1821 10.8847C37.1972 10.8692 37.1972 10.8692 37.2124 10.8537C37.2124 10.8537 37.1972 10.8537 37.1972 10.8692C37.2124 10.8537 37.2124 10.8537 37.2275 10.8537H37.2124C37.2275 10.8537 37.2275 10.8382 37.2427 10.8382H37.2275C37.2427 10.8382 37.2427 10.8382 37.2578 10.8382H37.2427C37.2578 10.8382 37.2578 10.8382 37.273 10.8382H37.2578C37.2578 10.8382 37.273 10.8382 37.273 10.8537C37.273 10.8537 37.2578 10.8537 37.2578 10.8382L37.273 10.8537C37.273 10.8537 37.273 10.8382 37.2578 10.8382C37.2578 10.8382 37.273 10.8537 37.273 10.8692V10.8537C37.273 10.8692 37.2881 10.8847 37.2881 10.8847V10.8692C37.2881 10.8847 37.2881 10.8847 37.2881 10.9002C37.2881 10.9156 37.3033 10.9311 37.3033 10.9466C37.3184 10.9621 37.3184 10.9621 37.3336 10.9621C37.3487 10.9621 37.3638 10.9621 37.3638 10.9466C37.379 10.9311 37.3941 10.9311 37.3941 10.9156C37.3941 10.9002 37.3941 10.8847 37.3941 10.8537C37.3941 10.8382 37.3941 10.8228 37.3941 10.8073C37.3941 10.8073 37.3941 10.8227 37.379 10.8227C37.379 10.8227 37.3638 10.8227 37.3638 10.8382C37.3638 10.8382 37.3639 10.8382 37.379 10.8382H37.3638C37.3638 10.8382 37.3639 10.8382 37.379 10.8382H37.3638C37.3638 10.8382 37.3639 10.8382 37.379 10.8382H37.3638C37.3638 10.8382 37.3639 10.8382 37.379 10.8382H37.3638C37.3638 10.8382 37.3639 10.8382 37.379 10.8382C37.379 10.8382 37.3638 10.8382 37.3638 10.8227C37.3638 10.8227 37.3639 10.8227 37.379 10.8382C37.379 10.8382 37.379 10.8227 37.3638 10.8227C37.3638 10.8227 37.3639 10.8382 37.379 10.8382V10.8227C37.379 10.8382 37.379 10.8382 37.3941 10.8537V10.8382C37.3941 10.8537 37.3941 10.8537 37.3941 10.8692V10.8537C37.3941 10.8692 37.3941 10.8692 37.3941 10.8847V10.8692C37.3941 10.8847 37.379 10.9002 37.379 10.9002C37.379 10.9002 37.379 10.8847 37.3941 10.8847C37.3638 10.9156 37.3487 10.9311 37.3487 10.9311C37.3336 10.9466 37.3184 10.9776 37.3184 10.9931C37.3184 11.0085 37.3336 11.024 37.3336 11.0395C37.3638 11.055 37.3941 11.055 37.4244 11.0395C37.4396 11.024 37.4547 11.0085 37.4547 10.9931C37.4699 10.9776 37.485 10.9621 37.485 10.9466C37.5002 10.9156 37.5002 10.9002 37.5002 10.8692C37.5002 10.8537 37.5002 10.8382 37.485 10.8227C37.485 10.8073 37.4699 10.7918 37.4547 10.7763C37.4396 10.7608 37.4093 10.7453 37.379 10.7453C37.3336 10.7453 37.2881 10.7918 37.273 10.8382C37.273 10.8537 37.273 10.8692 37.273 10.9002C37.273 10.9156 37.273 10.9311 37.273 10.9466V10.9311C37.3184 10.9311 37.3487 10.9311 37.3941 10.9311C37.3941 10.9156 37.3941 10.9002 37.3941 10.8847C37.3941 10.8692 37.3941 10.8692 37.379 10.8537C37.379 10.8382 37.3638 10.8228 37.3487 10.8073C37.3336 10.7918 37.3184 10.7763 37.3033 10.7608C37.273 10.7453 37.2427 10.7453 37.2124 10.7453C37.1821 10.7453 37.1518 10.7608 37.1215 10.7763C37.0912 10.7918 37.0761 10.8073 37.0609 10.8382C37.0458 10.8537 37.0306 10.8692 37.0306 10.9002C37.0306 10.9311 37.0306 10.9466 37.0306 10.9621C37.0458 11.024 37.1064 11.0705 37.167 11.086C37.1972 11.1014 37.2275 11.1014 37.2578 11.086C37.3033 11.086 37.3336 11.0705 37.3638 11.0395C37.379 11.0395 37.379 11.0085 37.3941 11.0085C37.3941 10.9931 37.3941 10.9776 37.379 10.9621C37.4093 10.9311 37.3638 10.9156 37.3487 10.9311Z" fill="#121212"/>
<path d="M37.3181 10.6989C37.3029 10.6989 37.303 10.6834 37.303 10.6834C37.303 10.6834 37.3029 10.6834 37.3181 10.6989C37.2727 10.6524 37.2575 10.606 37.2272 10.5595C37.2121 10.544 37.1969 10.5131 37.1818 10.4976C37.1515 10.4666 37.1212 10.4357 37.0909 10.4357C37.0606 10.4357 37.0303 10.4357 37.0152 10.4666C37 10.4821 36.9849 10.5286 37 10.5595V10.544C37 10.575 37.0152 10.5905 37.0303 10.6215C37.0455 10.6524 37.0606 10.6679 37.0758 10.6834C37.1061 10.7144 37.1363 10.7453 37.1818 10.7763C37.1969 10.7918 37.2272 10.8073 37.2424 10.8227C37.2424 10.8227 37.2575 10.8227 37.2575 10.8382C37.2575 10.8382 37.2727 10.8382 37.2878 10.8382C37.3029 10.8382 37.3181 10.8382 37.3181 10.8227C37.3332 10.8073 37.3484 10.7918 37.3484 10.7763C37.3484 10.7608 37.3635 10.7453 37.3484 10.7298C37.3332 10.7144 37.3181 10.6989 37.3181 10.6989C37.2878 10.6834 37.2727 10.6834 37.2575 10.6834C37.2424 10.6834 37.2272 10.6989 37.2272 10.7144V10.7298C37.2272 10.7298 37.2272 10.7144 37.2424 10.7144C37.2424 10.7144 37.2575 10.7144 37.2575 10.6989C37.2878 10.6989 37.3029 10.6989 37.3332 10.6989C37.2878 10.6679 37.2272 10.6215 37.1818 10.575C37.1818 10.575 37.1818 10.5905 37.1969 10.5905C37.1818 10.575 37.1666 10.5595 37.1515 10.5286V10.544C37.1363 10.5286 37.1363 10.4976 37.1363 10.4821V10.4976V10.5131V10.5286C37.1363 10.5286 37.1363 10.544 37.1212 10.544C37.1212 10.544 37.1061 10.544 37.1061 10.5595H37.0909H37.0758H37.0606C37.0606 10.5595 37.0606 10.5595 37.0758 10.5595H37.0606C37.0606 10.5595 37.0606 10.5595 37.0758 10.5595C37.0758 10.5595 37.0606 10.5595 37.0606 10.544C37.0758 10.5595 37.0909 10.5595 37.1061 10.575C37.1061 10.575 37.1061 10.5595 37.0909 10.5595C37.1212 10.5905 37.1363 10.6369 37.1515 10.6679C37.1666 10.7144 37.1969 10.7453 37.2272 10.7763C37.2575 10.7918 37.2878 10.7918 37.3181 10.7763C37.3484 10.7608 37.3484 10.7298 37.3181 10.6989Z" fill="#121212"/>
<path d="M37.4088 10.7144C37.4088 10.6369 37.3936 10.5595 37.3936 10.4666V10.4821C37.3936 10.4666 37.3936 10.4511 37.3936 10.4357V10.4511C37.3936 10.4511 37.3936 10.4511 37.3936 10.4357C37.3936 10.4357 37.3936 10.4511 37.3785 10.4511C37.3785 10.4511 37.3633 10.4511 37.3633 10.4666C37.3633 10.4666 37.3633 10.4666 37.3785 10.4666H37.3633C37.3633 10.4666 37.3633 10.4666 37.3785 10.4666H37.3633C37.3633 10.4666 37.3633 10.4666 37.3785 10.4666H37.3633C37.3633 10.4666 37.3633 10.4666 37.3785 10.4666H37.3633C37.3633 10.4666 37.3633 10.4666 37.3785 10.4666C37.3785 10.4666 37.3633 10.4666 37.3633 10.4511C37.3633 10.4511 37.3633 10.4357 37.3482 10.4357V10.4202C37.3482 10.4357 37.3633 10.4511 37.3633 10.4666V10.4511C37.3633 10.4666 37.3633 10.4976 37.3633 10.5131V10.4976C37.3633 10.5595 37.333 10.6215 37.3179 10.6834C37.333 10.6679 37.3482 10.6524 37.3633 10.6369H37.3785C37.3785 10.6369 37.3785 10.6369 37.3633 10.6369C37.3482 10.6369 37.333 10.6369 37.3179 10.6524C37.3027 10.6679 37.3027 10.6834 37.2876 10.6834C37.2876 10.6989 37.2876 10.7144 37.3027 10.7298C37.3179 10.7453 37.3179 10.7453 37.333 10.7608C37.3482 10.7608 37.3482 10.7608 37.3633 10.7608C37.3785 10.7608 37.3785 10.7608 37.3936 10.7608C37.4088 10.7608 37.4088 10.7453 37.4239 10.7453C37.4239 10.7298 37.4391 10.7298 37.4391 10.7144C37.4542 10.6679 37.4693 10.6215 37.4693 10.575C37.4845 10.5131 37.4845 10.4666 37.4693 10.4047C37.4693 10.3892 37.4542 10.3737 37.4391 10.3582C37.4239 10.3428 37.4088 10.3428 37.3936 10.3428C37.3633 10.3428 37.333 10.3428 37.3179 10.3582C37.3027 10.3737 37.2876 10.3892 37.2876 10.4047C37.2876 10.4202 37.2876 10.4357 37.2876 10.4357C37.2876 10.4666 37.2876 10.4976 37.2876 10.5286C37.2876 10.5905 37.3027 10.6369 37.3027 10.6989C37.3027 10.7144 37.3179 10.7298 37.3179 10.7453C37.333 10.7608 37.3482 10.7608 37.3633 10.7608C37.3785 10.7608 37.3936 10.7453 37.4088 10.7453C37.4088 10.7453 37.4088 10.7298 37.4239 10.7298C37.4088 10.7453 37.4088 10.7298 37.4088 10.7144Z" fill="#121212"/>
<path d="M44.6639 9.89375C44.6791 9.95568 44.6791 10.0176 44.6791 10.0795C44.6791 10.095 44.6791 10.1105 44.6791 10.1415V10.126C44.6791 10.2034 44.6639 10.2808 44.6488 10.3428C44.6488 10.3582 44.6336 10.3892 44.6336 10.4047V10.3892C44.6185 10.4511 44.5882 10.5131 44.5579 10.575C44.5428 10.5905 44.5428 10.606 44.5276 10.6215C44.5276 10.6215 44.5276 10.606 44.5428 10.606C44.5125 10.6679 44.467 10.7144 44.4064 10.7608C44.4064 10.7608 44.4216 10.7608 44.4216 10.7453C44.3762 10.7763 44.3307 10.8227 44.2853 10.8382H44.3004C44.255 10.8692 44.2095 10.8847 44.149 10.8847H44.1641C44.1035 10.9002 44.0581 10.9002 43.9975 10.9002H44.0127C43.9975 10.9002 43.9824 10.9002 43.9521 10.9002C43.9369 10.9002 43.9218 10.9002 43.9066 10.9156C43.8915 10.9311 43.8915 10.9466 43.8763 10.9466C43.8763 10.9621 43.8763 10.9776 43.8915 10.9931C43.9066 11.0085 43.9066 11.024 43.9218 11.024C44.0278 11.0395 44.149 11.024 44.255 10.9931C44.361 10.9621 44.4367 10.9002 44.5125 10.8227C44.5882 10.7453 44.6488 10.6524 44.6942 10.5595C44.7397 10.4666 44.7699 10.3582 44.7851 10.2499C44.8002 10.1415 44.8002 10.0331 44.7851 9.92472C44.7851 9.90923 44.7851 9.89375 44.7851 9.89375C44.7851 9.87827 44.7699 9.86278 44.7699 9.8473C44.7548 9.83182 44.7397 9.83182 44.7245 9.83182C44.7094 9.83182 44.6942 9.8473 44.6791 9.8473C44.6639 9.86278 44.6639 9.87827 44.6639 9.89375Z" fill="#121212"/>
<path d="M44.6787 9.87807C44.6938 9.87807 44.709 9.87807 44.7241 9.87807C44.7847 9.87807 44.8453 9.83162 44.8756 9.76969C44.8907 9.73872 44.8907 9.69227 44.8756 9.6613C44.8301 9.61485 44.7544 9.59937 44.709 9.64582C44.6635 9.67679 44.6635 9.73872 44.6938 9.78517C44.6787 9.7542 44.6787 9.67679 44.6181 9.67679C44.5726 9.67679 44.5726 9.73872 44.5878 9.76969C44.6029 9.80065 44.6332 9.81613 44.6635 9.83162C44.6484 9.86258 44.6635 9.87807 44.6787 9.87807Z" fill="#121212"/>
<path d="M44.6637 9.94021C44.7243 9.94021 44.7849 9.9402 44.8455 9.89375C44.8758 9.87827 44.8909 9.8473 44.9061 9.81634C44.9212 9.78537 44.9364 9.75441 44.9364 9.72344C44.9364 9.70796 44.9364 9.69247 44.9212 9.67699C44.9061 9.66151 44.9061 9.63054 44.8909 9.63054C44.8606 9.61506 44.8303 9.59957 44.8001 9.58409C44.7395 9.56861 44.6637 9.58409 44.6183 9.64603C44.5729 9.69248 44.5729 9.76989 44.6032 9.83182C44.6335 9.81634 44.6789 9.80086 44.7092 9.76989V9.78537C44.7092 9.76989 44.694 9.75441 44.694 9.75441C44.694 9.73892 44.6789 9.72344 44.6789 9.70796C44.6637 9.69248 44.6486 9.67699 44.6335 9.66151C44.6032 9.64602 44.5729 9.64602 44.5577 9.66151C44.5274 9.66151 44.5123 9.69248 44.4971 9.70796C44.482 9.72344 44.482 9.75441 44.482 9.76989C44.482 9.78537 44.482 9.80085 44.4971 9.81634C44.4971 9.8473 44.5123 9.86279 44.5274 9.87827C44.5426 9.89376 44.5577 9.90924 44.588 9.92472C44.6183 9.92472 44.6335 9.92472 44.6637 9.94021C44.6637 9.94021 44.6789 9.94021 44.694 9.94021C44.7092 9.94021 44.7243 9.92472 44.7243 9.90924C44.7243 9.89375 44.7395 9.87827 44.7243 9.86279C44.7243 9.84731 44.7092 9.83182 44.694 9.83182C44.6637 9.81634 44.6486 9.81634 44.6183 9.80086C44.6183 9.80086 44.6335 9.80085 44.6335 9.81634C44.6183 9.81634 44.6183 9.80086 44.6032 9.80086C44.6032 9.80086 44.6032 9.81634 44.6183 9.81634L44.6032 9.80086V9.81634C44.6032 9.80085 44.6032 9.80086 44.588 9.78537V9.80086C44.588 9.78538 44.588 9.78537 44.588 9.76989V9.78537C44.588 9.78537 44.588 9.78537 44.588 9.76989C44.588 9.76989 44.588 9.78537 44.5729 9.78537C44.5729 9.78537 44.5577 9.78538 44.5577 9.80086H44.5426H44.5274C44.5274 9.80086 44.5274 9.80086 44.5426 9.80086C44.5426 9.80086 44.5274 9.80086 44.5274 9.78537C44.5274 9.78537 44.5274 9.78538 44.5426 9.80086C44.5426 9.80086 44.5426 9.78537 44.5274 9.78537C44.5274 9.78537 44.5274 9.80086 44.5426 9.80086V9.78537C44.5426 9.80086 44.5577 9.81634 44.5577 9.81634C44.5577 9.83182 44.5729 9.84731 44.5729 9.86279C44.5729 9.87827 44.6032 9.89375 44.6032 9.89375C44.6183 9.89375 44.6335 9.89375 44.6486 9.89375C44.6789 9.87827 44.694 9.8473 44.6789 9.81634C44.6789 9.80085 44.6637 9.80086 44.6637 9.78537V9.80086C44.6637 9.78538 44.6637 9.76989 44.6637 9.75441V9.76989C44.6637 9.75441 44.6637 9.75441 44.6637 9.73892V9.75441C44.6637 9.75441 44.6637 9.73892 44.6789 9.73892C44.6789 9.73892 44.6789 9.75441 44.6637 9.75441L44.6789 9.73892C44.6789 9.73892 44.6637 9.73892 44.6637 9.75441C44.6789 9.75441 44.6789 9.73892 44.694 9.73892H44.6789C44.694 9.73892 44.694 9.72344 44.7092 9.72344H44.694C44.7092 9.72344 44.7092 9.72344 44.7243 9.72344H44.7092C44.7243 9.72344 44.7395 9.72344 44.7395 9.72344H44.7243C44.7395 9.72344 44.7546 9.73892 44.7698 9.73892C44.7698 9.73892 44.7546 9.73893 44.7546 9.72344L44.7698 9.73892C44.7698 9.73892 44.7698 9.72344 44.7546 9.72344C44.7546 9.72344 44.7546 9.73892 44.7698 9.73892V9.72344C44.7698 9.72344 44.7698 9.73892 44.7849 9.75441V9.73892C44.7849 9.75441 44.7849 9.75441 44.7849 9.76989V9.75441C44.7849 9.76989 44.7849 9.76989 44.7849 9.78537V9.76989C44.7849 9.78537 44.7698 9.80086 44.7698 9.80086C44.7698 9.80086 44.7698 9.78537 44.7849 9.78537C44.7698 9.80086 44.7698 9.80085 44.7546 9.81634C44.7546 9.81634 44.7698 9.81634 44.7698 9.80086C44.7546 9.81634 44.7395 9.81634 44.7243 9.83182H44.7395C44.7243 9.83182 44.7092 9.84731 44.694 9.84731H44.7092C44.694 9.84731 44.6789 9.84731 44.6486 9.84731H44.6637C44.6637 9.84731 44.6637 9.84731 44.6486 9.84731C44.6335 9.84731 44.6183 9.84731 44.6032 9.86279C44.588 9.87827 44.588 9.89375 44.5729 9.89375C44.5729 9.90924 44.5729 9.92472 44.588 9.94021C44.6335 9.92472 44.6486 9.94021 44.6637 9.94021Z" fill="#121212"/>
<path d="M44.7241 9.64603C44.7393 9.61506 44.7393 9.58409 44.7544 9.55313C44.7544 9.52216 44.7544 9.49119 44.7544 9.46023V9.47571C44.7544 9.44474 44.7544 9.41378 44.7696 9.38281V9.39829C44.7696 9.38281 44.7847 9.36732 44.7847 9.35184C44.7847 9.35184 44.7847 9.36733 44.7696 9.36733C44.7696 9.36733 44.7696 9.36732 44.7847 9.35184C44.7847 9.35184 44.7696 9.35184 44.7696 9.36733C44.7696 9.36733 44.7696 9.36733 44.7847 9.36733H44.7696C44.7696 9.36733 44.7696 9.36733 44.7847 9.36733H44.7696H44.7544H44.7393C44.7393 9.36733 44.7241 9.36732 44.7241 9.35184C44.7241 9.35184 44.7241 9.33636 44.709 9.33636V9.32088V9.30539C44.709 9.32088 44.709 9.32088 44.709 9.33636V9.32088C44.709 9.33636 44.709 9.36733 44.709 9.38281V9.36733C44.709 9.39829 44.709 9.41377 44.6938 9.44474V9.42926C44.6787 9.49119 44.6484 9.53764 44.6181 9.58409C44.6333 9.56861 44.6636 9.56861 44.6787 9.55313H44.6938C44.6938 9.55313 44.6938 9.55313 44.6787 9.55313C44.6787 9.55313 44.6938 9.55313 44.6938 9.56861C44.6938 9.56861 44.6938 9.56861 44.6787 9.55313C44.6484 9.53764 44.6181 9.53764 44.5878 9.55313C44.5727 9.58409 44.5727 9.61506 44.5878 9.64603C44.603 9.66151 44.6181 9.66151 44.6333 9.67699C44.6484 9.67699 44.6636 9.67699 44.6787 9.67699C44.6938 9.67699 44.6938 9.66151 44.709 9.64603C44.7241 9.61506 44.7544 9.56861 44.7696 9.53764C44.7847 9.49119 44.7999 9.44474 44.815 9.39829C44.815 9.38281 44.815 9.36732 44.815 9.35184C44.815 9.33636 44.815 9.32088 44.7999 9.30539V9.32088C44.7999 9.28991 44.7696 9.24346 44.7393 9.24346C44.709 9.24346 44.6636 9.25894 44.6484 9.28991C44.6181 9.33636 44.603 9.38281 44.603 9.42926C44.603 9.46022 44.603 9.49119 44.603 9.50667V9.49119C44.603 9.52216 44.603 9.55312 44.5878 9.58409V9.56861C44.5878 9.56861 44.5878 9.58409 44.5727 9.58409C44.5727 9.59957 44.5575 9.61506 44.5727 9.63054C44.5727 9.64602 44.5878 9.6615 44.603 9.6615C44.6787 9.69247 44.709 9.67699 44.7241 9.64603Z" fill="#121212"/>
<path d="M44.6331 9.59957C44.6482 9.59957 44.6482 9.59957 44.6331 9.59957C44.6179 9.56861 44.6028 9.52216 44.5876 9.47571C44.5725 9.44474 44.5725 9.42926 44.5573 9.39829C44.5422 9.36733 44.527 9.33636 44.4968 9.32088C44.4665 9.30539 44.421 9.30539 44.3907 9.32088C44.3756 9.33636 44.3604 9.35184 44.3604 9.36733C44.3453 9.38281 44.3453 9.39829 44.3604 9.42926C44.3604 9.49119 44.3907 9.53764 44.421 9.58409C44.4513 9.63054 44.4816 9.66151 44.5119 9.70796C44.527 9.72344 44.527 9.72344 44.5422 9.72344C44.5573 9.72344 44.5725 9.72344 44.5876 9.72344C44.6028 9.72344 44.6179 9.70796 44.6179 9.70796C44.6331 9.69247 44.6331 9.69247 44.6482 9.67699C44.6482 9.63054 44.6482 9.61506 44.6331 9.59957C44.6179 9.58409 44.6179 9.58409 44.6028 9.56861C44.5876 9.56861 44.5725 9.56861 44.5573 9.58409C44.5573 9.58409 44.5422 9.58409 44.5422 9.59957H44.5573C44.5573 9.59957 44.5573 9.59957 44.5422 9.59957C44.5725 9.59957 44.5876 9.61506 44.6179 9.61506C44.5725 9.56861 44.527 9.52216 44.4968 9.46023V9.47571C44.4816 9.46023 44.4816 9.44474 44.4816 9.41378V9.42926C44.4816 9.41377 44.4816 9.39829 44.4816 9.39829V9.41378V9.42926C44.4816 9.42926 44.4816 9.44474 44.4665 9.44474C44.4665 9.44474 44.4513 9.44474 44.4513 9.46023C44.4513 9.46023 44.4513 9.46023 44.4665 9.46023H44.4513C44.4513 9.46023 44.4513 9.46023 44.4665 9.46023H44.4513C44.4513 9.46023 44.4513 9.46023 44.4665 9.46023H44.4513C44.4513 9.46023 44.4513 9.46023 44.4665 9.46023H44.4513C44.4513 9.46023 44.4513 9.46023 44.4665 9.46023C44.4665 9.46023 44.4513 9.46022 44.4513 9.44474C44.4513 9.44474 44.4513 9.42926 44.4362 9.42926C44.4513 9.44474 44.4513 9.46023 44.4665 9.47571V9.46023C44.4816 9.49119 44.4967 9.53764 44.5119 9.56861C44.527 9.61506 44.5422 9.64602 44.5573 9.69247C44.5573 9.70796 44.5876 9.70796 44.5876 9.72344C44.6028 9.72344 44.6179 9.72344 44.6331 9.70796C44.6482 9.69247 44.6482 9.69247 44.6634 9.67699V9.6615C44.6482 9.61506 44.6482 9.59957 44.6331 9.59957Z" fill="#121212"/>
<path d="M43.0739 13.6407C43.1648 13.7645 43.3617 14.0587 43.4526 14.1826C43.4829 14.2136 43.498 14.2445 43.5283 14.291C43.5435 14.3065 43.5435 14.3065 43.5586 14.3219C43.5737 14.3219 43.5889 14.3219 43.604 14.3065C43.6192 14.291 43.6192 14.291 43.6343 14.2755C43.6495 14.26 43.6343 14.2445 43.6192 14.229C43.5283 14.1052 43.3314 13.811 43.2405 13.6871C43.2102 13.6562 43.1951 13.6097 43.1648 13.5788C43.1497 13.5633 43.1345 13.5633 43.1345 13.5478C43.1194 13.5478 43.1042 13.5478 43.0891 13.5633C43.0739 13.5788 43.0588 13.6097 43.0739 13.6407Z" fill="#121212"/>
<path d="M43.5889 14.2441C43.6192 14.2441 43.6343 14.2287 43.6494 14.2287L43.6646 14.2133C43.6949 14.1979 43.71 14.1671 43.7403 14.1671C43.7555 14.1671 43.7555 14.1671 43.7706 14.1671C43.7858 14.1671 43.7858 14.1671 43.8009 14.1671C43.8161 14.1671 43.8312 14.1671 43.8463 14.1671C43.8615 14.1671 43.8766 14.1825 43.8918 14.1979C43.8918 14.1979 43.9069 14.2133 43.9069 14.2287C43.9069 14.2441 43.9069 14.2441 43.9221 14.2595C43.9221 14.2749 43.9069 14.2903 43.8918 14.2903C43.8766 14.3058 43.8766 14.3057 43.8615 14.3057C43.8312 14.3057 43.8161 14.3057 43.7858 14.3057C43.7706 14.3057 43.7555 14.3057 43.7555 14.3057C43.7252 14.3057 43.6949 14.2903 43.6797 14.2903H43.6646C43.6192 14.2903 43.604 14.2903 43.5889 14.2441C43.5889 14.2595 43.5889 14.2595 43.5889 14.2441Z" fill="#121212"/>
<path d="M43.5586 14.3065C43.5738 14.3065 43.5889 14.3065 43.6041 14.3065C43.6192 14.3065 43.6192 14.3065 43.6343 14.291C43.6495 14.291 43.6646 14.2755 43.6646 14.26C43.6646 14.26 43.6495 14.26 43.6495 14.2755C43.6495 14.2755 43.6495 14.2755 43.6646 14.2755H43.6495C43.6646 14.2755 43.6646 14.2755 43.6798 14.26C43.6798 14.26 43.6949 14.26 43.6949 14.2445C43.7101 14.2445 43.7101 14.229 43.7252 14.229C43.7252 14.229 43.7101 14.229 43.7101 14.2445C43.7252 14.2445 43.7252 14.229 43.7404 14.229H43.7252C43.7404 14.229 43.7404 14.229 43.7555 14.2136H43.7404C43.7555 14.2136 43.7707 14.2136 43.7707 14.2136H43.7555C43.7707 14.2136 43.7707 14.2136 43.7858 14.2136C43.801 14.2136 43.801 14.2136 43.8161 14.2136H43.801C43.8161 14.2136 43.8161 14.2136 43.8312 14.229H43.8161C43.8312 14.229 43.8312 14.2445 43.8464 14.2445C43.8464 14.2445 43.8312 14.2445 43.8312 14.229C43.8312 14.229 43.8312 14.229 43.8464 14.2445C43.8464 14.2445 43.8464 14.229 43.8312 14.229C43.8312 14.2445 43.8464 14.2445 43.8464 14.26V14.2445L43.8312 14.26C43.8312 14.26 43.8312 14.2445 43.8464 14.2445L43.8312 14.26C43.8312 14.26 43.8464 14.26 43.8464 14.2445L43.8312 14.26H43.8464C43.8312 14.26 43.8161 14.26 43.801 14.26H43.8161C43.7858 14.26 43.7404 14.26 43.7101 14.2445H43.7252C43.7101 14.2445 43.6949 14.229 43.6646 14.229C43.6495 14.229 43.6343 14.2136 43.6343 14.2136H43.6495C43.6495 14.2136 43.6343 14.2136 43.6343 14.1981C43.6343 14.1981 43.6495 14.1981 43.6495 14.2136C43.6495 14.2136 43.6495 14.2136 43.6343 14.1981C43.6343 14.1981 43.6343 14.2136 43.6495 14.2136C43.6495 14.2136 43.6495 14.2136 43.6495 14.1981V14.2136C43.6495 14.1981 43.6343 14.1826 43.6192 14.1671C43.6041 14.1516 43.5889 14.1516 43.5738 14.1516C43.5586 14.1516 43.5435 14.1671 43.5283 14.1826C43.5132 14.1981 43.5132 14.2136 43.5132 14.229C43.5283 14.2755 43.5283 14.291 43.5586 14.3065C43.5586 14.3219 43.5738 14.3374 43.5889 14.3374C43.6041 14.3374 43.6192 14.3529 43.6343 14.3529C43.6798 14.3684 43.7252 14.3684 43.7858 14.3684C43.8161 14.3684 43.8464 14.3684 43.8767 14.3529C43.907 14.3374 43.9373 14.3219 43.9524 14.291C43.9524 14.2755 43.9676 14.2755 43.9676 14.26C43.9676 14.2445 43.9676 14.229 43.9676 14.2136C43.9676 14.1981 43.9676 14.1826 43.9524 14.1671C43.9373 14.1361 43.9221 14.1207 43.8918 14.1052C43.8767 14.1052 43.8615 14.0897 43.8464 14.0897C43.8312 14.0897 43.8161 14.0897 43.801 14.0897H43.7858C43.7707 14.0897 43.7707 14.0897 43.7555 14.0897C43.7404 14.0897 43.7252 14.0897 43.7101 14.1052H43.7252C43.6798 14.1207 43.6495 14.1516 43.6041 14.1826C43.6192 14.1826 43.6192 14.1671 43.6343 14.1671C43.6192 14.1671 43.6041 14.1826 43.5889 14.1826C43.5889 14.1826 43.5738 14.1826 43.5738 14.1981C43.5738 14.1981 43.5889 14.1981 43.5889 14.1826H43.6041C43.6041 14.1826 43.6041 14.1826 43.5889 14.1826H43.6041C43.5889 14.1826 43.5738 14.1826 43.5586 14.1826C43.5435 14.1826 43.5283 14.1981 43.5283 14.2136C43.5283 14.229 43.5283 14.2445 43.5283 14.26C43.5435 14.291 43.5435 14.3065 43.5586 14.3065Z" fill="#121212"/>
<path d="M40.9535 14.1207C40.9838 14.2755 41.0141 14.4148 41.0444 14.5697C41.0444 14.6161 41.0596 14.6471 41.0596 14.6935C41.0596 14.709 41.0747 14.7245 41.0747 14.74C41.0899 14.7555 41.105 14.7555 41.1201 14.7555C41.1353 14.7555 41.1504 14.74 41.1656 14.74C41.1807 14.7245 41.1807 14.709 41.1807 14.6935C41.1656 14.5387 41.1353 14.3994 41.105 14.2445C41.0899 14.1981 41.0899 14.1516 41.0747 14.1207C41.0747 14.1052 41.0596 14.0897 41.0596 14.0742C41.0444 14.0587 41.0293 14.0587 41.0141 14.0587C40.999 14.0587 40.9838 14.0742 40.9687 14.0742C40.9535 14.0742 40.9384 14.0897 40.9535 14.1207Z" fill="#121212"/>
<path d="M41.1057 14.6935C41.0905 14.709 41.0602 14.709 41.0451 14.709C41.0299 14.709 41.0299 14.709 41.0148 14.709C40.9845 14.709 40.9542 14.709 40.9239 14.709C40.9088 14.709 40.9088 14.709 40.8936 14.7245C40.8785 14.74 40.8785 14.74 40.8633 14.74C40.8482 14.7555 40.833 14.7555 40.833 14.771C40.8179 14.7864 40.8179 14.8019 40.8179 14.8174C40.8179 14.8329 40.8179 14.8329 40.8179 14.8484C40.8179 14.8639 40.8179 14.8639 40.833 14.8793C40.8482 14.8948 40.8633 14.8948 40.8785 14.8948C40.8936 14.8948 40.9088 14.8948 40.9239 14.8948C40.9391 14.8793 40.9694 14.8793 40.9845 14.8639C40.9997 14.8639 40.9997 14.8484 41.0148 14.8329C41.0299 14.8174 41.0602 14.7864 41.0754 14.771L41.0905 14.7555C41.0905 14.74 41.1057 14.7245 41.1057 14.6935Z" fill="#121212"/>
<path d="M41.0601 14.6471C41.0752 14.6316 41.0752 14.6471 41.0601 14.6471C41.0752 14.6316 41.0752 14.6316 41.0601 14.6471C41.0752 14.6471 41.0752 14.6471 41.0752 14.6471C41.0601 14.6471 41.0449 14.6471 41.0146 14.6471H41.0298C41.0146 14.6471 40.9843 14.6471 40.9692 14.6471C40.954 14.6471 40.9389 14.6471 40.9237 14.6471C40.9086 14.6471 40.8934 14.6626 40.8783 14.6626H40.8934C40.8632 14.6781 40.8329 14.6935 40.8026 14.709C40.8026 14.709 40.8177 14.709 40.8177 14.6935C40.7874 14.709 40.7723 14.7245 40.7571 14.7555C40.742 14.771 40.7268 14.8019 40.742 14.8329C40.742 14.8639 40.7571 14.8948 40.7571 14.9103C40.7723 14.9413 40.8026 14.9568 40.8329 14.9568C40.8632 14.9568 40.8935 14.9568 40.9237 14.9413C40.9389 14.9258 40.954 14.9258 40.9692 14.9103C41.0146 14.8793 41.0449 14.8484 41.0752 14.8174C41.0903 14.8019 41.1055 14.771 41.1206 14.7555C41.1358 14.7245 41.1509 14.6935 41.1358 14.6626C41.1358 14.6471 41.1206 14.6316 41.1055 14.6316C41.0903 14.6316 41.0752 14.6161 41.0601 14.6316C41.0298 14.6471 41.0146 14.6781 41.0146 14.709C41.0146 14.709 41.0146 14.709 41.0146 14.7245V14.709C41.0146 14.709 41.0146 14.709 41.0146 14.7245V14.709C41.0146 14.7245 41.0146 14.7245 40.9995 14.7245L40.9843 14.74C40.9843 14.74 40.9843 14.7245 40.9995 14.7245C40.9843 14.7555 40.954 14.7864 40.9237 14.8174C40.9237 14.8174 40.9389 14.8174 40.9389 14.8019C40.9086 14.8174 40.8935 14.8329 40.8632 14.8484H40.8783C40.8783 14.8484 40.8632 14.8484 40.8632 14.8329C40.8632 14.8329 40.8783 14.8329 40.8783 14.8484C40.8783 14.8484 40.8783 14.8639 40.8934 14.8639C40.8934 14.8484 40.8934 14.8484 40.8783 14.8329V14.8484C40.8783 14.8329 40.8934 14.8329 40.8934 14.8174C40.8934 14.8174 40.8934 14.8329 40.8783 14.8329C40.8783 14.8329 40.8934 14.8329 40.8934 14.8174C40.9086 14.8174 40.9086 14.8019 40.9086 14.8019C40.9086 14.8019 40.8934 14.8019 40.8934 14.8174C40.9086 14.8019 40.9086 14.8019 40.9237 14.8019H40.9086C40.9237 14.8019 40.9237 14.7864 40.9389 14.7864H40.9237C40.9389 14.7864 40.954 14.7864 40.9692 14.7864C40.9843 14.7864 40.9843 14.7864 40.9995 14.7864H41.0146C41.0298 14.7864 41.0298 14.7864 41.0449 14.7864C41.0752 14.7864 41.0903 14.771 41.1055 14.7555C41.1206 14.74 41.1206 14.7245 41.1206 14.709C41.1206 14.6935 41.1206 14.6781 41.1055 14.6626C41.1206 14.6161 41.0903 14.6161 41.0601 14.6471Z" fill="#121212"/>
<path d="M41.7408 6.16231C41.5742 6.16231 39.893 6.11586 38.8631 7.57128C37.7877 9.08863 37.9846 11.3801 39.0297 12.7272C39.1811 12.9285 40.3322 14.2445 41.862 14.0587C41.9983 14.0433 43.1191 13.8729 43.6492 12.9904C43.8915 12.5723 43.9369 12.1233 43.9521 11.953C43.9824 11.5505 43.9369 11.2253 43.8461 10.7608C43.7703 10.3118 43.7097 10.1879 43.6492 9.75441C43.6189 9.56861 43.6037 9.33636 43.6189 9.05767C43.634 8.46931 43.6795 7.84998 43.4977 7.2771C43.2251 6.47198 42.5284 6.19328 41.7408 6.16231Z" fill="#F99D1C"/>
<path d="M38.6056 8.98012C38.5753 8.98012 38.5602 8.96464 38.5602 8.93367C38.5602 8.91819 38.5602 8.91818 38.5602 8.9027C38.5602 8.88722 38.5602 8.88722 38.5602 8.87174C38.5602 8.85625 38.5602 8.84077 38.5602 8.82529C38.5753 8.73239 38.6056 8.65497 38.6359 8.56207C38.6662 8.48466 38.6965 8.39176 38.7419 8.31434C38.7722 8.23693 38.8177 8.15951 38.848 8.09758C38.8631 8.06661 38.8934 8.02016 38.9085 7.98919L38.9388 7.94275L38.954 7.91178L38.9691 7.88081C38.9843 7.86533 38.9843 7.84985 38.9994 7.83436C39.0146 7.81888 39.0146 7.8034 39.0297 7.78792C39.06 7.75695 39.0752 7.74146 39.1054 7.74146C39.1357 7.74146 39.166 7.75695 39.166 7.78792C39.166 7.8034 39.166 7.81888 39.166 7.83436C39.166 7.84985 39.1509 7.86533 39.1357 7.88081C39.0146 8.06661 38.9237 8.26789 38.8328 8.48466C38.7874 8.59304 38.7571 8.70142 38.7268 8.79432C38.7268 8.8098 38.7117 8.82529 38.7117 8.85625C38.6965 8.87174 38.6965 8.88722 38.6814 8.9027C38.6662 8.91818 38.6662 8.93367 38.6511 8.94915C38.6359 8.96464 38.6208 8.98012 38.6056 8.98012Z" fill="white"/>
<path d="M38.6059 8.96476C38.5908 8.96476 38.5756 8.96477 38.5756 8.94928C38.5756 8.9338 38.5605 8.91831 38.5605 8.90283C38.5605 8.88735 38.5605 8.85638 38.5605 8.8409C38.5605 8.82542 38.5605 8.82541 38.5605 8.80993C38.5605 8.79445 38.5605 8.79445 38.5605 8.77897C38.5605 8.748 38.5756 8.73252 38.5756 8.70155L38.5908 8.67058C38.5908 8.6551 38.5908 8.63962 38.6059 8.63962L38.6362 8.5622L38.6665 8.48479C38.7119 8.39189 38.7422 8.29899 38.7877 8.20609L38.8028 8.17512C38.8028 8.15964 38.818 8.15964 38.818 8.14416L38.8482 8.08222L38.8785 8.02029C38.8937 8.00481 38.9088 7.97384 38.924 7.95836L38.9391 7.94288L38.9543 7.92739C38.9694 7.91191 38.9694 7.89642 38.9846 7.88094C38.9997 7.86546 38.9997 7.84997 39.0149 7.83449C39.03 7.81901 39.0451 7.80352 39.0603 7.80352C39.0906 7.78804 39.1209 7.80353 39.1209 7.83449C39.1209 7.84997 39.1209 7.86546 39.1209 7.89642C39.1209 7.91191 39.1057 7.92739 39.0906 7.95836C38.9846 8.12867 38.8937 8.31447 38.818 8.50027C38.7725 8.60865 38.7422 8.71703 38.7119 8.82541C38.6968 8.8409 38.6665 8.94928 38.6059 8.96476C38.5908 8.96476 38.5908 9.01121 38.6059 9.01121C38.6362 9.01121 38.6513 8.98024 38.6816 8.96476C38.6968 8.94928 38.6968 8.9338 38.7119 8.91831C38.7271 8.90283 38.7271 8.88735 38.7422 8.87187C38.7574 8.85638 38.7574 8.82541 38.7574 8.80993C38.7574 8.79445 38.7725 8.76348 38.7725 8.748V8.73251L38.7877 8.71703L38.8028 8.67058C38.8028 8.6551 38.818 8.63962 38.818 8.62413L38.8331 8.57768C38.8785 8.45382 38.924 8.34544 38.9846 8.22157L38.9997 8.17512L39.0149 8.12867L39.03 8.08222L39.0451 8.03577C39.0451 8.02029 39.0603 8.00481 39.0754 7.98932C39.0906 7.97384 39.0906 7.95836 39.1057 7.94288C39.1209 7.91191 39.136 7.89643 39.1512 7.86546C39.1512 7.86546 39.1512 7.84998 39.1663 7.84998V7.83449C39.1663 7.81901 39.1663 7.80353 39.1663 7.78804C39.1663 7.75708 39.1512 7.74159 39.136 7.72611C39.0906 7.69514 39.03 7.74159 38.9846 7.81901C38.924 7.91191 38.8634 8.02029 38.8028 8.12867C38.7422 8.23705 38.6968 8.34544 38.6514 8.45382C38.6362 8.48479 38.6211 8.51575 38.6059 8.54672C38.5908 8.57769 38.5756 8.60865 38.5756 8.63962C38.5605 8.70155 38.5302 8.76348 38.5302 8.8409C38.5302 8.85638 38.5302 8.88735 38.5302 8.90283C38.5302 8.91831 38.5302 8.9338 38.5453 8.94928C38.5605 8.98025 38.5756 8.99573 38.6059 8.99573C38.6211 8.99573 38.6211 8.96476 38.6059 8.96476Z" fill="white"/>
<path d="M38.5144 9.30531C38.575 9.30531 38.5902 9.35176 38.5902 9.36724C38.5902 9.44466 38.5599 9.50659 38.5599 9.58401C38.5599 9.64594 38.5599 9.72336 38.5447 9.78529C38.5447 9.81626 38.5599 9.84723 38.5144 9.86271C38.4539 9.87819 38.4084 9.86271 38.4084 9.81626C38.3933 9.72336 38.3933 9.61498 38.4084 9.52208C38.4084 9.47563 38.4236 9.42918 38.4236 9.36724C38.4236 9.33628 38.4539 9.30531 38.5144 9.30531Z" fill="white"/>
<path d="M38.5147 9.30539C38.5753 9.30539 38.5602 9.35184 38.5602 9.38281C38.5602 9.42926 38.545 9.46022 38.545 9.50667C38.5299 9.58409 38.5299 9.67699 38.5299 9.7544C38.5299 9.76989 38.5299 9.78537 38.5299 9.80086C38.5299 9.81634 38.5299 9.83182 38.5147 9.8473C38.4996 9.86279 38.4693 9.86279 38.439 9.8473C38.4087 9.83182 38.4087 9.81634 38.4087 9.80086C38.4087 9.70796 38.4087 9.61506 38.4087 9.53764C38.4087 9.49119 38.4087 9.44474 38.4239 9.38281C38.439 9.35184 38.4542 9.30539 38.5147 9.30539C38.5299 9.30539 38.5299 9.28991 38.5147 9.28991C38.4693 9.28991 38.4239 9.32087 38.4087 9.35184C38.3936 9.36732 38.3936 9.39829 38.3936 9.41378C38.3936 9.44474 38.3936 9.47571 38.3784 9.50667C38.3784 9.56861 38.3784 9.61506 38.3784 9.67699C38.3784 9.70796 38.3784 9.72344 38.3784 9.7544C38.3784 9.78537 38.3784 9.81634 38.3784 9.83182C38.3936 9.86279 38.4239 9.87827 38.4693 9.87827C38.5299 9.87827 38.545 9.8473 38.545 9.81634C38.545 9.72344 38.545 9.61506 38.5602 9.52216C38.5753 9.47571 38.5905 9.41377 38.5753 9.36733C38.5753 9.33636 38.545 9.30539 38.4844 9.30539C38.4996 9.28991 38.4996 9.30539 38.5147 9.30539Z" fill="white"/>
<path d="M40.1815 10.4357C40.1815 10.3892 40.1815 10.3583 40.1815 10.3118V10.3273C40.1815 10.2808 40.1966 10.2189 40.2118 10.1725V10.1879C40.2269 10.157 40.2421 10.126 40.2572 10.095C40.2572 10.095 40.2572 10.1105 40.2421 10.1105C40.2572 10.095 40.2572 10.0796 40.2724 10.0641C40.2724 10.0641 40.2572 10.0641 40.2572 10.0796C40.2724 10.0796 40.2724 10.0641 40.2875 10.0641H40.2724C40.2875 10.0641 40.3026 10.0641 40.3026 10.0641H40.2875C40.3026 10.0641 40.3178 10.0641 40.3329 10.0641H40.3178C40.3329 10.0641 40.3481 10.0796 40.3481 10.0796C40.3481 10.0796 40.3329 10.0796 40.3329 10.0641C40.3632 10.0796 40.3784 10.095 40.4087 10.126L40.3935 10.1105C40.4238 10.1415 40.439 10.1725 40.4541 10.2034C40.4541 10.2034 40.4541 10.1879 40.439 10.1879C40.4693 10.2499 40.4844 10.3118 40.4995 10.3737C40.4995 10.3892 40.4995 10.3892 40.5147 10.4047C40.5147 10.4202 40.5298 10.4202 40.5298 10.4357C40.545 10.4511 40.5601 10.4511 40.5904 10.4511C40.6056 10.4511 40.6359 10.4357 40.6359 10.4202C40.651 10.4047 40.651 10.3892 40.651 10.3582C40.6359 10.3118 40.6359 10.2654 40.6207 10.2189C40.6056 10.1879 40.5904 10.1415 40.5753 10.1105C40.545 10.0486 40.4995 9.98665 40.439 9.94021C40.4238 9.92472 40.4238 9.92472 40.4087 9.92472C40.3935 9.92472 40.3784 9.90924 40.3632 9.90924C40.3481 9.90924 40.3178 9.89375 40.3026 9.89375C40.2875 9.89375 40.2572 9.89375 40.2421 9.90924C40.2269 9.90924 40.2118 9.92472 40.1815 9.94021C40.1663 9.95569 40.1663 9.95569 40.1512 9.97117L40.136 9.98665C40.1209 10.0021 40.1058 10.0176 40.1058 10.0486C40.0906 10.0796 40.0755 10.126 40.0603 10.157C40.0452 10.2344 40.0452 10.3273 40.0452 10.4047C40.0452 10.4202 40.0603 10.4511 40.0755 10.4511C40.0906 10.4666 40.1058 10.4666 40.136 10.4666C40.1512 10.5131 40.1815 10.4821 40.1815 10.4357Z" fill="#121212"/>
<path d="M41.6805 10.3118C41.6805 10.2654 41.6805 10.2344 41.6805 10.1879V10.2034C41.6805 10.157 41.6956 10.095 41.7108 10.0486V10.0641C41.7259 10.0331 41.7411 10.0021 41.7562 9.97117C41.7562 9.97117 41.7562 9.98665 41.7411 9.98665C41.7562 9.97117 41.7562 9.95569 41.7713 9.94021C41.7713 9.94021 41.7562 9.94021 41.7562 9.95569C41.7713 9.95569 41.7713 9.94021 41.7865 9.94021H41.7713C41.7865 9.94021 41.8016 9.94021 41.8016 9.94021H41.7865C41.8016 9.94021 41.8168 9.94021 41.8319 9.94021H41.8168C41.8319 9.94021 41.8471 9.95569 41.8471 9.95569C41.8471 9.95569 41.8319 9.95569 41.8319 9.94021C41.8622 9.95569 41.8774 9.97117 41.9077 10.0021L41.8925 9.98665C41.9228 10.0176 41.9379 10.0486 41.9531 10.0796C41.9531 10.0796 41.9531 10.0641 41.9379 10.0641C41.9682 10.126 41.9834 10.1879 41.9985 10.2499C41.9985 10.2654 41.9985 10.2653 42.0137 10.2808C42.0137 10.2963 42.0288 10.2963 42.0288 10.3118C42.044 10.3273 42.0591 10.3273 42.0894 10.3273C42.1046 10.3273 42.1348 10.3118 42.1348 10.2963C42.15 10.2808 42.15 10.2654 42.15 10.2344C42.1348 10.1879 42.1348 10.1415 42.1197 10.095C42.1046 10.0641 42.0894 10.0176 42.0743 9.98665C42.044 9.92472 41.9985 9.86279 41.9379 9.81634C41.9228 9.80085 41.9228 9.80086 41.9077 9.80086C41.8925 9.80086 41.8774 9.78537 41.8622 9.78537C41.8471 9.78537 41.8168 9.76989 41.8016 9.76989C41.7865 9.76989 41.7562 9.76989 41.7411 9.78537C41.7259 9.78537 41.7108 9.80085 41.6805 9.81634C41.6653 9.83182 41.6653 9.83182 41.6502 9.84731L41.635 9.86279C41.6199 9.87827 41.6047 9.89376 41.6047 9.92472C41.5896 9.95569 41.5744 10.0021 41.5593 10.0331C41.5442 10.1105 41.5442 10.2034 41.5442 10.2808C41.5442 10.2963 41.5593 10.3273 41.5744 10.3273C41.5896 10.3428 41.6047 10.3428 41.635 10.3428C41.6502 10.3892 41.6805 10.3583 41.6805 10.3118Z" fill="#121212"/>
<path d="M40.8776 10.2963C40.8776 10.3118 40.8928 10.3428 40.8928 10.3583C40.9079 10.3737 40.9079 10.3892 40.9231 10.4202C40.9534 10.4512 40.9837 10.4821 41.014 10.4976C41.0442 10.5131 41.0594 10.5131 41.0897 10.5131C41.1048 10.5131 41.1351 10.5131 41.1503 10.4976C41.1654 10.4821 41.1957 10.4821 41.2109 10.4512C41.226 10.4357 41.2411 10.4202 41.2411 10.4047C41.2563 10.3737 41.2714 10.3273 41.2866 10.2963C41.2866 10.2808 41.2866 10.2654 41.2714 10.2499C41.2563 10.2344 41.2411 10.2344 41.2411 10.2189C41.226 10.2189 41.2108 10.2189 41.1957 10.2344C41.1806 10.2499 41.1806 10.2499 41.1654 10.2654C41.1654 10.2808 41.1654 10.2963 41.1503 10.3118V10.2963C41.1503 10.3118 41.1351 10.3273 41.12 10.3428C41.12 10.3428 41.12 10.3273 41.1351 10.3273C41.1351 10.3428 41.12 10.3428 41.1048 10.3583C41.1048 10.3583 41.12 10.3583 41.12 10.3428C41.1048 10.3428 41.1048 10.3583 41.0897 10.3583H41.1048C41.0897 10.3583 41.0897 10.3583 41.0745 10.3737H41.0897C41.0745 10.3737 41.0745 10.3737 41.0594 10.3737H41.0745C41.0594 10.3737 41.0594 10.3737 41.0442 10.3737H41.0594C41.0442 10.3737 41.0291 10.3583 41.0291 10.3583C41.0291 10.3583 41.0442 10.3583 41.0442 10.3737C41.0291 10.3583 41.014 10.3583 41.014 10.3428C41.014 10.3428 41.014 10.3583 41.0291 10.3583C41.014 10.3428 41.014 10.3273 40.9988 10.3118V10.3273C40.9837 10.3118 40.9837 10.2963 40.9837 10.2808V10.2963C40.9837 10.2808 40.9837 10.2654 40.9685 10.2499C40.9534 10.2344 40.9382 10.2344 40.9231 10.2344C40.9079 10.2344 40.8928 10.2499 40.8776 10.2499C40.8776 10.2654 40.8776 10.2808 40.8776 10.2963Z" fill="#121212"/>
<path d="M40.6655 10.7608C40.6806 10.8537 40.62 10.9466 40.5443 11.0086C40.4383 11.086 40.2565 11.1015 40.1354 11.0395C40.0293 10.9776 39.9839 10.7918 40.0748 10.6989C40.1808 10.5595 40.4231 10.5441 40.5746 10.637C40.62 10.6524 40.6655 10.6989 40.6655 10.7608Z" fill="#FD3535"/>
<path d="M41.5442 10.6834C41.5442 10.7144 41.5593 10.7453 41.5744 10.7763C41.635 10.8692 41.7562 10.9311 41.8622 10.9311C41.9682 10.9311 42.0743 10.9002 42.1348 10.8073C42.1954 10.7144 42.1954 10.575 42.1197 10.4976C41.9834 10.3583 41.6199 10.3892 41.5593 10.5905C41.5442 10.6369 41.5442 10.6679 41.5442 10.6834Z" fill="#FD3535"/>
<path d="M40.272 10.6989C40.2417 10.7608 40.1962 10.8227 40.166 10.9002C40.166 10.9156 40.166 10.9311 40.1811 10.9466C40.1962 10.9466 40.2114 10.9466 40.2265 10.9311C40.2568 10.8692 40.3023 10.8073 40.3326 10.7299C40.3326 10.7144 40.3326 10.6989 40.3174 10.6834C40.3023 10.6679 40.272 10.6834 40.272 10.6989Z" fill="#F99D1C"/>
<path d="M40.4691 10.6834C40.4388 10.7453 40.3934 10.8073 40.3631 10.8847C40.3631 10.9002 40.3631 10.9156 40.3783 10.9311C40.3934 10.9311 40.4085 10.9311 40.4237 10.9156C40.454 10.8537 40.4994 10.7918 40.5297 10.7144C40.5297 10.6989 40.5297 10.6834 40.5146 10.6679C40.4994 10.6679 40.4843 10.6679 40.4691 10.6834Z" fill="#F99D1C"/>
<path d="M41.7863 10.5595C41.756 10.6215 41.7106 10.6834 41.6803 10.7608C41.6803 10.7763 41.6803 10.7918 41.6954 10.8073C41.7106 10.8073 41.7257 10.8073 41.7408 10.7918C41.7711 10.7299 41.8166 10.6679 41.8469 10.5905C41.8469 10.575 41.8469 10.5595 41.8317 10.5441C41.8166 10.5441 41.8014 10.5441 41.7863 10.5595Z" fill="#F99D1C"/>
<path d="M41.9981 10.544C41.9678 10.606 41.9224 10.6679 41.8921 10.7453C41.8921 10.7608 41.8921 10.7763 41.9072 10.7918C41.9224 10.7918 41.9375 10.7918 41.9526 10.7763C41.9829 10.7144 42.0284 10.6524 42.0587 10.575C42.0587 10.5595 42.0587 10.544 42.0435 10.5286C42.0132 10.5286 41.9981 10.5286 41.9981 10.544Z" fill="#F99D1C"/>
<path d="M42.6798 6.54939C42.7101 6.56487 42.7404 6.58036 42.7707 6.59584C42.7858 6.61132 42.801 6.61132 42.8161 6.62681C42.8161 6.62681 42.8161 6.62681 42.8313 6.62681L42.8464 6.64229C42.8919 6.67325 42.9373 6.71971 42.9827 6.76615C42.9979 6.78164 42.9979 6.78163 43.013 6.79712L43.0282 6.8126C43.0433 6.82809 43.0736 6.85905 43.0888 6.89002C43.1191 6.93647 43.1645 6.98292 43.1948 7.04485C43.1948 7.06033 43.2099 7.07582 43.2099 7.0913C43.2099 7.0913 43.2099 7.10678 43.2251 7.10678V7.12227C43.2402 7.15323 43.2554 7.1842 43.2705 7.19968C43.3008 7.26161 43.316 7.32355 43.3311 7.37C43.3462 7.40096 43.3462 7.43193 43.3614 7.4629C43.3614 7.47838 43.3765 7.49386 43.3765 7.50935V7.52483V7.54031C43.3917 7.60225 43.4068 7.66418 43.4068 7.72611C43.422 7.84997 43.422 7.97384 43.422 8.11319C43.422 8.12867 43.422 8.14416 43.422 8.15964C43.422 8.17512 43.4371 8.1906 43.4371 8.1906C43.4523 8.1906 43.4523 8.20609 43.4674 8.20609C43.4977 8.20609 43.5129 8.17512 43.5129 8.15964C43.5129 8.03578 43.5128 7.89643 43.4977 7.77256C43.4826 7.6487 43.4674 7.50935 43.422 7.38548C43.3917 7.26162 43.3462 7.13775 43.2857 7.02937C43.2251 6.92098 43.1494 6.8126 43.0585 6.7197C42.9676 6.6268 42.8616 6.54939 42.7556 6.48745C42.7404 6.47197 42.7253 6.47198 42.7101 6.47198C42.695 6.45649 42.6647 6.47197 42.6495 6.48745C42.6495 6.51842 42.6495 6.54939 42.6798 6.54939Z" fill="white"/>
<path d="M41.5893 13.9349C41.7105 13.9194 41.8165 13.9039 41.9377 13.8884C42.0588 13.8729 42.18 13.842 42.286 13.811C42.392 13.78 42.5132 13.7336 42.6192 13.6871C42.7252 13.6407 42.8313 13.5787 42.9373 13.5168C43.0433 13.4549 43.1342 13.3929 43.2099 13.3155C43.3008 13.2381 43.3765 13.1452 43.4522 13.0523C43.528 12.9594 43.6037 12.851 43.6491 12.7272C43.7097 12.5878 43.7703 12.4485 43.8006 12.3091C43.8309 12.1698 43.846 12.0149 43.8612 11.8601C43.8763 11.7053 43.8612 11.5659 43.8612 11.4111C43.8612 11.3801 43.8612 11.3337 43.846 11.3027C43.846 11.2718 43.8157 11.2563 43.8006 11.2563C43.7703 11.2563 43.7552 11.2872 43.7552 11.3027C43.7703 11.4421 43.7703 11.5969 43.7703 11.7363C43.7703 11.7672 43.7703 11.8137 43.7703 11.8446V11.8601C43.7703 11.8756 43.7703 11.8756 43.7703 11.8911C43.7703 11.9066 43.7703 11.922 43.7703 11.953C43.7703 12.0304 43.7552 12.0924 43.74 12.1698C43.7249 12.2472 43.7097 12.3091 43.6946 12.3865C43.6946 12.402 43.6794 12.4175 43.6794 12.433V12.4485C43.6794 12.464 43.6794 12.464 43.6643 12.4794C43.6491 12.5104 43.634 12.5569 43.6188 12.5878C43.5886 12.6498 43.5583 12.7117 43.528 12.7581C43.5128 12.7891 43.4977 12.8046 43.4825 12.8356C43.4825 12.8356 43.4825 12.8356 43.4825 12.851L43.4674 12.8665C43.4522 12.882 43.4522 12.8975 43.4371 12.8975C43.3765 12.9904 43.2856 13.0833 43.2099 13.1607L43.1948 13.1762C43.1796 13.1917 43.1796 13.1917 43.1645 13.2072C43.1493 13.2226 43.119 13.2381 43.1039 13.2691C43.0585 13.3001 43.013 13.331 42.9676 13.3775C42.9221 13.4084 42.8767 13.4394 42.8161 13.4704C42.801 13.4704 42.7858 13.4858 42.7858 13.4858C42.7858 13.4858 42.7707 13.4858 42.7707 13.5013C42.7707 13.5013 42.7707 13.5013 42.7555 13.5013C42.7252 13.5168 42.7101 13.5323 42.6798 13.5323C42.5738 13.5787 42.4678 13.6252 42.3617 13.6562C42.3012 13.6716 42.2557 13.6871 42.1951 13.7026C42.1648 13.7026 42.1346 13.7181 42.1194 13.7181C42.1043 13.7181 42.0891 13.7181 42.074 13.7336H42.0588H42.0437C41.9377 13.7645 41.8165 13.78 41.6953 13.7955C41.665 13.7955 41.6347 13.7955 41.6045 13.811C41.5742 13.811 41.559 13.842 41.559 13.8574C41.5439 13.9194 41.559 13.9349 41.5893 13.9349Z" fill="white"/>
<path d="M43.2397 8.79445C43.1791 8.80993 43.1185 8.8409 43.0731 8.87186C43.0276 8.90283 42.9822 8.94928 42.9519 9.01121C42.5884 9.59957 42.7096 10.4357 43.2245 10.8692C43.27 10.9002 43.3306 10.9311 43.376 10.9466C43.4214 10.9466 43.482 10.9311 43.5275 10.9002C43.5578 10.8692 43.5729 10.8227 43.588 10.7763C43.588 10.7298 43.5729 10.6834 43.5578 10.6369C43.376 10.126 43.3003 9.56861 43.376 9.0267C43.3911 8.94928 43.3911 8.85638 43.3154 8.80993C43.27 8.79445 43.2548 8.79445 43.2397 8.79445Z" fill="white"/>
<path d="M38.9842 12.3865C39.0751 12.5414 39.1811 12.6807 39.3023 12.8046C39.4234 12.9285 39.5446 13.0523 39.6658 13.1607C39.8021 13.2691 39.9384 13.362 40.0898 13.4549C40.2413 13.5478 40.3928 13.6252 40.5442 13.6871C40.6957 13.7491 40.8623 13.811 41.0289 13.8575C41.044 13.8575 41.0743 13.8729 41.0895 13.8729C41.1198 13.8729 41.1349 13.8574 41.1349 13.842C41.1349 13.811 41.1198 13.7955 41.1046 13.7955C41.0592 13.78 41.0289 13.7645 40.9835 13.7645C40.9683 13.7645 40.938 13.7491 40.9229 13.7491C40.9077 13.7491 40.9077 13.7491 40.8926 13.7336C40.8926 13.7336 40.8926 13.7336 40.8774 13.7336H40.8623C40.7866 13.7026 40.7108 13.6717 40.62 13.6407C40.4685 13.5788 40.317 13.5013 40.1656 13.4239C40.0898 13.3775 40.0141 13.331 39.9535 13.2846C39.9535 13.2846 39.9384 13.2846 39.9384 13.2691C39.9232 13.2691 39.9232 13.2536 39.9081 13.2536C39.8929 13.2381 39.8778 13.2226 39.8627 13.2226C39.8324 13.1917 39.7869 13.1762 39.7566 13.1452C39.6203 13.0368 39.4992 12.9285 39.378 12.8046C39.3628 12.7891 39.3477 12.7736 39.3326 12.7581C39.3326 12.7581 39.3326 12.7581 39.3174 12.7427C39.3174 12.7272 39.3023 12.7272 39.3023 12.7117C39.272 12.6807 39.2417 12.6498 39.2265 12.6188C39.1811 12.5569 39.1205 12.4794 39.0751 12.402C39.0599 12.3865 39.0599 12.3711 39.0448 12.3556C39.0296 12.3401 38.9993 12.3246 38.9842 12.3401C38.9691 12.3401 38.9691 12.3711 38.9842 12.3865Z" fill="white"/>
<path d="M41.7407 6.08489C41.6044 6.08489 41.4681 6.08489 41.3318 6.10037C41.044 6.13134 40.7714 6.19327 40.4988 6.28617C40.1504 6.41004 39.8172 6.58035 39.5143 6.79711C39.166 7.06033 38.8782 7.40096 38.651 7.77256C38.439 8.12867 38.2875 8.53123 38.1966 8.9338C38.1057 9.35184 38.0603 9.76989 38.0906 10.1879C38.1057 10.606 38.1815 11.024 38.3026 11.4266C38.4238 11.8137 38.5904 12.1853 38.8176 12.5259C38.9388 12.7117 39.0751 12.8665 39.2265 13.0214C39.4234 13.2226 39.6355 13.393 39.8627 13.5633C40.1656 13.7645 40.4836 13.9349 40.832 14.0432C41.1804 14.1516 41.559 14.1826 41.9225 14.1361C42.1345 14.1052 42.3466 14.0432 42.5586 13.9658C42.8918 13.842 43.2099 13.6562 43.4674 13.393C43.7854 13.0678 43.952 12.6498 44.0278 12.2007C44.0581 12.015 44.0732 11.8292 44.0732 11.6434C44.0732 11.3956 44.0278 11.1634 43.9823 10.9156C43.9369 10.6834 43.8915 10.4511 43.846 10.2189C43.8006 10.0176 43.7703 9.81634 43.74 9.61506C43.6946 9.08863 43.7551 8.54672 43.7249 8.02029C43.6946 7.55579 43.6037 7.06033 43.2856 6.68874C43.0433 6.39455 42.6949 6.22424 42.3314 6.14682C42.1194 6.11586 41.9376 6.08489 41.7407 6.08489C41.6953 6.08489 41.665 6.13134 41.665 6.16231C41.665 6.20876 41.7105 6.22424 41.7407 6.23972C42.1042 6.25521 42.4677 6.31714 42.7858 6.50294C43.1039 6.68873 43.3311 6.9984 43.4371 7.35451C43.5885 7.88094 43.5431 8.43833 43.5431 8.98024C43.5431 9.21249 43.5431 9.46022 43.5734 9.69247C43.6037 9.89375 43.634 10.1105 43.6794 10.3118C43.7248 10.5286 43.7703 10.7608 43.8157 10.9931C43.8612 11.2253 43.8915 11.473 43.8915 11.7053C43.8915 12.0924 43.8157 12.4949 43.6491 12.8356C43.4825 13.1917 43.1947 13.4549 42.8615 13.6562C42.6192 13.7955 42.3466 13.8884 42.074 13.9503H42.0588C42.0437 13.9503 42.0285 13.9503 42.0285 13.9503C42.0134 13.9503 41.9831 13.9503 41.9679 13.9658C41.9376 13.9658 41.9074 13.9813 41.8922 13.9813C41.7105 14.0123 41.5287 14.0123 41.347 13.9968C40.9835 13.9658 40.6351 13.842 40.3019 13.6717C40.0293 13.5323 39.7718 13.3465 39.5446 13.1452C39.4537 13.0678 39.378 12.9904 39.2871 12.8975C39.2568 12.8665 39.2265 12.8356 39.1962 12.8046L39.1811 12.7891C39.1811 12.7891 39.1811 12.7891 39.166 12.7736C39.1508 12.7581 39.1508 12.7581 39.1357 12.7427C38.9236 12.4949 38.757 12.2007 38.6207 11.9066C38.4541 11.5505 38.3481 11.1634 38.2875 10.7608C38.2269 10.3582 38.2118 9.9402 38.2421 9.53764C38.2875 9.13508 38.3784 8.73251 38.5298 8.36092C38.6813 7.97384 38.9085 7.60224 39.1962 7.29258C39.4537 7.01388 39.7718 6.76615 40.1201 6.59584C40.2716 6.51842 40.4231 6.45648 40.5897 6.41004C40.6654 6.37907 40.7411 6.36359 40.8168 6.3481C40.8926 6.33262 40.9532 6.31714 41.0137 6.30166C41.2106 6.25521 41.4227 6.23972 41.6347 6.23972C41.6802 6.23972 41.7256 6.23972 41.771 6.23972C41.8165 6.23972 41.8468 6.19327 41.8468 6.16231C41.8165 6.10038 41.7862 6.08489 41.7407 6.08489Z" fill="#121212"/>
<path d="M40.1651 13.1143C40.1046 13.1143 40.0591 13.0678 40.044 13.0059C40.0288 12.9594 40.0591 12.8975 40.1046 12.882C40.1954 12.8665 40.2863 12.9594 40.256 13.0523C40.2409 13.0833 40.1954 13.1143 40.1651 13.1143Z" fill="white"/>
<path d="M40.6345 12.851C40.6042 12.851 40.5739 12.8356 40.5588 12.8201C40.5133 12.7736 40.5133 12.7117 40.5588 12.6652C40.589 12.6188 40.6496 12.6343 40.6799 12.6652C40.7102 12.6962 40.7405 12.7427 40.7102 12.8046C40.7102 12.8201 40.6648 12.851 40.6345 12.851Z" fill="white"/>
<path d="M42.3167 7.38548C42.2864 7.38548 42.2561 7.37 42.241 7.35451C42.1955 7.30806 42.1955 7.24613 42.241 7.19968C42.2712 7.15323 42.3318 7.16871 42.3621 7.19968C42.3924 7.23065 42.4227 7.2771 42.3924 7.33903C42.3924 7.36999 42.347 7.38548 42.3167 7.38548Z" fill="white"/>
<path d="M40.908 13.4239C40.802 13.4704 40.7263 13.3465 40.7565 13.2691C40.7868 13.2072 40.8777 13.1762 40.9232 13.2381C40.9383 13.2691 40.9534 13.3001 40.9534 13.3465C40.9686 13.362 40.9383 13.4084 40.908 13.4239Z" fill="white"/>
<path d="M42.8761 7.2771C42.8307 7.30806 42.7853 7.29258 42.755 7.24613C42.7247 7.21517 42.7095 7.15323 42.7398 7.12226C42.7701 7.06033 42.861 7.02937 42.9064 7.0913C42.9216 7.12227 42.9367 7.15323 42.9367 7.19968C42.9367 7.23065 42.9064 7.2771 42.8761 7.2771Z" fill="white"/>
<path d="M43.3461 12.3401C43.3007 12.3711 43.2553 12.3556 43.225 12.3091C43.1947 12.2782 43.1795 12.2162 43.2098 12.1853C43.2401 12.1233 43.331 12.0924 43.3764 12.1543C43.3916 12.1853 43.4067 12.2162 43.4067 12.2627C43.4067 12.2937 43.3764 12.3246 43.3461 12.3401Z" fill="white"/>
<path d="M42.1651 6.71892C42.1196 6.73433 42.0742 6.71893 42.0439 6.70352C42.0136 6.68812 42.0136 6.6419 42.0439 6.6111C42.0742 6.56488 42.1802 6.54948 42.2256 6.59569C42.2408 6.6265 42.2559 6.6419 42.2408 6.67271C42.2408 6.68812 42.2105 6.71892 42.1651 6.71892Z" fill="white"/>
<path d="M42.5739 10.0331C42.589 10.1415 42.6193 10.2499 42.6496 10.3582C42.6496 10.3737 42.6799 10.3892 42.7102 10.3892C42.7405 10.3737 42.7405 10.3582 42.7405 10.3273C42.7102 10.2499 42.695 10.1879 42.6799 10.1105V10.126C42.6799 10.095 42.6647 10.0641 42.6647 10.0331C42.6647 10.0021 42.6344 9.98665 42.6193 9.98665C42.589 9.98665 42.5739 10.0176 42.5739 10.0331Z" fill="white"/>
<path d="M42.7703 10.6524C42.8006 10.6989 42.8158 10.7453 42.8461 10.7763C42.8764 10.8073 42.8915 10.8537 42.9218 10.8847C42.9824 10.9466 43.043 11.0085 43.1036 11.055C43.1338 11.0705 43.1641 11.1014 43.2096 11.1169C43.2399 11.1324 43.2853 11.1479 43.3307 11.1479C43.361 11.1479 43.4065 11.1479 43.4368 11.1479C43.4822 11.1324 43.5125 11.1324 43.5579 11.1014C43.6185 11.0705 43.6791 11.0085 43.7094 10.9466C43.7094 10.9311 43.7094 10.9311 43.7245 10.9156C43.7245 10.9002 43.7245 10.8847 43.7245 10.8847C43.7245 10.8692 43.7094 10.8692 43.7094 10.8537C43.6942 10.8382 43.6639 10.8537 43.6488 10.8692C43.6488 10.8847 43.6337 10.9002 43.6185 10.9156C43.6185 10.9156 43.6185 10.9156 43.6034 10.9311L43.5882 10.9466C43.5882 10.9466 43.5882 10.9466 43.5731 10.9621L43.5579 10.9776C43.5428 10.9931 43.5276 10.9931 43.5125 11.0085C43.5125 11.0085 43.5125 11.0085 43.5276 11.0085C43.4973 11.024 43.4671 11.0395 43.4368 11.0395H43.4519C43.4216 11.0395 43.3913 11.055 43.361 11.0395H43.3762C43.3459 11.0395 43.3156 11.0395 43.2853 11.024C43.2853 11.024 43.2853 11.024 43.3004 11.024C43.2702 11.0085 43.2247 10.9931 43.1944 10.9776H43.1793C43.1641 10.9776 43.1641 10.9621 43.149 10.9621C43.1338 10.9466 43.1187 10.9311 43.1036 10.9311C43.0884 10.9156 43.0733 10.9002 43.0581 10.8847C43.0581 10.8847 43.0581 10.8847 43.043 10.8692C43.043 10.8692 43.0278 10.8537 43.0278 10.8382C42.9975 10.8073 42.9824 10.7763 42.9521 10.7298C42.9218 10.6834 42.8915 10.6369 42.8612 10.5905C42.8612 10.575 42.8461 10.575 42.8309 10.575C42.8158 10.575 42.8006 10.575 42.8006 10.575C42.7855 10.575 42.7855 10.5905 42.7855 10.606C42.7552 10.6369 42.7703 10.6524 42.7703 10.6524Z" fill="white"/>
</svg>
